<svg width="44" height="44" viewBox="0 0 44 44" fill="none" xmlns="http://www.w3.org/2000/svg">
<g clip-path="url(#clip0_4702_49261)">
<rect width="44" height="44" fill="#585858"/>
<rect x="-11" y="39" width="48" height="4" fill="#6C6B6B" stroke="black" stroke-width="2"/>
<rect width="48" height="20" transform="matrix(1 0 0 -1 -11 39)" fill="#50443E" stroke="black" stroke-width="2"/>
<rect width="12" height="16" transform="matrix(1 0 0 -1 25 35)" fill="black" fill-opacity="0.2" stroke="black" stroke-width="2"/>
<rect opacity="0.7" x="-10" y="30" width="34" height="2" fill="#B2A356" fill-opacity="0.4"/>
<rect x="9" y="25" width="4" height="7" fill="#EEC57A" stroke="black" stroke-width="2"/>
<rect x="-1" y="25" width="4" height="7" fill="#F9B433" stroke="black" stroke-width="2"/>
<path opacity="0.5" d="M1 7V21" stroke="black" stroke-width="2"/>
<path opacity="0.2" d="M21 20V38" stroke="black" stroke-width="2"/>
<path d="M-5 7H31L37 16V19H-11V16L-5 7Z" fill="#3D5043" stroke="black" stroke-width="2"/>
<rect x="25" y="39" width="12" height="4" fill="#3A3A3A" stroke="black" stroke-width="2"/>
<rect x="21" y="39" width="4" height="4" fill="#3A3A3A" stroke="black" stroke-width="2"/>
<path d="M29 25H33V43H29V25Z" fill="#E5C976" stroke="black" stroke-width="2"/>
<rect x="24" y="19" width="2" height="20" fill="black"/>
<rect opacity="0.5" x="26" y="8" width="4" height="2" fill="black"/>
<rect opacity="0.5" x="15" y="8" width="2" height="2" fill="black"/>
<rect opacity="0.5" x="13" y="10" width="2" height="2" fill="black"/>
<rect opacity="0.5" x="11" y="12" width="2" height="2" fill="black"/>
<rect opacity="0.5" x="24" y="8" width="2" height="11" fill="black"/>
</g>
<rect x="1" y="1" width="42" height="42" stroke="black" stroke-opacity="0.4" stroke-width="2"/>
<defs>
<clipPath id="clip0_4702_49261">
<rect width="44" height="44" fill="white"/>
</clipPath>
</defs>
</svg>
