<svg width="168" height="225" viewBox="0 0 168 225" fill="none" xmlns="http://www.w3.org/2000/svg">
<rect width="168" height="225" rx="12" fill="white"/>
<rect x="24" y="45" width="120" height="135" fill="black" fill-opacity="0.1"/>
<path d="M24 60H32.625L37.125 71.625L40.875 64.5L48 67.5L52.5 76.875L38.25 88.125V91.875L27 92.625H24V60Z" fill="url(#paint0_linear_4467_24574)"/>
<path d="M24 96V180H144V133.5C133.127 133.5 114.089 135.375 118.875 124.125C97.8982 186.332 27 163.875 27 96H24Z" fill="url(#paint1_linear_4467_24574)"/>
<path d="M36.375 45H53.625C55.875 47.5625 62.1 52.7812 69 53.1562C75.9 53.5312 81.625 52.875 83.625 52.5L91.875 50.625L93.75 52.5C79.6861 58.36 66.8474 63.8551 55.875 74.25L51.375 63.375L48 60.75L46.5 52.5H37.125L36.375 45Z" fill="url(#paint2_linear_4467_24574)"/>
<path d="M124.5 53.625L132 55.125L130.5 47.25L127.875 35.25L129 34.5L133.875 45.75L135.375 47.25L138 43.5L141.375 45V49.125L145.5 55.875L148.5 65.625L146.625 66L141.938 57L141.375 65.625L133.125 61.5H135L124.5 53.625Z" fill="url(#paint3_linear_4467_24574)"/>
<path d="M37.125 71.625L40.875 64.5L48 67.5L52.5 76.875L38.25 88.125V91.875C38.25 91.875 32.25 92.625 27.75 91.875C27.75 84.75 37.125 71.625 37.125 71.625Z" fill="url(#paint4_linear_4467_24574)"/>
<path d="M36.375 45H53.625C55.875 47.5625 62.1 52.7812 69 53.1562C75.9 53.5312 81.625 52.875 83.625 52.5L91.875 50.625L93.75 52.5C79.6861 58.36 66.8474 63.8551 55.875 74.25L51.375 63.375L48 60.75L46.5 52.5H37.125L36.375 45Z" fill="url(#paint5_linear_4467_24574)"/>
<path d="M150.117 50.4732L141.75 38.8107L145.153 39.4198L148.494 38.5303L155.488 44.2447L151.632 41.7777L148.743 44.5251L150.117 50.4732Z" fill="#4D6AB5" stroke="black" stroke-width="2"/>
<path d="M132.375 52.125L130.5 47.25L128.468 39.375M129 54.375L123.375 53.625L135.75 61.125H132.375L141.375 65.625V55.875L146.625 66.375L148.5 65.625L145.5 55.875L141.375 49.5V44.625L138.375 43.5L135.75 47.25L133.875 45.75L129 34.5L127.5 35.625L128.468 39.375M139.5 20.625L138.375 22.5L135.75 27L134.25 28.125M130.5 35.625L134.719 28.5L134.25 28.125M128.468 39.375L120 54.375M134.25 28.125L138 30.375V28.5L140.625 24.375L142.5 24M134.25 28.125L131.625 26.625L133.5 25.875L136.125 21.75L135.75 19.5" stroke="black" stroke-width="2"/>
<path d="M35.625 39.3751V30.0001L37.875 33.3751V41.6251L35.625 46.1251L36.75 49.5001L32.25 52.8751L28.125 52.5001L27.375 48.8133L30.375 44.3133L31.5909 44.1949L35.625 39.3751Z" fill="#D8AE70"/>
<path d="M59.625 78.3751H53.625L49.875 70.8751L53 67.8751L51.375 63.0001L48.375 61.5001L43.5 59.0626L42.375 58.5001L36.75 52.8751L46.875 52.1251L48.375 61.5001L51.375 63.0001L53 67.8751L55.5 75.3751L59.625 78.3751Z" fill="#D8AE70"/>
<path d="M30.375 34.8751L32.25 37.1251V34.1251L30.375 31.8751L28.5 33.3751C25.625 32.6251 27.6964 34.8751 21.75 33.3751C24.375 40.5001 28.75 36.6251 30.375 34.8751Z" fill="#D8AE70"/>
<path d="M30.375 44.3133L31.125 44.7515L35.625 39.3751V30.0001L37.875 33.3751V41.6251L34.875 47.6251L36.75 49.5001M30.375 44.3133L27.375 48.8133L28.125 52.5001L32.25 52.8751L36.75 49.5001M30.375 44.3133L34.875 43.8751L36.75 49.5001M39.375 57.0001L42.375 58.5001M48.375 61.5001L51.375 63.0001L53 67.8751M48.375 61.5001L46.875 52.1251L36.75 52.8751L42.375 58.5001M48.375 61.5001L43.5 59.0626M33.75 41.3841L30.375 37.8751L26.625 41.3841L14.25 39.3751L9 47.6251H11.25M11.25 47.6251L16.6601 43.3103L21.9101 45.5603C21.9101 45.5603 23.6499 52.0961 26.625 55.5001C29.4049 58.6807 35.625 61.5001 35.625 61.5001L48 67.1251L49.875 70.8751M11.25 47.6251V49.5001L10.5 52.1251L9 50.2501M17.625 59.0626L14.25 63.0001M42.375 58.5001L43.5 59.0626M42.375 58.5001L43.5 57.7501V59.0626M53 67.8751L55.5 75.3751L59.625 78.3751H53.625L49.875 70.8751M53 67.8751L49.875 70.8751M35.625 57.0001C37.125 57.7501 40.2375 60.0751 40.6875 63.3751C41.1375 66.6751 38.5 70.6251 37.125 71.6251L33 62.5314L38.25 64.8751M35.625 27.0001L37.1591 22.5L36.0682 25.875L37.1591 28.8751M37.1591 28.8751L37.875 25.125M37.1591 28.8751L38.25 30.0001M18.75 57.7501V61.5001L28.5 76.5001H26.625L12.1875 55.5001L13.125 54L14.25 55.5001M32.25 37.1251L30.375 34.8751C28.75 36.6251 24.375 40.5001 21.75 33.3751C27.6964 34.8751 25.625 32.6251 28.5 33.3751L30.375 31.8751L32.25 34.1251V37.1251Z" stroke="black" stroke-width="2"/>
<path d="M144 133.5V180H120M45.375 180H24V99.375M24 90V85.125M39.375 45H54M24 60.75V57" stroke="black" stroke-width="2"/>
<rect x="141" y="177" width="3" height="3" stroke="black" stroke-width="2"/>
<rect x="24" y="177" width="3" height="3" stroke="black" stroke-width="2"/>
<path d="M26.7965 116.25C26.7965 116.25 28.8755 149.625 43.1254 179.625" stroke="black" stroke-width="2"/>
<ellipse opacity="0.4" cx="88.5" cy="98.25" rx="10.5" ry="3.75" fill="url(#paint6_linear_4467_24574)"/>
<ellipse opacity="0.4" cx="87" cy="103.5" rx="21" ry="9.75" fill="url(#paint7_linear_4467_24574)"/>
<path d="M118.125 94.125C144 102 115.659 123.982 102 130.5C72.3748 145.5 26.6254 117.375 38.2498 91.875C37.4342 82.7597 52.9354 86.2794 65.9998 79.5003C89.9998 61.1253 117.75 55.125 121.233 66.8696C149.733 58.2443 154.875 100.125 118.125 94.125Z" fill="#D3D3D3"/>
<path opacity="0.4" d="M114 106.5C104.473 129.639 59.25 134.625 43.5139 104.995C42.9169 101.195 61.687 100.701 71.25 97.875C80.813 95.0487 77.988 94.3633 92.2496 94.125C102 94.125 107.625 97.5 107.625 97.5C116.25 97.5 118.217 101.25 119.25 104.995H111L114 106.5Z" fill="url(#paint8_linear_4467_24574)"/>
<path d="M78.375 120.375L69.0002 130.875L99.0001 132.75L113.626 116.25L105.75 113.625L109.5 117.75L102.375 116.25L105.75 121.125L99.0001 118.5L100.5 123.75L94.5 120L94.125 126.75L89.25 121.125L86.25 129L83.625 121.125L78.375 129L78.375 120.375Z" fill="#D3D3D3"/>
<path opacity="0.8" d="M103.5 90.375C103.5 90.375 103.126 100.875 89.25 100.875C75.3738 100.875 40.5 107.223 40.5 95.625C73.125 98.625 75.3738 81 89.25 81C103.126 81 103.5 90.375 103.5 90.375Z" fill="url(#paint9_linear_4467_24574)"/>
<path d="M93 39V45.375" stroke="black" stroke-width="2"/>
<path d="M96 39.75L96 45" stroke="black" stroke-width="2"/>
<path d="M99 42L99 44.25" stroke="black" stroke-width="2"/>
<path d="M90 36.75L90 45" stroke="black" stroke-width="2"/>
<path d="M87 36L87 45.75" stroke="black" stroke-width="2"/>
<path d="M84 35.25L84 45.75" stroke="black" stroke-width="2"/>
<path d="M81 34.5L81 45.75" stroke="black" stroke-width="2"/>
<path d="M32.3114 139.599L28.5612 136.373L30.4362 134.349L34.0979 137.669L32.3114 139.599Z" stroke="black" stroke-width="2"/>
<path d="M44.3114 80.3486L40.5612 77.1229L42.4362 75.0988L46.0979 78.4192L44.3114 80.3486Z" stroke="black" stroke-width="2"/>
<path d="M62.25 61.5L65.25 63" stroke="black" stroke-width="2"/>
<path d="M54 98.25L57.75 102" stroke="black" stroke-width="2"/>
<path d="M66.75 86.3679L69.1253 83.9998" stroke="black" stroke-width="2"/>
<path d="M34.5 82.5L37.5 84" stroke="black" stroke-width="2"/>
<path d="M89.25 98.25L89.25 102" stroke="black" stroke-width="2"/>
<path d="M40.5 83.25L43.5 84.75" stroke="black" stroke-width="2"/>
<path d="M149.25 106.5L149.25 110.25" stroke="black" stroke-width="2"/>
<path d="M152.25 54.75L150 55.5" stroke="black" stroke-width="2"/>
<path d="M120 34.5L117.75 35.25" stroke="black" stroke-width="2"/>
<path d="M138 34.5L135.75 35.25" stroke="black" stroke-width="2"/>
<path d="M30.75 84.75H33.75" stroke="black" stroke-width="2"/>
<path d="M54.4739 181.094L56.5268 178.906" stroke="black" stroke-width="2"/>
<path d="M114.441 128.77L116.125 141.148L107.943 143.34L104.523 141.901L100.932 145.562L100.489 139.469L107.214 137.961L111.25 137.057L110.493 129.271L114.441 128.77Z" fill="#B2724E"/>
<path d="M107.943 143.34L104.523 141.901L100.932 145.562L100.489 139.469L107.214 137.961M107.943 143.34L116.125 141.148L114.441 128.77L110.493 129.271L111.25 137.057L107.214 137.961M107.943 143.34L107.214 137.961" stroke="black" stroke-width="2"/>
<path d="M117.453 171.151L116.375 176.962L109.74 175.731L103.105 174.5L105.607 161.014L108.91 156.799L138.665 133.103L141.75 139.125L111.169 163.18L109.766 169.724L117.453 171.151Z" fill="#656565"/>
<path d="M109.766 169.724L117.453 171.151L116.375 176.962L109.74 175.731M109.766 169.724L111.169 163.18M109.766 169.724L109.74 175.731M105.607 161.014L108.91 156.799L138.665 133.103L141.75 139.125L111.169 163.18M105.607 161.014L103.105 174.5L109.74 175.731M105.607 161.014L111.169 163.18" stroke="black" stroke-width="2"/>
<path d="M117 177.688L119.25 176.25" stroke="black" stroke-width="2"/>
<path d="M21.75 89.25H24.75" stroke="black" stroke-width="2"/>
<path d="M21.75 99.75H24.75" stroke="black" stroke-width="2"/>
<path d="M24 60H27" stroke="black" stroke-width="2"/>
<path d="M78 33.75L78 44.25" stroke="black" stroke-width="2"/>
<path d="M78 86.25L78 90.75" stroke="black" stroke-width="2"/>
<path d="M81 84L81 90" stroke="black" stroke-width="2"/>
<path d="M81 92.25L81 95.25" stroke="black" stroke-width="2"/>
<path d="M78 93L78 95.25" stroke="black" stroke-width="2"/>
<path d="M75 94.5L75 96.75" stroke="black" stroke-width="2"/>
<path d="M84 91.5L84 95.25" stroke="black" stroke-width="2"/>
<path d="M87 91.5L87 95.25" stroke="black" stroke-width="2"/>
<path d="M90 92.25L90 95.25" stroke="black" stroke-width="2"/>
<path d="M84 82.5L84 89.25" stroke="black" stroke-width="2"/>
<path d="M87 81.75L87 89.25" stroke="black" stroke-width="2"/>
<path d="M90 81L90 90" stroke="black" stroke-width="2"/>
<path d="M93 81L93 90.75" stroke="black" stroke-width="2"/>
<path d="M96 81.75L96 91.5" stroke="black" stroke-width="2"/>
<path d="M120 76.5L120 86.25" stroke="black" stroke-width="2"/>
<path d="M123 84.75L123 90.75" stroke="black" stroke-width="2"/>
<path d="M126 83.25L126 90" stroke="black" stroke-width="2"/>
<path d="M129 81.75L129 89.25" stroke="black" stroke-width="2"/>
<path d="M132 80.25L132 88.5" stroke="black" stroke-width="2"/>
<path d="M135 78L135 87" stroke="black" stroke-width="2"/>
<path d="M99 83.25L99 93" stroke="black" stroke-width="2"/>
<path d="M102 86.25L102 94.5" stroke="black" stroke-width="2"/>
<path d="M75 88.5L75 92.25" stroke="black" stroke-width="2"/>
<path d="M72 90L72 94.5" stroke="black" stroke-width="2"/>
<path d="M75 33.75L75 42.75" stroke="black" stroke-width="2"/>
<path d="M72 34.5L72 41.25" stroke="black" stroke-width="2"/>
<path d="M112.5 91.125C112.5 91.125 137.625 91.875 137.625 82.125M141 88.875C132.75 97.5 117.75 94.125 117.75 94.125" stroke="black" stroke-width="2"/>
<path d="M84.1607 175.5L84.0859 175.721L85.5 178.125L89.625 175.5L91.125 178.125L81.75 182.625L84.0859 175.721L83.9112 175.424L78 173.625L81.75 171.75L83.9112 175.424L84.1607 175.5Z" fill="#657FC1"/>
<path d="M84.1607 175.5L81.75 182.625L91.125 178.125L89.625 175.5L85.5 178.125L81.75 171.75L78 173.625L84.1607 175.5Z" stroke="black" stroke-width="2"/>
<path d="M64.4352 80.5606C113.507 40.4356 151.436 73.2434 141.257 79.3203C146.365 84.1197 146.917 88.7261 145.567 91.4356M61.7568 78.3106C71.8286 67.9645 87.2569 62.1857 87.2569 62.1857M58.7569 76.2818C63.5554 70.4357 74.5602 64.0607 74.5602 64.0607M55.3818 74.9356C60.2568 69.6856 65.1318 66.3106 65.1318 66.3106M137.882 91.4356C141.132 94.8106 144.932 103.811 134.132 112.811M134.132 107.561C122.132 119.186 104.507 133.436 134.132 133.436M137.132 112.811C145.546 105.799 145.098 98.7874 142.953 94.4355M140.132 112.811C147.218 106.906 148.019 101.002 146.815 96.6855M144 67.125C147.375 68.4571 153.976 72.0303 151.876 76.2818C149.776 80.5334 147.759 79.6136 148.876 80.5606C153.376 84.375 150.662 90.6 146.815 93M144 133.436C146.75 133.332 152.55 131.85 153.75 126.75C155.25 120.375 141.514 115.125 134.132 119.625C126.75 124.125 137.132 126.75 142.953 124.5" stroke="black" stroke-width="2"/>
<path d="M119.25 62.625L119.792 63.375L124.125 69.375C123.5 72.5 122.175 78.825 121.875 79.125C121.575 79.425 118.25 83.5 116.625 85.5C114.875 85 111.375 83.85 111.375 83.25L108.75 75.375L106.875 73.875L105.375 70.875L110.625 71.25L115.5 78.375L120 70.875L119.792 63.375L117.375 64.5L114.75 61.875C115.375 61.25 116.625 59.925 116.625 59.625V56.25H117.375L119.25 62.625Z" fill="#667161"/>
<path d="M128.25 70.125L126 75.375L129.75 76.5L130.5 70.875L128.25 70.125Z" fill="#667161"/>
<path d="M102.375 69.375L100.5 65.25L99.375 64.5L98.625 70.875L102 72L102.375 69.375Z" fill="#667161"/>
<path d="M112.271 83.8575C108.521 78.2325 108.521 74.8575 108.521 74.8575L101.397 71.8574L98.7711 71.4824L98.7714 70.7323L99.1465 65.1075L99.8965 64.3575L102.146 69.8294L110.396 71.8574L115.271 78.2325M115.271 78.2325L120.147 70.7323L117.147 63.9824L114.897 62.1074L116.397 60.2324L116.772 56.8575L118.272 55.7324L119.022 62.8573L124.294 69.5552C124.294 69.5552 123.168 76.9382 121.271 79.7325M115.271 78.2325L113.627 78.9825M115.271 78.2325L117.521 77.2717M119.59 82.5599L116.528 86.1236L113.627 84.815M129.62 77.2717L130.646 70.7323L131.87 65.8573L129.62 62.8573L129.146 66.4229M127.212 66.4229L128.771 69.5552L125.771 75.5246L124.294 77.2717" stroke="black" stroke-width="2"/>
<circle cx="68.25" cy="174.75" r="5.5" fill="url(#paint10_linear_4467_24574)" stroke="black" stroke-width="2"/>
<circle cx="149.25" cy="113.25" r="3.25" fill="url(#paint11_linear_4467_24574)" stroke="black" stroke-width="2"/>
<path d="M53.8806 95.9355C-15.8694 95.9355 32.2676 92.1855 38.1304 92.1855C38.1304 84.631 36.2553 92.9355 53.1303 76.4355" stroke="black" stroke-width="2"/>
<path d="M89.8806 61.4355C97.2535 58.4431 113.881 54.3106 113.881 39.6854C113.881 26.5936 95.1306 29.5609 95.1306 37.4357C95.1306 45.3105 110.131 39.6855 110.131 39.6855" stroke="black" stroke-width="2"/>
<path d="M77.1305 62.9377C90.2555 55.4355 97.7556 57.3107 107.881 47.1857M110.13 39.6857C72.6304 59.5607 49.7556 22.8105 91.7553 37.4356" stroke="black" stroke-width="2"/>
<path d="M67.3811 65.1852C76.7561 58.8102 88.3811 55.0602 88.3811 55.0602M105.631 45.3105C43.7565 74.5605 34.3809 14.5604 89.8813 36.6854" stroke="black" stroke-width="2"/>
<path d="M55.3806 95.9355C72.183 95.9355 77.1306 81.3105 91.7556 81.3105C106.381 81.3105 110.627 101.561 84.2556 101.561C71.9339 101.561 78.3089 94.4355 90.6306 94.4355" stroke="black" stroke-width="2"/>
<path d="M98.8806 32.1854C117.631 20.5603 137.506 46.4354 105.256 58.0605C105.256 58.0605 109.756 57.3105 113.506 58.0605" stroke="black" stroke-width="2"/>
<path d="M53.5056 98.5605C59.1306 98.5605 64.0056 98.5605 69.6306 96.3105M109.756 100.811C100.381 119.936 72.4517 116.324 66.2556 108.311C61.23 101.811 71.8209 94.4355 90.6306 94.4355M49.7556 98.5605H29.8806M92.1306 94.4355C99.2556 94.4355 100.006 97.8105 88.3806 98.5605" stroke="black" stroke-width="2"/>
<path d="M39.375 111.375C75.75 158.625 124.434 121.118 114.256 115.041C119.364 110.242 119.916 105.636 118.565 102.926M36 112.5C55.125 151.5 141 176.625 141 176.625M32.25 114C38.1304 127.5 52.5 140.625 52.5 140.625M28.875 115.041C31.875 130.125 39.75 139.5 39.75 139.5" stroke="black" stroke-width="2"/>
<circle cx="89.25" cy="73.5" r="2" fill="white" stroke="black" stroke-width="2"/>
<circle cx="89.25" cy="98.25" r="2" fill="white" stroke="black" stroke-width="2"/>
<path d="M76.5002 77.6124C78.2339 75.8374 83.1415 72.0727 88.9028 71.2139" stroke="black" stroke-width="2"/>
<path d="M38.6251 108.899L30.0001 119.399L22.875 114.819L21.75 111.149L16.5 111.149L21.0001 106.274L26.625 110.258L30.0001 112.649L35.6251 106.274L38.6251 108.899Z" fill="url(#paint12_linear_4467_24574)"/>
<path d="M22.875 114.819L21.75 111.149L16.5 111.149L21.0001 106.274L26.625 110.258M22.875 114.819L30.0001 119.399L38.6251 108.899L35.6251 106.274L30.0001 112.649L26.625 110.258M22.875 114.819L26.625 110.258" stroke="black" stroke-width="2"/>
<path d="M51.5079 132.564L59.9185 123.415L62.5457 125.88L62.5458 128.245L64.3774 128.245L67.2659 130.998L59.1863 139.763L52.9476 137.843L51.5079 132.564Z" fill="#D8AE70"/>
<path d="M52.9476 137.843L51.5079 132.564L59.9185 123.415L62.5457 125.88L62.5458 128.245M52.9476 137.843L59.1863 139.763L67.2659 130.998L64.3774 128.245L62.5458 128.245M52.9476 137.843L62.5458 128.245" stroke="black" stroke-width="2"/>
<path d="M147 121.438L149.053 119.25" stroke="black" stroke-width="2"/>
<defs>
<linearGradient id="paint0_linear_4467_24574" x1="132" y1="53.25" x2="31.5" y2="171.75" gradientUnits="userSpaceOnUse">
<stop offset="0.0166667" stop-color="#205EFF"/>
<stop offset="1" stop-color="#550098" stop-opacity="0.27"/>
</linearGradient>
<linearGradient id="paint1_linear_4467_24574" x1="132" y1="53.25" x2="31.5" y2="171.75" gradientUnits="userSpaceOnUse">
<stop offset="0.0166667" stop-color="#205EFF"/>
<stop offset="1" stop-color="#550098" stop-opacity="0.27"/>
</linearGradient>
<linearGradient id="paint2_linear_4467_24574" x1="132" y1="53.25" x2="31.5" y2="171.75" gradientUnits="userSpaceOnUse">
<stop offset="0.0166667" stop-color="#205EFF"/>
<stop offset="1" stop-color="#550098" stop-opacity="0.27"/>
</linearGradient>
<linearGradient id="paint3_linear_4467_24574" x1="132" y1="53.25" x2="31.5" y2="171.75" gradientUnits="userSpaceOnUse">
<stop offset="0.0166667" stop-color="#205EFF"/>
<stop offset="1" stop-color="#550098" stop-opacity="0.27"/>
</linearGradient>
<linearGradient id="paint4_linear_4467_24574" x1="84" y1="45" x2="84" y2="180" gradientUnits="userSpaceOnUse">
<stop stop-color="white"/>
<stop offset="1" stop-opacity="0.32"/>
</linearGradient>
<linearGradient id="paint5_linear_4467_24574" x1="84" y1="45" x2="84" y2="180" gradientUnits="userSpaceOnUse">
<stop stop-color="white"/>
<stop offset="1" stop-opacity="0.32"/>
</linearGradient>
<linearGradient id="paint6_linear_4467_24574" x1="97.125" y1="97.125" x2="80.25" y2="99" gradientUnits="userSpaceOnUse">
<stop/>
<stop offset="1" stop-opacity="0"/>
</linearGradient>
<linearGradient id="paint7_linear_4467_24574" x1="104.25" y1="100.575" x2="70.3311" y2="103.474" gradientUnits="userSpaceOnUse">
<stop/>
<stop offset="1" stop-opacity="0"/>
</linearGradient>
<linearGradient id="paint8_linear_4467_24574" x1="125.781" y1="100.633" x2="38.8393" y2="113.595" gradientUnits="userSpaceOnUse">
<stop/>
<stop offset="1" stop-opacity="0"/>
</linearGradient>
<linearGradient id="paint9_linear_4467_24574" x1="97.875" y1="88.563" x2="47.3019" y2="94.4141" gradientUnits="userSpaceOnUse">
<stop/>
<stop offset="1" stop-opacity="0"/>
</linearGradient>
<linearGradient id="paint10_linear_4467_24574" x1="68.25" y1="170.25" x2="72.75" y2="186" gradientUnits="userSpaceOnUse">
<stop stop-color="#FF00A8"/>
<stop offset="1" stop-color="#00F0FF"/>
</linearGradient>
<linearGradient id="paint11_linear_4467_24574" x1="149.25" y1="111" x2="151.5" y2="118.875" gradientUnits="userSpaceOnUse">
<stop stop-color="#FFB800"/>
<stop offset="1" stop-color="#FF0000"/>
</linearGradient>
<linearGradient id="paint12_linear_4467_24574" x1="20.405" y1="105.075" x2="48" y2="117.375" gradientUnits="userSpaceOnUse">
<stop stop-color="#4EB29A"/>
<stop offset="1" stop-color="#1A16E9"/>
</linearGradient>
</defs>
</svg>
