<svg width="184" height="300" viewBox="0 0 184 300" fill="none" xmlns="http://www.w3.org/2000/svg">
<g filter="url(#filter0_d_4467_22289)">
<g clip-path="url(#clip0_4467_22289)">
<path d="M8 12L12 8L16 12V16H8V12Z" fill="white"/>
<path d="M16 12L20 8L24 12V16H16V12Z" fill="white"/>
<path d="M24 12L28 8L32 12V16H24V12Z" fill="white"/>
<path d="M32 12L36 8L40 12V16H32V12Z" fill="white"/>
<path d="M40 12L44 8L48 12V16H40V12Z" fill="white"/>
<path d="M48 12L52 8L56 12V16H48V12Z" fill="white"/>
<path d="M56 12L60 8L64 12V16H56V12Z" fill="white"/>
<path d="M64 12L68 8L72 12V16H64V12Z" fill="white"/>
<path d="M72 12L76 8L80 12V16H72V12Z" fill="white"/>
<path d="M80 12L84 8L88 12V16H80V12Z" fill="white"/>
<path d="M88 12L92 8L96 12V16H88V12Z" fill="white"/>
<path d="M96 12L100 8L104 12V16H96V12Z" fill="white"/>
<path d="M104 12L108 8L112 12V16H104V12Z" fill="white"/>
<path d="M112 12L116 8L120 12V16H112V12Z" fill="white"/>
<path d="M120 12L124 8L128 12V16H120V12Z" fill="white"/>
<path d="M128 12L132 8L136 12V16H128V12Z" fill="white"/>
<path d="M136 12L140 8L144 12V16H136V12Z" fill="white"/>
<path d="M144 12L148 8L152 12V16H144V12Z" fill="white"/>
<path d="M152 12L156 8L160 12V16H152V12Z" fill="white"/>
<path d="M160 12L164 8L168 12V16H160V12Z" fill="white"/>
</g>
<rect width="160" height="260" transform="translate(8 16)" fill="white"/>
<g clip-path="url(#clip1_4467_22289)">
<path d="M8 280L12 284L16 280V276H8V280Z" fill="white"/>
<path d="M16 280L20 284L24 280V276H16V280Z" fill="white"/>
<path d="M24 280L28 284L32 280V276H24V280Z" fill="white"/>
<path d="M32 280L36 284L40 280V276H32V280Z" fill="white"/>
<path d="M40 280L44 284L48 280V276H40V280Z" fill="white"/>
<path d="M48 280L52 284L56 280V276H48V280Z" fill="white"/>
<path d="M56 280L60 284L64 280V276H56V280Z" fill="white"/>
<path d="M64 280L68 284L72 280V276H64V280Z" fill="white"/>
<path d="M72 280L76 284L80 280V276H72V280Z" fill="white"/>
<path d="M80 280L84 284L88 280V276H80V280Z" fill="white"/>
<path d="M88 280L92 284L96 280V276H88V280Z" fill="white"/>
<path d="M96 280L100 284L104 280V276H96V280Z" fill="white"/>
<path d="M104 280L108 284L112 280V276H104V280Z" fill="white"/>
<path d="M112 280L116 284L120 280V276H112V280Z" fill="white"/>
<path d="M120 280L124 284L128 280V276H120V280Z" fill="white"/>
<path d="M128 280L132 284L136 280V276H128V280Z" fill="white"/>
<path d="M136 280L140 284L144 280V276H136V280Z" fill="white"/>
<path d="M144 280L148 284L152 280V276H144V280Z" fill="white"/>
<path d="M152 280L156 284L160 280V276H152V280Z" fill="white"/>
<path d="M160 280L164 284L168 280V276H160V280Z" fill="white"/>
</g>
</g>
<rect opacity="0.1" x="8" y="8" width="160" height="276" fill="url(#paint0_linear_4467_22289)"/>
<rect opacity="0.1" x="8" y="8" width="160" height="276" fill="url(#paint1_linear_4467_22289)"/>
<rect x="69" y="72" width="38" height="38" rx="19" fill="#484848"/>
<path opacity="0.9" d="M39.0291 153.632L40.4931 153.08L40.9491 142.328L39.4851 141.776V140.408H45.4131L48.2451 150.248H48.5571L51.3891 140.408H57.3651V141.776L55.9011 142.328L56.3571 153.08L57.8211 153.632V155H51.1491V153.464L52.8051 152.912L52.6131 145.016H52.4211C52.3251 145.448 52.1731 146.04 51.9651 146.792C51.7571 147.528 51.5731 148.16 51.4131 148.688L49.6131 154.016C49.2451 154.08 48.7811 154.152 48.2211 154.232C47.6771 154.312 47.2691 154.368 46.9971 154.4C46.9331 154.4 46.7651 154.312 46.4931 154.136L44.6931 148.688C44.4211 147.888 44.0851 146.664 43.6851 145.016H43.4691L43.2531 152.912L44.8851 153.464V155H39.0291V153.632ZM63.5127 155.288C62.1367 155.288 61.0327 154.832 60.2007 153.92C59.3847 153.008 58.9767 151.736 58.9767 150.104C58.9767 149.368 59.0327 148.656 59.1447 147.968C59.2727 147.264 59.4167 146.72 59.5767 146.336C59.7687 146.096 60.1607 145.768 60.7527 145.352C61.3607 144.92 61.9607 144.544 62.5527 144.224C63.1607 143.888 63.5767 143.72 63.8007 143.72C64.7447 143.72 65.5207 143.888 66.1287 144.224C66.7527 144.56 67.2247 145.152 67.5447 146C67.8807 146.832 68.0487 147.992 68.0487 149.48L62.3847 149.96C62.3847 150.904 62.5607 151.632 62.9127 152.144C63.2647 152.656 63.6727 152.912 64.1367 152.912L67.6647 152.744V154.136C67.0407 154.344 66.2487 154.592 65.2887 154.88C64.3447 155.152 63.7527 155.288 63.5127 155.288ZM64.8087 148.16C64.8087 147.376 64.7207 146.744 64.5447 146.264C64.3847 145.768 64.1287 145.488 63.7767 145.424C63.6967 145.408 63.5447 145.4 63.3207 145.4C63.1607 145.4 63.0567 145.408 63.0087 145.424C62.8807 145.472 62.7527 145.8 62.6247 146.408C62.4967 147 62.4167 147.696 62.3847 148.496L64.8087 148.16ZM73.2978 155.264C72.0818 155.264 71.1058 154.808 70.3698 153.896C69.6338 152.984 69.2658 151.72 69.2658 150.104C69.2658 149.384 69.3218 148.68 69.4338 147.992C69.5618 147.304 69.7058 146.768 69.8658 146.384C70.0578 146.128 70.4418 145.792 71.0178 145.376C71.6098 144.96 72.2018 144.592 72.7938 144.272C73.3858 143.936 73.7858 143.768 73.9938 143.768C74.4098 143.768 74.9058 143.816 75.4818 143.912C76.0578 144.008 76.5858 144.136 77.0658 144.296L76.9938 147.824H75.0978L74.6898 145.952C74.2418 145.712 73.8738 145.592 73.5858 145.592C73.4578 145.592 73.3618 145.624 73.2978 145.688C73.1218 145.832 72.9778 146.256 72.8658 146.96C72.7698 147.664 72.7218 148.528 72.7218 149.552C72.7218 150.56 72.8658 151.36 73.1538 151.952C73.4578 152.528 73.8578 152.816 74.3538 152.816H77.0658V154.208C75.0658 154.912 73.8098 155.264 73.2978 155.264ZM79.9212 155.264C79.8252 155.264 79.6252 155.136 79.3212 154.88C79.0172 154.608 78.8652 154.424 78.8652 154.328V141.392L77.9052 141.032V139.712C79.9372 139.392 81.0652 139.232 81.2892 139.232C81.3692 139.232 81.5372 139.368 81.7932 139.64C82.0492 139.896 82.1772 140.072 82.1772 140.168L82.0092 145.28L82.1772 145.304C82.6092 144.968 83.0652 144.632 83.5452 144.296C84.0252 143.96 84.3052 143.792 84.3852 143.792C85.6172 143.792 86.5372 144.064 87.1452 144.608C87.7532 145.152 88.0572 146.104 88.0572 147.464V153.08L89.0172 153.44V154.76C87.0652 155.096 86.0012 155.264 85.8252 155.264C85.7292 155.264 85.5212 155.136 85.2012 154.88C84.8972 154.608 84.7452 154.424 84.7452 154.328V147.488C84.7452 146.592 84.4172 146.144 83.7612 146.144C83.6812 146.144 83.4572 146.224 83.0892 146.384C82.7372 146.528 82.4332 146.664 82.1772 146.792V153.08L83.1372 153.44V154.76C81.2012 155.096 80.1292 155.264 79.9212 155.264ZM94.2286 155.264C92.9806 155.264 91.9886 154.808 91.2526 153.896C90.5166 152.968 90.1486 151.68 90.1486 150.032C90.1486 149.328 90.2046 148.632 90.3166 147.944C90.4446 147.256 90.5886 146.72 90.7486 146.336C91.0526 145.952 91.7406 145.432 92.8126 144.776C93.8846 144.104 94.5886 143.768 94.9246 143.768C95.0846 143.768 95.7726 143.864 96.9886 144.056C98.2206 144.248 99.1086 144.384 99.6526 144.464V153.104L100.613 153.464V154.784C98.6606 155.104 97.5806 155.264 97.3726 155.264C97.2926 155.264 97.1166 155.136 96.8446 154.88C96.5886 154.608 96.4606 154.432 96.4606 154.352V153.656C95.1006 154.728 94.3566 155.264 94.2286 155.264ZM94.8046 152.912C94.9006 152.912 95.4126 152.68 96.3406 152.216V146.12C96.0206 145.944 95.6766 145.784 95.3086 145.64C94.9406 145.48 94.6606 145.4 94.4686 145.4C94.2126 145.4 94.0126 145.744 93.8686 146.432C93.7406 147.12 93.6766 148.232 93.6766 149.768C93.6766 150.68 93.7886 151.432 94.0126 152.024C94.2526 152.616 94.5166 152.912 94.8046 152.912ZM103.575 155.264C103.479 155.264 103.271 155.136 102.951 154.88C102.647 154.608 102.495 154.424 102.495 154.328V145.928L101.535 145.568V144.248C103.503 143.944 104.599 143.792 104.823 143.792C104.903 143.792 105.063 143.928 105.303 144.2C105.559 144.456 105.687 144.624 105.687 144.704V145.352C106.103 145.032 106.575 144.696 107.103 144.344C107.631 143.976 107.935 143.792 108.015 143.792C109.231 143.792 110.143 144.072 110.751 144.632C111.375 145.176 111.687 146.12 111.687 147.464V153.08L112.647 153.44V154.76C110.695 155.096 109.631 155.264 109.455 155.264C109.359 155.264 109.151 155.136 108.831 154.88C108.527 154.608 108.375 154.424 108.375 154.328V147.488C108.375 146.592 108.047 146.144 107.391 146.144C107.263 146.144 106.735 146.36 105.807 146.792V153.08L106.767 153.44V154.76C104.831 155.096 103.767 155.264 103.575 155.264ZM115.67 155.264C115.574 155.264 115.358 155.128 115.022 154.856C114.702 154.568 114.542 154.376 114.542 154.28V145.904L113.582 145.568V144.248C115.582 143.944 116.686 143.792 116.894 143.792C116.974 143.792 117.15 143.928 117.422 144.2C117.71 144.472 117.854 144.656 117.854 144.752V153.128L118.814 153.44V154.76C116.926 155.096 115.878 155.264 115.67 155.264ZM114.35 139.304L117.11 139.16L117.614 139.784L117.398 142.112H114.566L114.35 139.304ZM123.993 155.264C122.777 155.264 121.801 154.808 121.065 153.896C120.329 152.984 119.961 151.72 119.961 150.104C119.961 149.384 120.017 148.68 120.129 147.992C120.257 147.304 120.401 146.768 120.561 146.384C120.753 146.128 121.137 145.792 121.713 145.376C122.305 144.96 122.897 144.592 123.489 144.272C124.081 143.936 124.481 143.768 124.689 143.768C125.105 143.768 125.601 143.816 126.177 143.912C126.753 144.008 127.281 144.136 127.761 144.296L127.689 147.824H125.793L125.385 145.952C124.937 145.712 124.569 145.592 124.281 145.592C124.153 145.592 124.057 145.624 123.993 145.688C123.817 145.832 123.673 146.256 123.561 146.96C123.465 147.664 123.417 148.528 123.417 149.552C123.417 150.56 123.561 151.36 123.849 151.952C124.153 152.528 124.553 152.816 125.049 152.816H127.761V154.208C125.761 154.912 124.505 155.264 123.993 155.264ZM133.953 155.264C133.553 155.264 132.769 155.224 131.601 155.144C130.433 155.08 129.545 155.016 128.937 154.952L128.985 151.088H130.593L131.097 152.984C131.481 153.112 131.937 153.24 132.465 153.368C132.993 153.48 133.369 153.536 133.593 153.536C133.705 153.536 133.817 153.392 133.929 153.104C134.041 152.816 134.097 152.592 134.097 152.432C134.097 152.112 133.977 151.856 133.737 151.664C133.513 151.456 133.097 151.192 132.489 150.872C132.137 150.696 131.865 150.552 131.673 150.44C130.633 149.848 129.921 149.32 129.537 148.856C129.169 148.392 128.985 147.848 128.985 147.224C128.985 146.712 129.041 146.296 129.153 145.976C129.457 145.56 129.953 145.096 130.641 144.584C131.329 144.056 131.825 143.792 132.129 143.792C132.737 143.792 133.521 143.816 134.48 143.864C135.457 143.896 136.169 143.936 136.617 143.984L136.545 147.272H134.745L134.577 145.952C134.433 145.904 134.033 145.824 133.377 145.712C132.721 145.584 132.313 145.52 132.153 145.52C132.025 145.52 131.929 145.584 131.865 145.712C131.817 145.84 131.793 146 131.793 146.192C131.793 146.448 131.937 146.688 132.225 146.912C132.513 147.136 132.801 147.336 133.089 147.512C133.393 147.688 133.593 147.8 133.689 147.848L134.169 148.136C135.113 148.664 135.849 149.16 136.377 149.624C136.921 150.072 137.193 150.6 137.193 151.208C137.193 151.752 137.129 152.216 137.001 152.6C136.713 153.096 136.225 153.664 135.537 154.304C134.865 154.944 134.337 155.264 133.953 155.264ZM68.3291 183.416C68.2491 183.416 68.0731 183.28 67.8011 183.008C67.5451 182.752 67.4171 182.576 67.4171 182.48L67.5611 178.328V169.928L66.6011 169.568V168.248C68.5851 167.928 69.6651 167.768 69.8411 167.768C69.9211 167.768 70.0891 167.904 70.3451 168.176C70.6171 168.432 70.7531 168.608 70.7531 168.704V169.4C72.1451 168.312 72.8891 167.768 72.9851 167.768C74.2171 167.768 75.2011 168.24 75.9371 169.184C76.6891 170.112 77.0651 171.408 77.0651 173.072C77.0651 173.792 77.0011 174.488 76.8731 175.16C76.7611 175.816 76.6171 176.336 76.4411 176.72C76.1371 177.088 75.4491 177.608 74.3771 178.28C73.3051 178.936 72.6091 179.264 72.2891 179.264C72.1291 179.264 71.6411 179.208 70.8251 179.096V181.208L71.8331 181.568V182.936C71.4811 183.016 70.8491 183.112 69.9371 183.224C69.0251 183.352 68.4891 183.416 68.3291 183.416ZM72.7211 177.632C73.2651 177.632 73.5371 176.224 73.5371 173.408C73.5371 172.768 73.4811 172.2 73.3691 171.704C73.2571 171.208 73.1131 170.824 72.9371 170.552C72.7611 170.264 72.5851 170.12 72.4091 170.12C72.3131 170.12 71.8011 170.352 70.8731 170.816V176.936C71.1931 177.112 71.5291 177.272 71.8811 177.416C72.2491 177.56 72.5291 177.632 72.7211 177.632ZM82.4981 179.264C81.2501 179.264 80.2581 178.808 79.5221 177.896C78.7861 176.968 78.4181 175.68 78.4181 174.032C78.4181 173.328 78.4741 172.632 78.5861 171.944C78.7141 171.256 78.8581 170.72 79.0181 170.336C79.3221 169.952 80.0101 169.432 81.0821 168.776C82.1541 168.104 82.8581 167.768 83.1941 167.768C83.3541 167.768 84.0421 167.864 85.2581 168.056C86.4901 168.248 87.3781 168.384 87.9221 168.464V177.104L88.8821 177.464V178.784C86.9301 179.104 85.8501 179.264 85.6421 179.264C85.5621 179.264 85.3861 179.136 85.1141 178.88C84.8581 178.608 84.7301 178.432 84.7301 178.352V177.656C83.3701 178.728 82.6261 179.264 82.4981 179.264ZM83.0741 176.912C83.1701 176.912 83.6821 176.68 84.6101 176.216V170.12C84.2901 169.944 83.9461 169.784 83.5781 169.64C83.2101 169.48 82.9301 169.4 82.7381 169.4C82.4821 169.4 82.2821 169.744 82.1381 170.432C82.0101 171.12 81.9461 172.232 81.9461 173.768C81.9461 174.68 82.0581 175.432 82.2821 176.024C82.5221 176.616 82.7861 176.912 83.0741 176.912ZM94.0282 179.264C92.8122 179.264 91.8362 178.808 91.1002 177.896C90.3642 176.984 89.9962 175.72 89.9962 174.104C89.9962 173.384 90.0522 172.68 90.1642 171.992C90.2922 171.304 90.4362 170.768 90.5962 170.384C90.7882 170.128 91.1722 169.792 91.7482 169.376C92.3402 168.96 92.9322 168.592 93.5242 168.272C94.1162 167.936 94.5162 167.768 94.7242 167.768C95.1402 167.768 95.6362 167.816 96.2122 167.912C96.7882 168.008 97.3162 168.136 97.7962 168.296L97.7242 171.824H95.8282L95.4202 169.952C94.9722 169.712 94.6042 169.592 94.3162 169.592C94.1882 169.592 94.0922 169.624 94.0282 169.688C93.8522 169.832 93.7082 170.256 93.5962 170.96C93.5002 171.664 93.4522 172.528 93.4522 173.552C93.4522 174.56 93.5962 175.36 93.8842 175.952C94.1882 176.528 94.5882 176.816 95.0842 176.816H97.7962V178.208C95.7962 178.912 94.5402 179.264 94.0282 179.264ZM100.676 179.264C100.58 179.264 100.38 179.136 100.076 178.88C99.7717 178.608 99.6197 178.424 99.6197 178.328V165.392L98.6357 165.032V163.712C100.684 163.392 101.812 163.232 102.02 163.232C102.1 163.232 102.268 163.368 102.524 163.64C102.78 163.896 102.908 164.072 102.908 164.168V177.08L103.796 177.44V178.76C101.908 179.096 100.868 179.264 100.676 179.264ZM106.916 179.264C106.836 179.264 106.66 179.168 106.388 178.976C106.116 178.784 105.94 178.632 105.86 178.52L103.34 173.96V172.688L105.932 169.76L104.516 169.568V168.056L108.74 167.84C108.82 167.84 108.932 168.04 109.076 168.44C109.22 168.84 109.292 169.112 109.292 169.256L105.98 172.856L108.788 177.08L109.796 177.44V178.76C108.036 179.096 107.076 179.264 106.916 179.264Z" fill="black"/>
<path opacity="0.8" d="M48.3409 218.119C47.7727 218.119 47.2798 218.024 46.8622 217.834C46.4474 217.641 46.1378 217.372 45.9332 217.028C45.7287 216.682 45.6563 216.278 45.7159 215.818H46.7727C46.7472 216.097 46.7955 216.338 46.9176 216.543C47.0426 216.747 47.2273 216.905 47.4716 217.016C47.7188 217.126 48.0142 217.182 48.358 217.182C48.7244 217.182 49.0682 217.118 49.3892 216.99C49.7131 216.862 49.9844 216.678 50.2031 216.436C50.4219 216.192 50.5568 215.901 50.608 215.562C50.6534 215.259 50.6193 214.989 50.5057 214.753C50.392 214.517 50.196 214.332 49.9176 214.199C49.642 214.062 49.2813 213.994 48.8352 213.994H48.1193L48.2727 213.057H48.9375C49.2841 213.057 49.6023 212.991 49.892 212.861C50.1818 212.73 50.4233 212.547 50.6165 212.311C50.8097 212.072 50.9318 211.793 50.983 211.472C51.0313 211.19 51.0114 210.946 50.9233 210.739C50.8381 210.528 50.6903 210.365 50.4801 210.249C50.2727 210.132 50.0085 210.074 49.6875 210.074C49.3807 210.074 49.0795 210.129 48.7841 210.24C48.4915 210.348 48.2415 210.506 48.0341 210.713C47.8267 210.918 47.696 211.165 47.642 211.455H46.6193C46.7074 211 46.9048 210.601 47.2116 210.257C47.5185 209.911 47.892 209.641 48.3324 209.447C48.7756 209.251 49.2443 209.153 49.7386 209.153C50.2869 209.153 50.7386 209.267 51.0938 209.494C51.4517 209.719 51.7074 210.014 51.8608 210.381C52.0142 210.744 52.0568 211.136 51.9886 211.557C51.9119 212.037 51.7145 212.443 51.3963 212.776C51.0781 213.108 50.6903 213.344 50.233 213.483V213.534C50.7699 213.628 51.1591 213.875 51.4006 214.276C51.6449 214.673 51.7216 215.148 51.6307 215.699C51.5511 216.193 51.3594 216.622 51.0554 216.986C50.7514 217.347 50.3665 217.626 49.9006 217.825C49.4347 218.021 48.9148 218.119 48.3409 218.119ZM54.8565 211.455L55.9815 214.131L57.9929 211.455H59.152L56.4929 214.727L58.0611 218H56.902L55.7599 215.46L53.7656 218H52.6065L55.2315 214.727L53.6974 211.455H54.8565ZM65.5131 218.136C64.8967 218.136 64.391 217.991 63.9961 217.702C63.604 217.412 63.3313 217.013 63.1779 216.504C63.0245 215.996 63.0018 215.415 63.1097 214.761C63.2177 214.097 63.4364 213.51 63.766 213.001C64.0955 212.49 64.506 212.091 64.9975 211.804C65.489 211.514 66.0302 211.369 66.6211 211.369C67.0813 211.369 67.4819 211.455 67.8228 211.625C68.1637 211.795 68.4265 212.034 68.6112 212.341C68.7958 212.648 68.8825 213.006 68.8711 213.415H67.8654C67.837 213.116 67.7092 212.852 67.4819 212.622C67.2575 212.389 66.9251 212.273 66.4847 212.273C66.0927 212.273 65.7319 212.375 65.4023 212.58C65.0728 212.781 64.7958 213.067 64.5714 213.436C64.3469 213.803 64.195 214.233 64.1154 214.727C64.0302 215.233 64.0373 215.673 64.1367 216.048C64.2362 216.423 64.4165 216.714 64.6779 216.922C64.9393 217.129 65.2688 217.233 65.6665 217.233C65.9279 217.233 66.1722 217.188 66.3995 217.097C66.6268 217.006 66.8285 216.875 67.0046 216.705C67.1808 216.534 67.32 216.33 67.4222 216.091H68.4279C68.3029 216.477 68.1026 216.825 67.8271 217.135C67.5515 217.442 67.2177 217.686 66.8256 217.868C66.4336 218.047 65.9961 218.136 65.5131 218.136ZM71.4833 218.153C71.0685 218.153 70.7049 218.075 70.3924 217.919C70.0799 217.76 69.8484 217.531 69.6978 217.233C69.5472 216.932 69.506 216.568 69.5742 216.142C69.6396 215.767 69.766 215.463 69.9535 215.23C70.141 214.994 70.3683 214.81 70.6353 214.676C70.9052 214.54 71.195 214.439 71.5046 214.374C71.8171 214.305 72.1282 214.253 72.4379 214.216C72.8413 214.165 73.1694 214.125 73.4222 214.097C73.6751 214.068 73.8654 214.021 73.9933 213.956C74.1211 213.891 74.1992 213.778 74.2276 213.619V213.585C74.2958 213.168 74.2404 212.842 74.0614 212.609C73.8825 212.374 73.5629 212.256 73.1026 212.256C72.6254 212.256 72.2262 212.361 71.9052 212.571C71.5842 212.781 71.3469 213.006 71.1935 213.244L70.3072 212.903C70.5401 212.506 70.8185 212.196 71.1424 211.974C71.4663 211.75 71.8058 211.594 72.1609 211.506C72.516 211.415 72.8583 211.369 73.1879 211.369C73.3981 211.369 73.6353 211.395 73.8995 211.446C74.1637 211.494 74.4109 211.595 74.641 211.749C74.8739 211.902 75.0487 212.134 75.1651 212.443C75.2844 212.753 75.3015 213.168 75.2163 213.688L74.5004 218H73.4947L73.6481 217.114H73.5969C73.506 217.256 73.3668 217.408 73.1793 217.57C72.9947 217.732 72.7603 217.869 72.4762 217.983C72.195 218.097 71.864 218.153 71.4833 218.153ZM71.7731 217.25C72.1708 217.25 72.5188 217.172 72.8171 217.016C73.1183 216.859 73.3597 216.658 73.5415 216.411C73.7262 216.163 73.8413 215.903 73.8867 215.631L74.0401 214.71C73.989 214.761 73.8881 214.808 73.7376 214.851C73.587 214.891 73.4165 214.926 73.2262 214.957C73.0387 214.986 72.8555 215.011 72.6765 215.034C72.5004 215.054 72.3583 215.071 72.2504 215.085C71.9833 215.119 71.729 215.175 71.4876 215.251C71.2489 215.325 71.0472 215.437 70.8825 215.588C70.7205 215.736 70.6197 215.937 70.5799 216.193C70.5202 216.543 70.604 216.807 70.8313 216.986C71.0586 217.162 71.3725 217.25 71.7731 217.25ZM76.3359 218L77.4268 211.455H78.3984L78.228 212.443H78.2962C78.4666 212.119 78.7266 211.857 79.076 211.655C79.4254 211.453 79.7962 211.352 80.1882 211.352C80.2649 211.352 80.3572 211.354 80.4652 211.357C80.5732 211.357 80.657 211.361 80.7166 211.369L80.5462 212.392C80.5121 212.384 80.4354 212.371 80.3161 212.354C80.1967 212.334 80.0689 212.324 79.9325 212.324C79.6143 212.324 79.3203 212.391 79.0504 212.524C78.7805 212.655 78.5547 212.837 78.3729 213.07C78.1911 213.3 78.0746 213.562 78.0234 213.858L77.3416 218H76.3359ZM83.0881 218.136C82.5398 218.136 82.0795 217.999 81.7074 217.723C81.3352 217.445 81.0724 217.053 80.919 216.547C80.7685 216.038 80.75 215.438 80.8636 214.744C80.9801 214.057 81.1974 213.46 81.5156 212.955C81.8366 212.449 82.2301 212.058 82.696 211.783C83.1619 211.507 83.6705 211.369 84.2216 211.369C84.6477 211.369 84.973 211.44 85.1974 211.582C85.4247 211.722 85.5895 211.881 85.6918 212.06C85.794 212.236 85.8722 212.381 85.9261 212.494H86.0114L86.5483 209.273H87.554L86.1051 218H85.1335L85.304 216.994H85.1847C85.0909 217.114 84.9602 217.264 84.7926 217.446C84.625 217.625 84.4034 217.786 84.1278 217.928C83.8551 218.067 83.5085 218.136 83.0881 218.136ZM83.3352 217.233C83.7386 217.233 84.0994 217.128 84.4176 216.918C84.7386 216.705 85.0057 216.411 85.2188 216.036C85.4318 215.658 85.5795 215.222 85.6619 214.727C85.7443 214.239 85.7415 213.811 85.6534 213.445C85.5653 213.075 85.3963 212.788 85.1463 212.584C84.8963 212.376 84.5653 212.273 84.1534 212.273C83.7301 212.273 83.3622 212.382 83.0497 212.601C82.7372 212.817 82.483 213.111 82.2869 213.483C82.0909 213.852 81.9545 214.267 81.8778 214.727C81.8011 215.193 81.7997 215.616 81.8736 215.997C81.9474 216.375 82.1037 216.676 82.3423 216.901C82.5838 217.122 82.9148 217.233 83.3352 217.233ZM93.5668 212.92L92.6122 213.176C92.5781 213.023 92.5185 212.875 92.4332 212.733C92.3509 212.588 92.223 212.47 92.0497 212.379C91.8793 212.286 91.6463 212.239 91.3509 212.239C90.9503 212.239 90.6023 212.331 90.3068 212.516C90.0114 212.697 89.8423 212.929 89.7997 213.21C89.7571 213.457 89.8139 213.655 89.9702 213.803C90.1264 213.95 90.3878 214.071 90.7543 214.165L91.6918 214.403C92.2543 214.548 92.6548 214.766 92.8935 215.055C93.1349 215.342 93.2173 215.716 93.1406 216.176C93.0781 216.551 92.9148 216.886 92.6506 217.182C92.3864 217.477 92.0483 217.71 91.6364 217.881C91.2244 218.051 90.7656 218.136 90.2599 218.136C89.5866 218.136 89.0554 217.991 88.6662 217.702C88.277 217.409 88.0696 216.986 88.044 216.432L89.0497 216.193C89.0753 216.543 89.2003 216.807 89.4247 216.986C89.652 217.162 89.9702 217.25 90.3793 217.25C90.848 217.25 91.2386 217.151 91.5511 216.952C91.8636 216.75 92.0412 216.509 92.0838 216.227C92.1264 215.997 92.081 215.805 91.9474 215.652C91.8168 215.499 91.5895 215.384 91.2656 215.307L90.2259 215.051C89.6463 214.906 89.2401 214.685 89.0071 214.386C88.777 214.088 88.7003 213.713 88.777 213.261C88.8395 212.892 88.9986 212.565 89.2543 212.281C89.5128 211.997 89.8366 211.774 90.2259 211.612C90.6179 211.45 91.044 211.369 91.5043 211.369C92.152 211.369 92.6364 211.511 92.9574 211.795C93.2784 212.077 93.4815 212.452 93.5668 212.92ZM97.7227 218L98.8136 211.455H99.8192L98.7283 218H97.7227ZM99.6232 210.347C99.4272 210.347 99.2582 210.28 99.1161 210.146C98.9769 210.013 98.9073 209.852 98.9073 209.665C98.9073 209.477 98.9769 209.317 99.1161 209.183C99.2582 209.05 99.4272 208.983 99.6232 208.983C99.8192 208.983 99.9869 209.05 100.126 209.183C100.268 209.317 100.339 209.477 100.339 209.665C100.339 209.852 100.268 210.013 100.126 210.146C99.9869 210.28 99.8192 210.347 99.6232 210.347ZM102.224 214.062L101.576 218H100.57L101.661 211.455H102.633L102.462 212.477H102.548C102.752 212.145 103.029 211.878 103.379 211.676C103.728 211.472 104.15 211.369 104.644 211.369C105.082 211.369 105.451 211.46 105.752 211.642C106.056 211.821 106.271 212.094 106.396 212.46C106.523 212.824 106.542 213.284 106.451 213.841L105.752 218H104.746L105.428 213.909C105.513 213.398 105.447 212.997 105.228 212.707C105.012 212.418 104.67 212.273 104.201 212.273C103.877 212.273 103.577 212.342 103.302 212.482C103.029 212.621 102.798 212.824 102.607 213.091C102.42 213.358 102.292 213.682 102.224 214.062ZM113.078 212.92L112.124 213.176C112.09 213.023 112.03 212.875 111.945 212.733C111.863 212.588 111.735 212.47 111.561 212.379C111.391 212.286 111.158 212.239 110.863 212.239C110.462 212.239 110.114 212.331 109.819 212.516C109.523 212.697 109.354 212.929 109.311 213.21C109.269 213.457 109.326 213.655 109.482 213.803C109.638 213.95 109.9 214.071 110.266 214.165L111.203 214.403C111.766 214.548 112.167 214.766 112.405 215.055C112.647 215.342 112.729 215.716 112.652 216.176C112.59 216.551 112.426 216.886 112.162 217.182C111.898 217.477 111.56 217.71 111.148 217.881C110.736 218.051 110.277 218.136 109.772 218.136C109.098 218.136 108.567 217.991 108.178 217.702C107.789 217.409 107.581 216.986 107.556 216.432L108.561 216.193C108.587 216.543 108.712 216.807 108.936 216.986C109.164 217.162 109.482 217.25 109.891 217.25C110.36 217.25 110.75 217.151 111.063 216.952C111.375 216.75 111.553 216.509 111.596 216.227C111.638 215.997 111.593 215.805 111.459 215.652C111.328 215.499 111.101 215.384 110.777 215.307L109.738 215.051C109.158 214.906 108.752 214.685 108.519 214.386C108.289 214.088 108.212 213.713 108.289 213.261C108.351 212.892 108.51 212.565 108.766 212.281C109.025 211.997 109.348 211.774 109.738 211.612C110.13 211.45 110.556 211.369 111.016 211.369C111.664 211.369 112.148 211.511 112.469 211.795C112.79 212.077 112.993 212.452 113.078 212.92ZM113.859 218L114.95 211.455H115.956L114.865 218H113.859ZM115.76 210.347C115.564 210.347 115.395 210.28 115.253 210.146C115.114 210.013 115.044 209.852 115.044 209.665C115.044 209.477 115.114 209.317 115.253 209.183C115.395 209.05 115.564 208.983 115.76 208.983C115.956 208.983 116.124 209.05 116.263 209.183C116.405 209.317 116.476 209.477 116.476 209.665C116.476 209.852 116.405 210.013 116.263 210.146C116.124 210.28 115.956 210.347 115.76 210.347ZM119.17 218.136C118.622 218.136 118.162 217.999 117.789 217.723C117.417 217.445 117.154 217.053 117.001 216.547C116.85 216.038 116.832 215.438 116.946 214.744C117.062 214.057 117.279 213.46 117.598 212.955C117.919 212.449 118.312 212.058 118.778 211.783C119.244 211.507 119.752 211.369 120.304 211.369C120.73 211.369 121.055 211.44 121.279 211.582C121.507 211.722 121.672 211.881 121.774 212.06C121.876 212.236 121.954 212.381 122.008 212.494H122.093L122.63 209.273H123.636L122.187 218H121.216L121.386 216.994H121.267C121.173 217.114 121.042 217.264 120.875 217.446C120.707 217.625 120.485 217.786 120.21 217.928C119.937 218.067 119.591 218.136 119.17 218.136ZM119.417 217.233C119.821 217.233 120.181 217.128 120.5 216.918C120.821 216.705 121.088 216.411 121.301 216.036C121.514 215.658 121.662 215.222 121.744 214.727C121.826 214.239 121.824 213.811 121.735 213.445C121.647 213.075 121.478 212.788 121.228 212.584C120.978 212.376 120.647 212.273 120.235 212.273C119.812 212.273 119.444 212.382 119.132 212.601C118.819 212.817 118.565 213.111 118.369 213.483C118.173 213.852 118.037 214.267 117.96 214.727C117.883 215.193 117.882 215.616 117.956 215.997C118.029 216.375 118.186 216.676 118.424 216.901C118.666 217.122 118.997 217.233 119.417 217.233ZM126.887 218.136C126.26 218.136 125.741 217.997 125.332 217.719C124.923 217.438 124.637 217.045 124.475 216.543C124.314 216.037 124.288 215.449 124.399 214.778C124.51 214.108 124.73 213.517 125.059 213.006C125.389 212.491 125.799 212.091 126.291 211.804C126.782 211.514 127.322 211.369 127.91 211.369C128.251 211.369 128.579 211.426 128.895 211.54C129.21 211.653 129.483 211.838 129.713 212.094C129.943 212.347 130.103 212.682 130.194 213.099C130.285 213.517 130.279 214.031 130.177 214.642L130.109 215.068H125.064L125.2 214.199H129.223C129.288 213.83 129.271 213.5 129.172 213.21C129.075 212.92 128.906 212.692 128.664 212.524C128.426 212.357 128.123 212.273 127.757 212.273C127.379 212.273 127.027 212.375 126.7 212.58C126.373 212.781 126.1 213.037 125.882 213.347C125.663 213.653 125.527 213.966 125.473 214.284L125.353 215.034C125.268 215.577 125.281 216.009 125.392 216.33C125.505 216.651 125.703 216.882 125.984 217.024C126.265 217.163 126.618 217.233 127.041 217.233C127.311 217.233 127.559 217.196 127.787 217.122C128.014 217.045 128.217 216.932 128.396 216.781C128.575 216.628 128.725 216.437 128.848 216.21L129.768 216.483C129.612 216.812 129.392 217.102 129.108 217.352C128.826 217.599 128.497 217.793 128.119 217.932C127.744 218.068 127.333 218.136 126.887 218.136Z" fill="black"/>
<defs>
<filter id="filter0_d_4467_22289" x="0" y="0" width="184" height="300" filterUnits="userSpaceOnUse" color-interpolation-filters="sRGB">
<feFlood flood-opacity="0" result="BackgroundImageFix"/>
<feColorMatrix in="SourceAlpha" type="matrix" values="0 0 0 0 0 0 0 0 0 0 0 0 0 0 0 0 0 0 127 0" result="hardAlpha"/>
<feOffset dx="4" dy="4"/>
<feGaussianBlur stdDeviation="6"/>
<feComposite in2="hardAlpha" operator="out"/>
<feColorMatrix type="matrix" values="0 0 0 0 0 0 0 0 0 0 0 0 0 0 0 0 0 0 0.25 0"/>
<feBlend mode="normal" in2="BackgroundImageFix" result="effect1_dropShadow_4467_22289"/>
<feBlend mode="normal" in="SourceGraphic" in2="effect1_dropShadow_4467_22289" result="shape"/>
</filter>
<linearGradient id="paint0_linear_4467_22289" x1="88" y1="8" x2="88" y2="284" gradientUnits="userSpaceOnUse">
<stop offset="0.08" stop-color="white" stop-opacity="0"/>
<stop offset="0.11" stop-opacity="0.5"/>
<stop offset="0.135" stop-color="white"/>
<stop offset="0.88" stop-color="white"/>
<stop offset="0.905" stop-opacity="0.5"/>
<stop offset="0.97" stop-color="white" stop-opacity="0"/>
</linearGradient>
<linearGradient id="paint1_linear_4467_22289" x1="168" y1="146" x2="8" y2="146" gradientUnits="userSpaceOnUse">
<stop stop-color="white" stop-opacity="0"/>
<stop offset="0.04"/>
<stop offset="0.96"/>
<stop offset="1" stop-color="white" stop-opacity="0"/>
</linearGradient>
<clipPath id="clip0_4467_22289">
<rect width="160" height="8" fill="white" transform="translate(8 8)"/>
</clipPath>
<clipPath id="clip1_4467_22289">
<rect width="160" height="8" fill="white" transform="matrix(1 0 0 -1 8 284)"/>
</clipPath>
</defs>
</svg>
