<svg width="184" height="300" viewBox="0 0 184 300" fill="none" xmlns="http://www.w3.org/2000/svg">
<g filter="url(#filter0_d_4635_54273)">
<g clip-path="url(#clip0_4635_54273)">
<path d="M8 12L12 8L16 12V16H8V12Z" fill="white"/>
<path d="M16 12L20 8L24 12V16H16V12Z" fill="white"/>
<path d="M24 12L28 8L32 12V16H24V12Z" fill="white"/>
<path d="M32 12L36 8L40 12V16H32V12Z" fill="white"/>
<path d="M40 12L44 8L48 12V16H40V12Z" fill="white"/>
<path d="M48 12L52 8L56 12V16H48V12Z" fill="white"/>
<path d="M56 12L60 8L64 12V16H56V12Z" fill="white"/>
<path d="M64 12L68 8L72 12V16H64V12Z" fill="white"/>
<path d="M72 12L76 8L80 12V16H72V12Z" fill="white"/>
<path d="M80 12L84 8L88 12V16H80V12Z" fill="white"/>
<path d="M88 12L92 8L96 12V16H88V12Z" fill="white"/>
<path d="M96 12L100 8L104 12V16H96V12Z" fill="white"/>
<path d="M104 12L108 8L112 12V16H104V12Z" fill="white"/>
<path d="M112 12L116 8L120 12V16H112V12Z" fill="white"/>
<path d="M120 12L124 8L128 12V16H120V12Z" fill="white"/>
<path d="M128 12L132 8L136 12V16H128V12Z" fill="white"/>
<path d="M136 12L140 8L144 12V16H136V12Z" fill="white"/>
<path d="M144 12L148 8L152 12V16H144V12Z" fill="white"/>
<path d="M152 12L156 8L160 12V16H152V12Z" fill="white"/>
<path d="M160 12L164 8L168 12V16H160V12Z" fill="white"/>
</g>
<rect width="160" height="260" transform="translate(8 16)" fill="white"/>
<g clip-path="url(#clip1_4635_54273)">
<path d="M8 280L12 284L16 280V276H8V280Z" fill="white"/>
<path d="M16 280L20 284L24 280V276H16V280Z" fill="white"/>
<path d="M24 280L28 284L32 280V276H24V280Z" fill="white"/>
<path d="M32 280L36 284L40 280V276H32V280Z" fill="white"/>
<path d="M40 280L44 284L48 280V276H40V280Z" fill="white"/>
<path d="M48 280L52 284L56 280V276H48V280Z" fill="white"/>
<path d="M56 280L60 284L64 280V276H56V280Z" fill="white"/>
<path d="M64 280L68 284L72 280V276H64V280Z" fill="white"/>
<path d="M72 280L76 284L80 280V276H72V280Z" fill="white"/>
<path d="M80 280L84 284L88 280V276H80V280Z" fill="white"/>
<path d="M88 280L92 284L96 280V276H88V280Z" fill="white"/>
<path d="M96 280L100 284L104 280V276H96V280Z" fill="white"/>
<path d="M104 280L108 284L112 280V276H104V280Z" fill="white"/>
<path d="M112 280L116 284L120 280V276H112V280Z" fill="white"/>
<path d="M120 280L124 284L128 280V276H120V280Z" fill="white"/>
<path d="M128 280L132 284L136 280V276H128V280Z" fill="white"/>
<path d="M136 280L140 284L144 280V276H136V280Z" fill="white"/>
<path d="M144 280L148 284L152 280V276H144V280Z" fill="white"/>
<path d="M152 280L156 284L160 280V276H152V280Z" fill="white"/>
<path d="M160 280L164 284L168 280V276H160V280Z" fill="white"/>
</g>
</g>
<rect opacity="0.1" x="8" y="8" width="160" height="276" fill="url(#paint0_linear_4635_54273)"/>
<rect opacity="0.1" x="8" y="8" width="160" height="276" fill="url(#paint1_linear_4635_54273)"/>
<rect x="70" y="73" width="36" height="36" rx="18" stroke="#8C18F9" stroke-width="2"/>
<path opacity="0.9" d="M61.417 155.24C61.369 155.24 61.209 155.16 60.937 155L58.225 149.312C57.665 148.224 57.105 146.808 56.545 145.064H56.329L56.569 152.048V152.912L58.201 153.464V155H52.321V153.632L53.785 153.08V142.328L52.321 141.776V140.408H57.889L61.009 147.08C61.361 147.8 61.793 149 62.305 150.68H62.521L62.305 143.288V142.496L60.673 141.944V140.408H66.529V141.776L65.065 142.328V154.856C64.585 154.904 63.953 154.968 63.169 155.048C62.385 155.144 61.801 155.208 61.417 155.24ZM72.0177 155.264C70.7857 155.264 69.8657 154.992 69.2577 154.448C68.6497 153.888 68.3457 152.928 68.3457 151.568V145.952L67.3857 145.592V144.272C69.3217 143.952 70.3777 143.792 70.5537 143.792C70.6497 143.792 70.8577 143.928 71.1777 144.2C71.4977 144.456 71.6577 144.624 71.6577 144.704V151.544C71.6577 152.456 71.9777 152.912 72.6177 152.912C72.7457 152.912 73.2577 152.696 74.1537 152.264V145.952L73.2177 145.592V144.272C75.1537 143.952 76.2177 143.792 76.4097 143.792C76.5057 143.792 76.7057 143.928 77.0097 144.2C77.3137 144.456 77.4657 144.624 77.4657 144.704V153.104L78.4257 153.464V154.784C76.4577 155.104 75.3697 155.264 75.1617 155.264C75.0817 155.264 74.9137 155.136 74.6577 154.88C74.4177 154.608 74.2977 154.432 74.2977 154.352V153.68C73.8657 154.016 73.3937 154.368 72.8817 154.736C72.3697 155.088 72.0817 155.264 72.0177 155.264ZM83.6103 155.264C82.3943 155.264 81.4183 154.808 80.6823 153.896C79.9463 152.984 79.5783 151.72 79.5783 150.104C79.5783 149.384 79.6343 148.68 79.7463 147.992C79.8743 147.304 80.0183 146.768 80.1783 146.384C80.3703 146.128 80.7543 145.792 81.3303 145.376C81.9223 144.96 82.5143 144.592 83.1063 144.272C83.6983 143.936 84.0983 143.768 84.3063 143.768C84.7223 143.768 85.2183 143.816 85.7943 143.912C86.3703 144.008 86.8983 144.136 87.3783 144.296L87.3063 147.824H85.4103L85.0023 145.952C84.5543 145.712 84.1863 145.592 83.8983 145.592C83.7703 145.592 83.6743 145.624 83.6103 145.688C83.4343 145.832 83.2903 146.256 83.1783 146.96C83.0823 147.664 83.0343 148.528 83.0343 149.552C83.0343 150.56 83.1783 151.36 83.4663 151.952C83.7703 152.528 84.1703 152.816 84.6663 152.816H87.3783V154.208C85.3783 154.912 84.1223 155.264 83.6103 155.264ZM90.2577 155.264C90.1617 155.264 89.9617 155.136 89.6577 154.88C89.3537 154.608 89.2017 154.424 89.2017 154.328V141.392L88.2177 141.032V139.712C90.2657 139.392 91.3937 139.232 91.6017 139.232C91.6817 139.232 91.8497 139.368 92.1057 139.64C92.3617 139.896 92.4897 140.072 92.4897 140.168V153.08L93.4497 153.44V154.76C91.5137 155.096 90.4497 155.264 90.2577 155.264ZM99.1143 155.288C97.7383 155.288 96.6343 154.832 95.8023 153.92C94.9863 153.008 94.5783 151.736 94.5783 150.104C94.5783 149.368 94.6343 148.656 94.7463 147.968C94.8743 147.264 95.0183 146.72 95.1783 146.336C95.3703 146.096 95.7623 145.768 96.3543 145.352C96.9623 144.92 97.5623 144.544 98.1543 144.224C98.7623 143.888 99.1783 143.72 99.4023 143.72C100.346 143.72 101.122 143.888 101.73 144.224C102.354 144.56 102.826 145.152 103.146 146C103.482 146.832 103.65 147.992 103.65 149.48L97.9863 149.96C97.9863 150.904 98.1623 151.632 98.5143 152.144C98.8663 152.656 99.2743 152.912 99.7383 152.912L103.266 152.744V154.136C102.642 154.344 101.85 154.592 100.89 154.88C99.9463 155.152 99.3543 155.288 99.1143 155.288ZM100.41 148.16C100.41 147.376 100.322 146.744 100.146 146.264C99.9863 145.768 99.7303 145.488 99.3783 145.424C99.2983 145.408 99.1463 145.4 98.9223 145.4C98.7623 145.4 98.6583 145.408 98.6103 145.424C98.4823 145.472 98.3543 145.8 98.2263 146.408C98.0983 147 98.0183 147.696 97.9863 148.496L100.41 148.16ZM108.947 155.264C107.699 155.264 106.707 154.808 105.971 153.896C105.235 152.968 104.867 151.68 104.867 150.032C104.867 149.328 104.923 148.632 105.035 147.944C105.163 147.256 105.307 146.72 105.467 146.336C105.771 145.952 106.459 145.432 107.531 144.776C108.603 144.104 109.307 143.768 109.643 143.768C109.803 143.768 110.491 143.864 111.707 144.056C112.939 144.248 113.827 144.384 114.371 144.464V153.104L115.331 153.464V154.784C113.379 155.104 112.299 155.264 112.091 155.264C112.011 155.264 111.835 155.136 111.563 154.88C111.307 154.608 111.179 154.432 111.179 154.352V153.656C109.819 154.728 109.075 155.264 108.947 155.264ZM109.523 152.912C109.619 152.912 110.131 152.68 111.059 152.216V146.12C110.739 145.944 110.395 145.784 110.027 145.64C109.659 145.48 109.379 145.4 109.187 145.4C108.931 145.4 108.731 145.744 108.587 146.432C108.459 147.12 108.395 148.232 108.395 149.768C108.395 150.68 108.507 151.432 108.731 152.024C108.971 152.616 109.235 152.912 109.523 152.912ZM118.293 155.264C118.197 155.264 117.989 155.136 117.669 154.88C117.365 154.608 117.213 154.424 117.213 154.328V145.904L116.253 145.568V144.248C118.189 143.944 119.261 143.792 119.469 143.792C119.549 143.792 119.725 143.928 119.997 144.2C120.285 144.472 120.429 144.656 120.429 144.752L120.405 145.76C121.605 144.368 122.269 143.672 122.397 143.672C122.765 143.672 123.341 143.784 124.125 144.008C124.317 144.52 124.413 144.88 124.413 145.088C124.413 145.28 124.261 145.688 123.957 146.312C123.653 146.936 123.461 147.264 123.381 147.296C123.349 147.28 123.149 147.192 122.781 147.032C122.429 146.856 122.141 146.768 121.917 146.768C121.821 146.768 121.605 146.832 121.269 146.96C120.933 147.072 120.685 147.176 120.525 147.272V152.864L122.061 153.296V154.712C119.773 155.08 118.517 155.264 118.293 155.264ZM56.3057 183.416C56.2257 183.416 56.0497 183.28 55.7777 183.008C55.5217 182.752 55.3937 182.576 55.3937 182.48L55.5377 178.328V169.928L54.5777 169.568V168.248C56.5617 167.928 57.6417 167.768 57.8177 167.768C57.8977 167.768 58.0657 167.904 58.3217 168.176C58.5937 168.432 58.7297 168.608 58.7297 168.704V169.4C60.1217 168.312 60.8657 167.768 60.9617 167.768C62.1937 167.768 63.1777 168.24 63.9137 169.184C64.6657 170.112 65.0417 171.408 65.0417 173.072C65.0417 173.792 64.9777 174.488 64.8497 175.16C64.7377 175.816 64.5937 176.336 64.4177 176.72C64.1137 177.088 63.4257 177.608 62.3537 178.28C61.2817 178.936 60.5857 179.264 60.2657 179.264C60.1057 179.264 59.6177 179.208 58.8017 179.096V181.208L59.8097 181.568V182.936C59.4577 183.016 58.8257 183.112 57.9137 183.224C57.0017 183.352 56.4657 183.416 56.3057 183.416ZM60.6977 177.632C61.2417 177.632 61.5137 176.224 61.5137 173.408C61.5137 172.768 61.4577 172.2 61.3457 171.704C61.2337 171.208 61.0897 170.824 60.9137 170.552C60.7377 170.264 60.5617 170.12 60.3857 170.12C60.2897 170.12 59.7777 170.352 58.8497 170.816V176.936C59.1697 177.112 59.5057 177.272 59.8577 177.416C60.2257 177.56 60.5057 177.632 60.6977 177.632ZM68.0267 179.264C67.9307 179.264 67.7307 179.136 67.4267 178.88C67.1227 178.608 66.9707 178.424 66.9707 178.328V165.392L66.0107 165.032V163.712C68.0427 163.392 69.1707 163.232 69.3947 163.232C69.4747 163.232 69.6427 163.368 69.8987 163.64C70.1547 163.896 70.2827 164.072 70.2827 164.168L70.1147 169.28L70.2827 169.304C70.7147 168.968 71.1707 168.632 71.6507 168.296C72.1307 167.96 72.4107 167.792 72.4907 167.792C73.7227 167.792 74.6427 168.064 75.2507 168.608C75.8587 169.152 76.1627 170.104 76.1627 171.464V177.08L77.1227 177.44V178.76C75.1707 179.096 74.1067 179.264 73.9307 179.264C73.8347 179.264 73.6267 179.136 73.3067 178.88C73.0027 178.608 72.8507 178.424 72.8507 178.328V171.488C72.8507 170.592 72.5227 170.144 71.8667 170.144C71.7867 170.144 71.5627 170.224 71.1947 170.384C70.8427 170.528 70.5387 170.664 70.2827 170.792V177.08L71.2427 177.44V178.76C69.3067 179.096 68.2347 179.264 68.0267 179.264ZM82.166 183.416C82.086 183.416 81.934 183.216 81.71 182.816C81.486 182.416 81.382 182.168 81.398 182.072L82.478 178.952L81.47 179.096C81.422 179.096 81.262 179.008 80.99 178.832L78.614 169.928L77.582 169.616V168.248C79.47 167.944 80.494 167.792 80.654 167.792C80.75 167.792 80.95 167.904 81.254 168.128C81.574 168.352 81.75 168.52 81.782 168.632L82.886 174.032L83.174 176.432H83.414L85.07 169.736L83.534 169.544V168.056L87.302 167.792C87.382 167.792 87.526 167.944 87.734 168.248C87.958 168.536 88.062 168.736 88.046 168.848L84.902 178.736L84.326 181.328L85.502 181.76L85.454 183.008C83.454 183.28 82.358 183.416 82.166 183.416ZM93.8627 179.264C93.4627 179.264 92.6787 179.224 91.5107 179.144C90.3427 179.08 89.4547 179.016 88.8467 178.952L88.8947 175.088H90.5027L91.0067 176.984C91.3907 177.112 91.8467 177.24 92.3747 177.368C92.9027 177.48 93.2787 177.536 93.5027 177.536C93.6147 177.536 93.7267 177.392 93.8387 177.104C93.9507 176.816 94.0067 176.592 94.0067 176.432C94.0067 176.112 93.8867 175.856 93.6467 175.664C93.4227 175.456 93.0067 175.192 92.3987 174.872C92.0467 174.696 91.7747 174.552 91.5827 174.44C90.5427 173.848 89.8307 173.32 89.4467 172.856C89.0787 172.392 88.8947 171.848 88.8947 171.224C88.8947 170.712 88.9507 170.296 89.0627 169.976C89.3667 169.56 89.8627 169.096 90.5507 168.584C91.2387 168.056 91.7347 167.792 92.0387 167.792C92.6467 167.792 93.4307 167.816 94.3907 167.864C95.3667 167.896 96.0787 167.936 96.5267 167.984L96.4547 171.272H94.6547L94.4867 169.952C94.3427 169.904 93.9427 169.824 93.2867 169.712C92.6307 169.584 92.2227 169.52 92.0627 169.52C91.9347 169.52 91.8387 169.584 91.7747 169.712C91.7267 169.84 91.7027 170 91.7027 170.192C91.7027 170.448 91.8467 170.688 92.1347 170.912C92.4227 171.136 92.7107 171.336 92.9987 171.512C93.3027 171.688 93.5027 171.8 93.5987 171.848L94.0787 172.136C95.0227 172.664 95.7587 173.16 96.2867 173.624C96.8307 174.072 97.1027 174.6 97.1027 175.208C97.1027 175.752 97.0387 176.216 96.9107 176.6C96.6227 177.096 96.1347 177.664 95.4467 178.304C94.7747 178.944 94.2467 179.264 93.8627 179.264ZM100.025 179.264C99.929 179.264 99.713 179.128 99.377 178.856C99.057 178.568 98.897 178.376 98.897 178.28V169.904L97.937 169.568V168.248C99.937 167.944 101.041 167.792 101.249 167.792C101.329 167.792 101.505 167.928 101.777 168.2C102.065 168.472 102.209 168.656 102.209 168.752V177.128L103.169 177.44V178.76C101.281 179.096 100.233 179.264 100.025 179.264ZM98.705 163.304L101.465 163.16L101.969 163.784L101.753 166.112H98.921L98.705 163.304ZM108.349 179.264C107.133 179.264 106.157 178.808 105.421 177.896C104.685 176.984 104.317 175.72 104.317 174.104C104.317 173.384 104.373 172.68 104.485 171.992C104.613 171.304 104.757 170.768 104.917 170.384C105.109 170.128 105.493 169.792 106.069 169.376C106.661 168.96 107.253 168.592 107.845 168.272C108.437 167.936 108.837 167.768 109.045 167.768C109.461 167.768 109.957 167.816 110.533 167.912C111.109 168.008 111.637 168.136 112.117 168.296L112.045 171.824H110.149L109.741 169.952C109.293 169.712 108.925 169.592 108.637 169.592C108.509 169.592 108.413 169.624 108.349 169.688C108.173 169.832 108.029 170.256 107.917 170.96C107.821 171.664 107.773 172.528 107.773 173.552C107.773 174.56 107.917 175.36 108.205 175.952C108.509 176.528 108.909 176.816 109.405 176.816H112.117V178.208C110.117 178.912 108.861 179.264 108.349 179.264ZM118.308 179.264C117.908 179.264 117.124 179.224 115.956 179.144C114.788 179.08 113.9 179.016 113.292 178.952L113.34 175.088H114.948L115.452 176.984C115.836 177.112 116.292 177.24 116.82 177.368C117.348 177.48 117.724 177.536 117.948 177.536C118.06 177.536 118.172 177.392 118.284 177.104C118.396 176.816 118.452 176.592 118.452 176.432C118.452 176.112 118.332 175.856 118.092 175.664C117.868 175.456 117.452 175.192 116.844 174.872C116.492 174.696 116.22 174.552 116.028 174.44C114.988 173.848 114.276 173.32 113.892 172.856C113.524 172.392 113.34 171.848 113.34 171.224C113.34 170.712 113.396 170.296 113.508 169.976C113.812 169.56 114.308 169.096 114.996 168.584C115.684 168.056 116.18 167.792 116.484 167.792C117.092 167.792 117.876 167.816 118.836 167.864C119.812 167.896 120.524 167.936 120.972 167.984L120.9 171.272H119.1L118.932 169.952C118.788 169.904 118.388 169.824 117.732 169.712C117.076 169.584 116.668 169.52 116.508 169.52C116.38 169.52 116.284 169.584 116.22 169.712C116.172 169.84 116.148 170 116.148 170.192C116.148 170.448 116.292 170.688 116.58 170.912C116.868 171.136 117.156 171.336 117.444 171.512C117.748 171.688 117.948 171.8 118.044 171.848L118.524 172.136C119.468 172.664 120.204 173.16 120.732 173.624C121.276 174.072 121.548 174.6 121.548 175.208C121.548 175.752 121.484 176.216 121.356 176.6C121.068 177.096 120.58 177.664 119.892 178.304C119.22 178.944 118.692 179.264 118.308 179.264Z" fill="black"/>
<path opacity="0.8" d="M48.3409 218.119C47.7727 218.119 47.2798 218.024 46.8622 217.834C46.4474 217.641 46.1378 217.372 45.9332 217.028C45.7287 216.682 45.6563 216.278 45.7159 215.818H46.7727C46.7472 216.097 46.7955 216.338 46.9176 216.543C47.0426 216.747 47.2273 216.905 47.4716 217.016C47.7188 217.126 48.0142 217.182 48.358 217.182C48.7244 217.182 49.0682 217.118 49.3892 216.99C49.7131 216.862 49.9844 216.678 50.2031 216.436C50.4219 216.192 50.5568 215.901 50.608 215.562C50.6534 215.259 50.6193 214.989 50.5057 214.753C50.392 214.517 50.196 214.332 49.9176 214.199C49.642 214.062 49.2813 213.994 48.8352 213.994H48.1193L48.2727 213.057H48.9375C49.2841 213.057 49.6023 212.991 49.892 212.861C50.1818 212.73 50.4233 212.547 50.6165 212.311C50.8097 212.072 50.9318 211.793 50.983 211.472C51.0313 211.19 51.0114 210.946 50.9233 210.739C50.8381 210.528 50.6903 210.365 50.4801 210.249C50.2727 210.132 50.0085 210.074 49.6875 210.074C49.3807 210.074 49.0795 210.129 48.7841 210.24C48.4915 210.348 48.2415 210.506 48.0341 210.713C47.8267 210.918 47.696 211.165 47.642 211.455H46.6193C46.7074 211 46.9048 210.601 47.2116 210.257C47.5185 209.911 47.892 209.641 48.3324 209.447C48.7756 209.251 49.2443 209.153 49.7386 209.153C50.2869 209.153 50.7386 209.267 51.0938 209.494C51.4517 209.719 51.7074 210.014 51.8608 210.381C52.0142 210.744 52.0568 211.136 51.9886 211.557C51.9119 212.037 51.7145 212.443 51.3963 212.776C51.0781 213.108 50.6903 213.344 50.233 213.483V213.534C50.7699 213.628 51.1591 213.875 51.4006 214.276C51.6449 214.673 51.7216 215.148 51.6307 215.699C51.5511 216.193 51.3594 216.622 51.0554 216.986C50.7514 217.347 50.3665 217.626 49.9006 217.825C49.4347 218.021 48.9148 218.119 48.3409 218.119ZM54.8565 211.455L55.9815 214.131L57.9929 211.455H59.152L56.4929 214.727L58.0611 218H56.902L55.7599 215.46L53.7656 218H52.6065L55.2315 214.727L53.6974 211.455H54.8565ZM65.5131 218.136C64.8967 218.136 64.391 217.991 63.9961 217.702C63.604 217.412 63.3313 217.013 63.1779 216.504C63.0245 215.996 63.0018 215.415 63.1097 214.761C63.2177 214.097 63.4364 213.51 63.766 213.001C64.0955 212.49 64.506 212.091 64.9975 211.804C65.489 211.514 66.0302 211.369 66.6211 211.369C67.0813 211.369 67.4819 211.455 67.8228 211.625C68.1637 211.795 68.4265 212.034 68.6112 212.341C68.7958 212.648 68.8825 213.006 68.8711 213.415H67.8654C67.837 213.116 67.7092 212.852 67.4819 212.622C67.2575 212.389 66.9251 212.273 66.4847 212.273C66.0927 212.273 65.7319 212.375 65.4023 212.58C65.0728 212.781 64.7958 213.067 64.5714 213.436C64.3469 213.803 64.195 214.233 64.1154 214.727C64.0302 215.233 64.0373 215.673 64.1367 216.048C64.2362 216.423 64.4165 216.714 64.6779 216.922C64.9393 217.129 65.2688 217.233 65.6665 217.233C65.9279 217.233 66.1722 217.188 66.3995 217.097C66.6268 217.006 66.8285 216.875 67.0046 216.705C67.1808 216.534 67.32 216.33 67.4222 216.091H68.4279C68.3029 216.477 68.1026 216.825 67.8271 217.135C67.5515 217.442 67.2177 217.686 66.8256 217.868C66.4336 218.047 65.9961 218.136 65.5131 218.136ZM71.4833 218.153C71.0685 218.153 70.7049 218.075 70.3924 217.919C70.0799 217.76 69.8484 217.531 69.6978 217.233C69.5472 216.932 69.506 216.568 69.5742 216.142C69.6396 215.767 69.766 215.463 69.9535 215.23C70.141 214.994 70.3683 214.81 70.6353 214.676C70.9052 214.54 71.195 214.439 71.5046 214.374C71.8171 214.305 72.1282 214.253 72.4379 214.216C72.8413 214.165 73.1694 214.125 73.4222 214.097C73.6751 214.068 73.8654 214.021 73.9933 213.956C74.1211 213.891 74.1992 213.778 74.2276 213.619V213.585C74.2958 213.168 74.2404 212.842 74.0614 212.609C73.8825 212.374 73.5629 212.256 73.1026 212.256C72.6254 212.256 72.2262 212.361 71.9052 212.571C71.5842 212.781 71.3469 213.006 71.1935 213.244L70.3072 212.903C70.5401 212.506 70.8185 212.196 71.1424 211.974C71.4663 211.75 71.8058 211.594 72.1609 211.506C72.516 211.415 72.8583 211.369 73.1879 211.369C73.3981 211.369 73.6353 211.395 73.8995 211.446C74.1637 211.494 74.4109 211.595 74.641 211.749C74.8739 211.902 75.0487 212.134 75.1651 212.443C75.2844 212.753 75.3015 213.168 75.2163 213.688L74.5004 218H73.4947L73.6481 217.114H73.5969C73.506 217.256 73.3668 217.408 73.1793 217.57C72.9947 217.732 72.7603 217.869 72.4762 217.983C72.195 218.097 71.864 218.153 71.4833 218.153ZM71.7731 217.25C72.1708 217.25 72.5188 217.172 72.8171 217.016C73.1183 216.859 73.3597 216.658 73.5415 216.411C73.7262 216.163 73.8413 215.903 73.8867 215.631L74.0401 214.71C73.989 214.761 73.8881 214.808 73.7376 214.851C73.587 214.891 73.4165 214.926 73.2262 214.957C73.0387 214.986 72.8555 215.011 72.6765 215.034C72.5004 215.054 72.3583 215.071 72.2504 215.085C71.9833 215.119 71.729 215.175 71.4876 215.251C71.2489 215.325 71.0472 215.437 70.8825 215.588C70.7205 215.736 70.6197 215.937 70.5799 216.193C70.5202 216.543 70.604 216.807 70.8313 216.986C71.0586 217.162 71.3725 217.25 71.7731 217.25ZM76.3359 218L77.4268 211.455H78.3984L78.228 212.443H78.2962C78.4666 212.119 78.7266 211.857 79.076 211.655C79.4254 211.453 79.7962 211.352 80.1882 211.352C80.2649 211.352 80.3572 211.354 80.4652 211.357C80.5732 211.357 80.657 211.361 80.7166 211.369L80.5462 212.392C80.5121 212.384 80.4354 212.371 80.3161 212.354C80.1967 212.334 80.0689 212.324 79.9325 212.324C79.6143 212.324 79.3203 212.391 79.0504 212.524C78.7805 212.655 78.5547 212.837 78.3729 213.07C78.1911 213.3 78.0746 213.562 78.0234 213.858L77.3416 218H76.3359ZM83.0881 218.136C82.5398 218.136 82.0795 217.999 81.7074 217.723C81.3352 217.445 81.0724 217.053 80.919 216.547C80.7685 216.038 80.75 215.438 80.8636 214.744C80.9801 214.057 81.1974 213.46 81.5156 212.955C81.8366 212.449 82.2301 212.058 82.696 211.783C83.1619 211.507 83.6705 211.369 84.2216 211.369C84.6477 211.369 84.973 211.44 85.1974 211.582C85.4247 211.722 85.5895 211.881 85.6918 212.06C85.794 212.236 85.8722 212.381 85.9261 212.494H86.0114L86.5483 209.273H87.554L86.1051 218H85.1335L85.304 216.994H85.1847C85.0909 217.114 84.9602 217.264 84.7926 217.446C84.625 217.625 84.4034 217.786 84.1278 217.928C83.8551 218.067 83.5085 218.136 83.0881 218.136ZM83.3352 217.233C83.7386 217.233 84.0994 217.128 84.4176 216.918C84.7386 216.705 85.0057 216.411 85.2188 216.036C85.4318 215.658 85.5795 215.222 85.6619 214.727C85.7443 214.239 85.7415 213.811 85.6534 213.445C85.5653 213.075 85.3963 212.788 85.1463 212.584C84.8963 212.376 84.5653 212.273 84.1534 212.273C83.7301 212.273 83.3622 212.382 83.0497 212.601C82.7372 212.817 82.483 213.111 82.2869 213.483C82.0909 213.852 81.9545 214.267 81.8778 214.727C81.8011 215.193 81.7997 215.616 81.8736 215.997C81.9474 216.375 82.1037 216.676 82.3423 216.901C82.5838 217.122 82.9148 217.233 83.3352 217.233ZM93.5668 212.92L92.6122 213.176C92.5781 213.023 92.5185 212.875 92.4332 212.733C92.3509 212.588 92.223 212.47 92.0497 212.379C91.8793 212.286 91.6463 212.239 91.3509 212.239C90.9503 212.239 90.6023 212.331 90.3068 212.516C90.0114 212.697 89.8423 212.929 89.7997 213.21C89.7571 213.457 89.8139 213.655 89.9702 213.803C90.1264 213.95 90.3878 214.071 90.7543 214.165L91.6918 214.403C92.2543 214.548 92.6548 214.766 92.8935 215.055C93.1349 215.342 93.2173 215.716 93.1406 216.176C93.0781 216.551 92.9148 216.886 92.6506 217.182C92.3864 217.477 92.0483 217.71 91.6364 217.881C91.2244 218.051 90.7656 218.136 90.2599 218.136C89.5866 218.136 89.0554 217.991 88.6662 217.702C88.277 217.409 88.0696 216.986 88.044 216.432L89.0497 216.193C89.0753 216.543 89.2003 216.807 89.4247 216.986C89.652 217.162 89.9702 217.25 90.3793 217.25C90.848 217.25 91.2386 217.151 91.5511 216.952C91.8636 216.75 92.0412 216.509 92.0838 216.227C92.1264 215.997 92.081 215.805 91.9474 215.652C91.8168 215.499 91.5895 215.384 91.2656 215.307L90.2259 215.051C89.6463 214.906 89.2401 214.685 89.0071 214.386C88.777 214.088 88.7003 213.713 88.777 213.261C88.8395 212.892 88.9986 212.565 89.2543 212.281C89.5128 211.997 89.8366 211.774 90.2259 211.612C90.6179 211.45 91.044 211.369 91.5043 211.369C92.152 211.369 92.6364 211.511 92.9574 211.795C93.2784 212.077 93.4815 212.452 93.5668 212.92ZM97.7227 218L98.8136 211.455H99.8192L98.7283 218H97.7227ZM99.6232 210.347C99.4272 210.347 99.2582 210.28 99.1161 210.146C98.9769 210.013 98.9073 209.852 98.9073 209.665C98.9073 209.477 98.9769 209.317 99.1161 209.183C99.2582 209.05 99.4272 208.983 99.6232 208.983C99.8192 208.983 99.9869 209.05 100.126 209.183C100.268 209.317 100.339 209.477 100.339 209.665C100.339 209.852 100.268 210.013 100.126 210.146C99.9869 210.28 99.8192 210.347 99.6232 210.347ZM102.224 214.062L101.576 218H100.57L101.661 211.455H102.633L102.462 212.477H102.548C102.752 212.145 103.029 211.878 103.379 211.676C103.728 211.472 104.15 211.369 104.644 211.369C105.082 211.369 105.451 211.46 105.752 211.642C106.056 211.821 106.271 212.094 106.396 212.46C106.523 212.824 106.542 213.284 106.451 213.841L105.752 218H104.746L105.428 213.909C105.513 213.398 105.447 212.997 105.228 212.707C105.012 212.418 104.67 212.273 104.201 212.273C103.877 212.273 103.577 212.342 103.302 212.482C103.029 212.621 102.798 212.824 102.607 213.091C102.42 213.358 102.292 213.682 102.224 214.062ZM113.078 212.92L112.124 213.176C112.09 213.023 112.03 212.875 111.945 212.733C111.863 212.588 111.735 212.47 111.561 212.379C111.391 212.286 111.158 212.239 110.863 212.239C110.462 212.239 110.114 212.331 109.819 212.516C109.523 212.697 109.354 212.929 109.311 213.21C109.269 213.457 109.326 213.655 109.482 213.803C109.638 213.95 109.9 214.071 110.266 214.165L111.203 214.403C111.766 214.548 112.167 214.766 112.405 215.055C112.647 215.342 112.729 215.716 112.652 216.176C112.59 216.551 112.426 216.886 112.162 217.182C111.898 217.477 111.56 217.71 111.148 217.881C110.736 218.051 110.277 218.136 109.772 218.136C109.098 218.136 108.567 217.991 108.178 217.702C107.789 217.409 107.581 216.986 107.556 216.432L108.561 216.193C108.587 216.543 108.712 216.807 108.936 216.986C109.164 217.162 109.482 217.25 109.891 217.25C110.36 217.25 110.75 217.151 111.063 216.952C111.375 216.75 111.553 216.509 111.596 216.227C111.638 215.997 111.593 215.805 111.459 215.652C111.328 215.499 111.101 215.384 110.777 215.307L109.738 215.051C109.158 214.906 108.752 214.685 108.519 214.386C108.289 214.088 108.212 213.713 108.289 213.261C108.351 212.892 108.51 212.565 108.766 212.281C109.025 211.997 109.348 211.774 109.738 211.612C110.13 211.45 110.556 211.369 111.016 211.369C111.664 211.369 112.148 211.511 112.469 211.795C112.79 212.077 112.993 212.452 113.078 212.92ZM113.859 218L114.95 211.455H115.956L114.865 218H113.859ZM115.76 210.347C115.564 210.347 115.395 210.28 115.253 210.146C115.114 210.013 115.044 209.852 115.044 209.665C115.044 209.477 115.114 209.317 115.253 209.183C115.395 209.05 115.564 208.983 115.76 208.983C115.956 208.983 116.124 209.05 116.263 209.183C116.405 209.317 116.476 209.477 116.476 209.665C116.476 209.852 116.405 210.013 116.263 210.146C116.124 210.28 115.956 210.347 115.76 210.347ZM119.17 218.136C118.622 218.136 118.162 217.999 117.789 217.723C117.417 217.445 117.154 217.053 117.001 216.547C116.85 216.038 116.832 215.438 116.946 214.744C117.062 214.057 117.279 213.46 117.598 212.955C117.919 212.449 118.312 212.058 118.778 211.783C119.244 211.507 119.752 211.369 120.304 211.369C120.73 211.369 121.055 211.44 121.279 211.582C121.507 211.722 121.672 211.881 121.774 212.06C121.876 212.236 121.954 212.381 122.008 212.494H122.093L122.63 209.273H123.636L122.187 218H121.216L121.386 216.994H121.267C121.173 217.114 121.042 217.264 120.875 217.446C120.707 217.625 120.485 217.786 120.21 217.928C119.937 218.067 119.591 218.136 119.17 218.136ZM119.417 217.233C119.821 217.233 120.181 217.128 120.5 216.918C120.821 216.705 121.088 216.411 121.301 216.036C121.514 215.658 121.662 215.222 121.744 214.727C121.826 214.239 121.824 213.811 121.735 213.445C121.647 213.075 121.478 212.788 121.228 212.584C120.978 212.376 120.647 212.273 120.235 212.273C119.812 212.273 119.444 212.382 119.132 212.601C118.819 212.817 118.565 213.111 118.369 213.483C118.173 213.852 118.037 214.267 117.96 214.727C117.883 215.193 117.882 215.616 117.956 215.997C118.029 216.375 118.186 216.676 118.424 216.901C118.666 217.122 118.997 217.233 119.417 217.233ZM126.887 218.136C126.26 218.136 125.741 217.997 125.332 217.719C124.923 217.438 124.637 217.045 124.475 216.543C124.314 216.037 124.288 215.449 124.399 214.778C124.51 214.108 124.73 213.517 125.059 213.006C125.389 212.491 125.799 212.091 126.291 211.804C126.782 211.514 127.322 211.369 127.91 211.369C128.251 211.369 128.579 211.426 128.895 211.54C129.21 211.653 129.483 211.838 129.713 212.094C129.943 212.347 130.103 212.682 130.194 213.099C130.285 213.517 130.279 214.031 130.177 214.642L130.109 215.068H125.064L125.2 214.199H129.223C129.288 213.83 129.271 213.5 129.172 213.21C129.075 212.92 128.906 212.692 128.664 212.524C128.426 212.357 128.123 212.273 127.757 212.273C127.379 212.273 127.027 212.375 126.7 212.58C126.373 212.781 126.1 213.037 125.882 213.347C125.663 213.653 125.527 213.966 125.473 214.284L125.353 215.034C125.268 215.577 125.281 216.009 125.392 216.33C125.505 216.651 125.703 216.882 125.984 217.024C126.265 217.163 126.618 217.233 127.041 217.233C127.311 217.233 127.559 217.196 127.787 217.122C128.014 217.045 128.217 216.932 128.396 216.781C128.575 216.628 128.725 216.437 128.848 216.21L129.768 216.483C129.612 216.812 129.392 217.102 129.108 217.352C128.826 217.599 128.497 217.793 128.119 217.932C127.744 218.068 127.333 218.136 126.887 218.136Z" fill="black"/>
<rect width="75" height="15" transform="translate(50.5 221)" fill="#FF8181"/>
<path opacity="0.8" d="M59.0227 227H57.983C57.9716 226.696 57.9091 226.429 57.7955 226.199C57.6818 225.969 57.5284 225.776 57.3352 225.619C57.1449 225.46 56.9261 225.341 56.679 225.261C56.4318 225.182 56.1676 225.142 55.8864 225.142C55.3466 225.142 54.8352 225.28 54.3523 225.555C53.8693 225.828 53.456 226.23 53.1122 226.761C52.7685 227.29 52.5341 227.937 52.4091 228.705C52.2841 229.449 52.3026 230.075 52.4645 230.584C52.6264 231.092 52.8949 231.477 53.2699 231.739C53.6449 232 54.0909 232.131 54.608 232.131C54.9063 232.131 55.1989 232.091 55.4858 232.011C55.7756 231.932 56.0455 231.814 56.2955 231.658C56.5483 231.499 56.7727 231.304 56.9688 231.074C57.1676 230.841 57.3239 230.574 57.4375 230.273H58.4943C58.3381 230.719 58.1264 231.118 57.8594 231.47C57.5952 231.822 57.2898 232.122 56.9432 232.369C56.5966 232.614 56.223 232.8 55.8224 232.928C55.4219 233.055 55.0057 233.119 54.5739 233.119C53.8182 233.119 53.1747 232.935 52.6435 232.565C52.1151 232.193 51.7372 231.668 51.5099 230.989C51.2855 230.307 51.25 229.5 51.4034 228.568C51.5568 227.659 51.8509 226.875 52.2855 226.216C52.7202 225.554 53.2528 225.045 53.8835 224.69C54.5142 224.332 55.1989 224.153 55.9375 224.153C56.3807 224.153 56.7884 224.217 57.1605 224.345C57.5327 224.473 57.8565 224.661 58.1321 224.908C58.4077 225.152 58.6222 225.45 58.7756 225.803C58.9318 226.152 59.0142 226.551 59.0227 227ZM62.3072 233.136C61.7049 233.136 61.2006 232.993 60.7944 232.706C60.3881 232.419 60.1012 232.017 59.9336 231.5C59.7688 230.983 59.7418 230.381 59.8526 229.693C59.9606 229.023 60.1751 228.439 60.4961 227.942C60.82 227.442 61.2219 227.055 61.7021 226.783C62.185 226.507 62.7163 226.369 63.2958 226.369C63.8981 226.369 64.4009 226.514 64.8043 226.804C65.2106 227.091 65.4975 227.494 65.6651 228.014C65.8327 228.531 65.8612 229.136 65.7504 229.83C65.6424 230.494 65.4251 231.075 65.0984 231.572C64.7745 232.067 64.3725 232.452 63.8924 232.727C63.4151 233 62.8867 233.136 62.3072 233.136ZM62.3242 232.233C62.7844 232.233 63.1836 232.115 63.5217 231.879C63.8626 231.643 64.1381 231.332 64.3484 230.946C64.5614 230.56 64.7049 230.142 64.7788 229.693C64.8469 229.267 64.8441 228.871 64.7702 228.504C64.6964 228.135 64.5387 227.838 64.2972 227.614C64.0558 227.386 63.7163 227.273 63.2788 227.273C62.8185 227.273 62.4165 227.392 62.0728 227.631C61.7319 227.869 61.4563 228.183 61.2461 228.572C61.0359 228.962 60.8952 229.381 60.8242 229.83C60.756 230.256 60.7575 230.652 60.8285 231.018C60.9023 231.382 61.06 231.676 61.3015 231.901C61.5458 232.122 61.8867 232.233 62.3242 232.233ZM66.7656 233L67.8565 226.455H68.8281L68.6577 227.477H68.7429C68.9389 227.128 69.2045 226.857 69.5398 226.663C69.8778 226.467 70.2599 226.369 70.6861 226.369C71.1122 226.369 71.4545 226.467 71.7131 226.663C71.9716 226.857 72.152 227.128 72.2543 227.477H72.3224C72.544 227.136 72.8395 226.866 73.2088 226.668C73.581 226.469 74.0014 226.369 74.4702 226.369C75.0497 226.369 75.4957 226.553 75.8082 226.919C76.1236 227.286 76.2173 227.852 76.0895 228.619L75.3565 233H74.3509L75.0838 228.619C75.1605 228.134 75.0838 227.788 74.8537 227.584C74.6264 227.376 74.3338 227.273 73.9759 227.273C73.5156 227.273 73.1364 227.411 72.8381 227.686C72.5398 227.962 72.3565 228.312 72.2884 228.739L71.5724 233H70.5497L71.2997 228.517C71.3594 228.142 71.2884 227.841 71.0866 227.614C70.8849 227.386 70.5923 227.273 70.2088 227.273C69.9474 227.273 69.6918 227.344 69.4418 227.486C69.1918 227.625 68.9773 227.818 68.7983 228.065C68.6193 228.31 68.5043 228.591 68.4531 228.909L67.7713 233H66.7656ZM77.1953 233L78.2862 226.455H79.2919L78.201 233H77.1953ZM79.0959 225.347C78.8999 225.347 78.7308 225.28 78.5888 225.146C78.4496 225.013 78.38 224.852 78.38 224.665C78.38 224.477 78.4496 224.317 78.5888 224.183C78.7308 224.05 78.8999 223.983 79.0959 223.983C79.2919 223.983 79.4595 224.05 79.5987 224.183C79.7408 224.317 79.8118 224.477 79.8118 224.665C79.8118 224.852 79.7408 225.013 79.5987 225.146C79.4595 225.28 79.2919 225.347 79.0959 225.347ZM81.6964 229.062L81.0487 233H80.043L81.1339 226.455H82.1055L81.935 227.477H82.0202C82.2248 227.145 82.5018 226.878 82.8512 226.676C83.2006 226.472 83.6225 226.369 84.1168 226.369C84.5543 226.369 84.9237 226.46 85.2248 226.642C85.5288 226.821 85.7433 227.094 85.8683 227.46C85.9961 227.824 86.0146 228.284 85.9237 228.841L85.2248 233H84.2191L84.9009 228.909C84.9862 228.398 84.9194 227.997 84.7006 227.707C84.4847 227.418 84.1424 227.273 83.6737 227.273C83.3498 227.273 83.0501 227.342 82.7745 227.482C82.5018 227.621 82.2702 227.824 82.0799 228.091C81.8924 228.358 81.7646 228.682 81.6964 229.062ZM89.2955 235.591C88.8068 235.591 88.3977 235.528 88.0682 235.403C87.7386 235.281 87.4744 235.119 87.2756 234.918C87.0767 234.719 86.9261 234.506 86.8239 234.278L87.7273 233.716C87.7955 233.835 87.8835 233.972 87.9915 234.125C88.0994 234.281 88.2628 234.416 88.4815 234.53C88.7031 234.646 89.0142 234.705 89.4148 234.705C89.9403 234.705 90.4006 234.577 90.7955 234.321C91.1903 234.065 91.4347 233.665 91.5284 233.119L91.733 231.79H91.6477C91.5568 231.909 91.4304 232.057 91.2685 232.233C91.1065 232.406 90.8892 232.561 90.6165 232.697C90.3438 232.831 89.9943 232.898 89.5682 232.898C89.0369 232.898 88.5824 232.773 88.2045 232.523C87.8267 232.273 87.5554 231.909 87.3906 231.432C87.2287 230.955 87.2045 230.375 87.3182 229.693C87.429 229.023 87.642 228.439 87.9574 227.942C88.2756 227.442 88.6676 227.055 89.1335 226.783C89.5994 226.507 90.108 226.369 90.6591 226.369C91.0852 226.369 91.4119 226.44 91.6392 226.582C91.8693 226.722 92.0369 226.881 92.142 227.06C92.2472 227.236 92.3267 227.381 92.3807 227.494H92.483L92.6534 226.455H93.625L92.517 233.188C92.4233 233.75 92.2202 234.207 91.9077 234.56C91.5952 234.915 91.2116 235.175 90.7571 235.339C90.3026 235.507 89.8153 235.591 89.2955 235.591ZM89.8239 231.994C90.2244 231.994 90.581 231.902 90.8935 231.717C91.2088 231.533 91.4702 231.267 91.6776 230.92C91.8849 230.574 92.0284 230.159 92.108 229.676C92.1875 229.205 92.1818 228.788 92.0909 228.428C92 228.067 91.8281 227.784 91.5753 227.58C91.3253 227.375 90.9972 227.273 90.5909 227.273C90.1619 227.273 89.7912 227.381 89.4787 227.597C89.169 227.812 88.9176 228.102 88.7244 228.466C88.5313 228.83 88.3977 229.233 88.3239 229.676C88.25 230.131 88.2528 230.533 88.3324 230.882C88.4119 231.229 88.5739 231.501 88.8182 231.7C89.0653 231.896 89.4006 231.994 89.8239 231.994ZM103.239 227.92L102.284 228.176C102.25 228.023 102.19 227.875 102.105 227.733C102.023 227.588 101.895 227.47 101.722 227.379C101.551 227.286 101.318 227.239 101.023 227.239C100.622 227.239 100.274 227.331 99.9787 227.516C99.6832 227.697 99.5142 227.929 99.4716 228.21C99.429 228.457 99.4858 228.655 99.642 228.803C99.7983 228.95 100.06 229.071 100.426 229.165L101.364 229.403C101.926 229.548 102.327 229.766 102.565 230.055C102.807 230.342 102.889 230.716 102.812 231.176C102.75 231.551 102.587 231.886 102.322 232.182C102.058 232.477 101.72 232.71 101.308 232.881C100.896 233.051 100.438 233.136 99.9318 233.136C99.2585 233.136 98.7273 232.991 98.3381 232.702C97.9489 232.409 97.7415 231.986 97.7159 231.432L98.7216 231.193C98.7472 231.543 98.8722 231.807 99.0966 231.986C99.3239 232.162 99.642 232.25 100.051 232.25C100.52 232.25 100.911 232.151 101.223 231.952C101.536 231.75 101.713 231.509 101.756 231.227C101.798 230.997 101.753 230.805 101.619 230.652C101.489 230.499 101.261 230.384 100.938 230.307L99.8977 230.051C99.3182 229.906 98.9119 229.685 98.679 229.386C98.4489 229.088 98.3722 228.713 98.4489 228.261C98.5114 227.892 98.6705 227.565 98.9261 227.281C99.1847 226.997 99.5085 226.774 99.8977 226.612C100.29 226.45 100.716 226.369 101.176 226.369C101.824 226.369 102.308 226.511 102.629 226.795C102.95 227.077 103.153 227.452 103.239 227.92ZM106.721 233.136C106.119 233.136 105.615 232.993 105.208 232.706C104.802 232.419 104.515 232.017 104.348 231.5C104.183 230.983 104.156 230.381 104.267 229.693C104.375 229.023 104.589 228.439 104.91 227.942C105.234 227.442 105.636 227.055 106.116 226.783C106.599 226.507 107.13 226.369 107.71 226.369C108.312 226.369 108.815 226.514 109.218 226.804C109.625 227.091 109.912 227.494 110.079 228.014C110.247 228.531 110.275 229.136 110.164 229.83C110.056 230.494 109.839 231.075 109.512 231.572C109.189 232.067 108.787 232.452 108.306 232.727C107.829 233 107.301 233.136 106.721 233.136ZM106.738 232.233C107.199 232.233 107.598 232.115 107.936 231.879C108.277 231.643 108.552 231.332 108.762 230.946C108.975 230.56 109.119 230.142 109.193 229.693C109.261 229.267 109.258 228.871 109.184 228.504C109.11 228.135 108.953 227.838 108.711 227.614C108.47 227.386 108.13 227.273 107.693 227.273C107.233 227.273 106.831 227.392 106.487 227.631C106.146 227.869 105.87 228.183 105.66 228.572C105.45 228.962 105.309 229.381 105.238 229.83C105.17 230.256 105.172 230.652 105.243 231.018C105.316 231.382 105.474 231.676 105.716 231.901C105.96 232.122 106.301 232.233 106.738 232.233ZM113.881 233.136C113.279 233.136 112.775 232.993 112.369 232.706C111.962 232.419 111.675 232.017 111.508 231.5C111.343 230.983 111.316 230.381 111.427 229.693C111.535 229.023 111.749 228.439 112.07 227.942C112.394 227.442 112.796 227.055 113.276 226.783C113.759 226.507 114.29 226.369 114.87 226.369C115.472 226.369 115.975 226.514 116.379 226.804C116.785 227.091 117.072 227.494 117.239 228.014C117.407 228.531 117.435 229.136 117.325 229.83C117.217 230.494 116.999 231.075 116.673 231.572C116.349 232.067 115.947 232.452 115.467 232.727C114.989 233 114.461 233.136 113.881 233.136ZM113.898 232.233C114.359 232.233 114.758 232.115 115.096 231.879C115.437 231.643 115.712 231.332 115.923 230.946C116.136 230.56 116.279 230.142 116.353 229.693C116.421 229.267 116.418 228.871 116.344 228.504C116.271 228.135 116.113 227.838 115.871 227.614C115.63 227.386 115.29 227.273 114.853 227.273C114.393 227.273 113.991 227.392 113.647 227.631C113.306 227.869 113.031 228.183 112.82 228.572C112.61 228.962 112.469 229.381 112.398 229.83C112.33 230.256 112.332 230.652 112.403 231.018C112.477 231.382 112.634 231.676 112.876 231.901C113.12 232.122 113.461 232.233 113.898 232.233ZM119.993 229.062L119.346 233H118.34L119.431 226.455H120.402L120.232 227.477H120.317C120.522 227.145 120.799 226.878 121.148 226.676C121.498 226.472 121.919 226.369 122.414 226.369C122.851 226.369 123.221 226.46 123.522 226.642C123.826 226.821 124.04 227.094 124.165 227.46C124.293 227.824 124.311 228.284 124.221 228.841L123.522 233H122.516L123.198 228.909C123.283 228.398 123.216 227.997 122.998 227.707C122.782 227.418 122.439 227.273 121.971 227.273C121.647 227.273 121.347 227.342 121.071 227.482C120.799 227.621 120.567 227.824 120.377 228.091C120.189 228.358 120.061 228.682 119.993 229.062Z" fill="black"/>
<defs>
<filter id="filter0_d_4635_54273" x="0" y="0" width="184" height="300" filterUnits="userSpaceOnUse" color-interpolation-filters="sRGB">
<feFlood flood-opacity="0" result="BackgroundImageFix"/>
<feColorMatrix in="SourceAlpha" type="matrix" values="0 0 0 0 0 0 0 0 0 0 0 0 0 0 0 0 0 0 127 0" result="hardAlpha"/>
<feOffset dx="4" dy="4"/>
<feGaussianBlur stdDeviation="6"/>
<feComposite in2="hardAlpha" operator="out"/>
<feColorMatrix type="matrix" values="0 0 0 0 0 0 0 0 0 0 0 0 0 0 0 0 0 0 0.25 0"/>
<feBlend mode="normal" in2="BackgroundImageFix" result="effect1_dropShadow_4635_54273"/>
<feBlend mode="normal" in="SourceGraphic" in2="effect1_dropShadow_4635_54273" result="shape"/>
</filter>
<linearGradient id="paint0_linear_4635_54273" x1="88" y1="8" x2="88" y2="284" gradientUnits="userSpaceOnUse">
<stop offset="0.08" stop-color="white" stop-opacity="0"/>
<stop offset="0.11" stop-opacity="0.5"/>
<stop offset="0.135" stop-color="white"/>
<stop offset="0.88" stop-color="white"/>
<stop offset="0.905" stop-opacity="0.5"/>
<stop offset="0.97" stop-color="white" stop-opacity="0"/>
</linearGradient>
<linearGradient id="paint1_linear_4635_54273" x1="168" y1="146" x2="8" y2="146" gradientUnits="userSpaceOnUse">
<stop stop-color="white" stop-opacity="0"/>
<stop offset="0.04"/>
<stop offset="0.96"/>
<stop offset="1" stop-color="white" stop-opacity="0"/>
</linearGradient>
<clipPath id="clip0_4635_54273">
<rect width="160" height="8" fill="white" transform="translate(8 8)"/>
</clipPath>
<clipPath id="clip1_4635_54273">
<rect width="160" height="8" fill="white" transform="matrix(1 0 0 -1 8 284)"/>
</clipPath>
</defs>
</svg>
