<svg width="184" height="300" viewBox="0 0 184 300" fill="none" xmlns="http://www.w3.org/2000/svg">
<g filter="url(#filter0_d_4467_22289)">
<g clip-path="url(#clip0_4467_22289)">
<path d="M8 12L12 8L16 12V16H8V12Z" fill="white"/>
<path d="M16 12L20 8L24 12V16H16V12Z" fill="white"/>
<path d="M24 12L28 8L32 12V16H24V12Z" fill="white"/>
<path d="M32 12L36 8L40 12V16H32V12Z" fill="white"/>
<path d="M40 12L44 8L48 12V16H40V12Z" fill="white"/>
<path d="M48 12L52 8L56 12V16H48V12Z" fill="white"/>
<path d="M56 12L60 8L64 12V16H56V12Z" fill="white"/>
<path d="M64 12L68 8L72 12V16H64V12Z" fill="white"/>
<path d="M72 12L76 8L80 12V16H72V12Z" fill="white"/>
<path d="M80 12L84 8L88 12V16H80V12Z" fill="white"/>
<path d="M88 12L92 8L96 12V16H88V12Z" fill="white"/>
<path d="M96 12L100 8L104 12V16H96V12Z" fill="white"/>
<path d="M104 12L108 8L112 12V16H104V12Z" fill="white"/>
<path d="M112 12L116 8L120 12V16H112V12Z" fill="white"/>
<path d="M120 12L124 8L128 12V16H120V12Z" fill="white"/>
<path d="M128 12L132 8L136 12V16H128V12Z" fill="white"/>
<path d="M136 12L140 8L144 12V16H136V12Z" fill="white"/>
<path d="M144 12L148 8L152 12V16H144V12Z" fill="white"/>
<path d="M152 12L156 8L160 12V16H152V12Z" fill="white"/>
<path d="M160 12L164 8L168 12V16H160V12Z" fill="white"/>
</g>
<rect width="160" height="260" transform="translate(8 16)" fill="white"/>
<g clip-path="url(#clip1_4467_22289)">
<path d="M8 280L12 284L16 280V276H8V280Z" fill="white"/>
<path d="M16 280L20 284L24 280V276H16V280Z" fill="white"/>
<path d="M24 280L28 284L32 280V276H24V280Z" fill="white"/>
<path d="M32 280L36 284L40 280V276H32V280Z" fill="white"/>
<path d="M40 280L44 284L48 280V276H40V280Z" fill="white"/>
<path d="M48 280L52 284L56 280V276H48V280Z" fill="white"/>
<path d="M56 280L60 284L64 280V276H56V280Z" fill="white"/>
<path d="M64 280L68 284L72 280V276H64V280Z" fill="white"/>
<path d="M72 280L76 284L80 280V276H72V280Z" fill="white"/>
<path d="M80 280L84 284L88 280V276H80V280Z" fill="white"/>
<path d="M88 280L92 284L96 280V276H88V280Z" fill="white"/>
<path d="M96 280L100 284L104 280V276H96V280Z" fill="white"/>
<path d="M104 280L108 284L112 280V276H104V280Z" fill="white"/>
<path d="M112 280L116 284L120 280V276H112V280Z" fill="white"/>
<path d="M120 280L124 284L128 280V276H120V280Z" fill="white"/>
<path d="M128 280L132 284L136 280V276H128V280Z" fill="white"/>
<path d="M136 280L140 284L144 280V276H136V280Z" fill="white"/>
<path d="M144 280L148 284L152 280V276H144V280Z" fill="white"/>
<path d="M152 280L156 284L160 280V276H152V280Z" fill="white"/>
<path d="M160 280L164 284L168 280V276H160V280Z" fill="white"/>
</g>
</g>
<rect opacity="0.1" x="8" y="8" width="160" height="276" fill="url(#paint0_linear_4467_22289)"/>
<rect opacity="0.1" x="8" y="8" width="160" height="276" fill="url(#paint1_linear_4467_22289)"/>
<rect x="69" y="102" width="38" height="38" rx="19" fill="#484848"/>
<path opacity="0.9" d="M36.1534 167.264C35.3534 167.264 34.0254 167.184 32.1694 167.024L30.9454 166.928L31.1134 162.32H32.9134L33.3694 164.84C35.0334 165.096 36.1214 165.224 36.6334 165.224C36.7134 165.224 36.8414 165.072 37.0174 164.768C37.1934 164.448 37.2814 164.152 37.2814 163.88C37.2654 163.32 37.0494 162.848 36.6334 162.464C36.2174 162.08 35.5774 161.632 34.7134 161.12C33.9294 160.656 33.2974 160.248 32.8174 159.896C32.3374 159.528 31.9214 159.064 31.5694 158.504C31.2334 157.944 31.0654 157.288 31.0654 156.536C31.0654 156.12 31.1054 155.72 31.1854 155.336C31.3774 154.968 31.7694 154.536 32.3614 154.04C32.9694 153.528 33.5934 153.088 34.2334 152.72C34.8734 152.336 35.3454 152.144 35.6494 152.144C35.9214 152.144 36.5534 152.2 37.5454 152.312C38.5374 152.408 39.4654 152.52 40.3294 152.648L40.1374 156.944H38.3374L38.0014 154.64C36.3214 154.352 35.2894 154.208 34.9054 154.208C34.7614 154.208 34.6414 154.328 34.5454 154.568C34.4494 154.808 34.4014 155.12 34.4014 155.504C34.4014 156.08 34.5934 156.584 34.9774 157.016C35.3774 157.432 35.9454 157.856 36.6814 158.288L37.1854 158.576C37.9694 159.04 38.5934 159.448 39.0574 159.8C39.5374 160.136 39.9374 160.56 40.2574 161.072C40.5934 161.584 40.7614 162.184 40.7614 162.872C40.7614 163.304 40.7134 163.712 40.6174 164.096C40.3934 164.528 39.9854 164.992 39.3934 165.488C38.8174 165.984 38.2174 166.408 37.5934 166.76C36.9854 167.096 36.5054 167.264 36.1534 167.264ZM45.8759 167.264C44.6599 167.264 43.6839 166.808 42.9479 165.896C42.2119 164.984 41.8439 163.72 41.8439 162.104C41.8439 161.384 41.8999 160.68 42.0119 159.992C42.1399 159.304 42.2839 158.768 42.4439 158.384C42.6359 158.128 43.0199 157.792 43.5959 157.376C44.1879 156.96 44.7799 156.592 45.3719 156.272C45.9639 155.936 46.3639 155.768 46.5719 155.768C46.9879 155.768 47.4839 155.816 48.0599 155.912C48.6359 156.008 49.1639 156.136 49.6439 156.296L49.5719 159.824H47.6759L47.2679 157.952C46.8199 157.712 46.4519 157.592 46.1639 157.592C46.0359 157.592 45.9399 157.624 45.8759 157.688C45.6999 157.832 45.5559 158.256 45.4439 158.96C45.3479 159.664 45.2999 160.528 45.2999 161.552C45.2999 162.56 45.4439 163.36 45.7319 163.952C46.0359 164.528 46.4359 164.816 46.9319 164.816H49.6439V166.208C47.6439 166.912 46.3879 167.264 45.8759 167.264ZM52.7633 167.264C52.6673 167.264 52.4513 167.128 52.1153 166.856C51.7953 166.568 51.6353 166.376 51.6353 166.28V157.904L50.6753 157.568V156.248C52.6753 155.944 53.7793 155.792 53.9873 155.792C54.0673 155.792 54.2433 155.928 54.5153 156.2C54.8033 156.472 54.9473 156.656 54.9473 156.752V165.128L55.9073 165.44V166.76C54.0193 167.096 52.9713 167.264 52.7633 167.264ZM51.4433 151.304L54.2033 151.16L54.7073 151.784L54.4913 154.112H51.6593L51.4433 151.304ZM61.5908 167.288C60.2148 167.288 59.1108 166.832 58.2788 165.92C57.4628 165.008 57.0548 163.736 57.0548 162.104C57.0548 161.368 57.1108 160.656 57.2228 159.968C57.3508 159.264 57.4948 158.72 57.6548 158.336C57.8468 158.096 58.2388 157.768 58.8308 157.352C59.4388 156.92 60.0388 156.544 60.6308 156.224C61.2388 155.888 61.6548 155.72 61.8788 155.72C62.8228 155.72 63.5988 155.888 64.2068 156.224C64.8308 156.56 65.3028 157.152 65.6228 158C65.9588 158.832 66.1268 159.992 66.1268 161.48L60.4628 161.96C60.4628 162.904 60.6388 163.632 60.9908 164.144C61.3428 164.656 61.7508 164.912 62.2148 164.912L65.7428 164.744V166.136C65.1188 166.344 64.3268 166.592 63.3668 166.88C62.4228 167.152 61.8308 167.288 61.5908 167.288ZM62.8868 160.16C62.8868 159.376 62.7988 158.744 62.6228 158.264C62.4628 157.768 62.2068 157.488 61.8548 157.424C61.7748 157.408 61.6228 157.4 61.3988 157.4C61.2388 157.4 61.1348 157.408 61.0868 157.424C60.9588 157.472 60.8308 157.8 60.7028 158.408C60.5748 159 60.4948 159.696 60.4628 160.496L62.8868 160.16ZM69.1919 167.264C69.0959 167.264 68.8879 167.136 68.5679 166.88C68.2639 166.608 68.1119 166.424 68.1119 166.328V157.928L67.1519 157.568V156.248C69.1199 155.944 70.2159 155.792 70.4399 155.792C70.5199 155.792 70.6799 155.928 70.9199 156.2C71.1759 156.456 71.3039 156.624 71.3039 156.704V157.352C71.7199 157.032 72.1919 156.696 72.7199 156.344C73.2479 155.976 73.5519 155.792 73.6319 155.792C74.8479 155.792 75.7599 156.072 76.3679 156.632C76.9919 157.176 77.3039 158.12 77.3039 159.464V165.08L78.2639 165.44V166.76C76.3119 167.096 75.2479 167.264 75.0719 167.264C74.9759 167.264 74.7679 167.136 74.4479 166.88C74.1439 166.608 73.9919 166.424 73.9919 166.328V159.488C73.9919 158.592 73.6639 158.144 73.0079 158.144C72.8799 158.144 72.3519 158.36 71.4239 158.792V165.08L72.3839 165.44V166.76C70.4479 167.096 69.3839 167.264 69.1919 167.264ZM83.4228 167.264C82.2068 167.264 81.2308 166.808 80.4948 165.896C79.7588 164.984 79.3908 163.72 79.3908 162.104C79.3908 161.384 79.4468 160.68 79.5588 159.992C79.6868 159.304 79.8308 158.768 79.9908 158.384C80.1828 158.128 80.5668 157.792 81.1428 157.376C81.7348 156.96 82.3268 156.592 82.9188 156.272C83.5108 155.936 83.9108 155.768 84.1188 155.768C84.5348 155.768 85.0308 155.816 85.6068 155.912C86.1828 156.008 86.7108 156.136 87.1908 156.296L87.1188 159.824H85.2228L84.8148 157.952C84.3668 157.712 83.9988 157.592 83.7108 157.592C83.5828 157.592 83.4868 157.624 83.4228 157.688C83.2468 157.832 83.1028 158.256 82.9908 158.96C82.8948 159.664 82.8468 160.528 82.8468 161.552C82.8468 162.56 82.9908 163.36 83.2788 163.952C83.5828 164.528 83.9828 164.816 84.4788 164.816H87.1908V166.208C85.1908 166.912 83.9348 167.264 83.4228 167.264ZM92.9502 167.288C91.5742 167.288 90.4702 166.832 89.6382 165.92C88.8222 165.008 88.4142 163.736 88.4142 162.104C88.4142 161.368 88.4702 160.656 88.5822 159.968C88.7102 159.264 88.8542 158.72 89.0142 158.336C89.2062 158.096 89.5982 157.768 90.1902 157.352C90.7982 156.92 91.3982 156.544 91.9902 156.224C92.5982 155.888 93.0142 155.72 93.2382 155.72C94.1822 155.72 94.9582 155.888 95.5662 156.224C96.1902 156.56 96.6622 157.152 96.9822 158C97.3182 158.832 97.4862 159.992 97.4862 161.48L91.8222 161.96C91.8222 162.904 91.9982 163.632 92.3502 164.144C92.7022 164.656 93.1102 164.912 93.5742 164.912L97.1022 164.744V166.136C96.4782 166.344 95.6862 166.592 94.7262 166.88C93.7822 167.152 93.1902 167.288 92.9502 167.288ZM94.2462 160.16C94.2462 159.376 94.1582 158.744 93.9822 158.264C93.8222 157.768 93.5662 157.488 93.2142 157.424C93.1342 157.408 92.9822 157.4 92.7582 157.4C92.5982 157.4 92.4942 157.408 92.4462 157.424C92.3182 157.472 92.1902 157.8 92.0622 158.408C91.9342 159 91.8542 159.696 91.8222 160.496L94.2462 160.16ZM104.177 171.416C104.097 171.416 103.921 171.28 103.649 171.008C103.393 170.752 103.265 170.576 103.265 170.48L103.409 166.328V157.928L102.449 157.568V156.248C104.433 155.928 105.513 155.768 105.689 155.768C105.769 155.768 105.937 155.904 106.193 156.176C106.465 156.432 106.601 156.608 106.601 156.704V157.4C107.993 156.312 108.737 155.768 108.833 155.768C110.065 155.768 111.049 156.24 111.785 157.184C112.537 158.112 112.913 159.408 112.913 161.072C112.913 161.792 112.849 162.488 112.721 163.16C112.609 163.816 112.465 164.336 112.289 164.72C111.985 165.088 111.297 165.608 110.225 166.28C109.153 166.936 108.457 167.264 108.137 167.264C107.977 167.264 107.489 167.208 106.673 167.096V169.208L107.681 169.568V170.936C107.329 171.016 106.697 171.112 105.785 171.224C104.873 171.352 104.337 171.416 104.177 171.416ZM108.569 165.632C109.113 165.632 109.385 164.224 109.385 161.408C109.385 160.768 109.329 160.2 109.217 159.704C109.105 159.208 108.961 158.824 108.785 158.552C108.609 158.264 108.433 158.12 108.257 158.12C108.161 158.12 107.649 158.352 106.721 158.816V164.936C107.041 165.112 107.377 165.272 107.729 165.416C108.097 165.56 108.377 165.632 108.569 165.632ZM118.346 167.264C117.098 167.264 116.106 166.808 115.37 165.896C114.634 164.968 114.266 163.68 114.266 162.032C114.266 161.328 114.322 160.632 114.434 159.944C114.562 159.256 114.706 158.72 114.866 158.336C115.17 157.952 115.858 157.432 116.93 156.776C118.002 156.104 118.706 155.768 119.042 155.768C119.202 155.768 119.89 155.864 121.106 156.056C122.338 156.248 123.226 156.384 123.77 156.464V165.104L124.73 165.464V166.784C122.778 167.104 121.698 167.264 121.49 167.264C121.41 167.264 121.234 167.136 120.962 166.88C120.706 166.608 120.578 166.432 120.578 166.352V165.656C119.218 166.728 118.474 167.264 118.346 167.264ZM118.922 164.912C119.018 164.912 119.53 164.68 120.458 164.216V158.12C120.138 157.944 119.794 157.784 119.426 157.64C119.058 157.48 118.778 157.4 118.586 157.4C118.33 157.4 118.13 157.744 117.986 158.432C117.858 159.12 117.794 160.232 117.794 161.768C117.794 162.68 117.906 163.432 118.13 164.024C118.37 164.616 118.634 164.912 118.922 164.912ZM129.876 167.264C128.66 167.264 127.684 166.808 126.948 165.896C126.212 164.984 125.844 163.72 125.844 162.104C125.844 161.384 125.9 160.68 126.012 159.992C126.14 159.304 126.284 158.768 126.444 158.384C126.636 158.128 127.02 157.792 127.596 157.376C128.188 156.96 128.78 156.592 129.372 156.272C129.964 155.936 130.364 155.768 130.572 155.768C130.988 155.768 131.484 155.816 132.06 155.912C132.636 156.008 133.164 156.136 133.644 156.296L133.572 159.824H131.676L131.268 157.952C130.82 157.712 130.452 157.592 130.164 157.592C130.036 157.592 129.94 157.624 129.876 157.688C129.7 157.832 129.556 158.256 129.444 158.96C129.348 159.664 129.3 160.528 129.3 161.552C129.3 162.56 129.444 163.36 129.732 163.952C130.036 164.528 130.436 164.816 130.932 164.816H133.644V166.208C131.644 166.912 130.388 167.264 129.876 167.264ZM136.523 167.264C136.427 167.264 136.227 167.136 135.923 166.88C135.619 166.608 135.467 166.424 135.467 166.328V153.392L134.483 153.032V151.712C136.531 151.392 137.659 151.232 137.867 151.232C137.947 151.232 138.115 151.368 138.371 151.64C138.627 151.896 138.755 152.072 138.755 152.168V165.08L139.643 165.44V166.76C137.755 167.096 136.715 167.264 136.523 167.264ZM142.763 167.264C142.683 167.264 142.507 167.168 142.235 166.976C141.963 166.784 141.787 166.632 141.707 166.52L139.187 161.96V160.688L141.779 157.76L140.363 157.568V156.056L144.587 155.84C144.667 155.84 144.779 156.04 144.923 156.44C145.067 156.84 145.139 157.112 145.139 157.256L141.827 160.856L144.635 165.08L145.643 165.44V166.76C143.883 167.096 142.923 167.264 142.763 167.264Z" fill="black"/>
<path opacity="0.8" d="M48.3409 188.119C47.7727 188.119 47.2798 188.024 46.8622 187.834C46.4474 187.641 46.1378 187.372 45.9332 187.028C45.7287 186.682 45.6563 186.278 45.7159 185.818H46.7727C46.7472 186.097 46.7955 186.338 46.9176 186.543C47.0426 186.747 47.2273 186.905 47.4716 187.016C47.7188 187.126 48.0142 187.182 48.358 187.182C48.7244 187.182 49.0682 187.118 49.3892 186.99C49.7131 186.862 49.9844 186.678 50.2031 186.436C50.4219 186.192 50.5568 185.901 50.608 185.562C50.6534 185.259 50.6193 184.989 50.5057 184.753C50.392 184.517 50.196 184.332 49.9176 184.199C49.642 184.062 49.2813 183.994 48.8352 183.994H48.1193L48.2727 183.057H48.9375C49.2841 183.057 49.6023 182.991 49.892 182.861C50.1818 182.73 50.4233 182.547 50.6165 182.311C50.8097 182.072 50.9318 181.793 50.983 181.472C51.0313 181.19 51.0114 180.946 50.9233 180.739C50.8381 180.528 50.6903 180.365 50.4801 180.249C50.2727 180.132 50.0085 180.074 49.6875 180.074C49.3807 180.074 49.0795 180.129 48.7841 180.24C48.4915 180.348 48.2415 180.506 48.0341 180.713C47.8267 180.918 47.696 181.165 47.642 181.455H46.6193C46.7074 181 46.9048 180.601 47.2116 180.257C47.5185 179.911 47.892 179.641 48.3324 179.447C48.7756 179.251 49.2443 179.153 49.7386 179.153C50.2869 179.153 50.7386 179.267 51.0938 179.494C51.4517 179.719 51.7074 180.014 51.8608 180.381C52.0142 180.744 52.0568 181.136 51.9886 181.557C51.9119 182.037 51.7145 182.443 51.3963 182.776C51.0781 183.108 50.6903 183.344 50.233 183.483V183.534C50.7699 183.628 51.1591 183.875 51.4006 184.276C51.6449 184.673 51.7216 185.148 51.6307 185.699C51.5511 186.193 51.3594 186.622 51.0554 186.986C50.7514 187.347 50.3665 187.626 49.9006 187.825C49.4347 188.021 48.9148 188.119 48.3409 188.119ZM54.8565 181.455L55.9815 184.131L57.9929 181.455H59.152L56.4929 184.727L58.0611 188H56.902L55.7599 185.46L53.7656 188H52.6065L55.2315 184.727L53.6974 181.455H54.8565ZM65.5131 188.136C64.8967 188.136 64.391 187.991 63.9961 187.702C63.604 187.412 63.3313 187.013 63.1779 186.504C63.0245 185.996 63.0018 185.415 63.1097 184.761C63.2177 184.097 63.4364 183.51 63.766 183.001C64.0955 182.49 64.506 182.091 64.9975 181.804C65.489 181.514 66.0302 181.369 66.6211 181.369C67.0813 181.369 67.4819 181.455 67.8228 181.625C68.1637 181.795 68.4265 182.034 68.6112 182.341C68.7958 182.648 68.8825 183.006 68.8711 183.415H67.8654C67.837 183.116 67.7092 182.852 67.4819 182.622C67.2575 182.389 66.9251 182.273 66.4847 182.273C66.0927 182.273 65.7319 182.375 65.4023 182.58C65.0728 182.781 64.7958 183.067 64.5714 183.436C64.3469 183.803 64.195 184.233 64.1154 184.727C64.0302 185.233 64.0373 185.673 64.1367 186.048C64.2362 186.423 64.4165 186.714 64.6779 186.922C64.9393 187.129 65.2688 187.233 65.6665 187.233C65.9279 187.233 66.1722 187.188 66.3995 187.097C66.6268 187.006 66.8285 186.875 67.0046 186.705C67.1808 186.534 67.32 186.33 67.4222 186.091H68.4279C68.3029 186.477 68.1026 186.825 67.8271 187.135C67.5515 187.442 67.2177 187.686 66.8256 187.868C66.4336 188.047 65.9961 188.136 65.5131 188.136ZM71.4833 188.153C71.0685 188.153 70.7049 188.075 70.3924 187.919C70.0799 187.76 69.8484 187.531 69.6978 187.233C69.5472 186.932 69.506 186.568 69.5742 186.142C69.6396 185.767 69.766 185.463 69.9535 185.23C70.141 184.994 70.3683 184.81 70.6353 184.676C70.9052 184.54 71.195 184.439 71.5046 184.374C71.8171 184.305 72.1282 184.253 72.4379 184.216C72.8413 184.165 73.1694 184.125 73.4222 184.097C73.6751 184.068 73.8654 184.021 73.9933 183.956C74.1211 183.891 74.1992 183.778 74.2276 183.619V183.585C74.2958 183.168 74.2404 182.842 74.0614 182.609C73.8825 182.374 73.5629 182.256 73.1026 182.256C72.6254 182.256 72.2262 182.361 71.9052 182.571C71.5842 182.781 71.3469 183.006 71.1935 183.244L70.3072 182.903C70.5401 182.506 70.8185 182.196 71.1424 181.974C71.4663 181.75 71.8058 181.594 72.1609 181.506C72.516 181.415 72.8583 181.369 73.1879 181.369C73.3981 181.369 73.6353 181.395 73.8995 181.446C74.1637 181.494 74.4109 181.595 74.641 181.749C74.8739 181.902 75.0487 182.134 75.1651 182.443C75.2844 182.753 75.3015 183.168 75.2163 183.688L74.5004 188H73.4947L73.6481 187.114H73.5969C73.506 187.256 73.3668 187.408 73.1793 187.57C72.9947 187.732 72.7603 187.869 72.4762 187.983C72.195 188.097 71.864 188.153 71.4833 188.153ZM71.7731 187.25C72.1708 187.25 72.5188 187.172 72.8171 187.016C73.1183 186.859 73.3597 186.658 73.5415 186.411C73.7262 186.163 73.8413 185.903 73.8867 185.631L74.0401 184.71C73.989 184.761 73.8881 184.808 73.7376 184.851C73.587 184.891 73.4165 184.926 73.2262 184.957C73.0387 184.986 72.8555 185.011 72.6765 185.034C72.5004 185.054 72.3583 185.071 72.2504 185.085C71.9833 185.119 71.729 185.175 71.4876 185.251C71.2489 185.325 71.0472 185.437 70.8825 185.588C70.7205 185.736 70.6197 185.937 70.5799 186.193C70.5202 186.543 70.604 186.807 70.8313 186.986C71.0586 187.162 71.3725 187.25 71.7731 187.25ZM76.3359 188L77.4268 181.455H78.3984L78.228 182.443H78.2962C78.4666 182.119 78.7266 181.857 79.076 181.655C79.4254 181.453 79.7962 181.352 80.1882 181.352C80.2649 181.352 80.3572 181.354 80.4652 181.357C80.5732 181.357 80.657 181.361 80.7166 181.369L80.5462 182.392C80.5121 182.384 80.4354 182.371 80.3161 182.354C80.1967 182.334 80.0689 182.324 79.9325 182.324C79.6143 182.324 79.3203 182.391 79.0504 182.524C78.7805 182.655 78.5547 182.837 78.3729 183.07C78.1911 183.3 78.0746 183.562 78.0234 183.858L77.3416 188H76.3359ZM83.0881 188.136C82.5398 188.136 82.0795 187.999 81.7074 187.723C81.3352 187.445 81.0724 187.053 80.919 186.547C80.7685 186.038 80.75 185.438 80.8636 184.744C80.9801 184.057 81.1974 183.46 81.5156 182.955C81.8366 182.449 82.2301 182.058 82.696 181.783C83.1619 181.507 83.6705 181.369 84.2216 181.369C84.6477 181.369 84.973 181.44 85.1974 181.582C85.4247 181.722 85.5895 181.881 85.6918 182.06C85.794 182.236 85.8722 182.381 85.9261 182.494H86.0114L86.5483 179.273H87.554L86.1051 188H85.1335L85.304 186.994H85.1847C85.0909 187.114 84.9602 187.264 84.7926 187.446C84.625 187.625 84.4034 187.786 84.1278 187.928C83.8551 188.067 83.5085 188.136 83.0881 188.136ZM83.3352 187.233C83.7386 187.233 84.0994 187.128 84.4176 186.918C84.7386 186.705 85.0057 186.411 85.2188 186.036C85.4318 185.658 85.5795 185.222 85.6619 184.727C85.7443 184.239 85.7415 183.811 85.6534 183.445C85.5653 183.075 85.3963 182.788 85.1463 182.584C84.8963 182.376 84.5653 182.273 84.1534 182.273C83.7301 182.273 83.3622 182.382 83.0497 182.601C82.7372 182.817 82.483 183.111 82.2869 183.483C82.0909 183.852 81.9545 184.267 81.8778 184.727C81.8011 185.193 81.7997 185.616 81.8736 185.997C81.9474 186.375 82.1037 186.676 82.3423 186.901C82.5838 187.122 82.9148 187.233 83.3352 187.233ZM93.5668 182.92L92.6122 183.176C92.5781 183.023 92.5185 182.875 92.4332 182.733C92.3509 182.588 92.223 182.47 92.0497 182.379C91.8793 182.286 91.6463 182.239 91.3509 182.239C90.9503 182.239 90.6023 182.331 90.3068 182.516C90.0114 182.697 89.8423 182.929 89.7997 183.21C89.7571 183.457 89.8139 183.655 89.9702 183.803C90.1264 183.95 90.3878 184.071 90.7543 184.165L91.6918 184.403C92.2543 184.548 92.6548 184.766 92.8935 185.055C93.1349 185.342 93.2173 185.716 93.1406 186.176C93.0781 186.551 92.9148 186.886 92.6506 187.182C92.3864 187.477 92.0483 187.71 91.6364 187.881C91.2244 188.051 90.7656 188.136 90.2599 188.136C89.5866 188.136 89.0554 187.991 88.6662 187.702C88.277 187.409 88.0696 186.986 88.044 186.432L89.0497 186.193C89.0753 186.543 89.2003 186.807 89.4247 186.986C89.652 187.162 89.9702 187.25 90.3793 187.25C90.848 187.25 91.2386 187.151 91.5511 186.952C91.8636 186.75 92.0412 186.509 92.0838 186.227C92.1264 185.997 92.081 185.805 91.9474 185.652C91.8168 185.499 91.5895 185.384 91.2656 185.307L90.2259 185.051C89.6463 184.906 89.2401 184.685 89.0071 184.386C88.777 184.088 88.7003 183.713 88.777 183.261C88.8395 182.892 88.9986 182.565 89.2543 182.281C89.5128 181.997 89.8366 181.774 90.2259 181.612C90.6179 181.45 91.044 181.369 91.5043 181.369C92.152 181.369 92.6364 181.511 92.9574 181.795C93.2784 182.077 93.4815 182.452 93.5668 182.92ZM97.7227 188L98.8136 181.455H99.8192L98.7283 188H97.7227ZM99.6232 180.347C99.4272 180.347 99.2582 180.28 99.1161 180.146C98.9769 180.013 98.9073 179.852 98.9073 179.665C98.9073 179.477 98.9769 179.317 99.1161 179.183C99.2582 179.05 99.4272 178.983 99.6232 178.983C99.8192 178.983 99.9869 179.05 100.126 179.183C100.268 179.317 100.339 179.477 100.339 179.665C100.339 179.852 100.268 180.013 100.126 180.146C99.9869 180.28 99.8192 180.347 99.6232 180.347ZM102.224 184.062L101.576 188H100.57L101.661 181.455H102.633L102.462 182.477H102.548C102.752 182.145 103.029 181.878 103.379 181.676C103.728 181.472 104.15 181.369 104.644 181.369C105.082 181.369 105.451 181.46 105.752 181.642C106.056 181.821 106.271 182.094 106.396 182.46C106.523 182.824 106.542 183.284 106.451 183.841L105.752 188H104.746L105.428 183.909C105.513 183.398 105.447 182.997 105.228 182.707C105.012 182.418 104.67 182.273 104.201 182.273C103.877 182.273 103.577 182.342 103.302 182.482C103.029 182.621 102.798 182.824 102.607 183.091C102.42 183.358 102.292 183.682 102.224 184.062ZM113.078 182.92L112.124 183.176C112.09 183.023 112.03 182.875 111.945 182.733C111.863 182.588 111.735 182.47 111.561 182.379C111.391 182.286 111.158 182.239 110.863 182.239C110.462 182.239 110.114 182.331 109.819 182.516C109.523 182.697 109.354 182.929 109.311 183.21C109.269 183.457 109.326 183.655 109.482 183.803C109.638 183.95 109.9 184.071 110.266 184.165L111.203 184.403C111.766 184.548 112.167 184.766 112.405 185.055C112.647 185.342 112.729 185.716 112.652 186.176C112.59 186.551 112.426 186.886 112.162 187.182C111.898 187.477 111.56 187.71 111.148 187.881C110.736 188.051 110.277 188.136 109.772 188.136C109.098 188.136 108.567 187.991 108.178 187.702C107.789 187.409 107.581 186.986 107.556 186.432L108.561 186.193C108.587 186.543 108.712 186.807 108.936 186.986C109.164 187.162 109.482 187.25 109.891 187.25C110.36 187.25 110.75 187.151 111.063 186.952C111.375 186.75 111.553 186.509 111.596 186.227C111.638 185.997 111.593 185.805 111.459 185.652C111.328 185.499 111.101 185.384 110.777 185.307L109.738 185.051C109.158 184.906 108.752 184.685 108.519 184.386C108.289 184.088 108.212 183.713 108.289 183.261C108.351 182.892 108.51 182.565 108.766 182.281C109.025 181.997 109.348 181.774 109.738 181.612C110.13 181.45 110.556 181.369 111.016 181.369C111.664 181.369 112.148 181.511 112.469 181.795C112.79 182.077 112.993 182.452 113.078 182.92ZM113.859 188L114.95 181.455H115.956L114.865 188H113.859ZM115.76 180.347C115.564 180.347 115.395 180.28 115.253 180.146C115.114 180.013 115.044 179.852 115.044 179.665C115.044 179.477 115.114 179.317 115.253 179.183C115.395 179.05 115.564 178.983 115.76 178.983C115.956 178.983 116.124 179.05 116.263 179.183C116.405 179.317 116.476 179.477 116.476 179.665C116.476 179.852 116.405 180.013 116.263 180.146C116.124 180.28 115.956 180.347 115.76 180.347ZM119.17 188.136C118.622 188.136 118.162 187.999 117.789 187.723C117.417 187.445 117.154 187.053 117.001 186.547C116.85 186.038 116.832 185.438 116.946 184.744C117.062 184.057 117.279 183.46 117.598 182.955C117.919 182.449 118.312 182.058 118.778 181.783C119.244 181.507 119.752 181.369 120.304 181.369C120.73 181.369 121.055 181.44 121.279 181.582C121.507 181.722 121.672 181.881 121.774 182.06C121.876 182.236 121.954 182.381 122.008 182.494H122.093L122.63 179.273H123.636L122.187 188H121.216L121.386 186.994H121.267C121.173 187.114 121.042 187.264 120.875 187.446C120.707 187.625 120.485 187.786 120.21 187.928C119.937 188.067 119.591 188.136 119.17 188.136ZM119.417 187.233C119.821 187.233 120.181 187.128 120.5 186.918C120.821 186.705 121.088 186.411 121.301 186.036C121.514 185.658 121.662 185.222 121.744 184.727C121.826 184.239 121.824 183.811 121.735 183.445C121.647 183.075 121.478 182.788 121.228 182.584C120.978 182.376 120.647 182.273 120.235 182.273C119.812 182.273 119.444 182.382 119.132 182.601C118.819 182.817 118.565 183.111 118.369 183.483C118.173 183.852 118.037 184.267 117.96 184.727C117.883 185.193 117.882 185.616 117.956 185.997C118.029 186.375 118.186 186.676 118.424 186.901C118.666 187.122 118.997 187.233 119.417 187.233ZM126.887 188.136C126.26 188.136 125.741 187.997 125.332 187.719C124.923 187.438 124.637 187.045 124.475 186.543C124.314 186.037 124.288 185.449 124.399 184.778C124.51 184.108 124.73 183.517 125.059 183.006C125.389 182.491 125.799 182.091 126.291 181.804C126.782 181.514 127.322 181.369 127.91 181.369C128.251 181.369 128.579 181.426 128.895 181.54C129.21 181.653 129.483 181.838 129.713 182.094C129.943 182.347 130.103 182.682 130.194 183.099C130.285 183.517 130.279 184.031 130.177 184.642L130.109 185.068H125.064L125.2 184.199H129.223C129.288 183.83 129.271 183.5 129.172 183.21C129.075 182.92 128.906 182.692 128.664 182.524C128.426 182.357 128.123 182.273 127.757 182.273C127.379 182.273 127.027 182.375 126.7 182.58C126.373 182.781 126.1 183.037 125.882 183.347C125.663 183.653 125.527 183.966 125.473 184.284L125.353 185.034C125.268 185.577 125.281 186.009 125.392 186.33C125.505 186.651 125.703 186.882 125.984 187.024C126.265 187.163 126.618 187.233 127.041 187.233C127.311 187.233 127.559 187.196 127.787 187.122C128.014 187.045 128.217 186.932 128.396 186.781C128.575 186.628 128.725 186.437 128.848 186.21L129.768 186.483C129.612 186.812 129.392 187.102 129.108 187.352C128.826 187.599 128.497 187.793 128.119 187.932C127.744 188.068 127.333 188.136 126.887 188.136Z" fill="black"/>
<defs>
<filter id="filter0_d_4467_22289" x="0" y="0" width="184" height="300" filterUnits="userSpaceOnUse" color-interpolation-filters="sRGB">
<feFlood flood-opacity="0" result="BackgroundImageFix"/>
<feColorMatrix in="SourceAlpha" type="matrix" values="0 0 0 0 0 0 0 0 0 0 0 0 0 0 0 0 0 0 127 0" result="hardAlpha"/>
<feOffset dx="4" dy="4"/>
<feGaussianBlur stdDeviation="6"/>
<feComposite in2="hardAlpha" operator="out"/>
<feColorMatrix type="matrix" values="0 0 0 0 0 0 0 0 0 0 0 0 0 0 0 0 0 0 0.25 0"/>
<feBlend mode="normal" in2="BackgroundImageFix" result="effect1_dropShadow_4467_22289"/>
<feBlend mode="normal" in="SourceGraphic" in2="effect1_dropShadow_4467_22289" result="shape"/>
</filter>
<linearGradient id="paint0_linear_4467_22289" x1="88" y1="8" x2="88" y2="284" gradientUnits="userSpaceOnUse">
<stop offset="0.08" stop-color="white" stop-opacity="0"/>
<stop offset="0.11" stop-opacity="0.5"/>
<stop offset="0.135" stop-color="white"/>
<stop offset="0.88" stop-color="white"/>
<stop offset="0.905" stop-opacity="0.5"/>
<stop offset="0.97" stop-color="white" stop-opacity="0"/>
</linearGradient>
<linearGradient id="paint1_linear_4467_22289" x1="168" y1="146" x2="8" y2="146" gradientUnits="userSpaceOnUse">
<stop stop-color="white" stop-opacity="0"/>
<stop offset="0.04"/>
<stop offset="0.96"/>
<stop offset="1" stop-color="white" stop-opacity="0"/>
</linearGradient>
<clipPath id="clip0_4467_22289">
<rect width="160" height="8" fill="white" transform="translate(8 8)"/>
</clipPath>
<clipPath id="clip1_4467_22289">
<rect width="160" height="8" fill="white" transform="matrix(1 0 0 -1 8 284)"/>
</clipPath>
</defs>
</svg>
