<svg width="184" height="300" viewBox="0 0 184 300" fill="none" xmlns="http://www.w3.org/2000/svg">
<g filter="url(#filter0_d_4635_54132)">
<g clip-path="url(#clip0_4635_54132)">
<path d="M8 12L12 8L16 12V16H8V12Z" fill="white"/>
<path d="M16 12L20 8L24 12V16H16V12Z" fill="white"/>
<path d="M24 12L28 8L32 12V16H24V12Z" fill="white"/>
<path d="M32 12L36 8L40 12V16H32V12Z" fill="white"/>
<path d="M40 12L44 8L48 12V16H40V12Z" fill="white"/>
<path d="M48 12L52 8L56 12V16H48V12Z" fill="white"/>
<path d="M56 12L60 8L64 12V16H56V12Z" fill="white"/>
<path d="M64 12L68 8L72 12V16H64V12Z" fill="white"/>
<path d="M72 12L76 8L80 12V16H72V12Z" fill="white"/>
<path d="M80 12L84 8L88 12V16H80V12Z" fill="white"/>
<path d="M88 12L92 8L96 12V16H88V12Z" fill="white"/>
<path d="M96 12L100 8L104 12V16H96V12Z" fill="white"/>
<path d="M104 12L108 8L112 12V16H104V12Z" fill="white"/>
<path d="M112 12L116 8L120 12V16H112V12Z" fill="white"/>
<path d="M120 12L124 8L128 12V16H120V12Z" fill="white"/>
<path d="M128 12L132 8L136 12V16H128V12Z" fill="white"/>
<path d="M136 12L140 8L144 12V16H136V12Z" fill="white"/>
<path d="M144 12L148 8L152 12V16H144V12Z" fill="white"/>
<path d="M152 12L156 8L160 12V16H152V12Z" fill="white"/>
<path d="M160 12L164 8L168 12V16H160V12Z" fill="white"/>
</g>
<rect width="160" height="260" transform="translate(8 16)" fill="white"/>
<g clip-path="url(#clip1_4635_54132)">
<path d="M8 280L12 284L16 280V276H8V280Z" fill="white"/>
<path d="M16 280L20 284L24 280V276H16V280Z" fill="white"/>
<path d="M24 280L28 284L32 280V276H24V280Z" fill="white"/>
<path d="M32 280L36 284L40 280V276H32V280Z" fill="white"/>
<path d="M40 280L44 284L48 280V276H40V280Z" fill="white"/>
<path d="M48 280L52 284L56 280V276H48V280Z" fill="white"/>
<path d="M56 280L60 284L64 280V276H56V280Z" fill="white"/>
<path d="M64 280L68 284L72 280V276H64V280Z" fill="white"/>
<path d="M72 280L76 284L80 280V276H72V280Z" fill="white"/>
<path d="M80 280L84 284L88 280V276H80V280Z" fill="white"/>
<path d="M88 280L92 284L96 280V276H88V280Z" fill="white"/>
<path d="M96 280L100 284L104 280V276H96V280Z" fill="white"/>
<path d="M104 280L108 284L112 280V276H104V280Z" fill="white"/>
<path d="M112 280L116 284L120 280V276H112V280Z" fill="white"/>
<path d="M120 280L124 284L128 280V276H120V280Z" fill="white"/>
<path d="M128 280L132 284L136 280V276H128V280Z" fill="white"/>
<path d="M136 280L140 284L144 280V276H136V280Z" fill="white"/>
<path d="M144 280L148 284L152 280V276H144V280Z" fill="white"/>
<path d="M152 280L156 284L160 280V276H152V280Z" fill="white"/>
<path d="M160 280L164 284L168 280V276H160V280Z" fill="white"/>
</g>
</g>
<rect opacity="0.1" x="8" y="8" width="160" height="276" fill="url(#paint0_linear_4635_54132)"/>
<rect opacity="0.1" x="8" y="8" width="160" height="276" fill="url(#paint1_linear_4635_54132)"/>
<rect x="70" y="85" width="36" height="36" rx="18" stroke="#769CA7" stroke-width="2"/>
<path opacity="0.9" d="M56.3523 165.632L57.8163 165.08V154.328L56.3523 153.776V152.408H67.4163L67.1043 156.872H65.3283L65.0403 154.112L61.3923 154.448V158.48L64.7283 158.6V160.376L61.3923 160.52V164.912L65.2563 165.296L65.6643 162.44H67.4403L67.5363 167H56.3523V165.632ZM70.7388 167.264C70.6428 167.264 70.4348 167.136 70.1148 166.88C69.8108 166.608 69.6588 166.424 69.6588 166.328V157.928L68.6988 157.568V156.248C70.6668 155.944 71.7628 155.792 71.9868 155.792C72.0668 155.792 72.2268 155.928 72.4668 156.2C72.7228 156.456 72.8508 156.624 72.8508 156.704V157.352C73.2668 157.032 73.7388 156.696 74.2668 156.344C74.7948 155.976 75.0988 155.792 75.1788 155.792C76.3948 155.792 77.3068 156.072 77.9148 156.632C78.5388 157.176 78.8508 158.12 78.8508 159.464V165.08L79.8108 165.44V166.76C77.8588 167.096 76.7948 167.264 76.6188 167.264C76.5228 167.264 76.3148 167.136 75.9948 166.88C75.6908 166.608 75.5388 166.424 75.5388 166.328V159.488C75.5388 158.592 75.2108 158.144 74.5547 158.144C74.4268 158.144 73.8988 158.36 72.9708 158.792V165.08L73.9308 165.44V166.76C71.9948 167.096 70.9308 167.264 70.7388 167.264ZM85.4736 167.288C84.0976 167.288 82.9936 166.832 82.1616 165.92C81.3456 165.008 80.9376 163.736 80.9376 162.104C80.9376 161.368 80.9936 160.656 81.1056 159.968C81.2336 159.264 81.3776 158.72 81.5376 158.336C81.7296 158.096 82.1216 157.768 82.7136 157.352C83.3216 156.92 83.9216 156.544 84.5136 156.224C85.1216 155.888 85.5376 155.72 85.7616 155.72C86.7056 155.72 87.4816 155.888 88.0896 156.224C88.7136 156.56 89.1856 157.152 89.5056 158C89.8416 158.832 90.0096 159.992 90.0096 161.48L84.3456 161.96C84.3456 162.904 84.5216 163.632 84.8736 164.144C85.2256 164.656 85.6336 164.912 86.0976 164.912L89.6256 164.744V166.136C89.0016 166.344 88.2096 166.592 87.2496 166.88C86.3056 167.152 85.7136 167.288 85.4736 167.288ZM86.7696 160.16C86.7696 159.376 86.6816 158.744 86.5056 158.264C86.3456 157.768 86.0896 157.488 85.7376 157.424C85.6576 157.408 85.5056 157.4 85.2816 157.4C85.1216 157.4 85.0176 157.408 84.9696 157.424C84.8416 157.472 84.7136 157.8 84.5856 158.408C84.4576 159 84.3776 159.696 84.3456 160.496L86.7696 160.16ZM93.0747 167.264C92.9787 167.264 92.7707 167.136 92.4507 166.88C92.1467 166.608 91.9947 166.424 91.9947 166.328V157.904L91.0347 157.568V156.248C92.9707 155.944 94.0427 155.792 94.2507 155.792C94.3307 155.792 94.5067 155.928 94.7787 156.2C95.0667 156.472 95.2107 156.656 95.2107 156.752L95.1867 157.76C96.3867 156.368 97.0507 155.672 97.1787 155.672C97.5467 155.672 98.1227 155.784 98.9067 156.008C99.0987 156.52 99.1947 156.88 99.1947 157.088C99.1947 157.28 99.0427 157.688 98.7387 158.312C98.4347 158.936 98.2427 159.264 98.1627 159.296C98.1307 159.28 97.9307 159.192 97.5627 159.032C97.2107 158.856 96.9227 158.768 96.6987 158.768C96.6027 158.768 96.3867 158.832 96.0507 158.96C95.7147 159.072 95.4667 159.176 95.3067 159.272V164.864L96.8427 165.296V166.712C94.5547 167.08 93.2987 167.264 93.0747 167.264ZM104.156 171.416C103.596 171.416 102.764 171.336 101.66 171.176C100.556 171.016 99.7476 170.872 99.2356 170.744L99.4516 168.728L102.404 166.088C101.572 165.928 100.884 165.448 100.34 164.648C99.7956 163.832 99.5236 162.8 99.5236 161.552C99.5236 161.008 99.5796 160.424 99.6916 159.8C99.8036 159.176 99.9396 158.68 100.1 158.312C100.404 157.944 101.052 157.432 102.044 156.776C103.052 156.104 103.708 155.768 104.012 155.768C104.204 155.768 105.748 156.032 108.644 156.56V167.528C108.644 168.024 108.364 168.576 107.804 169.184C107.26 169.792 106.62 170.312 105.884 170.744C105.164 171.192 104.588 171.416 104.156 171.416ZM104.18 164.408C104.308 164.408 104.716 164.16 105.404 163.664V158.096C105.34 158.08 105.26 158.048 105.164 158C105.068 157.952 104.964 157.904 104.852 157.856C104.196 157.488 103.804 157.336 103.676 157.4C103.212 157.608 102.98 158.88 102.98 161.216C102.98 161.888 103.036 162.464 103.148 162.944C103.276 163.424 103.428 163.792 103.604 164.048C103.796 164.288 103.988 164.408 104.18 164.408ZM104.876 169.928C105.052 169.928 105.196 169.608 105.308 168.968C105.436 168.344 105.5 167.664 105.5 166.928V165.8L105.356 165.728L102.044 169.064V169.232C102.252 169.328 102.716 169.464 103.436 169.64C104.156 169.832 104.636 169.928 104.876 169.928ZM114.287 171.416C114.207 171.416 114.055 171.216 113.831 170.816C113.607 170.416 113.503 170.168 113.519 170.072L114.599 166.952L113.591 167.096C113.543 167.096 113.383 167.008 113.111 166.832L110.735 157.928L109.703 157.616V156.248C111.591 155.944 112.615 155.792 112.775 155.792C112.871 155.792 113.071 155.904 113.375 156.128C113.695 156.352 113.871 156.52 113.903 156.632L115.007 162.032L115.295 164.432H115.535L117.191 157.736L115.655 157.544V156.056L119.423 155.792C119.503 155.792 119.647 155.944 119.855 156.248C120.079 156.536 120.183 156.736 120.167 156.848L117.023 166.736L116.447 169.328L117.623 169.76L117.575 171.008C115.575 171.28 114.479 171.416 114.287 171.416Z" fill="black"/>
<path opacity="0.8" d="M48.3409 206.119C47.7727 206.119 47.2798 206.024 46.8622 205.834C46.4474 205.641 46.1378 205.372 45.9332 205.028C45.7287 204.682 45.6563 204.278 45.7159 203.818H46.7727C46.7472 204.097 46.7955 204.338 46.9176 204.543C47.0426 204.747 47.2273 204.905 47.4716 205.016C47.7188 205.126 48.0142 205.182 48.358 205.182C48.7244 205.182 49.0682 205.118 49.3892 204.99C49.7131 204.862 49.9844 204.678 50.2031 204.436C50.4219 204.192 50.5568 203.901 50.608 203.562C50.6534 203.259 50.6193 202.989 50.5057 202.753C50.392 202.517 50.196 202.332 49.9176 202.199C49.642 202.062 49.2813 201.994 48.8352 201.994H48.1193L48.2727 201.057H48.9375C49.2841 201.057 49.6023 200.991 49.892 200.861C50.1818 200.73 50.4233 200.547 50.6165 200.311C50.8097 200.072 50.9318 199.793 50.983 199.472C51.0313 199.19 51.0114 198.946 50.9233 198.739C50.8381 198.528 50.6903 198.365 50.4801 198.249C50.2727 198.132 50.0085 198.074 49.6875 198.074C49.3807 198.074 49.0795 198.129 48.7841 198.24C48.4915 198.348 48.2415 198.506 48.0341 198.713C47.8267 198.918 47.696 199.165 47.642 199.455H46.6193C46.7074 199 46.9048 198.601 47.2116 198.257C47.5185 197.911 47.892 197.641 48.3324 197.447C48.7756 197.251 49.2443 197.153 49.7386 197.153C50.2869 197.153 50.7386 197.267 51.0938 197.494C51.4517 197.719 51.7074 198.014 51.8608 198.381C52.0142 198.744 52.0568 199.136 51.9886 199.557C51.9119 200.037 51.7145 200.443 51.3963 200.776C51.0781 201.108 50.6903 201.344 50.233 201.483V201.534C50.7699 201.628 51.1591 201.875 51.4006 202.276C51.6449 202.673 51.7216 203.148 51.6307 203.699C51.5511 204.193 51.3594 204.622 51.0554 204.986C50.7514 205.347 50.3665 205.626 49.9006 205.825C49.4347 206.021 48.9148 206.119 48.3409 206.119ZM54.8565 199.455L55.9815 202.131L57.9929 199.455H59.152L56.4929 202.727L58.0611 206H56.902L55.7599 203.46L53.7656 206H52.6065L55.2315 202.727L53.6974 199.455H54.8565ZM65.5131 206.136C64.8967 206.136 64.391 205.991 63.9961 205.702C63.604 205.412 63.3313 205.013 63.1779 204.504C63.0245 203.996 63.0018 203.415 63.1097 202.761C63.2177 202.097 63.4364 201.51 63.766 201.001C64.0955 200.49 64.506 200.091 64.9975 199.804C65.489 199.514 66.0302 199.369 66.6211 199.369C67.0813 199.369 67.4819 199.455 67.8228 199.625C68.1637 199.795 68.4265 200.034 68.6112 200.341C68.7958 200.648 68.8825 201.006 68.8711 201.415H67.8654C67.837 201.116 67.7092 200.852 67.4819 200.622C67.2575 200.389 66.9251 200.273 66.4847 200.273C66.0927 200.273 65.7319 200.375 65.4023 200.58C65.0728 200.781 64.7958 201.067 64.5714 201.436C64.3469 201.803 64.195 202.233 64.1154 202.727C64.0302 203.233 64.0373 203.673 64.1367 204.048C64.2362 204.423 64.4165 204.714 64.6779 204.922C64.9393 205.129 65.2688 205.233 65.6665 205.233C65.9279 205.233 66.1722 205.188 66.3995 205.097C66.6268 205.006 66.8285 204.875 67.0046 204.705C67.1808 204.534 67.32 204.33 67.4222 204.091H68.4279C68.3029 204.477 68.1026 204.825 67.8271 205.135C67.5515 205.442 67.2177 205.686 66.8256 205.868C66.4336 206.047 65.9961 206.136 65.5131 206.136ZM71.4833 206.153C71.0685 206.153 70.7049 206.075 70.3924 205.919C70.0799 205.76 69.8484 205.531 69.6978 205.233C69.5472 204.932 69.506 204.568 69.5742 204.142C69.6396 203.767 69.766 203.463 69.9535 203.23C70.141 202.994 70.3683 202.81 70.6353 202.676C70.9052 202.54 71.195 202.439 71.5046 202.374C71.8171 202.305 72.1282 202.253 72.4379 202.216C72.8413 202.165 73.1694 202.125 73.4222 202.097C73.6751 202.068 73.8654 202.021 73.9933 201.956C74.1211 201.891 74.1992 201.778 74.2276 201.619V201.585C74.2958 201.168 74.2404 200.842 74.0614 200.609C73.8825 200.374 73.5629 200.256 73.1026 200.256C72.6254 200.256 72.2262 200.361 71.9052 200.571C71.5842 200.781 71.3469 201.006 71.1935 201.244L70.3072 200.903C70.5401 200.506 70.8185 200.196 71.1424 199.974C71.4663 199.75 71.8058 199.594 72.1609 199.506C72.516 199.415 72.8583 199.369 73.1879 199.369C73.3981 199.369 73.6353 199.395 73.8995 199.446C74.1637 199.494 74.4109 199.595 74.641 199.749C74.8739 199.902 75.0487 200.134 75.1651 200.443C75.2844 200.753 75.3015 201.168 75.2163 201.688L74.5004 206H73.4947L73.6481 205.114H73.5969C73.506 205.256 73.3668 205.408 73.1793 205.57C72.9947 205.732 72.7603 205.869 72.4762 205.983C72.195 206.097 71.864 206.153 71.4833 206.153ZM71.7731 205.25C72.1708 205.25 72.5188 205.172 72.8171 205.016C73.1183 204.859 73.3597 204.658 73.5415 204.411C73.7262 204.163 73.8413 203.903 73.8867 203.631L74.0401 202.71C73.989 202.761 73.8881 202.808 73.7376 202.851C73.587 202.891 73.4165 202.926 73.2262 202.957C73.0387 202.986 72.8555 203.011 72.6765 203.034C72.5004 203.054 72.3583 203.071 72.2504 203.085C71.9833 203.119 71.729 203.175 71.4876 203.251C71.2489 203.325 71.0472 203.437 70.8825 203.588C70.7205 203.736 70.6197 203.937 70.5799 204.193C70.5202 204.543 70.604 204.807 70.8313 204.986C71.0586 205.162 71.3725 205.25 71.7731 205.25ZM76.3359 206L77.4268 199.455H78.3984L78.228 200.443H78.2962C78.4666 200.119 78.7266 199.857 79.076 199.655C79.4254 199.453 79.7962 199.352 80.1882 199.352C80.2649 199.352 80.3572 199.354 80.4652 199.357C80.5732 199.357 80.657 199.361 80.7166 199.369L80.5462 200.392C80.5121 200.384 80.4354 200.371 80.3161 200.354C80.1967 200.334 80.0689 200.324 79.9325 200.324C79.6143 200.324 79.3203 200.391 79.0504 200.524C78.7805 200.655 78.5547 200.837 78.3729 201.07C78.1911 201.3 78.0746 201.562 78.0234 201.858L77.3416 206H76.3359ZM83.0881 206.136C82.5398 206.136 82.0795 205.999 81.7074 205.723C81.3352 205.445 81.0724 205.053 80.919 204.547C80.7685 204.038 80.75 203.438 80.8636 202.744C80.9801 202.057 81.1974 201.46 81.5156 200.955C81.8366 200.449 82.2301 200.058 82.696 199.783C83.1619 199.507 83.6705 199.369 84.2216 199.369C84.6477 199.369 84.973 199.44 85.1974 199.582C85.4247 199.722 85.5895 199.881 85.6918 200.06C85.794 200.236 85.8722 200.381 85.9261 200.494H86.0114L86.5483 197.273H87.554L86.1051 206H85.1335L85.304 204.994H85.1847C85.0909 205.114 84.9602 205.264 84.7926 205.446C84.625 205.625 84.4034 205.786 84.1278 205.928C83.8551 206.067 83.5085 206.136 83.0881 206.136ZM83.3352 205.233C83.7386 205.233 84.0994 205.128 84.4176 204.918C84.7386 204.705 85.0057 204.411 85.2188 204.036C85.4318 203.658 85.5795 203.222 85.6619 202.727C85.7443 202.239 85.7415 201.811 85.6534 201.445C85.5653 201.075 85.3963 200.788 85.1463 200.584C84.8963 200.376 84.5653 200.273 84.1534 200.273C83.7301 200.273 83.3622 200.382 83.0497 200.601C82.7372 200.817 82.483 201.111 82.2869 201.483C82.0909 201.852 81.9545 202.267 81.8778 202.727C81.8011 203.193 81.7997 203.616 81.8736 203.997C81.9474 204.375 82.1037 204.676 82.3423 204.901C82.5838 205.122 82.9148 205.233 83.3352 205.233ZM93.5668 200.92L92.6122 201.176C92.5781 201.023 92.5185 200.875 92.4332 200.733C92.3509 200.588 92.223 200.47 92.0497 200.379C91.8793 200.286 91.6463 200.239 91.3509 200.239C90.9503 200.239 90.6023 200.331 90.3068 200.516C90.0114 200.697 89.8423 200.929 89.7997 201.21C89.7571 201.457 89.8139 201.655 89.9702 201.803C90.1264 201.95 90.3878 202.071 90.7543 202.165L91.6918 202.403C92.2543 202.548 92.6548 202.766 92.8935 203.055C93.1349 203.342 93.2173 203.716 93.1406 204.176C93.0781 204.551 92.9148 204.886 92.6506 205.182C92.3864 205.477 92.0483 205.71 91.6364 205.881C91.2244 206.051 90.7656 206.136 90.2599 206.136C89.5866 206.136 89.0554 205.991 88.6662 205.702C88.277 205.409 88.0696 204.986 88.044 204.432L89.0497 204.193C89.0753 204.543 89.2003 204.807 89.4247 204.986C89.652 205.162 89.9702 205.25 90.3793 205.25C90.848 205.25 91.2386 205.151 91.5511 204.952C91.8636 204.75 92.0412 204.509 92.0838 204.227C92.1264 203.997 92.081 203.805 91.9474 203.652C91.8168 203.499 91.5895 203.384 91.2656 203.307L90.2259 203.051C89.6463 202.906 89.2401 202.685 89.0071 202.386C88.777 202.088 88.7003 201.713 88.777 201.261C88.8395 200.892 88.9986 200.565 89.2543 200.281C89.5128 199.997 89.8366 199.774 90.2259 199.612C90.6179 199.45 91.044 199.369 91.5043 199.369C92.152 199.369 92.6364 199.511 92.9574 199.795C93.2784 200.077 93.4815 200.452 93.5668 200.92ZM97.7227 206L98.8136 199.455H99.8192L98.7283 206H97.7227ZM99.6232 198.347C99.4272 198.347 99.2582 198.28 99.1161 198.146C98.9769 198.013 98.9073 197.852 98.9073 197.665C98.9073 197.477 98.9769 197.317 99.1161 197.183C99.2582 197.05 99.4272 196.983 99.6232 196.983C99.8192 196.983 99.9869 197.05 100.126 197.183C100.268 197.317 100.339 197.477 100.339 197.665C100.339 197.852 100.268 198.013 100.126 198.146C99.9869 198.28 99.8192 198.347 99.6232 198.347ZM102.224 202.062L101.576 206H100.57L101.661 199.455H102.633L102.462 200.477H102.548C102.752 200.145 103.029 199.878 103.379 199.676C103.728 199.472 104.15 199.369 104.644 199.369C105.082 199.369 105.451 199.46 105.752 199.642C106.056 199.821 106.271 200.094 106.396 200.46C106.523 200.824 106.542 201.284 106.451 201.841L105.752 206H104.746L105.428 201.909C105.513 201.398 105.447 200.997 105.228 200.707C105.012 200.418 104.67 200.273 104.201 200.273C103.877 200.273 103.577 200.342 103.302 200.482C103.029 200.621 102.798 200.824 102.607 201.091C102.42 201.358 102.292 201.682 102.224 202.062ZM113.078 200.92L112.124 201.176C112.09 201.023 112.03 200.875 111.945 200.733C111.863 200.588 111.735 200.47 111.561 200.379C111.391 200.286 111.158 200.239 110.863 200.239C110.462 200.239 110.114 200.331 109.819 200.516C109.523 200.697 109.354 200.929 109.311 201.21C109.269 201.457 109.326 201.655 109.482 201.803C109.638 201.95 109.9 202.071 110.266 202.165L111.203 202.403C111.766 202.548 112.167 202.766 112.405 203.055C112.647 203.342 112.729 203.716 112.652 204.176C112.59 204.551 112.426 204.886 112.162 205.182C111.898 205.477 111.56 205.71 111.148 205.881C110.736 206.051 110.277 206.136 109.772 206.136C109.098 206.136 108.567 205.991 108.178 205.702C107.789 205.409 107.581 204.986 107.556 204.432L108.561 204.193C108.587 204.543 108.712 204.807 108.936 204.986C109.164 205.162 109.482 205.25 109.891 205.25C110.36 205.25 110.75 205.151 111.063 204.952C111.375 204.75 111.553 204.509 111.596 204.227C111.638 203.997 111.593 203.805 111.459 203.652C111.328 203.499 111.101 203.384 110.777 203.307L109.738 203.051C109.158 202.906 108.752 202.685 108.519 202.386C108.289 202.088 108.212 201.713 108.289 201.261C108.351 200.892 108.51 200.565 108.766 200.281C109.025 199.997 109.348 199.774 109.738 199.612C110.13 199.45 110.556 199.369 111.016 199.369C111.664 199.369 112.148 199.511 112.469 199.795C112.79 200.077 112.993 200.452 113.078 200.92ZM113.859 206L114.95 199.455H115.956L114.865 206H113.859ZM115.76 198.347C115.564 198.347 115.395 198.28 115.253 198.146C115.114 198.013 115.044 197.852 115.044 197.665C115.044 197.477 115.114 197.317 115.253 197.183C115.395 197.05 115.564 196.983 115.76 196.983C115.956 196.983 116.124 197.05 116.263 197.183C116.405 197.317 116.476 197.477 116.476 197.665C116.476 197.852 116.405 198.013 116.263 198.146C116.124 198.28 115.956 198.347 115.76 198.347ZM119.17 206.136C118.622 206.136 118.162 205.999 117.789 205.723C117.417 205.445 117.154 205.053 117.001 204.547C116.85 204.038 116.832 203.438 116.946 202.744C117.062 202.057 117.279 201.46 117.598 200.955C117.919 200.449 118.312 200.058 118.778 199.783C119.244 199.507 119.752 199.369 120.304 199.369C120.73 199.369 121.055 199.44 121.279 199.582C121.507 199.722 121.672 199.881 121.774 200.06C121.876 200.236 121.954 200.381 122.008 200.494H122.093L122.63 197.273H123.636L122.187 206H121.216L121.386 204.994H121.267C121.173 205.114 121.042 205.264 120.875 205.446C120.707 205.625 120.485 205.786 120.21 205.928C119.937 206.067 119.591 206.136 119.17 206.136ZM119.417 205.233C119.821 205.233 120.181 205.128 120.5 204.918C120.821 204.705 121.088 204.411 121.301 204.036C121.514 203.658 121.662 203.222 121.744 202.727C121.826 202.239 121.824 201.811 121.735 201.445C121.647 201.075 121.478 200.788 121.228 200.584C120.978 200.376 120.647 200.273 120.235 200.273C119.812 200.273 119.444 200.382 119.132 200.601C118.819 200.817 118.565 201.111 118.369 201.483C118.173 201.852 118.037 202.267 117.96 202.727C117.883 203.193 117.882 203.616 117.956 203.997C118.029 204.375 118.186 204.676 118.424 204.901C118.666 205.122 118.997 205.233 119.417 205.233ZM126.887 206.136C126.26 206.136 125.741 205.997 125.332 205.719C124.923 205.438 124.637 205.045 124.475 204.543C124.314 204.037 124.288 203.449 124.399 202.778C124.51 202.108 124.73 201.517 125.059 201.006C125.389 200.491 125.799 200.091 126.291 199.804C126.782 199.514 127.322 199.369 127.91 199.369C128.251 199.369 128.579 199.426 128.895 199.54C129.21 199.653 129.483 199.838 129.713 200.094C129.943 200.347 130.103 200.682 130.194 201.099C130.285 201.517 130.279 202.031 130.177 202.642L130.109 203.068H125.064L125.2 202.199H129.223C129.288 201.83 129.271 201.5 129.172 201.21C129.075 200.92 128.906 200.692 128.664 200.524C128.426 200.357 128.123 200.273 127.757 200.273C127.379 200.273 127.027 200.375 126.7 200.58C126.373 200.781 126.1 201.037 125.882 201.347C125.663 201.653 125.527 201.966 125.473 202.284L125.353 203.034C125.268 203.577 125.281 204.009 125.392 204.33C125.505 204.651 125.703 204.882 125.984 205.024C126.265 205.163 126.618 205.233 127.041 205.233C127.311 205.233 127.559 205.196 127.787 205.122C128.014 205.045 128.217 204.932 128.396 204.781C128.575 204.628 128.725 204.437 128.848 204.21L129.768 204.483C129.612 204.812 129.392 205.102 129.108 205.352C128.826 205.599 128.497 205.793 128.119 205.932C127.744 206.068 127.333 206.136 126.887 206.136Z" fill="black"/>
<rect width="75" height="15" transform="translate(50.5 233)" fill="#FF8181"/>
<path opacity="0.8" d="M59.0227 239H57.983C57.9716 238.696 57.9091 238.429 57.7955 238.199C57.6818 237.969 57.5284 237.776 57.3352 237.619C57.1449 237.46 56.9261 237.341 56.679 237.261C56.4318 237.182 56.1676 237.142 55.8864 237.142C55.3466 237.142 54.8352 237.28 54.3523 237.555C53.8693 237.828 53.456 238.23 53.1122 238.761C52.7685 239.29 52.5341 239.937 52.4091 240.705C52.2841 241.449 52.3026 242.075 52.4645 242.584C52.6264 243.092 52.8949 243.477 53.2699 243.739C53.6449 244 54.0909 244.131 54.608 244.131C54.9063 244.131 55.1989 244.091 55.4858 244.011C55.7756 243.932 56.0455 243.814 56.2955 243.658C56.5483 243.499 56.7727 243.304 56.9688 243.074C57.1676 242.841 57.3239 242.574 57.4375 242.273H58.4943C58.3381 242.719 58.1264 243.118 57.8594 243.47C57.5952 243.822 57.2898 244.122 56.9432 244.369C56.5966 244.614 56.223 244.8 55.8224 244.928C55.4219 245.055 55.0057 245.119 54.5739 245.119C53.8182 245.119 53.1747 244.935 52.6435 244.565C52.1151 244.193 51.7372 243.668 51.5099 242.989C51.2855 242.307 51.25 241.5 51.4034 240.568C51.5568 239.659 51.8509 238.875 52.2855 238.216C52.7202 237.554 53.2528 237.045 53.8835 236.69C54.5142 236.332 55.1989 236.153 55.9375 236.153C56.3807 236.153 56.7884 236.217 57.1605 236.345C57.5327 236.473 57.8565 236.661 58.1321 236.908C58.4077 237.152 58.6222 237.45 58.7756 237.803C58.9318 238.152 59.0142 238.551 59.0227 239ZM62.3072 245.136C61.7049 245.136 61.2006 244.993 60.7944 244.706C60.3881 244.419 60.1012 244.017 59.9336 243.5C59.7688 242.983 59.7418 242.381 59.8526 241.693C59.9606 241.023 60.1751 240.439 60.4961 239.942C60.82 239.442 61.2219 239.055 61.7021 238.783C62.185 238.507 62.7163 238.369 63.2958 238.369C63.8981 238.369 64.4009 238.514 64.8043 238.804C65.2106 239.091 65.4975 239.494 65.6651 240.014C65.8327 240.531 65.8612 241.136 65.7504 241.83C65.6424 242.494 65.4251 243.075 65.0984 243.572C64.7745 244.067 64.3725 244.452 63.8924 244.727C63.4151 245 62.8867 245.136 62.3072 245.136ZM62.3242 244.233C62.7844 244.233 63.1836 244.115 63.5217 243.879C63.8626 243.643 64.1381 243.332 64.3484 242.946C64.5614 242.56 64.7049 242.142 64.7788 241.693C64.8469 241.267 64.8441 240.871 64.7702 240.504C64.6964 240.135 64.5387 239.838 64.2972 239.614C64.0558 239.386 63.7163 239.273 63.2788 239.273C62.8185 239.273 62.4165 239.392 62.0728 239.631C61.7319 239.869 61.4563 240.183 61.2461 240.572C61.0359 240.962 60.8952 241.381 60.8242 241.83C60.756 242.256 60.7575 242.652 60.8285 243.018C60.9023 243.382 61.06 243.676 61.3015 243.901C61.5458 244.122 61.8867 244.233 62.3242 244.233ZM66.7656 245L67.8565 238.455H68.8281L68.6577 239.477H68.7429C68.9389 239.128 69.2045 238.857 69.5398 238.663C69.8778 238.467 70.2599 238.369 70.6861 238.369C71.1122 238.369 71.4545 238.467 71.7131 238.663C71.9716 238.857 72.152 239.128 72.2543 239.477H72.3224C72.544 239.136 72.8395 238.866 73.2088 238.668C73.581 238.469 74.0014 238.369 74.4702 238.369C75.0497 238.369 75.4957 238.553 75.8082 238.919C76.1236 239.286 76.2173 239.852 76.0895 240.619L75.3565 245H74.3509L75.0838 240.619C75.1605 240.134 75.0838 239.788 74.8537 239.584C74.6264 239.376 74.3338 239.273 73.9759 239.273C73.5156 239.273 73.1364 239.411 72.8381 239.686C72.5398 239.962 72.3565 240.312 72.2884 240.739L71.5724 245H70.5497L71.2997 240.517C71.3594 240.142 71.2884 239.841 71.0866 239.614C70.8849 239.386 70.5923 239.273 70.2088 239.273C69.9474 239.273 69.6918 239.344 69.4418 239.486C69.1918 239.625 68.9773 239.818 68.7983 240.065C68.6193 240.31 68.5043 240.591 68.4531 240.909L67.7713 245H66.7656ZM77.1953 245L78.2862 238.455H79.2919L78.201 245H77.1953ZM79.0959 237.347C78.8999 237.347 78.7308 237.28 78.5888 237.146C78.4496 237.013 78.38 236.852 78.38 236.665C78.38 236.477 78.4496 236.317 78.5888 236.183C78.7308 236.05 78.8999 235.983 79.0959 235.983C79.2919 235.983 79.4595 236.05 79.5987 236.183C79.7408 236.317 79.8118 236.477 79.8118 236.665C79.8118 236.852 79.7408 237.013 79.5987 237.146C79.4595 237.28 79.2919 237.347 79.0959 237.347ZM81.6964 241.062L81.0487 245H80.043L81.1339 238.455H82.1055L81.935 239.477H82.0202C82.2248 239.145 82.5018 238.878 82.8512 238.676C83.2006 238.472 83.6225 238.369 84.1168 238.369C84.5543 238.369 84.9237 238.46 85.2248 238.642C85.5288 238.821 85.7433 239.094 85.8683 239.46C85.9961 239.824 86.0146 240.284 85.9237 240.841L85.2248 245H84.2191L84.9009 240.909C84.9862 240.398 84.9194 239.997 84.7006 239.707C84.4847 239.418 84.1424 239.273 83.6737 239.273C83.3498 239.273 83.0501 239.342 82.7745 239.482C82.5018 239.621 82.2702 239.824 82.0799 240.091C81.8924 240.358 81.7646 240.682 81.6964 241.062ZM89.2955 247.591C88.8068 247.591 88.3977 247.528 88.0682 247.403C87.7386 247.281 87.4744 247.119 87.2756 246.918C87.0767 246.719 86.9261 246.506 86.8239 246.278L87.7273 245.716C87.7955 245.835 87.8835 245.972 87.9915 246.125C88.0994 246.281 88.2628 246.416 88.4815 246.53C88.7031 246.646 89.0142 246.705 89.4148 246.705C89.9403 246.705 90.4006 246.577 90.7955 246.321C91.1903 246.065 91.4347 245.665 91.5284 245.119L91.733 243.79H91.6477C91.5568 243.909 91.4304 244.057 91.2685 244.233C91.1065 244.406 90.8892 244.561 90.6165 244.697C90.3438 244.831 89.9943 244.898 89.5682 244.898C89.0369 244.898 88.5824 244.773 88.2045 244.523C87.8267 244.273 87.5554 243.909 87.3906 243.432C87.2287 242.955 87.2045 242.375 87.3182 241.693C87.429 241.023 87.642 240.439 87.9574 239.942C88.2756 239.442 88.6676 239.055 89.1335 238.783C89.5994 238.507 90.108 238.369 90.6591 238.369C91.0852 238.369 91.4119 238.44 91.6392 238.582C91.8693 238.722 92.0369 238.881 92.142 239.06C92.2472 239.236 92.3267 239.381 92.3807 239.494H92.483L92.6534 238.455H93.625L92.517 245.188C92.4233 245.75 92.2202 246.207 91.9077 246.56C91.5952 246.915 91.2116 247.175 90.7571 247.339C90.3026 247.507 89.8153 247.591 89.2955 247.591ZM89.8239 243.994C90.2244 243.994 90.581 243.902 90.8935 243.717C91.2088 243.533 91.4702 243.267 91.6776 242.92C91.8849 242.574 92.0284 242.159 92.108 241.676C92.1875 241.205 92.1818 240.788 92.0909 240.428C92 240.067 91.8281 239.784 91.5753 239.58C91.3253 239.375 90.9972 239.273 90.5909 239.273C90.1619 239.273 89.7912 239.381 89.4787 239.597C89.169 239.812 88.9176 240.102 88.7244 240.466C88.5313 240.83 88.3977 241.233 88.3239 241.676C88.25 242.131 88.2528 242.533 88.3324 242.882C88.4119 243.229 88.5739 243.501 88.8182 243.7C89.0653 243.896 89.4006 243.994 89.8239 243.994ZM103.239 239.92L102.284 240.176C102.25 240.023 102.19 239.875 102.105 239.733C102.023 239.588 101.895 239.47 101.722 239.379C101.551 239.286 101.318 239.239 101.023 239.239C100.622 239.239 100.274 239.331 99.9787 239.516C99.6832 239.697 99.5142 239.929 99.4716 240.21C99.429 240.457 99.4858 240.655 99.642 240.803C99.7983 240.95 100.06 241.071 100.426 241.165L101.364 241.403C101.926 241.548 102.327 241.766 102.565 242.055C102.807 242.342 102.889 242.716 102.812 243.176C102.75 243.551 102.587 243.886 102.322 244.182C102.058 244.477 101.72 244.71 101.308 244.881C100.896 245.051 100.438 245.136 99.9318 245.136C99.2585 245.136 98.7273 244.991 98.3381 244.702C97.9489 244.409 97.7415 243.986 97.7159 243.432L98.7216 243.193C98.7472 243.543 98.8722 243.807 99.0966 243.986C99.3239 244.162 99.642 244.25 100.051 244.25C100.52 244.25 100.911 244.151 101.223 243.952C101.536 243.75 101.713 243.509 101.756 243.227C101.798 242.997 101.753 242.805 101.619 242.652C101.489 242.499 101.261 242.384 100.938 242.307L99.8977 242.051C99.3182 241.906 98.9119 241.685 98.679 241.386C98.4489 241.088 98.3722 240.713 98.4489 240.261C98.5114 239.892 98.6705 239.565 98.9261 239.281C99.1847 238.997 99.5085 238.774 99.8977 238.612C100.29 238.45 100.716 238.369 101.176 238.369C101.824 238.369 102.308 238.511 102.629 238.795C102.95 239.077 103.153 239.452 103.239 239.92ZM106.721 245.136C106.119 245.136 105.615 244.993 105.208 244.706C104.802 244.419 104.515 244.017 104.348 243.5C104.183 242.983 104.156 242.381 104.267 241.693C104.375 241.023 104.589 240.439 104.91 239.942C105.234 239.442 105.636 239.055 106.116 238.783C106.599 238.507 107.13 238.369 107.71 238.369C108.312 238.369 108.815 238.514 109.218 238.804C109.625 239.091 109.912 239.494 110.079 240.014C110.247 240.531 110.275 241.136 110.164 241.83C110.056 242.494 109.839 243.075 109.512 243.572C109.189 244.067 108.787 244.452 108.306 244.727C107.829 245 107.301 245.136 106.721 245.136ZM106.738 244.233C107.199 244.233 107.598 244.115 107.936 243.879C108.277 243.643 108.552 243.332 108.762 242.946C108.975 242.56 109.119 242.142 109.193 241.693C109.261 241.267 109.258 240.871 109.184 240.504C109.11 240.135 108.953 239.838 108.711 239.614C108.47 239.386 108.13 239.273 107.693 239.273C107.233 239.273 106.831 239.392 106.487 239.631C106.146 239.869 105.87 240.183 105.66 240.572C105.45 240.962 105.309 241.381 105.238 241.83C105.17 242.256 105.172 242.652 105.243 243.018C105.316 243.382 105.474 243.676 105.716 243.901C105.96 244.122 106.301 244.233 106.738 244.233ZM113.881 245.136C113.279 245.136 112.775 244.993 112.369 244.706C111.962 244.419 111.675 244.017 111.508 243.5C111.343 242.983 111.316 242.381 111.427 241.693C111.535 241.023 111.749 240.439 112.07 239.942C112.394 239.442 112.796 239.055 113.276 238.783C113.759 238.507 114.29 238.369 114.87 238.369C115.472 238.369 115.975 238.514 116.379 238.804C116.785 239.091 117.072 239.494 117.239 240.014C117.407 240.531 117.435 241.136 117.325 241.83C117.217 242.494 116.999 243.075 116.673 243.572C116.349 244.067 115.947 244.452 115.467 244.727C114.989 245 114.461 245.136 113.881 245.136ZM113.898 244.233C114.359 244.233 114.758 244.115 115.096 243.879C115.437 243.643 115.712 243.332 115.923 242.946C116.136 242.56 116.279 242.142 116.353 241.693C116.421 241.267 116.418 240.871 116.344 240.504C116.271 240.135 116.113 239.838 115.871 239.614C115.63 239.386 115.29 239.273 114.853 239.273C114.393 239.273 113.991 239.392 113.647 239.631C113.306 239.869 113.031 240.183 112.82 240.572C112.61 240.962 112.469 241.381 112.398 241.83C112.33 242.256 112.332 242.652 112.403 243.018C112.477 243.382 112.634 243.676 112.876 243.901C113.12 244.122 113.461 244.233 113.898 244.233ZM119.993 241.062L119.346 245H118.34L119.431 238.455H120.402L120.232 239.477H120.317C120.522 239.145 120.799 238.878 121.148 238.676C121.498 238.472 121.919 238.369 122.414 238.369C122.851 238.369 123.221 238.46 123.522 238.642C123.826 238.821 124.04 239.094 124.165 239.46C124.293 239.824 124.311 240.284 124.221 240.841L123.522 245H122.516L123.198 240.909C123.283 240.398 123.216 239.997 122.998 239.707C122.782 239.418 122.439 239.273 121.971 239.273C121.647 239.273 121.347 239.342 121.071 239.482C120.799 239.621 120.567 239.824 120.377 240.091C120.189 240.358 120.061 240.682 119.993 241.062Z" fill="black"/>
<defs>
<filter id="filter0_d_4635_54132" x="0" y="0" width="184" height="300" filterUnits="userSpaceOnUse" color-interpolation-filters="sRGB">
<feFlood flood-opacity="0" result="BackgroundImageFix"/>
<feColorMatrix in="SourceAlpha" type="matrix" values="0 0 0 0 0 0 0 0 0 0 0 0 0 0 0 0 0 0 127 0" result="hardAlpha"/>
<feOffset dx="4" dy="4"/>
<feGaussianBlur stdDeviation="6"/>
<feComposite in2="hardAlpha" operator="out"/>
<feColorMatrix type="matrix" values="0 0 0 0 0 0 0 0 0 0 0 0 0 0 0 0 0 0 0.25 0"/>
<feBlend mode="normal" in2="BackgroundImageFix" result="effect1_dropShadow_4635_54132"/>
<feBlend mode="normal" in="SourceGraphic" in2="effect1_dropShadow_4635_54132" result="shape"/>
</filter>
<linearGradient id="paint0_linear_4635_54132" x1="88" y1="8" x2="88" y2="284" gradientUnits="userSpaceOnUse">
<stop offset="0.08" stop-color="white" stop-opacity="0"/>
<stop offset="0.11" stop-opacity="0.5"/>
<stop offset="0.135" stop-color="white"/>
<stop offset="0.88" stop-color="white"/>
<stop offset="0.905" stop-opacity="0.5"/>
<stop offset="0.97" stop-color="white" stop-opacity="0"/>
</linearGradient>
<linearGradient id="paint1_linear_4635_54132" x1="168" y1="146" x2="8" y2="146" gradientUnits="userSpaceOnUse">
<stop stop-color="white" stop-opacity="0"/>
<stop offset="0.04"/>
<stop offset="0.96"/>
<stop offset="1" stop-color="white" stop-opacity="0"/>
</linearGradient>
<clipPath id="clip0_4635_54132">
<rect width="160" height="8" fill="white" transform="translate(8 8)"/>
</clipPath>
<clipPath id="clip1_4635_54132">
<rect width="160" height="8" fill="white" transform="matrix(1 0 0 -1 8 284)"/>
</clipPath>
</defs>
</svg>
