<svg width="2229" height="1448" viewBox="0 0 2229 1448" fill="none" xmlns="http://www.w3.org/2000/svg">
<rect x="389" y="651" width="1384" height="797" fill="url(#paint0_linear_329_27874)"/>
<rect width="2" height="2" transform="matrix(-1 0 0 1 1159 375.052)" fill="#D9D9D9"/>
<rect width="2" height="2" transform="matrix(-1 0 0 1 1334 305.052)" fill="#D9D9D9"/>
<rect width="2" height="2" transform="matrix(-1 0 0 1 648 233.052)" fill="#D9D9D9"/>
<rect width="2" height="2" transform="matrix(-1 0 0 1 750 331.052)" fill="#D9D9D9"/>
<rect width="2" height="2" transform="matrix(-1 0 0 1 1116 269.052)" fill="#D9D9D9"/>
<rect width="2" height="2" transform="matrix(-1 0 0 1 1563 384.052)" fill="#D9D9D9"/>
<rect width="2" height="2" transform="matrix(-1 0 0 1 1172 437.052)" fill="#D9D9D9"/>
<rect width="2" height="2" transform="matrix(-1 0 0 1 974 446.052)" fill="#D9D9D9"/>
<rect width="2" height="2" transform="matrix(-1 0 0 1 820 395.052)" fill="#D9D9D9"/>
<rect width="2" height="2" transform="matrix(-1 0 0 1 507 267.052)" fill="#D9D9D9"/>
<path fill-rule="evenodd" clip-rule="evenodd" d="M432 347.052C432 344.29 434.239 342.052 437 342.052H447C449.209 342.052 451 343.843 451 346.052V355.052C451.577 351.589 454.573 349.052 458.083 349.052H462.026C466.785 349.052 470.461 353.232 469.852 357.952L468.8 366.099C467.771 374.078 460.977 380.052 452.932 380.052H447H438H414V362.052C414 357.633 417.582 354.052 422 354.052H426V353.052C426 349.738 428.686 347.052 432 347.052ZM473 375.052C473 368.424 478.373 363.052 485 363.052H493C499.627 363.052 505 368.424 505 375.052V379.052H473V375.052Z" fill="#353535"/>
<path d="M432 347.052V348.052H433V347.052H432ZM451 355.052H450L451.986 355.216L451 355.052ZM469.852 357.952L468.86 357.824L469.852 357.952ZM468.8 366.099L469.792 366.227L468.8 366.099ZM414 380.052H413V381.052H414V380.052ZM426 354.052V355.052H427V354.052H426ZM505 379.052V380.052H506V379.052H505ZM473 379.052H472V380.052H473V379.052ZM437 341.052C433.686 341.052 431 343.738 431 347.052H433C433 344.843 434.791 343.052 437 343.052V341.052ZM447 341.052H437V343.052H447V341.052ZM452 346.052C452 343.29 449.761 341.052 447 341.052V343.052C448.657 343.052 450 344.395 450 346.052H452ZM452 355.052V346.052H450V355.052H452ZM458.083 348.052C454.084 348.052 450.671 350.943 450.014 354.887L451.986 355.216C452.483 352.236 455.062 350.052 458.083 350.052V348.052ZM462.026 348.052H458.083V350.052H462.026V348.052ZM470.843 358.08C471.53 352.762 467.388 348.052 462.026 348.052V350.052C466.182 350.052 469.392 353.703 468.86 357.824L470.843 358.08ZM469.792 366.227L470.843 358.08L468.86 357.824L467.809 365.971L469.792 366.227ZM452.932 381.052C461.48 381.052 468.698 374.705 469.792 366.227L467.809 365.971C466.843 373.452 460.474 379.052 452.932 379.052V381.052ZM447 381.052H452.932V379.052H447V381.052ZM447 379.052H438V381.052H447V379.052ZM438 379.052H414V381.052H438V379.052ZM415 380.052V362.052H413V380.052H415ZM415 362.052C415 358.186 418.134 355.052 422 355.052V353.052C417.029 353.052 413 357.081 413 362.052H415ZM422 355.052H426V353.052H422V355.052ZM425 353.052V354.052H427V353.052H425ZM432 346.052C428.134 346.052 425 349.186 425 353.052H427C427 350.29 429.239 348.052 432 348.052V346.052ZM485 362.052C477.82 362.052 472 367.872 472 375.052H474C474 368.977 478.925 364.052 485 364.052V362.052ZM493 362.052H485V364.052H493V362.052ZM506 375.052C506 367.872 500.18 362.052 493 362.052V364.052C499.075 364.052 504 368.977 504 375.052H506ZM506 379.052V375.052H504V379.052H506ZM473 380.052H505V378.052H473V380.052ZM472 375.052V379.052H474V375.052H472Z" fill="black"/>
<path opacity="0.5" d="M434 367.052H436C440.418 367.052 444 370.633 444 375.052V378.052V361.052" stroke="black" stroke-width="2"/>
<path d="M427 354.052V354.052C431.418 354.052 435 357.633 435 362.052V363.052" stroke="black" stroke-width="2"/>
<rect width="2" height="4" transform="matrix(-1 0 0 1 488 362.052)" fill="#353535"/>
<rect width="2" height="4" transform="matrix(-1 0 0 1 486 362.052)" fill="#353535"/>
<rect width="2" height="4" transform="matrix(-1 0 0 1 453 375.052)" fill="#353535"/>
<rect width="2" height="4" transform="matrix(-1 0 0 1 451 375.052)" fill="#353535"/>
<rect width="2" height="4" transform="matrix(-1 0 0 1 427 353.052)" fill="#353535"/>
<rect width="2" height="4" transform="matrix(-1 0 0 1 425 353.052)" fill="#353535"/>
<rect width="2" height="4" transform="matrix(-1 0 0 1 441 341.052)" fill="#353535"/>
<rect width="2" height="4" transform="matrix(-1 0 0 1 439 341.052)" fill="#353535"/>
<rect width="2" height="4" transform="matrix(-1 0 0 1 445 341.052)" fill="#353535"/>
<rect width="2" height="4" transform="matrix(-1 0 0 1 443 341.052)" fill="#353535"/>
<rect width="2" height="4" transform="matrix(-1 0 0 1 457 375.052)" fill="#353535"/>
<rect width="2" height="4" transform="matrix(-1 0 0 1 455 375.052)" fill="#353535"/>
<rect x="744" y="489.052" width="96" height="41" fill="#B9B9B9"/>
<rect x="744" y="489.052" width="96" height="41" fill="black" fill-opacity="0.2"/>
<rect x="744" y="489.052" width="96" height="41" stroke="black" stroke-width="2"/>
<rect x="856" y="489.052" width="35" height="66" fill="#B9B9B9" stroke="black" stroke-width="2"/>
<rect x="876" y="489.052" width="34" height="72" fill="#B9B9B9"/>
<rect x="876" y="489.052" width="34" height="72" fill="black" fill-opacity="0.2"/>
<rect x="876" y="489.052" width="34" height="72" stroke="black" stroke-width="2"/>
<rect x="800" y="495.052" width="56" height="36" fill="#5E5F61" stroke="black" stroke-width="2"/>
<g opacity="0.1">
<rect x="995" y="458.052" width="44" height="2" fill="white"/>
<rect opacity="0.5" x="995" y="462.052" width="44" height="2" fill="white"/>
<path d="M1026 504.052C1026 495.767 1019.28 489.052 1011 489.052C1002.72 489.052 996 495.767 996 504.052V631.052H1026V504.052Z" stroke="white" stroke-width="2"/>
<rect x="1027" y="512.052" width="12" height="2" fill="white"/>
<rect opacity="0.5" x="1027" y="516.052" width="12" height="2" fill="white"/>
<rect x="1039" y="458.052" width="44" height="2" fill="white"/>
<rect opacity="0.5" x="1039" y="462.052" width="44" height="2" fill="white"/>
<path d="M1070 504.052C1070 495.767 1063.28 489.052 1055 489.052C1046.72 489.052 1040 495.767 1040 504.052V631.052H1070V504.052Z" stroke="white" stroke-width="2"/>
<rect x="1071" y="512.052" width="12" height="2" fill="white"/>
<rect opacity="0.5" x="1071" y="516.052" width="12" height="2" fill="white"/>
<rect x="1083" y="458.052" width="44" height="2" fill="white"/>
<rect opacity="0.5" x="1083" y="462.052" width="44" height="2" fill="white"/>
<path d="M1114 504.052C1114 495.767 1107.28 489.052 1099 489.052C1090.72 489.052 1084 495.767 1084 504.052V631.052H1114V504.052Z" stroke="white" stroke-width="2"/>
<rect x="1115" y="512.052" width="12" height="2" fill="white"/>
<rect opacity="0.5" x="1115" y="516.052" width="12" height="2" fill="white"/>
<rect x="1127" y="458.052" width="44" height="2" fill="white"/>
<rect opacity="0.5" x="1127" y="462.052" width="44" height="2" fill="white"/>
<path d="M1158 504.052C1158 495.767 1151.28 489.052 1143 489.052C1134.72 489.052 1128 495.767 1128 504.052V631.052H1158V504.052Z" stroke="white" stroke-width="2"/>
<rect x="1159" y="512.052" width="12" height="2" fill="white"/>
<rect opacity="0.5" x="1159" y="516.052" width="12" height="2" fill="white"/>
<rect x="1171" y="458.052" width="44" height="2" fill="white"/>
<rect opacity="0.5" x="1171" y="462.052" width="44" height="2" fill="white"/>
<path d="M1202 504.052C1202 495.767 1195.28 489.052 1187 489.052C1178.72 489.052 1172 495.767 1172 504.052V631.052H1202V504.052Z" stroke="white" stroke-width="2"/>
<rect x="1203" y="512.052" width="12" height="2" fill="white"/>
<rect opacity="0.5" x="1203" y="516.052" width="12" height="2" fill="white"/>
<rect x="1215" y="458.052" width="44" height="2" fill="white"/>
<rect opacity="0.5" x="1215" y="462.052" width="44" height="2" fill="white"/>
<path d="M1246 504.052C1246 495.767 1239.28 489.052 1231 489.052C1222.72 489.052 1216 495.767 1216 504.052V631.052H1246V504.052Z" stroke="white" stroke-width="2"/>
<rect x="1247" y="512.052" width="12" height="2" fill="white"/>
<rect opacity="0.5" x="1247" y="516.052" width="12" height="2" fill="white"/>
<rect x="1259" y="458.052" width="44" height="2" fill="white"/>
<rect opacity="0.5" x="1259" y="462.052" width="44" height="2" fill="white"/>
<path d="M1290 504.052C1290 495.767 1283.28 489.052 1275 489.052C1266.72 489.052 1260 495.767 1260 504.052V631.052H1290V504.052Z" stroke="white" stroke-width="2"/>
<rect x="1291" y="512.052" width="12" height="2" fill="white"/>
<rect opacity="0.5" x="1291" y="516.052" width="12" height="2" fill="white"/>
<rect x="1303" y="458.052" width="44" height="2" fill="white"/>
<rect opacity="0.5" x="1303" y="462.052" width="44" height="2" fill="white"/>
<path d="M1334 504.052C1334 495.767 1327.28 489.052 1319 489.052C1310.72 489.052 1304 495.767 1304 504.052V631.052H1334V504.052Z" stroke="white" stroke-width="2"/>
<rect x="1335" y="512.052" width="12" height="2" fill="white"/>
<rect opacity="0.5" x="1335" y="516.052" width="12" height="2" fill="white"/>
<rect x="1347" y="458.052" width="44" height="2" fill="white"/>
<rect opacity="0.5" x="1347" y="462.052" width="44" height="2" fill="white"/>
<path d="M1378 504.052C1378 495.767 1371.28 489.052 1363 489.052C1354.72 489.052 1348 495.767 1348 504.052V631.052H1378V504.052Z" stroke="white" stroke-width="2"/>
<rect x="1379" y="512.052" width="12" height="2" fill="white"/>
<rect opacity="0.5" x="1379" y="516.052" width="12" height="2" fill="white"/>
<rect x="1391" y="458.052" width="44" height="2" fill="white"/>
<rect opacity="0.5" x="1391" y="462.052" width="44" height="2" fill="white"/>
<path d="M1422 504.052C1422 495.767 1415.28 489.052 1407 489.052C1398.72 489.052 1392 495.767 1392 504.052V631.052H1422V504.052Z" stroke="white" stroke-width="2"/>
<rect x="1423" y="512.052" width="12" height="2" fill="white"/>
<rect opacity="0.5" x="1423" y="516.052" width="12" height="2" fill="white"/>
<rect x="1435" y="458.052" width="44" height="2" fill="white"/>
<rect opacity="0.5" x="1435" y="462.052" width="44" height="2" fill="white"/>
<path d="M1466 504.052C1466 495.767 1459.28 489.052 1451 489.052C1442.72 489.052 1436 495.767 1436 504.052V631.052H1466V504.052Z" stroke="white" stroke-width="2"/>
<rect x="1467" y="512.052" width="12" height="2" fill="white"/>
<rect opacity="0.5" x="1467" y="516.052" width="12" height="2" fill="white"/>
<rect x="1479" y="458.052" width="44" height="2" fill="white"/>
<rect opacity="0.5" x="1479" y="462.052" width="44" height="2" fill="white"/>
<path d="M1510 504.052C1510 495.767 1503.28 489.052 1495 489.052C1486.72 489.052 1480 495.767 1480 504.052V631.052H1510V504.052Z" stroke="white" stroke-width="2"/>
<rect x="1511" y="512.052" width="12" height="2" fill="white"/>
<rect opacity="0.5" x="1511" y="516.052" width="12" height="2" fill="white"/>
<rect x="1523" y="458.052" width="44" height="2" fill="white"/>
<rect opacity="0.5" x="1523" y="462.052" width="44" height="2" fill="white"/>
<path d="M1554 504.052C1554 495.767 1547.28 489.052 1539 489.052C1530.72 489.052 1524 495.767 1524 504.052V631.052H1554V504.052Z" stroke="white" stroke-width="2"/>
<rect x="1555" y="512.052" width="12" height="2" fill="white"/>
<rect opacity="0.5" x="1555" y="516.052" width="12" height="2" fill="white"/>
<rect x="1567" y="458.052" width="44" height="2" fill="white"/>
<rect opacity="0.5" x="1567" y="462.052" width="44" height="2" fill="white"/>
<path d="M1598 504.052C1598 495.767 1591.28 489.052 1583 489.052C1574.72 489.052 1568 495.767 1568 504.052V631.052H1598V504.052Z" stroke="white" stroke-width="2"/>
<rect x="1599" y="512.052" width="12" height="2" fill="white"/>
<rect opacity="0.5" x="1599" y="516.052" width="12" height="2" fill="white"/>
<rect x="1611" y="458.052" width="44" height="2" fill="white"/>
<rect opacity="0.5" x="1611" y="462.052" width="44" height="2" fill="white"/>
<path d="M1642 504.052C1642 495.767 1635.28 489.052 1627 489.052C1618.72 489.052 1612 495.767 1612 504.052V631.052H1642V504.052Z" stroke="white" stroke-width="2"/>
<rect x="1643" y="512.052" width="12" height="2" fill="white"/>
<rect opacity="0.5" x="1643" y="516.052" width="12" height="2" fill="white"/>
<rect x="1655" y="458.052" width="44" height="2" fill="white"/>
<rect opacity="0.5" x="1655" y="462.052" width="44" height="2" fill="white"/>
<path d="M1686 504.052C1686 495.767 1679.28 489.052 1671 489.052C1662.72 489.052 1656 495.767 1656 504.052V631.052H1686V504.052Z" stroke="white" stroke-width="2"/>
<rect x="1687" y="512.052" width="12" height="2" fill="white"/>
<rect opacity="0.5" x="1687" y="516.052" width="12" height="2" fill="white"/>
</g>
<path opacity="0.4" d="M1113.25 630.857L1154.25 642.599M1143 630.857L1145.75 632.107V630.857M1209.75 659.107L1166.5 647.607M1215.5 647.357V649.607M1203.5 647.607V648.857L1201.25 647.607" stroke="#434A45" stroke-width="2"/>
<path fill-rule="evenodd" clip-rule="evenodd" d="M1520 492.052C1520 487.633 1523.58 484.052 1528 484.052H1537C1540.87 484.052 1544 487.186 1544 491.052H1562C1565.31 491.052 1568 493.738 1568 497.052V498.052H1573.93C1581.31 498.052 1586.94 504.657 1585.78 511.948L1585.62 512.948C1584.69 518.769 1579.66 523.052 1573.77 523.052H1568H1561H1533V527.052H1521C1514.37 527.052 1509 521.679 1509 515.052V511.052C1509 506.633 1512.58 503.052 1517 503.052H1520V501.552V492.052Z" fill="#221D2F"/>
<path d="M1544 491.052H1543V492.052H1544V491.052ZM1568 498.052H1567V499.052H1568V498.052ZM1585.78 511.948L1584.79 511.79V511.79L1585.78 511.948ZM1585.62 512.948L1586.6 513.106V513.106L1585.62 512.948ZM1533 523.052V522.052H1532V523.052H1533ZM1533 527.052V528.052H1534V527.052H1533ZM1520 503.052V504.052H1521V503.052H1520ZM1528 483.052C1523.03 483.052 1519 487.081 1519 492.052H1521C1521 488.186 1524.13 485.052 1528 485.052V483.052ZM1537 483.052H1528V485.052H1537V483.052ZM1545 491.052C1545 486.633 1541.42 483.052 1537 483.052V485.052C1540.31 485.052 1543 487.738 1543 491.052H1545ZM1562 490.052H1544V492.052H1562V490.052ZM1569 497.052C1569 493.186 1565.87 490.052 1562 490.052V492.052C1564.76 492.052 1567 494.29 1567 497.052H1569ZM1569 498.052V497.052H1567V498.052H1569ZM1573.93 497.052H1568V499.052H1573.93V497.052ZM1586.76 512.106C1588.03 504.207 1581.93 497.052 1573.93 497.052V499.052C1580.7 499.052 1585.86 505.106 1584.79 511.79L1586.76 512.106ZM1586.6 513.106L1586.76 512.106L1584.79 511.79L1584.63 512.79L1586.6 513.106ZM1573.77 524.052C1580.15 524.052 1585.6 519.412 1586.6 513.106L1584.63 512.79C1583.78 518.126 1579.17 522.052 1573.77 522.052V524.052ZM1568 524.052H1573.77V522.052H1568V524.052ZM1561 524.052H1568V522.052H1561V524.052ZM1533 524.052H1561V522.052H1533V524.052ZM1532 523.052V527.052H1534V523.052H1532ZM1533 526.052H1521V528.052H1533V526.052ZM1521 526.052C1514.92 526.052 1510 521.127 1510 515.052H1508C1508 522.231 1513.82 528.052 1521 528.052V526.052ZM1510 515.052V511.052H1508V515.052H1510ZM1510 511.052C1510 507.186 1513.13 504.052 1517 504.052V502.052C1512.03 502.052 1508 506.081 1508 511.052H1510ZM1517 504.052H1520V502.052H1517V504.052ZM1519 501.552V503.052H1521V501.552H1519ZM1519 492.052V501.552H1521V492.052H1519Z" fill="black"/>
<path opacity="0.5" d="M1553 513.052V506.052C1553 501.633 1556.58 498.052 1561 498.052H1564" stroke="black" stroke-width="2"/>
<path opacity="0.5" d="M1523 510.052L1525 510.052C1529.42 510.052 1533 513.633 1533 518.052L1533 522.052L1533 493.052" stroke="black" stroke-width="2"/>
<path d="M1553 514.052L1553 511.052C1553 506.633 1549.42 503.052 1545 503.052L1538 503.052" stroke="black" stroke-width="2"/>
<path d="M1544 496.052L1544 499.052C1544 501.261 1542.21 503.052 1540 503.052L1536 503.052" stroke="black" stroke-width="2"/>
<rect width="2" height="4" transform="matrix(-1 0 0 1 1554 520.052)" fill="#221D2F"/>
<rect width="2" height="4" transform="matrix(-1 0 0 1 1552 520.052)" fill="#221D2F"/>
<rect width="2" height="4" transform="matrix(-1 0 0 1 1573 497.052)" fill="#221D2F"/>
<rect width="2" height="4" transform="matrix(-1 0 0 1 1571 497.052)" fill="#221D2F"/>
<rect width="2" height="4" transform="matrix(-1 0 0 1 1549 490.052)" fill="#221D2F"/>
<rect width="2" height="4" transform="matrix(-1 0 0 1 1547 490.052)" fill="#221D2F"/>
<rect width="2" height="4" transform="matrix(-1 0 0 1 1532 483.052)" fill="#221D2F"/>
<rect width="2" height="4" transform="matrix(-1 0 0 1 1530 483.052)" fill="#221D2F"/>
<rect width="2" height="4" transform="matrix(-1 0 0 1 1538 483.052)" fill="#221D2F"/>
<rect width="2" height="4" transform="matrix(-1 0 0 1 1536 483.052)" fill="#221D2F"/>
<rect width="2" height="4" transform="matrix(-1 0 0 1 1519 502.052)" fill="#221D2F"/>
<rect width="2" height="4" transform="matrix(-1 0 0 1 1517 502.052)" fill="#221D2F"/>
<path d="M1143 630.857L1114 631.052L1280 579.052C1280 579.052 1399.94 546.465 1478 531.052C1551.68 516.502 1943.24 499.504 2227.88 488.759V1063.55L1922.75 949.052L1312.5 720.052H1344L1183.75 661.607L1198.25 659.107L1207.75 659.607L1232.25 656.107H1234L1237.25 652.357L1242 653.857L1262.5 650.107V648.607L1280 646.107L1252 646.857L1215.5 647.422L1203.5 647.607V646.857L1201.5 647.607H1166.5V646.107L1219.25 630.857H1188.75H1145.75V629.607L1143 630.857Z" fill="#302930"/>
<path d="M1215.5 647.422L1203.5 647.607V646.857L1201.5 647.607H1166.5V646.107L1219.25 630.857H1188.75H1145.75V629.607L1143 630.857L1114 631.052L1280 579.052C1280 579.052 1399.94 546.465 1478 531.052C1551.68 516.502 1943.24 499.504 2227.88 488.759V1063.55L1922.75 949.052L1312.5 720.052H1344L1183.75 661.607L1198.25 659.107L1207.75 659.607L1232.25 656.107H1234L1237.25 652.357L1242 653.857L1262.5 650.107V648.607L1280 646.107L1252 646.857L1215.5 647.422ZM1215.5 647.422V645.607M1112 631.052H1109" stroke="black" stroke-width="2"/>
<path d="M808 459.052H763.693L752.443 489.052H808V459.052Z" fill="#843E2E" stroke="black" stroke-width="2"/>
<path d="M800 459.052H844.307L855.557 489.052H800V459.052Z" fill="#843E2E" stroke="black" stroke-width="2"/>
<path d="M920.828 461.052H885.172L892.573 455.871L892.889 455.65L892.975 455.275L903 411.529L913.025 455.275L913.111 455.65L913.427 455.871L920.828 461.052Z" fill="#597CB1" stroke="black" stroke-width="2"/>
<path d="M980.631 489.052H911.369L946 453.485L980.631 489.052Z" fill="#843E2E" stroke="black" stroke-width="2"/>
<rect x="-1" y="1" width="24" height="70" transform="matrix(-1 0 0 1 914 460.052)" fill="#A6ACB1" stroke="black" stroke-width="2"/>
<path d="M1290 580.302V585.052H1274V581.052L1280 577.552V561.052L1284.75 563.802L1290 567.052V580.302Z" fill="#302930" stroke="black" stroke-width="2"/>
<path opacity="0.4" d="M1132.5 636.107L1132.5 645.107" stroke="#434A45" stroke-width="2"/>
<path d="M1132.5 616.607V625.107" stroke="black" stroke-width="2"/>
<path d="M1197 630.781L1193.9 632.607H1189V629.107H1195.97L1197 630.781Z" fill="#434A45" stroke="black" stroke-width="2"/>
<path d="M1130.6 629.107H1133.85L1135.5 630.857H1130.6V629.107Z" fill="#434A45" stroke="black" stroke-width="2"/>
<path opacity="0.3" d="M1135.5 631.107L1133.85 632.857H1130.6V631.107" stroke="black" stroke-width="2"/>
<path opacity="0.3" d="M1195.97 637.107L1197 635.434L1193.9 633.607H1189V637.107" stroke="black" stroke-width="2"/>
<path d="M1186.5 628.607V633.107" stroke="black" stroke-width="2"/>
<path opacity="0.3" d="M1186.5 632.607V637.107" stroke="black" stroke-width="2"/>
<path d="M956 523.052L954 525.052V531.052H958V525.052L956 523.052Z" stroke="black" stroke-width="2"/>
<path d="M993 580.052L987 588.052H990L983.5 595.052H1020L1012 588.052H1016L1009 580.052H1015L1007 572.052H1011L1005 562.052H1009L1004 554.052H1007L1000 541.052L995 554.052H998L992 562.052H996L990 572.052H994L986 580.052H993Z" fill="#767D5C" stroke="black" stroke-width="2"/>
<rect x="1003" y="565.052" width="34" height="51" fill="#A7987A" stroke="black" stroke-width="2"/>
<path d="M1003 567.052H1037V563.587L1020 552.254L1003 563.587V567.052Z" fill="#843E2E" stroke="black" stroke-width="2"/>
<path d="M1059 571.107L1055 575.107V616.052H1015V575.107L1011 571.107H1059Z" fill="#B1B1B1" stroke="black" stroke-width="2"/>
<path d="M1008 576.107H1011V588.052H1059V576.107H1062" stroke="black" stroke-width="2"/>
<rect x="1011" y="580.052" width="8" height="2" fill="black"/>
<rect x="1021" y="580.052" width="8" height="2" fill="black"/>
<rect x="1031" y="580.052" width="8" height="2" fill="black"/>
<rect x="1041" y="580.052" width="8" height="2" fill="black"/>
<rect x="1051" y="580.052" width="8" height="2" fill="black"/>
<path d="M1022 603.052V597.385L1024 594.718L1026 597.385V603.052H1022Z" fill="#ADADAD" stroke="black" stroke-width="2"/>
<path d="M1033 603.052V597.385L1035 594.718L1037 597.385V603.052H1033Z" fill="#ADADAD" stroke="black" stroke-width="2"/>
<path d="M1044 603.052V597.385L1046 594.718L1048 597.385V603.052H1044Z" fill="#ADADAD" stroke="black" stroke-width="2"/>
<rect x="918" y="489.052" width="56" height="42" fill="#B9B9B9" stroke="black" stroke-width="2"/>
<path d="M840 489.052H899V495.052H840V489.052Z" fill="#B9B9B9" stroke="black" stroke-width="2"/>
<path d="M774 453.052H833V459.052H774V453.052Z" fill="#B9B9B9" stroke="black" stroke-width="2"/>
<rect x="906" y="519.052" width="40" height="12" fill="#B9B9B9" stroke="black" stroke-width="2"/>
<path d="M906 519.052H949L944.5 513.052H906V519.052Z" fill="#843E2E" stroke="black" stroke-width="2"/>
<path d="M984 517.466V531.052H974V507.466L984 517.466Z" fill="#D9D9D9" fill-opacity="0.5" stroke="black" stroke-width="2"/>
<path d="M901 453.052V447.385L903 444.718L905 447.385V453.052H901Z" fill="#A7987A" stroke="black" stroke-width="2"/>
<path d="M832 489.052V483.385L834 480.718L836 483.385V489.052H832Z" fill="#ADADAD" stroke="black" stroke-width="2"/>
<path d="M901 478.052V472.385L903 469.718L905 472.385V478.052H901Z" fill="#ADADAD" stroke="black" stroke-width="2"/>
<path d="M929 513.052V507.385L931 504.718L933 507.385V513.052H929Z" fill="#ADADAD" stroke="black" stroke-width="2"/>
<path d="M959 531.052V525.385L961 522.718L963 525.385V531.052H959Z" fill="#ADADAD" stroke="black" stroke-width="2"/>
<path d="M937 529.052H928V526.052" stroke="black" stroke-width="2"/>
<path d="M929 527.052H920V524.052" stroke="black" stroke-width="2"/>
<path d="M921 525.052H912V522.052" stroke="black" stroke-width="2"/>
<path d="M913 523.052H904V520.052" stroke="black" stroke-width="2"/>
<path d="M905 521.052H896V518.052" stroke="black" stroke-width="2"/>
<path d="M903 402.052V406.052M903 419.052V406.052M903 406.052H906M903 406.052H900" stroke="black" stroke-width="2"/>
<path d="M901 453.052H898M895 453.052H898M898 453.052V457.052" stroke="black" stroke-width="2"/>
<path d="M911 453.052H908M905 453.052H908M908 453.052V457.052" stroke="black" stroke-width="2"/>
<path d="M892 453.052H889M886 453.052H889M889 453.052V462.052" stroke="black" stroke-width="2"/>
<path d="M920 453.052H917M914 453.052H917M917 453.052V462.052" stroke="black" stroke-width="2"/>
<path opacity="0.5" d="M990 431.052H986M986 431.052V434.052M986 431.052H982" stroke="black" stroke-width="2"/>
<path opacity="0.6" d="M997 419.052H993M993 419.052V422.052M993 419.052H989" stroke="black" stroke-width="2"/>
<path opacity="0.3" d="M1033 437.052H1029M1029 437.052V440.052M1029 437.052H1025" stroke="black" stroke-width="2"/>
<path d="M984 563.052V561.052H920V591.052H984V570.052V569.052H985H988V566.552L984.4 563.852L984 563.552V563.052Z" fill="#D9D9D9" fill-opacity="0.5" stroke="black" stroke-width="2"/>
<path d="M984 533.052V531.052H920V561.052H984V540.052V539.052H985H988V536.552L984.4 533.852L984 533.552V533.052Z" fill="#D9D9D9" fill-opacity="0.5" stroke="black" stroke-width="2"/>
<path d="M974 533.052V531.052H910V561.052H974V540.052V539.052H975H978V536.552L974.4 533.852L974 533.552V533.052Z" fill="#A7987A" stroke="black" stroke-width="2"/>
<path d="M904 539.052H984V549.052" stroke="black" stroke-width="2"/>
<path d="M985 549.052L904 549.052" stroke="black" stroke-width="2"/>
<path d="M938 539.052L938 549.052" stroke="black" stroke-width="2"/>
<path d="M946 539.052L946 549.052" stroke="black" stroke-width="2"/>
<path d="M954 539.052L954 549.052" stroke="black" stroke-width="2"/>
<path d="M962 539.052L962 549.052" stroke="black" stroke-width="2"/>
<path d="M970 539.052L970 549.052" stroke="black" stroke-width="2"/>
<path d="M979 549.052L974 554.052" stroke="black" stroke-width="2"/>
<path d="M979 539.052L974 544.052" stroke="black" stroke-width="2"/>
<path d="M926 549.052V543.385L928 540.718L930 543.385V549.052H926Z" fill="#ADADAD" stroke="black" stroke-width="2"/>
<path d="M979 539.052L984 544.052" stroke="black" stroke-width="2"/>
<path d="M1092 648.477C1092 648.477 1089.38 646.275 1087.35 645.607C1084.63 644.708 1080 645.607 1080 645.607V651.107H1090.45L1092 648.477Z" fill="#434A45" stroke="black" stroke-width="2"/>
<path d="M876 513.107H885L893 524.052H898V525.052L906 527.052L914 531.052H876V513.107Z" fill="#302930"/>
<path fill-rule="evenodd" clip-rule="evenodd" d="M1028 615.052H1039.5L1049 608.857L1052 612.107L1065 603.052H1074L1077 612.107L1073 615.107H1077L1075 619.052L1082 628.052L1089 631.052V636.052L1094 638.107L1101 644.052L1091 646.052L1088 643.052V646.052L1083 647.052L1081 645.052V649.052L1071 654.107L1068 652.052L1063 657.052H1052L1045 669.052H1024L1014 674.052L992 678.052H1054V681.052L1067 682.052L983 701.552L1016 757.052H1028C1039.39 821.839 1031.48 884.929 1023.46 948.847C1021.17 967.161 1018.86 985.543 1017 1004.05L42.5 583.607V366.052L512 379.052L578 399.052V407.052L700 443.052H722L731 453.052L796 500.607L881.5 545.607C883.333 548.107 887.6 553.207 890 553.607C890.306 553.658 890.642 553.737 891 553.838C893.448 554.525 896.9 556.235 898.5 557.107C905.833 562.441 921.1 573.407 923.5 574.607C924.191 574.953 924.962 575.431 925.819 575.963C928.68 577.738 932.498 580.107 937.5 580.107H963.5C967.5 580.107 974.5 585.774 977.5 588.607L987 592.724L992.5 595.107H1000L1028 615.052Z" fill="#302930"/>
<path d="M977.5 588.607C974.5 585.774 967.5 580.107 963.5 580.107H937.5C932.498 580.107 928.68 577.738 925.819 575.963C924.962 575.431 924.191 574.953 923.5 574.607C921.1 573.407 905.833 562.441 898.5 557.107C896.9 556.235 893.448 554.525 891 553.838V538.607H896L904.5 555.607L920.5 557.107L933.5 568.107L946.5 572.107H963.5L973.5 574.607L983.5 583.607L987 588.603V592.724L977.5 588.607Z" fill="#302930"/>
<path d="M1074 628.052H1082M1047 615.052H1039.5M1039.5 615.052H1028L1000 595.107H992.5L987 592.724M1039.5 615.052L1049 608.857L1052 612.107L1065 603.052H1074L1077 612.107L1073 615.107H1077L1075 619.052L1082 628.052M963.5 580.107C967.5 580.107 974.5 585.774 977.5 588.607L987 592.724M963.5 580.107C958.5 580.107 944 580.107 937.5 580.107M963.5 580.107H937.5M937.5 580.107C932.498 580.107 928.68 577.738 925.819 575.963C924.962 575.431 924.191 574.953 923.5 574.607C921.1 573.407 905.833 562.441 898.5 557.107C896.9 556.235 893.448 554.525 891 553.838M1028.5 620.107H1040V624.107L1043.75 625.357M992 678.052L1014 674.052L1024 669.052H1045L1052 657.052H1063L1068 652.052M992 678.052V671.052L974 661.052L968 648.052M992 678.052H1054M968 648.052L964 633.052L952.5 624.107H944L938 627.052M968 648.052L989 658.107C990.167 658.107 993 658.107 995 658.107L1007 653.052H1045L1048 650.107V643.052H1056L1059 638.107L1047.5 630.107L1043.75 625.357M933 633.052L938 627.052M938 627.052L923.5 620.107L920 623.357L913.5 622.607H906L896 615.607L884.5 620.107L803 602.857V583.607L42.5 583.607M1043.75 625.357L1047.5 626.607L1059 630.107L1069 638.107L1073.5 647.607L1068 652.052M1082 628.052L1089 631.052M1094 631.052H1089M1089 631.052V636.052L1094 638.107L1101 644.052L1091 646.052L1088 643.052V646.052L1083 647.052L1081 645.052V649.052L1071 654.107L1068 652.052M1057 678.052H1054M1054 678.052V681.052M1054 681.052L1016 689.052H999M1054 681.052L1067 682.052L983 701.552L1016 757.052H1028C1039.39 821.839 1031.48 884.929 1023.46 948.847C1021.17 967.161 1018.86 985.543 1017 1004.05L42.5 583.607M999 689.052V686.052M999 689.052L1006 692.052M991 691.052L995 683.052M1069 656.052L1064 661.052H1061M42.5 583.607V366.052L512 379.052L578 399.052V407.052L700 443.052H722L731 453.052L796 500.607L881.5 545.607C883.333 548.107 887.6 553.207 890 553.607C890.306 553.658 890.642 553.737 891 553.838M987 592.724V588.603L983.5 583.607L973.5 574.607L963.5 572.107H946.5L933.5 568.107L920.5 557.107L904.5 555.607L896 538.607H891V553.838M898 525.052V524.052H893L885 513.107H876V531.052H914L906 527.052L898 525.052Z" stroke="black" stroke-width="2"/>
<path d="M865 585.052H879V620.052H865V585.052Z" fill="#727272" stroke="black" stroke-width="2"/>
<path d="M889 609.501L880.62 602.052H864V621.052H889V609.501Z" fill="#727272" stroke="black" stroke-width="2"/>
<path d="M889 610.052H864V621.052H889V610.052Z" fill="#727272" stroke="black" stroke-width="2"/>
<path d="M876 598.052V594.339L880 587.939L884 594.339V598.052H876Z" fill="#727272" stroke="black" stroke-width="2"/>
<path d="M865 585.052V582.199L872 567.392L879 582.199V585.052H865Z" fill="#727272" stroke="black" stroke-width="2"/>
<path d="M872 557.052V561.052M872 567.052V561.052M872 561.052H869M872 561.052H875" stroke="black" stroke-width="2"/>
<path d="M855 621.052V609.501L863 602.39L871 609.501V621.052H855Z" fill="#727272" stroke="black" stroke-width="2"/>
<path d="M901 598.052H876V629.052H901V598.052Z" fill="#727272" stroke="black" stroke-width="2"/>
<path d="M897 629.052V602.52L902 598.353L907 602.52V629.052H897Z" fill="#727272" stroke="black" stroke-width="2"/>
<path fill-rule="evenodd" clip-rule="evenodd" d="M1047.5 626.607L1059 630.107L1069 638.107L1073.5 647.607L1068 652.052L1063 657.052H1052L1045 669.052H1024L1014 674.052L992 678.052H1054V681.052L1016 689.052H999L1006 692.052L980 700.052H949L986 709.052L943.5 814.607L890.25 818.107L931.5 843.357L816.769 1211.05H6.5V856.052L1.5 728.052V555.052L752 583.052H803V602.857L884.5 620.107L897 629.052H907L917.5 626.607L920 623.357L923.5 620.107L938 627.052L944 624.107H952.5L964 633.052L968 648.052L989 658.107H995L1007 653.052H1045L1048 650.107V643.052H1056L1059 638.107L1047.5 630.107L1043.75 625.357L1047.5 626.607Z" fill="#302930"/>
<path d="M1016 689.052L1054 681.052L1067 682.052L986 703.052L1014 709.052L1028 753.052H1019L1028 757.052C1042.65 840.401 1036.36 1127.94 1028 1211.05H816.769L931.5 843.357L890.25 818.107L943.5 814.607L986 709.052L949 700.052H980L1006 692.052L999 689.052H1016Z" fill="#302930"/>
<path d="M1040 624.107L1043.75 625.357M992 678.052L1014 674.052L1024 669.052H1045L1052 657.052H1063L1068 652.052M992 678.052V671.052L974 661.052L968 648.052M992 678.052H1054M968 648.052L964 633.052L952.5 624.107H944L938 627.052M968 648.052L989 658.107M924 667.052L927 652.052L933 647.052V633.052L938 627.052M803 678.052C726 692.052 1.5 728.052 1.5 728.052M1.5 728.052L6.5 856.052M1.5 728.052V555.052L752 583.052H803V602.857L884.5 620.107L897 629.052H907L917.5 626.607L920 623.357L923.5 620.107L938 627.052M6.5 856.052V1211.05H816.769M6.5 856.052C208.341 826.765 727.915 775.01 913 691.107M968 681.052C968 681.052 971 686.052 977 684.052M1043.75 625.357L1047.5 626.607L1059 630.107L1069 638.107L1073.5 647.607L1068 652.052M1043.75 625.357L1047.5 630.107L1059 638.107L1056 643.052H1048V650.107L1045 653.052H1007L995 658.107M995 658.107C993 658.107 990.167 658.107 989 658.107M995 658.107H989M1057 678.052H1054M1054 678.052V681.052M1054 681.052L1016 689.052H999M1054 681.052L1067 682.052L986 703.052L1014 709.052L1028 753.052H1019L1028 757.052C1042.65 840.401 1036.36 1127.94 1028 1211.05H816.769M999 689.052V686.052M999 689.052L1006 692.052L980 700.052H949L986 709.052L943.5 814.607L890.25 818.107L931.5 843.357L816.769 1211.05M995 683.052L991 691.052H972M1071 654.107L1068 652.052" stroke="black" stroke-width="2"/>
<path d="M809 600.052V603.052H795.5V599.052H792V593.052C792 590.843 793.791 589.052 796 589.052H800V586.052H801C807.627 586.052 813 591.424 813 598.052V600.052H809Z" fill="#302930" stroke="black" stroke-width="2"/>
<rect x="797" y="588.052" width="2" height="4" fill="#302930"/>
<rect x="802" y="600.052" width="2" height="4" fill="#302930"/>
<rect x="800" y="600.052" width="2" height="4" fill="black"/>
<circle cx="961" cy="296.052" r="12" stroke="black" stroke-width="2"/>
<path opacity="0.2" d="M425 373.052C425 373.052 411.559 374.145 403.421 375.821C395.878 377.374 385 381.052 385 381.052" stroke="black" stroke-width="2"/>
<path opacity="0.2" d="M437 385.052C437 385.052 423.559 386.145 415.421 387.821C407.878 389.374 397 393.052 397 393.052" stroke="black" stroke-width="2"/>
<path opacity="0.2" d="M429 377.052C429 377.052 415.559 378.145 407.421 379.821C399.878 381.374 389 385.052 389 385.052" stroke="black" stroke-width="2"/>
<path opacity="0.2" d="M441 389.052C441 389.052 427.559 390.145 419.421 391.821C411.878 393.374 401 397.052 401 397.052" stroke="black" stroke-width="2"/>
<path opacity="0.2" d="M433 381.052C433 381.052 419.559 382.145 411.421 383.821C403.878 385.374 393 389.052 393 389.052" stroke="black" stroke-width="2"/>
<path opacity="0.2" d="M445 393.052C445 393.052 431.559 394.145 423.421 395.821C415.878 397.374 405 401.052 405 401.052" stroke="black" stroke-width="2"/>
<path opacity="0.2" d="M473 393.052C473 393.052 459.559 394.145 451.421 395.821C443.878 397.374 433 401.052 433 401.052" stroke="black" stroke-width="2"/>
<path opacity="0.2" d="M485 405.052C485 405.052 471.559 406.145 463.421 407.821C455.878 409.374 445 413.052 445 413.052" stroke="black" stroke-width="2"/>
<path opacity="0.2" d="M477 397.052C477 397.052 463.559 398.145 455.421 399.821C447.878 401.374 437 405.052 437 405.052" stroke="black" stroke-width="2"/>
<path opacity="0.2" d="M489 409.052C489 409.052 475.559 410.145 467.421 411.821C459.878 413.374 449 417.052 449 417.052" stroke="black" stroke-width="2"/>
<path opacity="0.2" d="M481 401.052C481 401.052 467.559 402.145 459.421 403.821C451.878 405.374 441 409.052 441 409.052" stroke="black" stroke-width="2"/>
<path opacity="0.2" d="M493 413.052C493 413.052 479.559 414.145 471.421 415.821C463.878 417.374 453 421.052 453 421.052" stroke="black" stroke-width="2"/>
<path d="M377 366.052L375 371.052H393L391 366.052H377Z" fill="#5F3939" stroke="black" stroke-width="2"/>
<path d="M376 371.052H386.182H392V376.052H386.182H376V371.052Z" fill="#D9D9D9"/>
<path d="M376 371.052H386.182H392V376.052H386.182H376V371.052Z" fill="black" fill-opacity="0.2"/>
<path d="M376 371.052H386.182H392V376.052H386.182H376V371.052Z" stroke="black" stroke-width="2"/>
<rect x="919" y="490.052" width="54" height="4" fill="black" fill-opacity="0.2"/>
<rect x="892" y="462.052" width="22" height="4" fill="black" fill-opacity="0.2"/>
<rect x="907" y="520.052" width="38" height="4" fill="black" fill-opacity="0.2"/>
<rect x="857" y="496.052" width="18" height="8" fill="black" fill-opacity="0.2"/>
<path fill-rule="evenodd" clip-rule="evenodd" d="M596 549.052C596 544.633 599.582 541.052 604 541.052H613C616.866 541.052 620 544.186 620 548.052H638C641.314 548.052 644 550.738 644 554.052V555.052H649.927C657.311 555.052 662.943 561.657 661.777 568.948L661.617 569.948C660.685 575.769 655.663 580.052 649.767 580.052H644H637H609V584.052H597C590.373 584.052 585 578.679 585 572.052V568.052C585 563.633 588.582 560.052 593 560.052H596V558.552V549.052Z" fill="#353535"/>
<path d="M620 548.052H619V549.052H620V548.052ZM644 555.052H643V556.052H644V555.052ZM661.777 568.948L660.789 568.79V568.79L661.777 568.948ZM661.617 569.948L662.604 570.106V570.106L661.617 569.948ZM609 580.052V579.052H608V580.052H609ZM609 584.052V585.052H610V584.052H609ZM596 560.052V561.052H597V560.052H596ZM604 540.052C599.029 540.052 595 544.081 595 549.052H597C597 545.186 600.134 542.052 604 542.052V540.052ZM613 540.052H604V542.052H613V540.052ZM621 548.052C621 543.633 617.418 540.052 613 540.052V542.052C616.314 542.052 619 544.738 619 548.052H621ZM638 547.052H620V549.052H638V547.052ZM645 554.052C645 550.186 641.866 547.052 638 547.052V549.052C640.761 549.052 643 551.29 643 554.052H645ZM645 555.052V554.052H643V555.052H645ZM649.927 554.052H644V556.052H649.927V554.052ZM662.764 569.106C664.028 561.207 657.926 554.052 649.927 554.052V556.052C656.696 556.052 661.859 562.106 660.789 568.79L662.764 569.106ZM662.604 570.106L662.764 569.106L660.789 568.79L660.629 569.79L662.604 570.106ZM649.767 581.052C656.154 581.052 661.595 576.412 662.604 570.106L660.629 569.79C659.775 575.126 655.172 579.052 649.767 579.052V581.052ZM644 581.052H649.767V579.052H644V581.052ZM637 581.052H644V579.052H637V581.052ZM609 581.052H637V579.052H609V581.052ZM608 580.052V584.052H610V580.052H608ZM609 583.052H597V585.052H609V583.052ZM597 583.052C590.925 583.052 586 578.127 586 572.052H584C584 579.231 589.82 585.052 597 585.052V583.052ZM586 572.052V568.052H584V572.052H586ZM586 568.052C586 564.186 589.134 561.052 593 561.052V559.052C588.029 559.052 584 563.081 584 568.052H586ZM593 561.052H596V559.052H593V561.052ZM595 558.552V560.052H597V558.552H595ZM595 549.052V558.552H597V549.052H595Z" fill="black"/>
<path opacity="0.5" d="M629 570.052V563.052C629 558.633 632.582 555.052 637 555.052H640" stroke="black" stroke-width="2"/>
<path opacity="0.5" d="M599 567.052L601 567.052C605.418 567.052 609 570.633 609 575.052L609 579.052L609 550.052" stroke="black" stroke-width="2"/>
<path d="M629 571.052L629 568.052C629 563.633 625.418 560.052 621 560.052L614 560.052" stroke="black" stroke-width="2"/>
<path d="M620 553.052L620 556.052C620 558.261 618.209 560.052 616 560.052L612 560.052" stroke="black" stroke-width="2"/>
<rect width="2" height="4" transform="matrix(-1 0 0 1 630 577.052)" fill="#353535"/>
<rect width="2" height="4" transform="matrix(-1 0 0 1 628 577.052)" fill="#353535"/>
<rect width="2" height="4" transform="matrix(-1 0 0 1 649 554.052)" fill="#353535"/>
<rect width="2" height="4" transform="matrix(-1 0 0 1 647 554.052)" fill="#353535"/>
<rect width="2" height="4" transform="matrix(-1 0 0 1 625 547.052)" fill="#353535"/>
<rect width="2" height="4" transform="matrix(-1 0 0 1 623 547.052)" fill="#353535"/>
<rect width="2" height="4" transform="matrix(-1 0 0 1 608 540.052)" fill="#353535"/>
<rect width="2" height="4" transform="matrix(-1 0 0 1 606 540.052)" fill="#353535"/>
<rect width="2" height="4" transform="matrix(-1 0 0 1 614 540.052)" fill="#353535"/>
<rect width="2" height="4" transform="matrix(-1 0 0 1 612 540.052)" fill="#353535"/>
<rect width="2" height="4" transform="matrix(-1 0 0 1 595 559.052)" fill="#353535"/>
<rect width="2" height="4" transform="matrix(-1 0 0 1 593 559.052)" fill="#353535"/>
<path d="M777.235 485.052V483.052C777.235 479.738 779.922 477.052 783.235 477.052H787V481.052H791C794.314 481.052 797 483.738 797 487.052V489.052H787H783H775L773 485.052H777.235Z" fill="#9A795A"/>
<path d="M783 489.052H775L773 485.052H777.235V483.052C777.235 479.738 779.922 477.052 783.235 477.052H787V481.052H791C794.314 481.052 797 483.738 797 487.052V489.052H787M783 489.052V486.052M783 489.052H787M787 489.052V486.052" stroke="black" stroke-width="2"/>
<rect x="784" y="486.052" width="2" height="4" fill="#9A795A"/>
<rect x="780" y="486.052" width="2" height="4" fill="#9A795A"/>
<defs>
<linearGradient id="paint0_linear_329_27874" x1="1081" y1="651" x2="1081" y2="1448" gradientUnits="userSpaceOnUse">
<stop stop-color="#201B20"/>
<stop offset="1" stop-color="#302930"/>
</linearGradient>
</defs>
</svg>
