<svg width="878" height="195" viewBox="0 0 878 195" fill="none" xmlns="http://www.w3.org/2000/svg">
<g filter="url(#filter0_d_329_30613)">
<rect x="113.099" y="91" width="8" height="8" transform="rotate(-45 113.099 91)" fill="#FF9A4C"/>
</g>
<g filter="url(#filter1_d_329_30613)">
<path d="M150.119 61.9288L154.74 61.1241L159.62 26.4013L155.4 24.3541L155.781 21.6447L174.461 24.2701C178.169 24.7911 180.86 26.163 182.535 28.3858C184.257 30.6152 184.811 33.9164 184.197 38.2894C183.455 43.5656 181.627 47.2592 178.713 49.3701C175.853 51.4402 172.451 52.1981 168.505 51.6436L162.944 50.862L161.421 61.6995L167.281 63.9772L166.85 67.0431L149.738 64.6382L150.119 61.9288ZM169.932 47.6998C171.406 47.9069 172.522 47.8942 173.282 47.6616C174.089 47.4358 174.794 46.735 175.395 45.5593C176.003 44.336 176.498 42.3697 176.879 39.6603C177.38 36.0953 177.407 33.3121 176.961 31.3106C176.57 29.2682 175.709 28.1535 174.378 27.9665L166.221 27.5471L163.515 46.7979L169.932 47.6998ZM189.856 70.9307C189.618 70.8973 189.213 70.5011 188.641 69.7421C188.07 68.9832 187.8 68.4848 187.834 68.2472L193.395 28.6761L190.969 27.3171L191.339 24.679C195.439 24.4797 197.703 24.41 198.13 24.4702C198.368 24.5036 198.773 24.8998 199.345 25.6587C199.917 26.4177 200.186 26.9161 200.153 27.1537L194.601 66.6535L196.875 68.0637L196.504 70.7018C192.5 70.9145 190.284 70.9908 189.856 70.9307ZM212.637 74.1324C210.688 73.8585 208.935 73.0547 207.378 71.721C205.874 70.3464 204.763 68.421 204.045 65.9449C203.327 63.4689 203.211 60.4959 203.699 57.026C204.013 54.7919 204.446 52.7443 204.998 50.8831C205.605 48.981 206.24 47.5676 206.903 46.6429C207.817 45.6565 209.708 44.4439 212.577 43.0051C215.492 41.5729 217.378 40.917 218.234 41.0372C219.184 41.1708 223.266 42.302 230.48 44.4307L226.713 71.2392L228.997 72.5781L228.626 75.2162C224.764 75.4489 222.619 75.5353 222.191 75.4752C222.001 75.4484 221.596 75.0522 220.977 74.2866C220.357 73.5209 220.064 73.0192 220.098 72.7816L220.489 70.0009C220.17 70.1985 218.851 70.9584 216.533 72.2806C214.221 73.5552 212.922 74.1725 212.637 74.1324ZM213.806 68.9164C214.329 68.9899 216.626 68.3432 220.695 66.9763L223.451 47.369C222.316 46.8217 220.818 46.2719 218.957 45.7194C217.102 45.1195 215.836 44.8203 215.157 44.8218C214.234 44.8375 213.401 45.7626 212.658 47.5971C211.963 49.4383 211.282 52.7356 210.614 57.4888C210.273 59.913 210.251 61.9699 210.546 63.6595C210.89 65.3558 211.364 66.6343 211.97 67.495C212.624 68.3624 213.236 68.8362 213.806 68.9164ZM240.377 90.5368C240.187 90.51 239.935 90.0626 239.621 89.1944C239.307 88.3262 239.17 87.7495 239.21 87.4643L243.984 77.8108C243.006 77.8673 242.375 77.8756 242.09 77.8355C241.947 77.8154 241.617 77.5752 241.1 77.1148L237.411 48.5311L234.74 47.356L235.151 44.4327C238.844 44.37 240.904 44.3687 241.332 44.4289C241.569 44.4623 242.028 44.8176 242.709 45.4949C243.443 46.1313 243.835 46.6226 243.883 46.9687L245.684 64.1626L246.251 72.0221L246.964 72.1223L256.04 51.0038L251.832 49.9035L252.313 46.4811L260.583 47.1344C260.82 47.1678 261.177 47.5573 261.654 48.3029C262.179 49.0552 262.394 49.5944 262.3 49.9205L248.608 78.5334L245.398 86.371L247.998 88.0452L247.628 90.6832C243.174 90.639 240.758 90.5902 240.377 90.5368Z" fill="#FF9A4C"/>
</g>
<g filter="url(#filter2_d_329_30613)">
<rect x="276.816" y="46.4111" width="8" height="8" transform="rotate(-45 276.816 46.4111)" fill="#FF9A4C"/>
</g>
<g filter="url(#filter3_d_329_30613)">
<path d="M342.538 67.3466L342.82 70.5743L335.935 71.1767C335.409 71.2227 333.007 69.385 328.731 65.6636L327.877 67.4729C327.14 68.4047 325.558 69.6031 323.132 71.0681C320.707 72.5331 318.92 73.3158 317.773 73.4162C314.33 73.7174 311.12 73.1068 308.144 71.5843C305.216 70.0577 303.566 67.1666 303.194 62.9108C302.963 60.2809 303.559 57.7233 304.98 55.238C306.444 52.7007 308.203 50.499 310.256 48.633C307.662 45.9689 306.214 42.9155 305.913 39.4726C305.867 38.9466 305.858 38.2969 305.887 37.5235C305.916 36.75 306.031 36.1377 306.232 35.6864C306.596 34.8837 307.782 33.5753 309.792 31.7612C311.849 29.943 313.189 29.0067 313.81 28.9523C316.918 28.6804 319.403 28.993 321.264 29.8902C323.173 30.7832 324.22 32.2817 324.404 34.3857C324.513 35.6289 324.493 37.0521 324.344 38.6551C324.243 40.254 324.177 41.1512 324.146 41.3467L320.488 41.6667L319.627 35.96C319.445 34.434 318.668 33.5383 317.296 33.2729C315.972 33.0033 314.353 32.9522 312.44 33.1196C311.914 33.1656 311.491 33.564 311.172 34.3147C310.848 35.0176 310.73 35.8711 310.817 36.8753C310.943 38.3098 311.301 39.6517 311.892 40.9009C312.531 42.146 313.509 43.4096 314.826 44.6917C317.095 46.9505 321.469 50.9525 327.946 56.6979C329.005 54.4851 329.925 52.3328 330.706 50.2408L325.925 49.2858L325.686 46.5603L338.812 45.4119L339.101 48.7113L336.432 49.5953C335.277 51.8164 333.622 55.2135 331.469 59.7866L339.444 66.6778L342.538 67.3466ZM321.434 68.1811C322.135 67.9271 323.391 66.0344 325.202 62.5031L312.699 50.9488C311.625 52.4401 310.857 54.1215 310.394 55.9929C309.979 57.8602 309.851 59.7024 310.01 61.5194C310.257 64.3407 311.152 66.3101 312.695 67.4279C314.239 68.5456 316.11 69.0083 318.31 68.8158C319.505 68.7113 320.547 68.4997 321.434 68.1811Z" fill="#FF9A4C"/>
</g>
<g filter="url(#filter4_d_329_30613)">
<rect x="353.241" y="46.4111" width="8" height="8" transform="rotate(-45 353.241 46.4111)" fill="#FF9A4C"/>
</g>
<g filter="url(#filter5_d_329_30613)">
<path d="M394.271 79.0748C392.023 79.2714 389.855 78.7143 387.764 77.4035C385.674 76.0927 383.874 73.9615 382.363 71.01C380.895 68.0065 379.963 64.2334 379.565 59.6907C379.281 56.4391 379.211 53.4338 379.355 50.6748C379.495 47.8679 379.828 45.6223 380.355 43.9379C380.972 42.7275 382.037 41.4057 383.55 39.9724C385.059 38.4913 386.586 37.2253 388.132 36.1746C389.679 35.1238 390.811 34.567 391.528 34.5043C392.919 34.4308 394.864 34.357 397.363 34.2829C399.905 34.1568 402.404 34.0827 404.86 34.0606L405.085 46.5445L401.212 46.8834L399.711 39.6426C398.542 39.504 397.019 39.4445 395.142 39.4642C393.264 39.4839 391.848 39.5356 390.891 39.6192C389.935 39.7029 389.182 39.9133 388.634 40.2504C387.54 40.9724 386.806 42.7712 386.432 45.6469C386.057 48.5225 386.062 52.1599 386.447 56.5591C387.032 63.2535 388.251 67.8207 390.103 70.2606C391.998 72.6485 394.356 73.719 397.178 73.4722L402.342 73.0203L402.764 63.8045L406.429 63.5562L407.611 76.2454C406.493 76.6805 404.181 77.2441 400.676 77.9362C397.171 78.6284 395.036 79.0079 394.271 79.0748ZM428.631 76.0687C423.658 76.5037 419.818 75.5629 417.11 73.2461C414.401 70.9293 412.813 67.0932 412.344 61.7376C412.152 59.538 412.114 57.4454 412.229 55.4598C412.388 53.4222 412.689 51.9022 413.131 50.8998C413.546 50.1407 414.443 49.0986 415.821 47.7735C417.246 46.4442 418.684 45.2584 420.135 44.216C421.586 43.1736 422.598 42.6273 423.172 42.5771C428.001 42.1545 431.75 43.1516 434.419 45.5682C437.132 47.9327 438.703 51.5776 439.134 56.5028C439.335 58.7981 439.356 60.9645 439.197 63.0021C439.086 65.0355 438.871 66.7166 438.554 68.0453C437.881 69.1642 436.263 70.7754 433.701 72.8787C431.182 74.93 429.492 75.9933 428.631 76.0687ZM428.632 71.9489C428.959 71.824 430.126 71.1196 432.134 69.8357C432.633 66.1783 432.698 62.2456 432.33 58.0377C432.004 54.3079 431.055 51.4517 429.484 49.4691C427.961 47.4823 425.861 46.606 423.183 46.8403C421.988 46.9449 421.048 47.2198 420.365 47.6651C419.729 48.1062 419.289 49.4215 419.047 51.6109C418.805 53.8003 418.837 56.6404 419.142 60.131C419.552 64.8171 420.628 68.0236 422.369 69.7504C424.154 71.4252 426.242 72.1581 428.632 71.9489ZM450.876 74.1226C450.636 74.1435 450.153 73.8485 449.425 73.2376C448.697 72.6267 448.322 72.2018 448.301 71.9627L444.819 32.1547L442.149 31.3765L441.917 28.7226C445.866 27.6061 448.056 27.0291 448.487 26.9914C448.726 26.9705 449.209 27.2655 449.937 27.8763C450.665 28.4872 451.04 28.9122 451.061 29.1513L454.537 68.8875L457.07 69.75L457.302 72.4039C453.448 73.512 451.306 74.0849 450.876 74.1226ZM467.266 72.6886C467.027 72.7095 466.543 72.4145 465.815 71.8036C465.087 71.1928 464.713 70.7678 464.692 70.5287L461.209 30.7207L458.539 29.9425L458.307 27.2886C462.257 26.1721 464.447 25.5951 464.877 25.5574C465.116 25.5365 465.6 25.8315 466.328 26.4424C467.056 27.0532 467.43 27.4782 467.451 27.7173L470.928 67.4535L473.461 68.316L473.693 70.9699C469.839 72.078 467.696 72.6509 467.266 72.6886ZM490.901 70.6208C488.845 70.8007 486.86 70.4202 484.947 69.4794C483.033 68.5386 481.403 66.9707 480.054 64.7759C478.754 62.5769 477.957 59.8038 477.664 56.4566C477.455 54.0657 477.406 51.8535 477.517 49.8201C477.672 47.7347 477.97 46.1908 478.413 45.1884C478.828 44.4293 479.725 43.3872 481.103 42.0621C482.528 40.7328 483.966 39.5469 485.417 38.5045C486.915 37.458 487.952 36.9096 488.525 36.8594C491.107 36.6334 493.223 36.8579 494.872 37.5328C496.569 38.2034 497.948 39.6487 499.01 41.8686C500.119 44.0844 500.862 47.344 501.239 51.6476L484.437 54.5631C484.688 57.4321 485.271 59.6939 486.187 61.3484C487.098 62.955 488.085 64.0492 489.148 64.6308C490.259 65.2082 491.244 65.4592 492.105 65.3839L495.464 64.9455L501.326 64.2158L501.584 67.1565C499.865 67.8851 497.811 68.643 495.422 69.4302C493.077 70.1654 491.57 70.5622 490.901 70.6208ZM494.036 49.459C493.785 46.5899 493.215 44.4716 492.324 43.104C491.429 41.6886 490.097 41.0583 488.328 41.2131C487.276 41.3052 486.382 41.552 485.646 41.9537C485.05 42.2949 484.62 43.4408 484.357 45.3911C484.142 47.3373 484.13 49.4102 484.323 51.6097L494.036 49.459ZM518.32 68.2219C516.598 68.3725 514.901 67.967 513.226 67.0052C511.548 65.9957 510.108 64.4111 508.908 62.2515C507.751 60.04 507.026 57.2606 506.733 53.9134C506.528 51.5703 506.479 49.3582 506.586 47.2769C506.741 45.1915 507.039 43.6476 507.481 42.6452C507.897 41.8861 508.772 40.87 510.106 39.5969C511.488 38.3196 512.882 37.1858 514.289 36.1954C515.696 35.205 516.687 34.6847 517.26 34.6345C519.556 34.4337 522.225 34.6578 525.27 35.307L525.858 44.5067L521.482 44.8895L520.045 40.0283C519.446 39.7916 518.706 39.5913 517.824 39.4276C516.943 39.2638 516.167 39.2112 515.498 39.2697C515.067 39.3074 514.741 39.4323 514.519 39.6445C513.895 40.229 513.493 41.6857 513.311 44.0144C513.177 46.3389 513.252 49.1269 513.537 52.3785C513.754 54.865 514.197 56.8982 514.865 58.4779C515.581 60.0535 516.356 61.1904 517.188 61.8885C518.02 62.5867 518.794 62.9044 519.511 62.8416L527.616 62.1325L527.88 65.145C526.252 65.8174 524.384 66.4868 522.274 67.1533C520.212 67.8155 518.894 68.1717 518.32 68.2219ZM540.25 66.3033C539.724 66.3493 539.001 66.0753 538.082 65.4811C537.159 64.8392 536.322 64.0932 535.574 63.2432C534.872 62.3891 534.499 61.699 534.453 61.173L532.407 37.7903L527.817 38.192L527.628 36.0402L532.018 33.3433L535.608 28.1146C536.038 28.0769 536.904 28.3384 538.206 28.8991L538.602 33.4178L545.559 32.8091L545.923 36.9692L538.966 37.5779L540.704 57.446C540.834 58.9284 541.041 59.9221 541.326 60.4272C541.611 60.9322 542.088 61.1555 542.758 61.0969L548.652 60.7258L548.953 64.1686C547.592 64.5769 545.919 65.0123 543.936 65.4749C541.957 65.9853 540.728 66.2615 540.25 66.3033Z" fill="#FF9A4C"/>
</g>
<g filter="url(#filter6_d_329_30613)">
<rect x="559.172" y="46.4111" width="8" height="8" transform="rotate(-45 559.172 46.4111)" fill="#FF9A4C"/>
</g>
<g filter="url(#filter7_d_329_30613)">
<path d="M596.016 64.9211C593.782 64.6072 591.794 63.5765 590.052 61.8291C588.31 60.0816 587.035 57.6 586.227 54.3843C585.473 51.1276 585.413 47.2415 586.048 42.7259C586.502 39.4936 587.11 36.5495 587.871 33.8936C588.638 31.1901 589.469 29.0771 590.361 27.5545C591.235 26.5139 592.569 25.4655 594.366 24.4093C596.169 23.3055 597.942 22.4156 599.685 21.7396C601.428 21.0636 602.656 20.7757 603.369 20.8759C604.741 21.1172 606.653 21.4828 609.104 21.9728C611.61 22.4219 614.062 22.9119 616.459 23.4427L613.87 35.6572L610.02 35.1161L610.187 27.7233C609.079 27.3253 607.609 26.9248 605.775 26.5216C603.941 26.1185 602.549 25.8501 601.598 25.7165C600.648 25.5829 599.867 25.6187 599.257 25.8237C598.029 26.2813 596.909 27.8689 595.897 30.5865C594.885 33.3041 594.072 36.8494 593.457 41.2224C592.522 47.877 592.682 52.6013 593.937 55.3952C595.247 58.1482 597.304 59.7218 600.108 60.116L605.242 60.8374L607.727 51.9528L611.353 52.5351L609.651 65.1651C608.463 65.3375 606.084 65.3667 602.513 65.2526C598.942 65.1385 596.776 65.028 596.016 64.9211ZM626.464 69.2004C624.516 68.9265 622.762 68.1227 621.205 66.789C619.702 65.4144 618.591 63.489 617.872 61.013C617.154 58.5369 617.039 55.5639 617.526 52.094C617.84 49.8599 618.273 47.8123 618.826 45.9511C619.432 44.049 620.067 42.6356 620.73 41.7109C621.645 40.7245 623.536 39.5119 626.404 38.0731C629.32 36.6409 631.205 35.985 632.061 36.1052C633.012 36.2388 637.094 37.37 644.308 39.4987L640.54 66.3072L642.824 67.6461L642.453 70.2842C638.591 70.517 636.446 70.6033 636.019 70.5432C635.828 70.5164 635.424 70.1203 634.804 69.3546C634.185 68.5889 633.892 68.0873 633.925 67.8496L634.316 65.0689C633.997 65.2665 632.679 66.0264 630.36 67.3486C628.048 68.6232 626.75 69.2405 626.464 69.2004ZM627.634 63.9844C628.157 64.0579 630.453 63.4112 634.523 62.0443L637.278 42.437C636.144 41.8897 634.646 41.3399 632.784 40.7875C630.93 40.1875 629.663 39.8883 628.984 39.8899C628.061 39.9055 627.228 40.8306 626.486 42.6651C625.791 44.5063 625.109 47.8036 624.441 52.5569C624.1 54.981 624.078 57.0379 624.374 58.7275C624.717 60.4238 625.192 61.7023 625.798 62.563C626.451 63.4304 627.063 63.9042 627.634 63.9844ZM651.936 72.7802C651.698 72.7468 651.269 72.3472 650.65 71.5816C650.078 70.8226 649.809 70.3243 649.842 70.0866L653.53 43.8484L651.154 42.6421L651.525 40.0041C655.238 39.7988 657.308 39.7262 657.736 39.7863C657.974 39.8197 658.443 40.2735 659.144 41.1475C659.893 42.0283 660.254 42.5638 660.227 42.7539L659.734 45.2293C663.664 42.0978 665.772 40.5521 666.057 40.5922C666.817 40.6991 668.356 41.3031 670.673 42.4043C670.769 42.7571 670.811 43.1507 670.798 43.5852C670.833 44.0264 670.831 44.3895 670.791 44.6747C670.751 44.9599 670.372 45.5853 669.654 46.5509C668.985 47.5231 668.548 48.0434 668.344 48.1118C666.863 47.2734 665.647 46.7874 664.696 46.6538C664.078 46.5669 662.355 47.1003 659.527 48.254L656.721 68.2178L660.207 69.7983L659.796 72.7216C654.984 72.8208 652.363 72.8403 651.936 72.7802ZM679.8 76.6962C677.898 76.429 676.169 75.6285 674.611 74.2948C673.108 72.9202 671.967 71.039 671.188 68.6513C670.462 66.2228 670.334 63.3449 670.801 60.0176C671.142 57.5934 671.592 55.4269 672.151 53.5181C672.758 51.6161 673.396 50.1789 674.066 49.2067C674.98 48.2203 676.871 47.0077 679.739 45.5689C682.655 44.1367 684.541 43.4807 685.396 43.601C686.157 43.7079 688.235 44.2666 691.632 45.2771L692.964 35.7943L690.609 34.4454L690.98 31.8073C695.032 31.6013 697.248 31.5249 697.628 31.5784C697.866 31.6118 698.295 32.0113 698.914 32.777C699.534 33.5427 699.827 34.0443 699.793 34.282L697.573 47.4936L693.875 73.803L696.159 75.1419L695.788 77.78C691.927 78.0127 689.782 78.0991 689.354 78.0389C689.164 78.0122 688.759 77.616 688.139 76.8504C687.52 76.0847 687.227 75.583 687.26 75.3454L687.651 72.5647L685.282 73.904C681.865 75.7989 680.037 76.7296 679.8 76.6962ZM680.969 71.4802C681.397 71.5403 683.693 70.8936 687.858 69.5401L690.614 49.9328C689.336 49.3654 687.791 48.8089 685.977 48.2632C684.17 47.6699 682.951 47.3774 682.319 47.3856C681.396 47.4013 680.563 48.3264 679.821 50.1609C679.126 52.0021 678.444 55.2993 677.776 60.0526C677.436 62.4768 677.413 64.5337 677.709 66.2233C678.052 67.9196 678.527 69.1981 679.133 70.0588C679.787 70.9262 680.399 71.4 680.969 71.4802ZM713.822 81.4777C712.824 81.3374 710.844 80.938 707.883 80.2795C704.915 79.6685 702.66 79.1577 701.118 78.7471L702.704 68.5001L706.279 68.9298L707.014 74.559C708.054 75.0929 709.287 75.6297 710.714 76.1695C712.195 76.6685 713.292 76.9681 714.005 77.0683C714.385 77.1217 714.911 76.6624 715.58 75.6901C716.298 74.7246 716.713 73.8377 716.827 73.0297C716.947 72.1741 716.833 71.431 716.486 70.8005C716.192 70.1291 715.654 69.4719 714.872 68.8288C714.097 68.1382 712.764 67.1026 710.874 65.7221C708.195 63.746 706.392 62.087 705.466 60.745C704.54 59.403 704.193 57.9002 704.427 56.2366C704.654 54.6205 704.937 53.4726 705.275 52.793C706.202 51.7116 707.649 50.5577 709.615 49.3313C711.628 48.1117 713.015 47.5553 713.776 47.6622C715.344 47.8826 717.354 48.2378 719.806 48.7278C722.312 49.1769 724.22 49.5663 725.531 49.896L724.095 58.5644L720.102 58.0033L720.134 54.1543C719.774 53.9582 718.568 53.5706 716.516 52.9915C714.472 52.3648 713.188 52.0148 712.665 51.9413C711.619 51.7943 710.956 52.719 710.676 54.7154C710.549 55.6185 710.771 56.4496 711.343 57.2086C711.969 57.9267 712.674 58.6073 713.456 59.2504C714.285 59.9002 714.829 60.3402 715.088 60.5704L716.853 61.9818C719.219 63.7685 721.049 65.4071 722.342 66.8976C723.689 68.3472 724.249 69.8801 724.022 71.4962C723.869 72.5894 723.532 73.7781 723.012 75.0623C722.058 76.3339 720.523 77.7663 718.409 79.3595C716.349 80.9119 714.82 81.618 713.822 81.4777Z" fill="url(#paint0_linear_329_30613)"/>
</g>
<g filter="url(#filter8_d_329_30613)">
<path d="M133.847 143.37C133.44 143.313 132.94 142.979 132.348 142.368C131.76 141.72 131.257 141.008 130.838 140.233C130.456 139.463 130.294 138.875 130.351 138.468L132.892 120.39L129.343 119.891L129.577 118.227L133.375 116.952L137.01 113.617C137.343 113.664 137.954 114.014 138.842 114.666L138.351 118.16L143.73 118.916L143.278 122.132L137.899 121.376L135.74 136.737C135.579 137.883 135.563 138.673 135.69 139.105C135.818 139.538 136.141 139.791 136.658 139.863L141.19 140.613L140.816 143.275C139.713 143.346 138.369 143.384 136.785 143.387C135.196 143.428 134.217 143.422 133.847 143.37ZM155.101 146.357C151.256 145.817 148.51 144.432 146.863 142.203C145.216 139.973 144.684 136.788 145.266 132.647C145.505 130.947 145.842 129.354 146.276 127.869C146.753 126.353 147.247 125.254 147.758 124.571C148.205 124.069 149.067 123.436 150.343 122.673C151.656 121.915 152.954 121.268 154.235 120.732C155.517 120.195 156.38 119.958 156.823 120.021C160.557 120.546 163.224 121.957 164.824 124.255C166.466 126.522 167.019 129.559 166.484 133.367C166.235 135.142 165.871 136.787 165.394 138.304C164.954 139.825 164.498 141.062 164.025 142.013C163.319 142.743 161.811 143.681 159.501 144.827C157.233 145.941 155.767 146.451 155.101 146.357ZM155.823 143.235C156.092 143.198 157.1 142.868 158.846 142.247C159.864 139.562 160.602 136.593 161.059 133.34C161.464 130.456 161.245 128.126 160.402 126.348C159.595 124.576 158.157 123.545 156.086 123.254C155.162 123.124 154.402 123.168 153.806 123.386C153.247 123.609 152.684 124.529 152.117 126.145C151.551 127.762 151.078 129.92 150.698 132.619C150.189 136.242 150.443 138.86 151.461 140.474C152.52 142.055 153.974 142.976 155.823 143.235Z" fill="#FF9A4C"/>
</g>
<g filter="url(#filter9_d_329_30613)">
<rect x="181.798" y="124.81" width="8" height="8" transform="rotate(-45 181.798 124.81)" fill="#FF9A4C"/>
</g>
<g filter="url(#filter10_d_329_30613)">
<path d="M211.594 162.27L217.116 159.94L213.211 115.307L207.369 113.971L207.064 110.488L228.235 108.636L228.58 112.577L221.775 115.019L225.583 158.553L242.3 158.568L242.724 146.525L247.674 146.092L249.475 162.466L211.899 165.753L211.594 162.27ZM268.974 161.591C266.346 161.821 263.81 161.335 261.366 160.132C258.921 158.93 256.837 156.927 255.114 154.122C253.452 151.312 252.434 147.769 252.06 143.492C251.793 140.437 251.73 137.61 251.872 135.012C252.07 132.347 252.452 130.375 253.017 129.094C253.548 128.124 254.693 126.792 256.454 125.099C258.275 123.401 260.113 121.885 261.966 120.553C263.881 119.216 265.205 118.515 265.938 118.451C269.238 118.163 271.941 118.449 274.048 119.312C276.216 120.169 277.979 122.015 279.335 124.852C280.753 127.683 281.702 131.848 282.183 137.347L260.714 141.073C261.035 144.739 261.78 147.629 262.95 149.743C264.115 151.796 265.376 153.194 266.734 153.937C268.153 154.675 269.413 154.995 270.512 154.899L274.804 154.339L282.295 153.407L282.624 157.164C280.427 158.095 277.803 159.064 274.751 160.069C271.755 161.009 269.829 161.516 268.974 161.591ZM272.98 134.551C272.66 130.885 271.93 128.178 270.792 126.431C269.649 124.622 267.947 123.817 265.686 124.014C264.342 124.132 263.2 124.447 262.26 124.961C261.497 125.397 260.948 126.861 260.612 129.353C260.337 131.84 260.323 134.488 260.569 137.299L272.98 134.551ZM305.201 158.421C302.695 158.641 300.282 158.144 297.959 156.931C295.692 155.652 293.756 153.574 292.15 150.697C290.544 147.821 289.545 144.153 289.155 139.693C288.904 136.821 288.855 134.147 289.007 131.671C289.216 129.128 289.6 127.186 290.16 125.844C291.015 124.353 293.021 122.3 296.178 119.684C299.397 117.063 301.556 115.704 302.655 115.608C303.877 115.501 309.285 115.736 318.879 116.313L321.894 150.773L325.122 151.784L325.419 155.175C320.677 156.575 318.032 157.299 317.482 157.347C317.237 157.368 316.619 156.991 315.628 156.216C314.637 155.441 314.128 154.901 314.101 154.595L313.788 151.021C313.448 151.358 312.025 152.683 309.518 154.996C307.006 157.248 305.567 158.389 305.201 158.421ZM305.157 151.591C305.829 151.532 308.502 150.067 313.177 147.195L310.971 121.992C309.401 121.637 307.378 121.383 304.902 121.23C302.421 121.016 300.757 121.008 299.913 121.205C298.768 121.489 297.997 122.881 297.6 125.378C297.264 127.87 297.363 132.171 297.897 138.281C298.17 141.397 298.733 143.965 299.587 145.983C300.502 147.997 301.461 149.452 302.463 150.349C303.526 151.241 304.424 151.655 305.157 151.591ZM337.942 155.557C337.636 155.584 336.988 155.209 335.997 154.434C335.066 153.654 334.588 153.111 334.561 152.805L331.61 119.078L328.306 118.259L328.01 114.868C332.573 113.545 335.13 112.859 335.68 112.811C335.985 112.785 336.7 113.215 337.824 114.101C339.01 114.983 339.613 115.546 339.634 115.79L339.732 119.014C343.725 113.985 345.904 111.455 346.271 111.423C347.249 111.337 349.338 111.647 352.54 112.352C352.761 112.764 352.925 113.242 353.035 113.786C353.205 114.326 353.306 114.779 353.338 115.145C353.37 115.512 353.079 116.399 352.463 117.808C351.908 119.211 351.514 119.984 351.281 120.127C349.195 119.51 347.541 119.254 346.319 119.361C345.525 119.431 343.533 120.59 340.343 122.839L342.589 148.501L347.383 149.467L347.712 153.225C341.748 154.731 338.492 155.509 337.942 155.557ZM366.314 153.075C366.008 153.101 365.36 152.727 364.369 151.952C363.438 151.171 362.96 150.628 362.933 150.323L360.006 116.871L356.678 115.776L356.382 112.385C361.312 111.031 364.052 110.329 364.602 110.281C364.907 110.254 365.494 110.634 366.364 111.42C367.288 112.139 367.764 112.652 367.791 112.957L368.096 116.44C369.811 114.935 371.643 113.359 373.592 111.711C375.603 110.057 376.73 109.22 376.974 109.199C381.374 108.814 384.775 109.686 387.177 111.815C389.575 113.884 391.022 117.759 391.519 123.441L393.355 144.429L396.683 145.523L396.98 148.914C391.994 150.335 389.257 151.067 388.768 151.11C388.463 151.137 387.814 150.763 386.823 149.987C385.832 149.212 385.322 148.672 385.296 148.366L383.179 124.171C382.847 120.383 382.089 118.048 380.904 117.166C379.718 116.285 378.454 115.903 377.109 116.021C376.437 116.08 374.958 116.763 372.671 118.071C370.44 119.313 369.119 120.044 368.707 120.265L370.993 146.385L374.229 147.488L374.526 150.879C369.601 152.295 366.864 153.027 366.314 153.075Z" fill="#FF9A4C"/>
</g>
<g filter="url(#filter11_d_329_30613)">
<rect x="409.396" y="124.81" width="8" height="8" transform="rotate(-45 409.396 124.81)" fill="#FF9A4C"/>
</g>
<g filter="url(#filter12_d_329_30613)">
<path d="M434.23 143.795L440.073 142.459L443.978 97.8252L438.456 95.4951L438.76 92.0124L462.773 94.1132C467.538 94.5301 471.064 96.1007 473.35 98.825C475.697 101.555 476.625 105.73 476.133 111.351C475.54 118.133 473.454 122.969 469.877 125.857C466.366 128.69 462.075 129.885 457.004 129.441L449.855 128.815L448.636 142.746L456.266 145.261L455.921 149.202L433.925 147.277L434.23 143.795ZM458.561 124.313C460.455 124.479 461.879 124.388 462.833 124.04C463.848 123.698 464.7 122.757 465.388 121.216C466.083 119.615 466.582 117.073 466.887 113.59C467.288 109.007 467.137 105.454 466.434 102.93C465.798 100.35 464.624 98.9851 462.914 98.8354L452.477 98.8459L450.312 123.591L458.561 124.313ZM485.446 152.616C485.14 152.589 484.597 152.111 483.817 151.18C483.036 150.25 482.659 149.632 482.686 149.327L487.136 98.4611L484.04 96.8974L484.337 93.5063C489.433 92.9671 492.256 92.7215 492.806 92.7696C493.111 92.7963 493.685 93.2775 494.526 94.2131C495.368 95.1487 495.775 95.7692 495.749 96.0747L493.478 116.747L493.929 116.879C500.046 113.105 503.288 111.233 503.655 111.266C508.054 111.65 511.252 113.1 513.248 115.614C515.25 118.067 516.002 122.135 515.505 127.817L513.669 148.805L516.757 150.461L516.46 153.852C511.303 154.386 508.45 154.628 507.9 154.58C507.594 154.554 507.021 154.072 506.179 153.137C505.399 152.207 505.022 151.589 505.048 151.283L507.165 127.088C507.497 123.3 507.155 120.869 506.141 119.795C505.188 118.726 504.009 118.131 502.603 118.008C501.992 117.954 498.988 118.861 493.592 120.729L491.307 146.849L494.302 148.496L494.006 151.887C488.849 152.421 485.996 152.664 485.446 152.616ZM532.699 172.634C532.455 172.613 532.103 172.059 531.644 170.972C531.185 169.885 530.971 169.159 531.003 168.792L536.449 156.155C535.206 156.292 534.401 156.345 534.035 156.313C533.851 156.297 533.414 156.012 532.724 155.459L526.104 119.232L522.618 117.912L522.947 114.154C527.654 113.827 530.283 113.688 530.833 113.736C531.139 113.762 531.748 114.185 532.662 115.004C533.642 115.767 534.174 116.368 534.259 116.806L537.706 138.625L538.956 148.616L539.873 148.697L550.041 121.142L544.598 120.019L544.983 115.62L555.579 115.901C555.884 115.927 556.366 116.401 557.024 117.32C557.744 118.245 558.054 118.919 557.956 119.341L542.399 156.767L538.827 166.983L542.257 168.945L541.96 172.336C536.275 172.578 533.188 172.677 532.699 172.634ZM576.812 160.609C575.529 160.497 572.976 160.12 569.153 159.478C565.326 158.896 562.414 158.395 560.419 157.975L561.757 144.793L566.348 145.102L567.663 152.236C569.025 152.848 570.635 153.45 572.492 154.044C574.415 154.582 575.835 154.89 576.751 154.971C577.24 155.013 577.879 154.392 578.669 153.107C579.52 151.827 579.991 150.667 580.081 149.629C580.178 148.529 579.983 147.588 579.497 146.807C579.078 145.97 578.348 145.167 577.307 144.399C576.271 143.569 574.501 142.337 571.997 140.702C568.446 138.36 566.035 136.363 564.763 134.713C563.492 133.062 562.949 131.168 563.136 129.029C563.318 126.952 563.602 125.468 563.987 124.579C565.099 123.137 566.868 121.567 569.294 119.871C571.781 118.18 573.514 117.377 574.492 117.463C576.508 117.639 579.097 117.958 582.258 118.419C585.485 118.825 587.947 119.194 589.641 119.527L588.388 130.684L583.256 130.235L583.039 125.322C582.566 125.096 581.002 124.682 578.346 124.08C575.695 123.417 574.033 123.056 573.361 122.998C572.017 122.88 571.232 124.104 571.008 126.67C570.906 127.831 571.246 128.877 572.026 129.807C572.873 130.682 573.817 131.503 574.858 132.271C575.96 133.045 576.684 133.57 577.029 133.847L579.376 135.529C582.515 137.651 584.959 139.62 586.709 141.435C588.525 143.195 589.342 145.113 589.161 147.191C589.038 148.596 588.687 150.135 588.11 151.809C586.977 153.495 585.115 155.425 582.524 157.6C579.999 159.718 578.095 160.722 576.812 160.609ZM599.934 162.632C599.628 162.606 598.968 162.055 597.954 160.981C597.001 159.913 596.537 159.226 596.564 158.921L599.491 125.468L596.371 124.179L596.668 120.788C601.392 120.278 604.029 120.047 604.579 120.095C604.945 120.127 605.608 120.647 606.566 121.654C607.525 122.662 607.985 123.379 607.948 123.807L605.021 157.259L608.149 158.456L607.852 161.847C603.123 162.419 600.483 162.68 599.934 162.632ZM600.93 102.691L608.027 102.85L609.225 104.987L608.069 112.92L600.737 112.279L600.93 102.691ZM627.386 165.034C625.187 164.842 623.14 163.955 621.247 162.373C619.359 160.73 617.899 158.417 616.867 155.433C615.902 152.393 615.606 148.735 615.98 144.458C616.242 141.464 616.671 138.669 617.268 136.074C617.925 133.484 618.644 131.608 619.423 130.444C620.114 129.581 621.44 128.497 623.401 127.191C625.424 125.89 627.43 124.773 629.42 123.839C631.411 122.905 632.773 122.47 633.506 122.534C636.439 122.79 639.748 123.665 643.435 125.157L642.134 136.864L636.543 136.375L635.813 129.939C635.112 129.508 634.225 129.092 633.152 128.69C632.079 128.289 631.114 128.05 630.259 127.975C629.709 127.927 629.271 128.012 628.944 128.23C628.03 128.827 627.2 130.571 626.455 133.461C625.77 136.356 625.246 139.881 624.883 144.036C624.605 147.213 624.711 149.87 625.201 152.006C625.753 154.148 626.475 155.75 627.367 156.813C628.259 157.876 629.163 158.448 630.08 158.528L640.436 159.434L640.099 163.283C637.902 163.768 635.402 164.196 632.599 164.567C629.857 164.942 628.119 165.098 627.386 165.034ZM662.465 168.103C661.182 167.991 658.629 167.614 654.807 166.971C650.979 166.39 648.067 165.889 646.073 165.468L647.41 152.287L652.001 152.596L653.316 159.73C654.679 160.342 656.288 160.944 658.145 161.538C660.068 162.075 661.488 162.384 662.404 162.464C662.893 162.507 663.533 161.886 664.322 160.6C665.173 159.32 665.644 158.161 665.735 157.122C665.831 156.022 665.636 155.082 665.15 154.301C664.731 153.464 664.001 152.661 662.96 151.893C661.924 151.063 660.154 149.831 657.65 148.196C654.099 145.853 651.688 143.857 650.416 142.206C649.145 140.556 648.603 138.662 648.79 136.523C648.971 134.446 649.255 132.962 649.641 132.072C650.752 130.63 652.521 129.061 654.947 127.365C657.435 125.674 659.167 124.871 660.145 124.957C662.161 125.133 664.75 125.452 667.911 125.913C671.139 126.319 673.6 126.688 675.295 127.021L674.041 138.178L668.909 137.729L668.692 132.816C668.22 132.589 666.655 132.176 663.999 131.574C661.348 130.911 659.686 130.55 659.014 130.491C657.67 130.374 656.886 131.598 656.661 134.164C656.56 135.325 656.899 136.371 657.68 137.301C658.527 138.175 659.471 138.997 660.512 139.765C661.614 140.539 662.337 141.064 662.683 141.34L665.029 143.023C668.168 145.145 670.612 147.113 672.362 148.929C674.178 150.688 674.996 152.607 674.814 154.684C674.691 156.09 674.341 157.629 673.763 159.302C672.631 160.989 670.769 162.919 668.177 165.093C665.652 167.212 663.748 168.215 662.465 168.103Z" fill="url(#paint1_linear_329_30613)"/>
</g>
<g filter="url(#filter13_d_329_30613)">
<path d="M713.7 140.008C713.584 139.956 713.415 139.705 713.194 139.257C712.999 138.75 712.928 138.438 712.98 138.321L727.528 101.398C732.16 102.48 734.564 103.059 734.74 103.138C734.857 103.19 735.074 103.567 735.392 104.269C735.769 104.997 735.918 105.448 735.84 105.624L718.018 141.404C715.724 140.733 714.285 140.268 713.7 140.008ZM705.161 155.646C704.986 155.568 704.811 155.175 704.636 154.467C704.487 153.7 704.451 153.229 704.529 153.053L708.521 145.268L715.888 148.548L712.324 158.205C709.011 157.15 706.623 156.297 705.161 155.646Z" fill="#995D2E"/>
</g>
<g filter="url(#filter14_d_329_30613)">
<rect x="753.587" y="91" width="8" height="8" transform="rotate(-45 753.587 91)" fill="#995D2E"/>
</g>
<defs>
<filter id="filter0_d_329_30613" x="102.999" y="75.2433" width="31.5137" height="31.5135" filterUnits="userSpaceOnUse" color-interpolation-filters="sRGB">
<feFlood flood-opacity="0" result="BackgroundImageFix"/>
<feColorMatrix in="SourceAlpha" type="matrix" values="0 0 0 0 0 0 0 0 0 0 0 0 0 0 0 0 0 0 127 0" result="hardAlpha"/>
<feOffset/>
<feGaussianBlur stdDeviation="5.05"/>
<feComposite in2="hardAlpha" operator="out"/>
<feColorMatrix type="matrix" values="0 0 0 0 1 0 0 0 0 0.75 0 0 0 0 0 0 0 0 0.4 0"/>
<feBlend mode="normal" in2="BackgroundImageFix" result="effect1_dropShadow_329_30613"/>
<feBlend mode="normal" in="SourceGraphic" in2="effect1_dropShadow_329_30613" result="shape"/>
</filter>
<filter id="filter1_d_329_30613" x="137.825" y="8.47861" width="136.911" height="94.4026" filterUnits="userSpaceOnUse" color-interpolation-filters="sRGB">
<feFlood flood-opacity="0" result="BackgroundImageFix"/>
<feColorMatrix in="SourceAlpha" type="matrix" values="0 0 0 0 0 0 0 0 0 0 0 0 0 0 0 0 0 0 127 0" result="hardAlpha"/>
<feOffset/>
<feGaussianBlur stdDeviation="5.05"/>
<feComposite in2="hardAlpha" operator="out"/>
<feColorMatrix type="matrix" values="0 0 0 0 1 0 0 0 0 0.75 0 0 0 0 0 0 0 0 0.4 0"/>
<feBlend mode="normal" in2="BackgroundImageFix" result="effect1_dropShadow_329_30613"/>
<feBlend mode="normal" in="SourceGraphic" in2="effect1_dropShadow_329_30613" result="shape"/>
</filter>
<filter id="filter2_d_329_30613" x="266.716" y="30.6544" width="31.5137" height="31.5135" filterUnits="userSpaceOnUse" color-interpolation-filters="sRGB">
<feFlood flood-opacity="0" result="BackgroundImageFix"/>
<feColorMatrix in="SourceAlpha" type="matrix" values="0 0 0 0 0 0 0 0 0 0 0 0 0 0 0 0 0 0 127 0" result="hardAlpha"/>
<feOffset/>
<feGaussianBlur stdDeviation="5.05"/>
<feComposite in2="hardAlpha" operator="out"/>
<feColorMatrix type="matrix" values="0 0 0 0 1 0 0 0 0 0.75 0 0 0 0 0 0 0 0 0.4 0"/>
<feBlend mode="normal" in2="BackgroundImageFix" result="effect1_dropShadow_329_30613"/>
<feBlend mode="normal" in="SourceGraphic" in2="effect1_dropShadow_329_30613" result="shape"/>
</filter>
<filter id="filter3_d_329_30613" x="290.226" y="16.6495" width="62.751" height="68.0525" filterUnits="userSpaceOnUse" color-interpolation-filters="sRGB">
<feFlood flood-opacity="0" result="BackgroundImageFix"/>
<feColorMatrix in="SourceAlpha" type="matrix" values="0 0 0 0 0 0 0 0 0 0 0 0 0 0 0 0 0 0 127 0" result="hardAlpha"/>
<feOffset/>
<feGaussianBlur stdDeviation="5.05"/>
<feComposite in2="hardAlpha" operator="out"/>
<feColorMatrix type="matrix" values="0 0 0 0 1 0 0 0 0 0.75 0 0 0 0 0 0 0 0 0.4 0"/>
<feBlend mode="normal" in2="BackgroundImageFix" result="effect1_dropShadow_329_30613"/>
<feBlend mode="normal" in="SourceGraphic" in2="effect1_dropShadow_329_30613" result="shape"/>
</filter>
<filter id="filter4_d_329_30613" x="343.141" y="30.6544" width="31.5137" height="31.5135" filterUnits="userSpaceOnUse" color-interpolation-filters="sRGB">
<feFlood flood-opacity="0" result="BackgroundImageFix"/>
<feColorMatrix in="SourceAlpha" type="matrix" values="0 0 0 0 0 0 0 0 0 0 0 0 0 0 0 0 0 0 127 0" result="hardAlpha"/>
<feOffset/>
<feGaussianBlur stdDeviation="5.05"/>
<feComposite in2="hardAlpha" operator="out"/>
<feColorMatrix type="matrix" values="0 0 0 0 1 0 0 0 0 0.75 0 0 0 0 0 0 0 0 0.4 0"/>
<feBlend mode="normal" in2="BackgroundImageFix" result="effect1_dropShadow_329_30613"/>
<feBlend mode="normal" in="SourceGraphic" in2="effect1_dropShadow_329_30613" result="shape"/>
</filter>
<filter id="filter5_d_329_30613" x="367.15" y="8.45078" width="192.023" height="81.8538" filterUnits="userSpaceOnUse" color-interpolation-filters="sRGB">
<feFlood flood-opacity="0" result="BackgroundImageFix"/>
<feColorMatrix in="SourceAlpha" type="matrix" values="0 0 0 0 0 0 0 0 0 0 0 0 0 0 0 0 0 0 127 0" result="hardAlpha"/>
<feOffset/>
<feGaussianBlur stdDeviation="5.05"/>
<feComposite in2="hardAlpha" operator="out"/>
<feColorMatrix type="matrix" values="0 0 0 0 1 0 0 0 0 0.75 0 0 0 0 0 0 0 0 0.4 0"/>
<feBlend mode="normal" in2="BackgroundImageFix" result="effect1_dropShadow_329_30613"/>
<feBlend mode="normal" in="SourceGraphic" in2="effect1_dropShadow_329_30613" result="shape"/>
</filter>
<filter id="filter6_d_329_30613" x="549.072" y="30.6544" width="31.5137" height="31.5135" filterUnits="userSpaceOnUse" color-interpolation-filters="sRGB">
<feFlood flood-opacity="0" result="BackgroundImageFix"/>
<feColorMatrix in="SourceAlpha" type="matrix" values="0 0 0 0 0 0 0 0 0 0 0 0 0 0 0 0 0 0 127 0" result="hardAlpha"/>
<feOffset/>
<feGaussianBlur stdDeviation="5.05"/>
<feComposite in2="hardAlpha" operator="out"/>
<feColorMatrix type="matrix" values="0 0 0 0 1 0 0 0 0 0.75 0 0 0 0 0 0 0 0 0.4 0"/>
<feBlend mode="normal" in2="BackgroundImageFix" result="effect1_dropShadow_329_30613"/>
<feBlend mode="normal" in="SourceGraphic" in2="effect1_dropShadow_329_30613" result="shape"/>
</filter>
<filter id="filter7_d_329_30613" x="573.082" y="6.3165" width="166.03" height="86.4734" filterUnits="userSpaceOnUse" color-interpolation-filters="sRGB">
<feFlood flood-opacity="0" result="BackgroundImageFix"/>
<feColorMatrix in="SourceAlpha" type="matrix" values="0 0 0 0 0 0 0 0 0 0 0 0 0 0 0 0 0 0 127 0" result="hardAlpha"/>
<feOffset/>
<feGaussianBlur stdDeviation="5.05"/>
<feComposite in2="hardAlpha" operator="out"/>
<feColorMatrix type="matrix" values="0 0 0 0 1 0 0 0 0 0.75 0 0 0 0 0 0 0 0 0.4 0"/>
<feBlend mode="normal" in2="BackgroundImageFix" result="effect1_dropShadow_329_30613"/>
<feBlend mode="normal" in="SourceGraphic" in2="effect1_dropShadow_329_30613" result="shape"/>
</filter>
<filter id="filter8_d_329_30613" x="116.094" y="102.582" width="62.6409" height="55.1932" filterUnits="userSpaceOnUse" color-interpolation-filters="sRGB">
<feFlood flood-opacity="0" result="BackgroundImageFix"/>
<feColorMatrix in="SourceAlpha" type="matrix" values="0 0 0 0 0 0 0 0 0 0 0 0 0 0 0 0 0 0 127 0" result="hardAlpha"/>
<feOffset/>
<feGaussianBlur stdDeviation="5.05"/>
<feComposite in2="hardAlpha" operator="out"/>
<feColorMatrix type="matrix" values="0 0 0 0 1 0 0 0 0 0.75 0 0 0 0 0 0 0 0 0.4 0"/>
<feBlend mode="normal" in2="BackgroundImageFix" result="effect1_dropShadow_329_30613"/>
<feBlend mode="normal" in="SourceGraphic" in2="effect1_dropShadow_329_30613" result="shape"/>
</filter>
<filter id="filter9_d_329_30613" x="171.698" y="109.053" width="31.5137" height="31.5135" filterUnits="userSpaceOnUse" color-interpolation-filters="sRGB">
<feFlood flood-opacity="0" result="BackgroundImageFix"/>
<feColorMatrix in="SourceAlpha" type="matrix" values="0 0 0 0 0 0 0 0 0 0 0 0 0 0 0 0 0 0 127 0" result="hardAlpha"/>
<feOffset/>
<feGaussianBlur stdDeviation="5.05"/>
<feComposite in2="hardAlpha" operator="out"/>
<feColorMatrix type="matrix" values="0 0 0 0 1 0 0 0 0 0.75 0 0 0 0 0 0 0 0 0.4 0"/>
<feBlend mode="normal" in2="BackgroundImageFix" result="effect1_dropShadow_329_30613"/>
<feBlend mode="normal" in="SourceGraphic" in2="effect1_dropShadow_329_30613" result="shape"/>
</filter>
<filter id="filter10_d_329_30613" x="196.964" y="84.1905" width="210.244" height="92.4876" filterUnits="userSpaceOnUse" color-interpolation-filters="sRGB">
<feFlood flood-opacity="0" result="BackgroundImageFix"/>
<feColorMatrix in="SourceAlpha" type="matrix" values="0 0 0 0 0 0 0 0 0 0 0 0 0 0 0 0 0 0 127 0" result="hardAlpha"/>
<feOffset/>
<feGaussianBlur stdDeviation="5.05"/>
<feComposite in2="hardAlpha" operator="out"/>
<feColorMatrix type="matrix" values="0 0 0 0 1 0 0 0 0 0.75 0 0 0 0 0 0 0 0 0.4 0"/>
<feBlend mode="normal" in2="BackgroundImageFix" result="effect1_dropShadow_329_30613"/>
<feBlend mode="normal" in="SourceGraphic" in2="effect1_dropShadow_329_30613" result="shape"/>
</filter>
<filter id="filter11_d_329_30613" x="399.296" y="109.053" width="31.5137" height="31.5135" filterUnits="userSpaceOnUse" color-interpolation-filters="sRGB">
<feFlood flood-opacity="0" result="BackgroundImageFix"/>
<feColorMatrix in="SourceAlpha" type="matrix" values="0 0 0 0 0 0 0 0 0 0 0 0 0 0 0 0 0 0 127 0" result="hardAlpha"/>
<feOffset/>
<feGaussianBlur stdDeviation="5.05"/>
<feComposite in2="hardAlpha" operator="out"/>
<feColorMatrix type="matrix" values="0 0 0 0 1 0 0 0 0 0.75 0 0 0 0 0 0 0 0 0.4 0"/>
<feBlend mode="normal" in2="BackgroundImageFix" result="effect1_dropShadow_329_30613"/>
<feBlend mode="normal" in="SourceGraphic" in2="effect1_dropShadow_329_30613" result="shape"/>
</filter>
<filter id="filter12_d_329_30613" x="422.374" y="77.9713" width="266.533" height="116.966" filterUnits="userSpaceOnUse" color-interpolation-filters="sRGB">
<feFlood flood-opacity="0" result="BackgroundImageFix"/>
<feColorMatrix in="SourceAlpha" type="matrix" values="0 0 0 0 0 0 0 0 0 0 0 0 0 0 0 0 0 0 127 0" result="hardAlpha"/>
<feOffset/>
<feGaussianBlur stdDeviation="5.05"/>
<feComposite in2="hardAlpha" operator="out"/>
<feColorMatrix type="matrix" values="0 0 0 0 1 0 0 0 0 0.75 0 0 0 0 0 0 0 0 0.4 0"/>
<feBlend mode="normal" in2="BackgroundImageFix" result="effect1_dropShadow_329_30613"/>
<feBlend mode="normal" in="SourceGraphic" in2="effect1_dropShadow_329_30613" result="shape"/>
</filter>
<filter id="filter13_d_329_30613" x="693.57" y="90.0699" width="53.1111" height="78.8001" filterUnits="userSpaceOnUse" color-interpolation-filters="sRGB">
<feFlood flood-opacity="0" result="BackgroundImageFix"/>
<feColorMatrix in="SourceAlpha" type="matrix" values="0 0 0 0 0 0 0 0 0 0 0 0 0 0 0 0 0 0 127 0" result="hardAlpha"/>
<feOffset/>
<feGaussianBlur stdDeviation="5.05"/>
<feComposite in2="hardAlpha" operator="out"/>
<feColorMatrix type="matrix" values="0 0 0 0 1 0 0 0 0 0.75 0 0 0 0 0 0 0 0 0.4 0"/>
<feBlend mode="normal" in2="BackgroundImageFix" result="effect1_dropShadow_329_30613"/>
<feBlend mode="normal" in="SourceGraphic" in2="effect1_dropShadow_329_30613" result="shape"/>
</filter>
<filter id="filter14_d_329_30613" x="743.487" y="75.2433" width="31.5137" height="31.5135" filterUnits="userSpaceOnUse" color-interpolation-filters="sRGB">
<feFlood flood-opacity="0" result="BackgroundImageFix"/>
<feColorMatrix in="SourceAlpha" type="matrix" values="0 0 0 0 0 0 0 0 0 0 0 0 0 0 0 0 0 0 127 0" result="hardAlpha"/>
<feOffset/>
<feGaussianBlur stdDeviation="5.05"/>
<feComposite in2="hardAlpha" operator="out"/>
<feColorMatrix type="matrix" values="0 0 0 0 1 0 0 0 0 0.75 0 0 0 0 0 0 0 0 0.4 0"/>
<feBlend mode="normal" in2="BackgroundImageFix" result="effect1_dropShadow_329_30613"/>
<feBlend mode="normal" in="SourceGraphic" in2="effect1_dropShadow_329_30613" result="shape"/>
</filter>
<linearGradient id="paint0_linear_329_30613" x1="629.952" y1="33.4423" x2="694.64" y2="77.921" gradientUnits="userSpaceOnUse">
<stop stop-color="#FF9A4C"/>
<stop offset="1" stop-color="#995C2E"/>
</linearGradient>
<linearGradient id="paint1_linear_329_30613" x1="510.621" y1="109" x2="607.621" y2="186" gradientUnits="userSpaceOnUse">
<stop stop-color="#FF9A4C"/>
<stop offset="1" stop-color="#995C2E"/>
</linearGradient>
</defs>
</svg>
