<svg width="2400" height="672" viewBox="0 0 2400 672" fill="none" xmlns="http://www.w3.org/2000/svg">
<g clip-path="url(#clip0_591_64341)">
<path d="M354 240C262.8 240 262.8 336 171.6 336H126V384H582V336H536.4C445.2 336 445.2 240 354 240Z" fill="#555653" stroke="black" stroke-width="2"/>
<path d="M1686 193C1830 193 1830 345.8 1974 345.8H2046V384H1326V345.8H1398C1542 345.8 1542 193 1686 193Z" fill="#555653" stroke="black" stroke-width="2"/>
<path d="M1470 288C1374 288 1374 336 1278 336H1230V360H1710V336H1662C1566 336 1566 288 1470 288Z" fill="#555653" stroke="black" stroke-width="2"/>
<path d="M1026 144C934.8 144 934.8 336 843.6 336H798V384H1254V336H1208.4C1117.2 336 1117.2 144 1026 144Z" fill="#555653" stroke="black" stroke-width="2"/>
<path d="M666 240C574.8 240 574.8 336 483.6 336H438V384H894V336H848.4C757.2 336 757.2 240 666 240Z" fill="#555653" stroke="black" stroke-width="2"/>
<path d="M534 288C486 288 486 336 438 336H414V360H654V336H630C582 336 582 288 534 288Z" fill="#555653" stroke="black" stroke-width="2"/>
<path d="M942 288C846 288 846 336 750 336H702V360H1182V336H1134C1038 336 1038 288 942 288Z" fill="#555653" stroke="black" stroke-width="2"/>
<path d="M-42 336H2442V672H-42V336Z" fill="#555653"/>
<path d="M-42 336V337H2442V336V335H-42V336Z" fill="black"/>
<path d="M1566 432C1470 432 1470 336 1374 336H1758C1662 336 1662 432 1566 432Z" fill="black" fill-opacity="0.22" stroke="black" stroke-width="2"/>
<path opacity="0.3" d="M1338 336C1458 336 1458 480 1578 480C1698 480 1698 336 1818 336H1878H1278H1338Z" stroke="black" stroke-width="2"/>
<rect x="775" y="308" width="2" height="4" fill="black" fill-opacity="0.01"/>
<path d="M774 315L774 322M774 336L774 328M774 328L782 328L782 319M774 328L774 322M782 297L782 308M774 322L770 322L770 316M770 304.5L770 311M782 319L778 319M782 319L782 314M782 314L786 314M782 314L782 308M782 308L778 308M770 316L766 316M770 316L770 311M770 311L774 311" stroke="black" stroke-width="2"/>
<path opacity="0.3" d="M774 336L774 344M774 344L782 344L782 350M774 344L774 350" stroke="url(#paint0_linear_591_64341)" stroke-width="2"/>
<path d="M890 311.917L895 302L899.5 311H898L904 321H902L907 332H897H893H883L888 322H886L891.5 311.917H890Z" fill="#4E5B49"/>
<path d="M897 336V332M893 332H883L888 322H886L891.5 311.917H890L895 302L899.5 311H898L904 321H902L907 332H897M893 332H897M893 332V336" stroke="black" stroke-width="2"/>
<rect opacity="0.2" x="892" y="321" width="2" height="4" fill="black"/>
<rect opacity="0.2" x="894" y="317" width="2" height="4" fill="black"/>
<rect x="899" y="329" width="2" height="4" fill="black"/>
<path d="M982 279.917L987 270L991.5 279H990L996 289H994L999 300H989H985H975L980 290H978L983.5 279.917H982Z" fill="#4E5B49"/>
<path d="M989 304V300M985 300H975L980 290H978L983.5 279.917H982L987 270L991.5 279H990L996 289H994L999 300H989M985 300H989M985 300V304" stroke="black" stroke-width="2"/>
<rect opacity="0.2" x="984" y="289" width="2" height="4" fill="black"/>
<rect opacity="0.2" x="986" y="285" width="2" height="4" fill="black"/>
<rect x="991" y="297" width="2" height="4" fill="black"/>
<path d="M310 310C314.418 310 318 313.582 318 318V336H285V318C285 313.582 288.582 310 293 310H310Z" fill="#866D55"/>
<path d="M310 310V309V310ZM318 318H319H318ZM318 336V337H319V336H318ZM285 336H284V337H285V336ZM293 310V309V310ZM310 310V311C313.866 311 317 314.134 317 318H318H319C319 313.029 314.971 309 310 309V310ZM318 318H317V336H318H319V318H318ZM318 336V335H285V336V337H318V336ZM285 336H286V318H285H284V336H285ZM285 318H286C286 314.134 289.134 311 293 311V310V309C288.029 309 284 313.029 284 318H285ZM293 310V311H310V310V309H293V310Z" fill="black"/>
<path opacity="0.5" d="M305 323H307C311.418 323 315 326.582 315 331V334V317" stroke="black" stroke-width="2"/>
<path d="M298 310V310C302.418 310 306 313.582 306 318V319" stroke="black" stroke-width="2"/>
<rect width="2" height="4" transform="matrix(-1 0 0 1 309 333)" fill="#353535"/>
<rect width="2" height="4" transform="matrix(-1 0 0 1 307 333)" fill="#866D55"/>
<rect width="2" height="4" transform="matrix(-1 0 0 1 298 309)" fill="#353535"/>
<rect width="2" height="4" transform="matrix(-1 0 0 1 296 309)" fill="#866D55"/>
<circle opacity="0.3" cx="601" cy="55" r="21" fill="#D9D9D9"/>
<path d="M222 384C174 384 174 336 126 336H318C270 336 270 384 222 384Z" fill="#5B8ED6" fill-opacity="0.22" stroke="black" stroke-width="2"/>
<path d="M126 336C174 336 174 288 222 288C270 288 270 336 318 336H342H102H126Z" stroke="black" stroke-width="2"/>
<path d="M222 288V336" stroke="black" stroke-width="2"/>
<path d="M198 293L198 336" stroke="black" stroke-width="2"/>
<path d="M174 312L174 336" stroke="black" stroke-width="2"/>
<path d="M246 293L246 336" stroke="black" stroke-width="2"/>
<path d="M270 312L270 336" stroke="black" stroke-width="2"/>
<rect opacity="0.5" x="317" y="333" width="2" height="2" fill="black"/>
<rect opacity="0.5" x="329" y="333" width="2" height="2" fill="black"/>
<rect opacity="0.5" x="341" y="333" width="2" height="2" fill="black"/>
<rect opacity="0.5" x="353" y="333" width="2" height="2" fill="black"/>
<rect opacity="0.5" x="365" y="333" width="2" height="2" fill="black"/>
<rect opacity="0.5" x="377" y="333" width="2" height="2" fill="black"/>
<rect opacity="0.5" x="389" y="333" width="2" height="2" fill="black"/>
<rect opacity="0.5" x="401" y="333" width="2" height="2" fill="black"/>
<rect opacity="0.5" x="413" y="333" width="2" height="2" fill="black"/>
<rect opacity="0.5" x="425" y="333" width="2" height="2" fill="black"/>
<rect opacity="0.5" x="437" y="333" width="2" height="2" fill="black"/>
<rect opacity="0.5" x="449" y="333" width="2" height="2" fill="black"/>
<rect opacity="0.5" x="461" y="333" width="2" height="2" fill="black"/>
<rect x="1290" y="336" width="4" height="4" fill="black"/>
<rect x="1278" y="340" width="4" height="4" fill="black"/>
<rect x="1298" y="336" width="4" height="4" fill="black"/>
<rect x="1282" y="336" width="4" height="4" fill="black"/>
<rect x="1290" y="344" width="4" height="4" fill="#404040"/>
<rect x="1294" y="340" width="4" height="4" fill="#404040"/>
<rect x="1314" y="336" width="4" height="4" fill="black"/>
<rect x="1302" y="340" width="4" height="4" fill="black"/>
<rect x="1322" y="336" width="4" height="4" fill="black"/>
<rect x="1306" y="336" width="4" height="4" fill="black"/>
<rect x="1314" y="344" width="4" height="4" fill="#404040"/>
<rect x="1318" y="340" width="4" height="4" fill="#404040"/>
<path d="M1014 384C918 384 918 336 822 336H1206C1110 336 1110 384 1014 384Z" fill="#405573" fill-opacity="0.77" stroke="black" stroke-width="2"/>
</g>
<defs>
<linearGradient id="paint0_linear_591_64341" x1="774" y1="350" x2="774" y2="332" gradientUnits="userSpaceOnUse">
<stop stop-opacity="0"/>
<stop offset="1"/>
</linearGradient>
<clipPath id="clip0_591_64341">
<rect width="2400" height="672" fill="white"/>
</clipPath>
</defs>
</svg>
