<svg width="2400" height="672" viewBox="0 0 2400 672" fill="none" xmlns="http://www.w3.org/2000/svg">
<g clip-path="url(#clip0_591_64341)">
<path d="M1437 144C1123.8 144 1123.8 336 810.6 336H2063.4C1750.2 336 1750.2 144 1437 144Z" fill="url(#paint0_linear_591_64341)" fill-opacity="0.05"/>
<path opacity="0.03" d="M858.6 336C1171.8 336 1171.8 144 1485 144C1798.2 144 1798.2 336 2111.4 336H2268H702H858.6Z" stroke="url(#paint1_linear_591_64341)" stroke-width="2"/>
<path opacity="0.06" d="M906.6 336C1219.8 336 1219.8 144 1533 144C1846.2 144 1846.2 336 2159.4 336H2316H750H906.6Z" stroke="url(#paint2_linear_591_64341)" stroke-width="2"/>
<path opacity="0.08" d="M954.6 336C1267.8 336 1267.8 144 1581 144C1894.2 144 1894.2 336 2207.4 336H2364H798H954.6Z" stroke="url(#paint3_linear_591_64341)" stroke-width="2"/>
<path opacity="0.02" d="M439 215C235 215 235 336 31 336H847C643 336 643 215 439 215Z" fill="url(#paint4_linear_591_64341)"/>
<ellipse opacity="0.2" cx="826" cy="108" rx="26" ry="26" transform="rotate(90 826 108)" fill="url(#paint5_linear_591_64341)"/>
<path d="M354 240C262.8 240 262.8 336 171.6 336H126V384H582V336H536.4C445.2 336 445.2 240 354 240Z" fill="#555653" stroke="black" stroke-width="2"/>
<path d="M1956 208C2131.2 208 2131.2 336.8 2306.4 336.8H2394V375H1518V336.8H1605.6C1780.8 336.8 1780.8 208 1956 208Z" fill="#555653" stroke="black" stroke-width="2"/>
<path d="M1689.5 288C1544.1 288 1544.1 336 1398.7 336H1326V360H2053V336H1980.3C1834.9 336 1834.9 288 1689.5 288Z" fill="#555653" stroke="black" stroke-width="2"/>
<path d="M522 288C430.8 288 430.8 336 339.6 336H294V384H750V336H704.4C613.2 336 613.2 288 522 288Z" fill="#555653" stroke="black" stroke-width="2"/>
<path d="M390 288C342 288 342 336 294 336H270V360H510V336H486C438 336 438 288 390 288Z" fill="#555653" stroke="black" stroke-width="2"/>
<path d="M-42 336H2442V672H-42V336Z" fill="#555653"/>
<path d="M-42 336V337H2442V336V335H-42V336Z" fill="black"/>
<path d="M606 336C798 336 798 432 990 432C1182 432 1182 336 1374 336" stroke="black" stroke-opacity="0.2" stroke-width="2"/>
<path d="M1662 337H1542C1302 337 1302 481 1062 481C822 481 822 337 582 337H462" stroke="black" stroke-opacity="0.2" stroke-width="2"/>
<rect x="703" y="308" width="2" height="4" fill="black" fill-opacity="0.01"/>
<path d="M702 315L702 322M702 336L702 328M702 328L710 328L710 319M702 328L702 322M710 297L710 308M702 322L698 322L698 316M698 304.5L698 311M710 319L706 319M710 319L710 314M710 314L714 314M710 314L710 308M710 308L706 308M698 316L694 316M698 316L698 311M698 311L702 311" stroke="black" stroke-width="2"/>
<path opacity="0.3" d="M702 336L702 344M702 344L710 344L710 350M702 344L702 350" stroke="url(#paint6_linear_591_64341)" stroke-width="2"/>
<path d="M1106 311.917L1111 302L1115.5 311H1114L1120 321H1118L1123 332H1113H1109H1099L1104 322H1102L1107.5 311.917H1106Z" fill="#4E5B49"/>
<path d="M1113 336V332M1109 332H1099L1104 322H1102L1107.5 311.917H1106L1111 302L1115.5 311H1114L1120 321H1118L1123 332H1113M1109 332H1113M1109 332V336" stroke="black" stroke-width="2"/>
<rect opacity="0.2" x="1108" y="321" width="2" height="4" fill="black"/>
<rect opacity="0.2" x="1110" y="317" width="2" height="4" fill="black"/>
<rect x="1115" y="329" width="2" height="4" fill="black"/>
<path d="M310 310C314.418 310 318 313.582 318 318V336H285V318C285 313.582 288.582 310 293 310H310Z" fill="#866D55"/>
<path d="M310 310V309V310ZM318 318H319H318ZM318 336V337H319V336H318ZM285 336H284V337H285V336ZM293 310V309V310ZM310 310V311C313.866 311 317 314.134 317 318H318H319C319 313.029 314.971 309 310 309V310ZM318 318H317V336H318H319V318H318ZM318 336V335H285V336V337H318V336ZM285 336H286V318H285H284V336H285ZM285 318H286C286 314.134 289.134 311 293 311V310V309C288.029 309 284 313.029 284 318H285ZM293 310V311H310V310V309H293V310Z" fill="black"/>
<path opacity="0.5" d="M305 323H307C311.418 323 315 326.582 315 331V334V317" stroke="black" stroke-width="2"/>
<path d="M298 310V310C302.418 310 306 313.582 306 318V319" stroke="black" stroke-width="2"/>
<rect width="2" height="4" transform="matrix(-1 0 0 1 309 333)" fill="#353535"/>
<rect width="2" height="4" transform="matrix(-1 0 0 1 307 333)" fill="#866D55"/>
<rect width="2" height="4" transform="matrix(-1 0 0 1 298 309)" fill="#353535"/>
<rect width="2" height="4" transform="matrix(-1 0 0 1 296 309)" fill="#866D55"/>
<path d="M222 384C174 384 174 336 126 336H318C270 336 270 384 222 384Z" fill="#5B8ED6" fill-opacity="0.22" stroke="black" stroke-width="2"/>
<path d="M126 336C174 336 174 288 222 288C270 288 270 336 318 336H342H102H126Z" stroke="black" stroke-width="2"/>
<path d="M222 288V336" stroke="black" stroke-width="2"/>
<path d="M198 293L198 336" stroke="black" stroke-width="2"/>
<path d="M174 312L174 336" stroke="black" stroke-width="2"/>
<path d="M246 293L246 336" stroke="black" stroke-width="2"/>
<path d="M270 312L270 336" stroke="black" stroke-width="2"/>
<rect opacity="0.5" x="317" y="333" width="2" height="2" fill="black"/>
<rect opacity="0.5" x="329" y="333" width="2" height="2" fill="black"/>
<rect opacity="0.5" x="341" y="333" width="2" height="2" fill="black"/>
<rect opacity="0.5" x="353" y="333" width="2" height="2" fill="black"/>
<rect opacity="0.5" x="365" y="333" width="2" height="2" fill="black"/>
<rect opacity="0.5" x="377" y="333" width="2" height="2" fill="black"/>
<rect opacity="0.5" x="389" y="333" width="2" height="2" fill="black"/>
<rect opacity="0.5" x="401" y="333" width="2" height="2" fill="black"/>
<rect opacity="0.5" x="413" y="333" width="2" height="2" fill="black"/>
<rect opacity="0.5" x="425" y="333" width="2" height="2" fill="black"/>
<rect opacity="0.5" x="437" y="333" width="2" height="2" fill="black"/>
<rect opacity="0.5" x="449" y="333" width="2" height="2" fill="black"/>
<rect opacity="0.5" x="461" y="333" width="2" height="2" fill="black"/>
<path d="M1013.5 382C1080.44 382 1113.87 370.04 1147.36 358.059C1172.72 348.99 1198.11 339.912 1237.94 336H789.056C828.889 339.912 854.283 348.99 879.637 358.059C913.135 370.04 946.562 382 1013.5 382Z" fill="#566270"/>
<path d="M1013.5 382C1080.44 382 1113.87 370.04 1147.36 358.059C1172.72 348.99 1198.11 339.912 1237.94 336H789.056C828.889 339.912 854.283 348.99 879.637 358.059C913.135 370.04 946.562 382 1013.5 382Z" fill="url(#paint7_linear_591_64341)" fill-opacity="0.2"/>
<path d="M1013.5 382C1080.44 382 1113.87 370.04 1147.36 358.059C1172.72 348.99 1198.11 339.912 1237.94 336H789.056C828.889 339.912 854.283 348.99 879.637 358.059C913.135 370.04 946.562 382 1013.5 382Z" stroke="black" stroke-width="2"/>
<rect opacity="0.5" x="936" y="69" width="2" height="2" fill="white"/>
<rect opacity="0.3" x="1080" y="165" width="2" height="2" fill="white"/>
<rect opacity="0.3" x="720" y="213" width="2" height="2" fill="white"/>
</g>
<defs>
<linearGradient id="paint0_linear_591_64341" x1="1293" y1="288" x2="1581" y2="288" gradientUnits="userSpaceOnUse">
<stop stop-color="white"/>
<stop offset="1" stop-color="white" stop-opacity="0"/>
</linearGradient>
<linearGradient id="paint1_linear_591_64341" x1="702" y1="240" x2="2268" y2="240" gradientUnits="userSpaceOnUse">
<stop stop-color="white"/>
<stop offset="0.764423" stop-color="white" stop-opacity="0"/>
</linearGradient>
<linearGradient id="paint2_linear_591_64341" x1="750" y1="240" x2="2316" y2="240" gradientUnits="userSpaceOnUse">
<stop stop-color="white"/>
<stop offset="0.764423" stop-color="white" stop-opacity="0"/>
</linearGradient>
<linearGradient id="paint3_linear_591_64341" x1="798" y1="240" x2="2364" y2="240" gradientUnits="userSpaceOnUse">
<stop stop-color="white"/>
<stop offset="0.764423" stop-color="white" stop-opacity="0"/>
</linearGradient>
<linearGradient id="paint4_linear_591_64341" x1="529.75" y1="305.75" x2="348.25" y2="305.75" gradientUnits="userSpaceOnUse">
<stop stop-color="white"/>
<stop offset="1" stop-color="white" stop-opacity="0"/>
</linearGradient>
<linearGradient id="paint5_linear_591_64341" x1="800" y1="108" x2="852" y2="108" gradientUnits="userSpaceOnUse">
<stop stop-color="white"/>
<stop offset="1" stop-color="white" stop-opacity="0"/>
</linearGradient>
<linearGradient id="paint6_linear_591_64341" x1="702" y1="350" x2="702" y2="332" gradientUnits="userSpaceOnUse">
<stop stop-opacity="0"/>
<stop offset="1"/>
</linearGradient>
<linearGradient id="paint7_linear_591_64341" x1="1349" y1="359" x2="678" y2="359" gradientUnits="userSpaceOnUse">
<stop stop-color="white" stop-opacity="0"/>
<stop offset="0.918269" stop-color="#010AFC"/>
</linearGradient>
<clipPath id="clip0_591_64341">
<rect width="2400" height="672" fill="white"/>
</clipPath>
</defs>
</svg>
