<svg width="73" height="96" viewBox="0 0 73 96" fill="none" xmlns="http://www.w3.org/2000/svg">
<path d="M26 24C30.4183 24 34 27.5817 34 32V48H1V32C1 27.5817 4.58172 24 9 24H26Z" fill="#708655"/>
<path d="M26 24V23V24ZM34 32H35H34ZM34 48V49H35V48H34ZM1 48H0V49H1V48ZM9 24V23V24ZM26 24V25C29.866 25 33 28.134 33 32H34H35C35 27.0294 30.9706 23 26 23V24ZM34 32H33V48H34H35V32H34ZM34 48V47H1V48V49H34V48ZM1 48H2V32H1H0V48H1ZM1 32H2C2 28.134 5.13401 25 9 25V24V23C4.02944 23 0 27.0294 0 32H1ZM9 24V25H26V24V23H9V24Z" fill="#708655"/>
<path d="M26 24V23V24ZM34 32H35H34ZM34 48V49H35V48H34ZM1 48H0V49H1V48ZM9 24V23V24ZM26 24V25C29.866 25 33 28.134 33 32H34H35C35 27.0294 30.9706 23 26 23V24ZM34 32H33V48H34H35V32H34ZM34 48V47H1V48V49H34V48ZM1 48H2V32H1H0V48H1ZM1 32H2C2 28.134 5.13401 25 9 25V24V23C4.02944 23 0 27.0294 0 32H1ZM9 24V25H26V24V23H9V24Z" fill="black" fill-opacity="0.4"/>
<path d="M26 72V73V72ZM34 64H35H34ZM34 48V47H35V48H34ZM1 48H0V47H1V48ZM9 72V73V72ZM26 72V71C29.866 71 33 67.866 33 64H34H35C35 68.9706 30.9706 73 26 73V72ZM34 64H33V48H34H35V64H34ZM34 48V49H1V48V47H34V48ZM1 48H2V64H1H0V48H1ZM1 64H2C2 67.866 5.13401 71 9 71V72V73C4.02944 73 0 68.9706 0 64H1ZM9 72V71H26V72V73H9V72Z" fill="url(#paint0_linear_503_25802)" fill-opacity="0.1"/>
<path d="M22 64H23H22ZM22 48V47H23V48H22ZM1 48H0V47H1V48ZM9 72V73V72ZM14 72V71C17.866 71 21 67.866 21 64H22H23C23 68.9706 18.9706 73 14 73V72ZM22 64H21V48H22H23V64H22ZM22 48V49H1V48V47H22V48ZM1 48H2V64H1H0V48H1ZM1 64H2C2 67.866 5.13401 71 9 71V72V73C4.02944 73 0 68.9706 0 64H1ZM9 72V71H14V72V73H9V72Z" fill="url(#paint1_linear_503_25802)" fill-opacity="0.1"/>
<path d="M13 38H15C18.866 38 22 41.134 22 45V45V37" stroke="#708655" stroke-width="2"/>
<path d="M13 38H15C18.866 38 22 41.134 22 45V45V37" stroke="black" stroke-opacity="0.4" stroke-width="2"/>
<path d="M14 24V24C18.4183 24 22 27.5817 22 32V33" stroke="#708655" stroke-width="2"/>
<path d="M14 24V24C18.4183 24 22 27.5817 22 32V33" stroke="black" stroke-opacity="0.4" stroke-width="2"/>
<rect width="2" height="4" transform="matrix(-1 0 0 1 14 23)" fill="#708655"/>
<rect width="2" height="4" transform="matrix(-1 0 0 1 14 23)" fill="black" fill-opacity="0.4"/>
<rect width="2" height="4" transform="matrix(-1 0 0 1 12 23)" fill="#708655"/>
<rect width="2" height="4" transform="matrix(-1 0 0 1 23 45)" fill="#708655"/>
<rect width="2" height="4" transform="matrix(-1 0 0 1 23 45)" fill="black" fill-opacity="0.4"/>
<rect width="2" height="4" transform="matrix(-1 0 0 1 21 45)" fill="#708655"/>
<defs>
<linearGradient id="paint0_linear_503_25802" x1="17.5" y1="48" x2="17.5" y2="72" gradientUnits="userSpaceOnUse">
<stop/>
<stop offset="1" stop-opacity="0"/>
</linearGradient>
<linearGradient id="paint1_linear_503_25802" x1="11.5" y1="48" x2="11.5" y2="72" gradientUnits="userSpaceOnUse">
<stop/>
<stop offset="1" stop-opacity="0"/>
</linearGradient>
</defs>
</svg>
