<svg width="73" height="96" viewBox="0 0 73 96" fill="none" xmlns="http://www.w3.org/2000/svg">
<path d="M27 10C29.2091 10 31 11.7909 31 14V23C31.5771 19.5377 34.5729 17 38.083 17H48.9014C53.726 17 57.4531 21.2385 56.8359 26.0234L55.8008 34.0479C54.7711 42.0266 47.9766 48 39.9316 48H1V30C1 25.5817 4.58172 22 9 22H13V21C13 17.6863 15.6863 15 19 15C19 12.2386 21.2386 10 24 10H27Z" fill="#708655"/>
<path d="M31 14H32H31ZM31 23H30L31.9864 23.1644L31 23ZM56.8359 26.0234L57.8277 26.1514V26.1514L56.8359 26.0234ZM55.8008 34.0479L56.7926 34.1758L56.7926 34.1758L55.8008 34.0479ZM1 48H0V49H1V48ZM13 22V23H14V22H13ZM13 21H12H13ZM19 15V16H20V15H19ZM27 10V11C28.6569 11 30 12.3431 30 14H31H32C32 11.2386 29.7614 9 27 9V10ZM31 14H30V23H31H32V14H31ZM31 23L31.9864 23.1644C32.4831 20.1843 35.0617 18 38.083 18V17V16C34.0841 16 30.671 18.891 30.0136 22.8356L31 23ZM38.083 17V18H48.9014V17V16H38.083V17ZM48.9014 17V18C53.1229 18 56.3842 21.7088 55.8442 25.8955L56.8359 26.0234L57.8277 26.1514C58.5221 20.7683 54.329 16 48.9014 16V17ZM56.8359 26.0234L55.8442 25.8955L54.809 33.9199L55.8008 34.0479L56.7926 34.1758L57.8277 26.1514L56.8359 26.0234ZM55.8008 34.0479L54.809 33.9199C53.8437 41.3999 47.4738 47 39.9316 47V48V49C48.4793 49 55.6986 42.6533 56.7926 34.1758L55.8008 34.0479ZM39.9316 48V47H1V48V49H39.9316V48ZM1 48H2V30H1H0V48H1ZM1 30H2C2 26.134 5.13401 23 9 23V22V21C4.02944 21 0 25.0294 0 30H1ZM9 22V23H13V22V21H9V22ZM13 22H14V21H13H12V22H13ZM13 21H14C14 18.2386 16.2386 16 19 16V15V14C15.134 14 12 17.134 12 21H13ZM19 15H20C20 12.7909 21.7909 11 24 11V10V9C20.6863 9 18 11.6863 18 15H19ZM24 10V11H27V10V9H24V10Z" fill="#708655"/>
<path d="M31 14H32H31ZM31 23H30L31.9864 23.1644L31 23ZM56.8359 26.0234L57.8277 26.1514V26.1514L56.8359 26.0234ZM55.8008 34.0479L56.7926 34.1758L56.7926 34.1758L55.8008 34.0479ZM1 48H0V49H1V48ZM13 22V23H14V22H13ZM13 21H12H13ZM19 15V16H20V15H19ZM27 10V11C28.6569 11 30 12.3431 30 14H31H32C32 11.2386 29.7614 9 27 9V10ZM31 14H30V23H31H32V14H31ZM31 23L31.9864 23.1644C32.4831 20.1843 35.0617 18 38.083 18V17V16C34.0841 16 30.671 18.891 30.0136 22.8356L31 23ZM38.083 17V18H48.9014V17V16H38.083V17ZM48.9014 17V18C53.1229 18 56.3842 21.7088 55.8442 25.8955L56.8359 26.0234L57.8277 26.1514C58.5221 20.7683 54.329 16 48.9014 16V17ZM56.8359 26.0234L55.8442 25.8955L54.809 33.9199L55.8008 34.0479L56.7926 34.1758L57.8277 26.1514L56.8359 26.0234ZM55.8008 34.0479L54.809 33.9199C53.8437 41.3999 47.4738 47 39.9316 47V48V49C48.4793 49 55.6986 42.6533 56.7926 34.1758L55.8008 34.0479ZM39.9316 48V47H1V48V49H39.9316V48ZM1 48H2V30H1H0V48H1ZM1 30H2C2 26.134 5.13401 23 9 23V22V21C4.02944 21 0 25.0294 0 30H1ZM9 22V23H13V22V21H9V22ZM13 22H14V21H13H12V22H13ZM13 21H14C14 18.2386 16.2386 16 19 16V15V14C15.134 14 12 17.134 12 21H13ZM19 15H20C20 12.7909 21.7909 11 24 11V10V9C20.6863 9 18 11.6863 18 15H19ZM24 10V11H27V10V9H24V10Z" fill="black" fill-opacity="0.4"/>
<path d="M31 82H32H31ZM31 73H30L31.9864 72.8356L31 73ZM56.8359 69.9766L57.8277 69.8486V69.8486L56.8359 69.9766ZM55.8008 61.9521L56.7926 61.8242L56.7926 61.8242L55.8008 61.9521ZM1 48H0V47H1V48ZM9 74V75V74ZM13 74V73H14V74H13ZM13 75H12H13ZM19 81V80H20V81H19ZM27 86V85C28.6569 85 30 83.6569 30 82H31H32C32 84.7614 29.7614 87 27 87V86ZM31 82H30V73H31H32V82H31ZM31 73L31.9864 72.8356C32.4831 75.8157 35.0617 78 38.083 78V79V80C34.0841 80 30.671 77.109 30.0136 73.1644L31 73ZM38.083 79V78H48.9014V79V80H38.083V79ZM48.9014 79V78C53.1229 78 56.3842 74.2912 55.8442 70.1045L56.8359 69.9766L57.8277 69.8486C58.5221 75.2317 54.329 80 48.9014 80V79ZM56.8359 69.9766L55.8442 70.1045L54.809 62.0801L55.8008 61.9521L56.7926 61.8242L57.8277 69.8486L56.8359 69.9766ZM55.8008 61.9521L54.809 62.0801C53.8437 54.6001 47.4738 49 39.9316 49V48V47C48.4793 47 55.6986 53.3467 56.7926 61.8242L55.8008 61.9521ZM39.9316 48V49H1V48V47H39.9316V48ZM1 48H2V66H1H0V48H1ZM1 66H2C2 69.866 5.13401 73 9 73V74V75C4.02944 75 0 70.9706 0 66H1ZM9 74V73H13V74V75H9V74ZM13 74H14V75H13H12V74H13ZM13 75H14C14 77.7614 16.2386 80 19 80V81V82C15.134 82 12 78.866 12 75H13ZM19 81H20C20 83.2091 21.7909 85 24 85V86V87C20.6863 87 18 84.3137 18 81H19ZM24 86V85H27V86V87H24V86Z" fill="url(#paint0_linear_503_25790)" fill-opacity="0.1"/>
<path d="M21 35H23C27.4183 35 31 38.5817 31 43V45V29" stroke="#708655" stroke-width="2"/>
<path d="M21 35H23C27.4183 35 31 38.5817 31 43V45V29" stroke="black" stroke-opacity="0.4" stroke-width="2"/>
<path d="M21 59H31V49V65" stroke="url(#paint1_linear_503_25790)" stroke-opacity="0.1" stroke-width="2"/>
<path d="M14 22V22C18.4183 22 22 25.5817 22 30V31" stroke="#708655" stroke-width="2"/>
<path d="M14 22V22C18.4183 22 22 25.5817 22 30V31" stroke="black" stroke-opacity="0.4" stroke-width="2"/>
<rect width="2" height="4" transform="matrix(-1 0 0 1 12 21)" fill="#708655"/>
<rect width="2" height="4" transform="matrix(-1 0 0 1 32 45)" fill="#708655"/>
<rect width="2" height="4" transform="matrix(-1 0 0 1 32 45)" fill="black" fill-opacity="0.4"/>
<rect width="2" height="4" transform="matrix(-1 0 0 1 30 45)" fill="#708655"/>
<rect width="2" height="4" transform="matrix(-1 0 0 1 14 21)" fill="#708655"/>
<rect width="2" height="4" transform="matrix(-1 0 0 1 14 21)" fill="black" fill-opacity="0.4"/>
<rect width="2" height="4" transform="matrix(-1 0 0 1 12 21)" fill="#708655"/>
<defs>
<linearGradient id="paint0_linear_503_25790" x1="28.9515" y1="48" x2="28.9515" y2="86" gradientUnits="userSpaceOnUse">
<stop/>
<stop offset="1" stop-opacity="0"/>
</linearGradient>
<linearGradient id="paint1_linear_503_25790" x1="26" y1="49" x2="26" y2="84.5" gradientUnits="userSpaceOnUse">
<stop/>
<stop offset="1" stop-opacity="0"/>
</linearGradient>
</defs>
</svg>
