<svg width="576" height="216" viewBox="0 0 576 216" fill="none" xmlns="http://www.w3.org/2000/svg">
<path opacity="0.3" d="M240 120C293.019 120 336 162.981 336 216H144C144 162.981 186.981 120 240 120ZM468 48C501.137 48 528 74.8629 528 108V144C528 130.745 538.745 120 552 120C565.255 120 576 130.745 576 144V168H336V132C336 112.118 352.118 96 372 96C391.882 96 408 112.118 408 132V108C408 74.8629 434.863 48 468 48Z" fill="url(#paint0_linear_4472_97210)"/>
<path opacity="0.3" d="M156.2 0C109.808 0 72.2002 37.6081 72.2002 84V120H336V96C336 69.4903 314.51 48 288 48C262.975 48 242.424 67.1499 240.2 91.5947V84C240.2 37.6081 202.592 0 156.2 0ZM36 72C16.1177 72 0 88.1177 0 108V120H72V108C72 88.1177 55.8823 72 36 72Z" fill="url(#paint1_linear_4472_97210)"/>
<defs>
<linearGradient id="paint0_linear_4472_97210" x1="456" y1="48" x2="456" y2="168" gradientUnits="userSpaceOnUse">
<stop stop-color="white"/>
<stop offset="1" stop-color="white" stop-opacity="0"/>
</linearGradient>
<linearGradient id="paint1_linear_4472_97210" x1="229.293" y1="0" x2="229.293" y2="120" gradientUnits="userSpaceOnUse">
<stop stop-color="white"/>
<stop offset="1" stop-color="white" stop-opacity="0"/>
</linearGradient>
</defs>
</svg>
