<svg width="24" height="96" viewBox="0 0 24 96" fill="none" xmlns="http://www.w3.org/2000/svg">
<path d="M11 9V16M22 43H18M11 49V43M11 43V39M11 43H18M11 39V33M11 39H5M2 39H5M11 33H19M11 33V28M11 28H4M11 28V25M11 25H17M11 25V19M11 19H6M11 19V16M11 16H15M18 43V38M5 39V35" stroke="black" stroke-width="2"/>
<path d="M12 41H17M19 41H22" stroke="#83AC52" stroke-width="2"/>
<path d="M12 31C12.56 31 16.9 31 19 31" stroke="#83AC52" stroke-width="2"/>
<path d="M4 26C4.64 26 9.6 26 12 26" stroke="#83AC52" stroke-width="2"/>
<path d="M12 23C12.4 23 15.5 23 17 23" stroke="#83AC52" stroke-width="2"/>
<path d="M6 17C6.32 17 8.8 17 10 17" stroke="#83AC52" stroke-width="2"/>
<path d="M12 14C12.24 14 14.1 14 15 14" stroke="#83AC52" stroke-width="2"/>
<path d="M4 48C4.48 48 8.2 48 10 48" stroke="#83AC52" stroke-width="2"/>
<path d="M10 37H7V34H4" stroke="#83AC52" stroke-width="2"/>
<path d="M12 48C12.48 48 16.2 48 18 48" stroke="#83AC52" stroke-width="2"/>
<path opacity="0.2" d="M22 54H18M11 48V54M11 54V58M11 54H18M11 58V64M11 58H6M2 58H6M18 54V59M6 58V62" stroke="url(#paint0_linear_503_25821)" stroke-width="2"/>
<defs>
<linearGradient id="paint0_linear_503_25821" x1="11" y1="61.5" x2="11" y2="48.0001" gradientUnits="userSpaceOnUse">
<stop stop-opacity="0"/>
<stop offset="1"/>
</linearGradient>
</defs>
</svg>
