<svg width="50" height="145" viewBox="0 0 50 145" fill="none" xmlns="http://www.w3.org/2000/svg">
<path d="M25 52L25 58M25 73L25 62M25 73L28 73M25 73L22 73M25 62L29 62C30.1046 62 31 61.1046 31 60L31 34M25 62L25 58M25 58L22 58C20.8954 58 20 57.1046 20 56L20 41.5" stroke="#38432B" stroke-width="2"/>
<path opacity="0.3" d="M25 94L25 88M25 73L25 84M25 73L28 73M25 73L22 73M25 84L29 84C30.1046 84 31 84.8954 31 86L31 112M25 84L25 88M25 88L22 88C20.8954 88 20 88.8954 20 90L20 104.5" stroke="url(#paint0_linear_708_30884)" stroke-width="2"/>
<path d="M30.0002 17.0005C32.2093 17.0006 34.0002 18.7914 34.0002 21.0005V23.0005C38.9707 23.0006 43.0002 27.03 43.0002 32.0005V45.0005C43.0001 49.4185 39.4183 53.0004 35.0002 53.0005H19.0002C17.8958 53.0005 17.0004 52.1049 17.0002 51.0005V48.0005H14.0002C11.2389 48.0005 9.00043 45.7618 9.00024 43.0005V25.0005C9.00024 20.5822 12.582 17.0005 17.0002 17.0005H30.0002Z" fill="#708655"/>
<path d="M30.0002 17.0005L30.0003 16.0005H30.0002V17.0005ZM34.0002 23.0005H33.0002V24.0005L34.0002 24.0005L34.0002 23.0005ZM43.0002 45.0005L44.0002 45.0005V45.0005H43.0002ZM35.0002 53.0005V54.0005H35.0003L35.0002 53.0005ZM17.0002 51.0005H16.0002V51.0007L17.0002 51.0005ZM17.0002 48.0005H18.0002V47.0005H17.0002V48.0005ZM9.00024 43.0005H8.00024V43.0006L9.00024 43.0005ZM30.0002 17.0005L30.0002 18.0005C31.657 18.0006 33.0002 19.3437 33.0002 21.0005H34.0002H35.0002C35.0002 18.2391 32.7615 16.0006 30.0003 16.0005L30.0002 17.0005ZM34.0002 21.0005H33.0002V23.0005H34.0002H35.0002V21.0005H34.0002ZM34.0002 23.0005L34.0002 24.0005C38.4185 24.0006 42.0002 27.5823 42.0002 32.0005H43.0002H44.0002C44.0002 26.4777 39.523 22.0006 34.0003 22.0005L34.0002 23.0005ZM43.0002 32.0005H42.0002V45.0005H43.0002H44.0002V32.0005H43.0002ZM43.0002 45.0005L42.0002 45.0004C42.0001 48.8663 38.866 52.0004 35.0002 52.0005L35.0002 53.0005L35.0003 54.0005C39.9706 54.0004 44 49.9708 44.0002 45.0005L43.0002 45.0005ZM35.0002 53.0005V52.0005H19.0002V53.0005V54.0005H35.0002V53.0005ZM19.0002 53.0005V52.0005C18.4482 52.0005 18.0003 51.5527 18.0002 51.0003L17.0002 51.0005L16.0002 51.0007C16.0005 52.6571 17.3433 54.0005 19.0002 54.0005V53.0005ZM17.0002 51.0005H18.0002V48.0005H17.0002H16.0002V51.0005H17.0002ZM17.0002 48.0005V47.0005H14.0002V48.0005V49.0005H17.0002V48.0005ZM14.0002 48.0005V47.0005C11.7913 47.0005 10.0004 45.2095 10.0002 43.0004L9.00024 43.0005L8.00024 43.0006C8.00046 46.314 10.6866 49.0005 14.0002 49.0005V48.0005ZM9.00024 43.0005H10.0002V25.0005H9.00024H8.00024V43.0005H9.00024ZM9.00024 25.0005H10.0002C10.0002 21.1345 13.1343 18.0005 17.0002 18.0005V17.0005V16.0005C12.0297 16.0005 8.00024 20.0299 8.00024 25.0005H9.00024ZM17.0002 17.0005V18.0005H30.0002V17.0005V16.0005H17.0002V17.0005Z" fill="#708655"/>
<path d="M30.0002 17.0005L30.0003 16.0005H30.0002V17.0005ZM34.0002 23.0005H33.0002V24.0005L34.0002 24.0005L34.0002 23.0005ZM43.0002 45.0005L44.0002 45.0005V45.0005H43.0002ZM35.0002 53.0005V54.0005H35.0003L35.0002 53.0005ZM17.0002 51.0005H16.0002V51.0007L17.0002 51.0005ZM17.0002 48.0005H18.0002V47.0005H17.0002V48.0005ZM9.00024 43.0005H8.00024V43.0006L9.00024 43.0005ZM30.0002 17.0005L30.0002 18.0005C31.657 18.0006 33.0002 19.3437 33.0002 21.0005H34.0002H35.0002C35.0002 18.2391 32.7615 16.0006 30.0003 16.0005L30.0002 17.0005ZM34.0002 21.0005H33.0002V23.0005H34.0002H35.0002V21.0005H34.0002ZM34.0002 23.0005L34.0002 24.0005C38.4185 24.0006 42.0002 27.5823 42.0002 32.0005H43.0002H44.0002C44.0002 26.4777 39.523 22.0006 34.0003 22.0005L34.0002 23.0005ZM43.0002 32.0005H42.0002V45.0005H43.0002H44.0002V32.0005H43.0002ZM43.0002 45.0005L42.0002 45.0004C42.0001 48.8663 38.866 52.0004 35.0002 52.0005L35.0002 53.0005L35.0003 54.0005C39.9706 54.0004 44 49.9708 44.0002 45.0005L43.0002 45.0005ZM35.0002 53.0005V52.0005H19.0002V53.0005V54.0005H35.0002V53.0005ZM19.0002 53.0005V52.0005C18.4482 52.0005 18.0003 51.5527 18.0002 51.0003L17.0002 51.0005L16.0002 51.0007C16.0005 52.6571 17.3433 54.0005 19.0002 54.0005V53.0005ZM17.0002 51.0005H18.0002V48.0005H17.0002H16.0002V51.0005H17.0002ZM17.0002 48.0005V47.0005H14.0002V48.0005V49.0005H17.0002V48.0005ZM14.0002 48.0005V47.0005C11.7913 47.0005 10.0004 45.2095 10.0002 43.0004L9.00024 43.0005L8.00024 43.0006C8.00046 46.314 10.6866 49.0005 14.0002 49.0005V48.0005ZM9.00024 43.0005H10.0002V25.0005H9.00024H8.00024V43.0005H9.00024ZM9.00024 25.0005H10.0002C10.0002 21.1345 13.1343 18.0005 17.0002 18.0005V17.0005V16.0005C12.0297 16.0005 8.00024 20.0299 8.00024 25.0005H9.00024ZM17.0002 17.0005V18.0005H30.0002V17.0005V16.0005H17.0002V17.0005Z" fill="black" fill-opacity="0.4"/>
<path opacity="0.5" d="M33 37V37C28.5817 37 25 40.5817 25 45V46V33" stroke="black" stroke-width="2"/>
<rect width="2" height="4" transform="matrix(-1 0 0 1 26 48)" fill="#38432B"/>
<rect width="2" height="4" transform="matrix(-1 0 0 1 24 48)" fill="#708655"/>
<rect width="2" height="4" transform="matrix(-1 0 0 1 32 50)" fill="#38432B"/>
<rect width="2" height="4" transform="matrix(-1 0 0 1 30 50)" fill="#708655"/>
<rect x="12" y="33" width="2" height="4" transform="rotate(90 12 33)" fill="#38432B"/>
<rect x="24" y="16" width="2" height="4" fill="#708655"/>
<defs>
<linearGradient id="paint0_linear_708_30884" x1="25.5" y1="73" x2="25.5" y2="112" gradientUnits="userSpaceOnUse">
<stop/>
<stop offset="1" stop-opacity="0"/>
</linearGradient>
</defs>
</svg>
