<svg width="48" height="144" viewBox="0 0 48 144" fill="none" xmlns="http://www.w3.org/2000/svg">
<path d="M24 51L24 57M24 72L24 61M24 72L27 72M24 72L21 72M24 61L28 61C29.1046 61 30 60.1046 30 59L30 33M24 61L24 57M24 57L21 57C19.8954 57 19 56.1046 19 55L19 40.5" stroke="#38432B" stroke-width="2"/>
<path opacity="0.3" d="M24 93L24 87M24 72L24 83M24 72L27 72M24 72L21 72M24 83L28 83C29.1046 83 30 83.8954 30 85L30 111M24 83L24 87M24 87L21 87C19.8954 87 19 87.8954 19 89L19 103.5" stroke="url(#paint0_linear_708_30884)" stroke-width="2"/>
<path d="M29.0002 16.0005C31.2092 16.0006 33.0002 17.7914 33.0002 20.0005V22.0005C37.9707 22.0006 42.0002 26.03 42.0002 31.0005V44.0005C42 48.4185 38.4183 52.0004 34.0002 52.0005H18.0002C16.8957 52.0005 16.0004 51.1049 16.0002 50.0005V47.0005H13.0002C10.2389 47.0005 8.00036 44.7618 8.00018 42.0005V24.0005C8.00018 19.5822 11.5819 16.0005 16.0002 16.0005H29.0002Z" fill="#708655"/>
<path d="M29.0002 16.0005L29.0002 15.0005H29.0002V16.0005ZM33.0002 22.0005H32.0002V23.0005L33.0002 23.0005L33.0002 22.0005ZM42.0002 44.0005L43.0002 44.0005V44.0005H42.0002ZM34.0002 52.0005V53.0005H34.0002L34.0002 52.0005ZM16.0002 50.0005H15.0002V50.0007L16.0002 50.0005ZM16.0002 47.0005H17.0002V46.0005H16.0002V47.0005ZM8.00018 42.0005H7.00018V42.0006L8.00018 42.0005ZM29.0002 16.0005L29.0001 17.0005C30.657 17.0006 32.0002 18.3437 32.0002 20.0005H33.0002H34.0002C34.0002 17.2391 31.7615 15.0006 29.0002 15.0005L29.0002 16.0005ZM33.0002 20.0005H32.0002V22.0005H33.0002H34.0002V20.0005H33.0002ZM33.0002 22.0005L33.0002 23.0005C37.4184 23.0006 41.0002 26.5823 41.0002 31.0005H42.0002H43.0002C43.0002 25.4777 38.5229 21.0006 33.0002 21.0005L33.0002 22.0005ZM42.0002 31.0005H41.0002V44.0005H42.0002H43.0002V31.0005H42.0002ZM42.0002 44.0005L41.0002 44.0004C41 47.8663 37.866 51.0004 34.0002 51.0005L34.0002 52.0005L34.0002 53.0005C38.9706 53.0004 43 48.9708 43.0002 44.0005L42.0002 44.0005ZM34.0002 52.0005V51.0005H18.0002V52.0005V53.0005H34.0002V52.0005ZM18.0002 52.0005V51.0005C17.4482 51.0005 17.0003 50.5527 17.0002 50.0003L16.0002 50.0005L15.0002 50.0007C15.0005 51.6571 16.3433 53.0005 18.0002 53.0005V52.0005ZM16.0002 50.0005H17.0002V47.0005H16.0002H15.0002V50.0005H16.0002ZM16.0002 47.0005V46.0005H13.0002V47.0005V48.0005H16.0002V47.0005ZM13.0002 47.0005V46.0005C10.7912 46.0005 9.00033 44.2095 9.00018 42.0004L8.00018 42.0005L7.00018 42.0006C7.0004 45.314 9.68652 48.0005 13.0002 48.0005V47.0005ZM8.00018 42.0005H9.00018V24.0005H8.00018H7.00018V42.0005H8.00018ZM8.00018 24.0005H9.00018C9.00018 20.1345 12.1342 17.0005 16.0002 17.0005V16.0005V15.0005C11.0296 15.0005 7.00018 19.0299 7.00018 24.0005H8.00018ZM16.0002 16.0005V17.0005H29.0002V16.0005V15.0005H16.0002V16.0005Z" fill="#708655"/>
<path d="M29.0002 16.0005L29.0002 15.0005H29.0002V16.0005ZM33.0002 22.0005H32.0002V23.0005L33.0002 23.0005L33.0002 22.0005ZM42.0002 44.0005L43.0002 44.0005V44.0005H42.0002ZM34.0002 52.0005V53.0005H34.0002L34.0002 52.0005ZM16.0002 50.0005H15.0002V50.0007L16.0002 50.0005ZM16.0002 47.0005H17.0002V46.0005H16.0002V47.0005ZM8.00018 42.0005H7.00018V42.0006L8.00018 42.0005ZM29.0002 16.0005L29.0001 17.0005C30.657 17.0006 32.0002 18.3437 32.0002 20.0005H33.0002H34.0002C34.0002 17.2391 31.7615 15.0006 29.0002 15.0005L29.0002 16.0005ZM33.0002 20.0005H32.0002V22.0005H33.0002H34.0002V20.0005H33.0002ZM33.0002 22.0005L33.0002 23.0005C37.4184 23.0006 41.0002 26.5823 41.0002 31.0005H42.0002H43.0002C43.0002 25.4777 38.5229 21.0006 33.0002 21.0005L33.0002 22.0005ZM42.0002 31.0005H41.0002V44.0005H42.0002H43.0002V31.0005H42.0002ZM42.0002 44.0005L41.0002 44.0004C41 47.8663 37.866 51.0004 34.0002 51.0005L34.0002 52.0005L34.0002 53.0005C38.9706 53.0004 43 48.9708 43.0002 44.0005L42.0002 44.0005ZM34.0002 52.0005V51.0005H18.0002V52.0005V53.0005H34.0002V52.0005ZM18.0002 52.0005V51.0005C17.4482 51.0005 17.0003 50.5527 17.0002 50.0003L16.0002 50.0005L15.0002 50.0007C15.0005 51.6571 16.3433 53.0005 18.0002 53.0005V52.0005ZM16.0002 50.0005H17.0002V47.0005H16.0002H15.0002V50.0005H16.0002ZM16.0002 47.0005V46.0005H13.0002V47.0005V48.0005H16.0002V47.0005ZM13.0002 47.0005V46.0005C10.7912 46.0005 9.00033 44.2095 9.00018 42.0004L8.00018 42.0005L7.00018 42.0006C7.0004 45.314 9.68652 48.0005 13.0002 48.0005V47.0005ZM8.00018 42.0005H9.00018V24.0005H8.00018H7.00018V42.0005H8.00018ZM8.00018 24.0005H9.00018C9.00018 20.1345 12.1342 17.0005 16.0002 17.0005V16.0005V15.0005C11.0296 15.0005 7.00018 19.0299 7.00018 24.0005H8.00018ZM16.0002 16.0005V17.0005H29.0002V16.0005V15.0005H16.0002V16.0005Z" fill="black" fill-opacity="0.4"/>
<path opacity="0.5" d="M32 36V36C27.5817 36 24 39.5817 24 44V45V32" stroke="black" stroke-width="2"/>
<rect width="2" height="4" transform="matrix(-1 0 0 1 25 47)" fill="#38432B"/>
<rect width="2" height="4" transform="matrix(-1 0 0 1 23 47)" fill="#708655"/>
<rect width="2" height="4" transform="matrix(-1 0 0 1 31 49)" fill="#38432B"/>
<rect width="2" height="4" transform="matrix(-1 0 0 1 29 49)" fill="#708655"/>
<rect x="11" y="32" width="2" height="4" transform="rotate(90 11 32)" fill="#38432B"/>
<rect x="23" y="15" width="2" height="4" fill="#708655"/>
<defs>
<linearGradient id="paint0_linear_708_30884" x1="24.5" y1="72" x2="24.5" y2="111" gradientUnits="userSpaceOnUse">
<stop/>
<stop offset="1" stop-opacity="0"/>
</linearGradient>
</defs>
</svg>
