<svg width="123" height="33" viewBox="0 0 123 33" fill="none" xmlns="http://www.w3.org/2000/svg">
<rect width="3" height="15" transform="matrix(-1 0 0 1 117 0)" fill="white"/>
<rect width="12" height="3" transform="matrix(-1 0 0 1 120 0)" fill="white"/>
<rect width="3" height="12" transform="matrix(-1 0 0 1 123 3)" fill="white"/>
<rect width="3" height="12" transform="matrix(-1 0 0 1 111 3)" fill="white"/>
<rect width="9" height="3" transform="matrix(1 0 0 -1 3 3)" fill="white"/>
<rect width="9" height="3" transform="matrix(1 0 0 -1 3 12)" fill="white"/>
<rect width="3" height="6" transform="matrix(1 0 0 -1 0 9)" fill="white"/>
<rect width="3" height="6" transform="matrix(1 0 0 -1 12 9)" fill="white"/>
<rect width="3" height="3" transform="matrix(1 0 0 -1 12 15)" fill="white"/>
<rect width="12" height="3" transform="matrix(1 0 0 -1 72 21)" fill="white"/>
<rect width="3" height="12" transform="matrix(1 0 0 -1 72 30)" fill="white"/>
<rect width="3" height="9" transform="matrix(1 0 0 -1 84 30)" fill="white"/>
<rect width="12" height="3" transform="matrix(1 0 0 -1 72 33)" fill="white"/>
<rect width="12" height="3" transform="matrix(1 0 0 -1 3 21)" fill="white"/>
<rect width="12" height="3" transform="matrix(1 0 0 -1 3 33)" fill="white"/>
<rect width="3" height="9" transform="matrix(1 0 0 -1 0 30)" fill="white"/>
<rect x="54" width="3" height="15" fill="white"/>
<rect x="66" width="3" height="15" fill="white"/>
<rect x="57" y="3" width="6" height="3" fill="white"/>
<rect x="63" y="6" width="3" height="3" fill="white"/>
<rect x="90" y="18" width="3" height="12" fill="white"/>
<rect x="108" y="27" width="3" height="6" fill="white"/>
<rect x="111" y="21" width="3" height="6" fill="white"/>
<rect x="114" y="18" width="3" height="3" fill="white"/>
<rect x="120" y="27" width="3" height="6" fill="white"/>
<rect x="108" y="30" width="12" height="3" fill="white"/>
<rect x="93" y="18" width="12" height="3" fill="white"/>
<rect x="93" y="24" width="12" height="3" fill="white"/>
<rect x="93" y="30" width="12" height="3" fill="white"/>
<rect width="3" height="15" transform="matrix(-1 0 0 1 105 0)" fill="white"/>
<rect width="3" height="15" transform="matrix(-1 0 0 1 93 0)" fill="white"/>
<rect width="3" height="3" transform="matrix(-1 0 0 1 102 6)" fill="white"/>
<rect width="6" height="3" transform="matrix(-1 0 0 1 99 9)" fill="white"/>
<rect width="3" height="15" transform="matrix(-1 0 0 1 33 0)" fill="white"/>
<rect width="3" height="15" transform="matrix(-1 0 0 1 21 0)" fill="white"/>
<rect width="3" height="3" transform="matrix(-1 0 0 1 30 6)" fill="white"/>
<rect width="6" height="3" transform="matrix(-1 0 0 1 27 9)" fill="white"/>
<rect width="3" height="3" transform="matrix(-1 0 0 1 63 24)" fill="white"/>
<rect width="12" height="3" transform="matrix(-1 0 0 1 66 18)" fill="white"/>
<rect width="3" height="12" transform="matrix(-1 0 0 1 69 21)" fill="white"/>
<rect width="3" height="12" transform="matrix(-1 0 0 1 57 21)" fill="white"/>
<rect width="3" height="3" transform="matrix(-1 0 0 1 45 6)" fill="white"/>
<rect width="12" height="3" transform="matrix(-1 0 0 1 48 0)" fill="white"/>
<rect width="3" height="12" transform="matrix(-1 0 0 1 51 3)" fill="white"/>
<rect width="3" height="12" transform="matrix(-1 0 0 1 39 3)" fill="white"/>
<rect x="24" y="18" width="3" height="15" fill="white"/>
<rect x="42" y="18" width="3" height="15" fill="white"/>
<rect opacity="0.3" x="48" y="30" width="3" height="3" fill="white"/>
<rect opacity="0.3" x="36" y="30" width="3" height="3" fill="white"/>
<rect opacity="0.3" x="36" y="18" width="3" height="3" fill="white"/>
<rect opacity="0.3" x="48" y="18" width="3" height="3" fill="white"/>
<rect opacity="0.3" x="84" y="12" width="3" height="3" fill="white"/>
<rect opacity="0.3" x="72" y="12" width="3" height="3" fill="white"/>
<rect opacity="0.3" x="72" width="3" height="3" fill="white"/>
<rect opacity="0.3" x="84" width="3" height="3" fill="white"/>
<rect x="36" y="24" width="15" height="3" fill="white"/>
<rect x="78" width="3" height="15" fill="white"/>
<rect x="72" y="6" width="15" height="3" fill="white"/>
<rect x="18" y="18" width="15" height="3" fill="white"/>
<rect x="18" y="30" width="15" height="3" fill="white"/>
</svg>
