<svg width="33" height="32" viewBox="0 0 33 32" fill="none" xmlns="http://www.w3.org/2000/svg">
<path d="M26.8183 6.69156C24.9294 5.8078 22.9097 5.16552 20.7982 4.7998C20.5389 5.26864 20.2359 5.89924 20.0271 6.40088C17.7825 6.06332 15.5585 6.06332 13.3552 6.40088C13.1463 5.89924 12.8365 5.26864 12.5749 4.7998C10.4611 5.16552 8.43906 5.81016 6.55018 6.69624C2.74029 12.4535 1.70749 18.0677 2.22389 23.6022C4.75081 25.4893 7.1997 26.6356 9.60726 27.3857C10.2017 26.5676 10.7319 25.6979 11.1886 24.7814C10.3187 24.4508 9.48562 24.043 8.69842 23.5694C8.90726 23.4147 9.11154 23.253 9.3089 23.0865C14.1103 25.3322 19.3271 25.3322 24.0711 23.0865C24.2707 23.253 24.475 23.4147 24.6815 23.5694C23.892 24.0453 23.0566 24.4532 22.1868 24.7837C22.6435 25.6979 23.1714 26.57 23.7681 27.388C26.178 26.6379 28.6291 25.4916 31.1561 23.6022C31.762 17.1863 30.121 11.6236 26.8183 6.69156ZM11.8427 20.1986C10.4014 20.1986 9.21938 18.853 9.21938 17.2144C9.21938 15.5759 10.3761 14.228 11.8427 14.228C13.3093 14.228 14.4913 15.5735 14.466 17.2144C14.4683 18.853 13.3093 20.1986 11.8427 20.1986ZM21.5373 20.1986C20.0959 20.1986 18.9139 18.853 18.9139 17.2144C18.9139 15.5759 20.0707 14.228 21.5373 14.228C23.0038 14.228 24.1858 15.5735 24.1606 17.2144C24.1606 18.853 23.0038 20.1986 21.5373 20.1986Z" fill="white"/>
</svg>
