<svg width="1280" height="1448" viewBox="0 0 1280 1448" fill="none" xmlns="http://www.w3.org/2000/svg">
<rect x="-56" y="651" width="1384" height="797" fill="url(#paint0_linear_329_27874)"/>
<rect width="2" height="2" transform="matrix(-1 0 0 1 714 375.052)" fill="#D9D9D9"/>
<rect width="2" height="2" transform="matrix(-1 0 0 1 889 305.052)" fill="#D9D9D9"/>
<rect width="2" height="2" transform="matrix(-1 0 0 1 203 233.052)" fill="#D9D9D9"/>
<rect width="2" height="2" transform="matrix(-1 0 0 1 305 331.052)" fill="#D9D9D9"/>
<rect width="2" height="2" transform="matrix(-1 0 0 1 671 269.052)" fill="#D9D9D9"/>
<rect width="2" height="2" transform="matrix(-1 0 0 1 1118 384.052)" fill="#D9D9D9"/>
<rect width="2" height="2" transform="matrix(-1 0 0 1 727 437.052)" fill="#D9D9D9"/>
<rect width="2" height="2" transform="matrix(-1 0 0 1 529 446.052)" fill="#D9D9D9"/>
<rect width="2" height="2" transform="matrix(-1 0 0 1 375 395.052)" fill="#D9D9D9"/>
<rect width="2" height="2" transform="matrix(-1 0 0 1 62 267.052)" fill="#D9D9D9"/>
<path fill-rule="evenodd" clip-rule="evenodd" d="M-13 347.052C-13 344.29 -10.7614 342.052 -8 342.052H2C4.20914 342.052 6 343.843 6 346.052V355.052C6.57706 351.589 9.57267 349.052 13.0828 349.052H17.0262C21.7847 349.052 25.4606 353.232 24.8516 357.952L23.8003 366.099C22.7708 374.078 15.9769 380.052 7.93187 380.052H2H-7H-31V362.052C-31 357.633 -27.4183 354.052 -23 354.052H-19V353.052C-19 349.738 -16.3137 347.052 -13 347.052ZM28 375.052C28 368.424 33.3726 363.052 40 363.052H48C54.6274 363.052 60 368.424 60 375.052V379.052H28V375.052Z" fill="#353535"/>
<path d="M-13 347.052V348.052H-12V347.052H-13ZM6 355.052H5L6.98639 355.216L6 355.052ZM24.8516 357.952L23.8598 357.824L24.8516 357.952ZM23.8003 366.099L24.7921 366.227L23.8003 366.099ZM-31 380.052H-32V381.052H-31V380.052ZM-19 354.052V355.052H-18V354.052H-19ZM60 379.052V380.052H61V379.052H60ZM28 379.052H27V380.052H28V379.052ZM-8 341.052C-11.3137 341.052 -14 343.738 -14 347.052H-12C-12 344.843 -10.2091 343.052 -8 343.052V341.052ZM2 341.052H-8V343.052H2V341.052ZM7 346.052C7 343.29 4.76143 341.052 2 341.052V343.052C3.65686 343.052 5 344.395 5 346.052H7ZM7 355.052V346.052H5V355.052H7ZM13.0828 348.052C9.08384 348.052 5.67103 350.943 5.01361 354.887L6.98639 355.216C7.48309 352.236 10.0615 350.052 13.0828 350.052V348.052ZM17.0262 348.052H13.0828V350.052H17.0262V348.052ZM25.8434 358.08C26.5295 352.762 22.3878 348.052 17.0262 348.052V350.052C21.1816 350.052 24.3916 353.703 23.8598 357.824L25.8434 358.08ZM24.7921 366.227L25.8434 358.08L23.8598 357.824L22.8085 365.971L24.7921 366.227ZM7.93187 381.052C16.4797 381.052 23.6982 374.705 24.7921 366.227L22.8085 365.971C21.8434 373.452 15.474 379.052 7.93187 379.052V381.052ZM2 381.052H7.93187V379.052H2V381.052ZM2 379.052H-7V381.052H2V379.052ZM-7 379.052H-31V381.052H-7V379.052ZM-30 380.052V362.052H-32V380.052H-30ZM-30 362.052C-30 358.186 -26.866 355.052 -23 355.052V353.052C-27.9706 353.052 -32 357.081 -32 362.052H-30ZM-23 355.052H-19V353.052H-23V355.052ZM-20 353.052V354.052H-18V353.052H-20ZM-13 346.052C-16.866 346.052 -20 349.186 -20 353.052H-18C-18 350.29 -15.7614 348.052 -13 348.052V346.052ZM40 362.052C32.8203 362.052 27 367.872 27 375.052H29C29 368.977 33.9249 364.052 40 364.052V362.052ZM48 362.052H40V364.052H48V362.052ZM61 375.052C61 367.872 55.1797 362.052 48 362.052V364.052C54.0751 364.052 59 368.977 59 375.052H61ZM61 379.052V375.052H59V379.052H61ZM28 380.052H60V378.052H28V380.052ZM27 375.052V379.052H29V375.052H27Z" fill="black"/>
<rect width="2" height="4" transform="matrix(-1 0 0 1 43 362.052)" fill="#353535"/>
<rect width="2" height="4" transform="matrix(-1 0 0 1 41 362.052)" fill="#353535"/>
<rect width="2" height="4" transform="matrix(-1 0 0 1 8 375.052)" fill="#353535"/>
<rect width="2" height="4" transform="matrix(-1 0 0 1 6 375.052)" fill="#353535"/>
<rect width="2" height="4" transform="matrix(-1 0 0 1 12 375.052)" fill="#353535"/>
<rect width="2" height="4" transform="matrix(-1 0 0 1 10 375.052)" fill="#353535"/>
<rect x="299" y="489.052" width="96" height="41" fill="#B9B9B9"/>
<rect x="299" y="489.052" width="96" height="41" fill="black" fill-opacity="0.2"/>
<rect x="299" y="489.052" width="96" height="41" stroke="black" stroke-width="2"/>
<rect x="411" y="489.052" width="35" height="66" fill="#B9B9B9" stroke="black" stroke-width="2"/>
<rect x="431" y="489.052" width="34" height="72" fill="#B9B9B9"/>
<rect x="431" y="489.052" width="34" height="72" fill="black" fill-opacity="0.2"/>
<rect x="431" y="489.052" width="34" height="72" stroke="black" stroke-width="2"/>
<rect x="355" y="495.052" width="56" height="36" fill="#5E5F61" stroke="black" stroke-width="2"/>
<g opacity="0.1">
<rect x="550" y="458.052" width="44" height="2" fill="white"/>
<rect opacity="0.5" x="550" y="462.052" width="44" height="2" fill="white"/>
<path d="M581 504.052C581 495.767 574.284 489.052 566 489.052C557.716 489.052 551 495.767 551 504.052V631.052H581V504.052Z" stroke="white" stroke-width="2"/>
<rect x="582" y="512.052" width="12" height="2" fill="white"/>
<rect opacity="0.5" x="582" y="516.052" width="12" height="2" fill="white"/>
<rect x="594" y="458.052" width="44" height="2" fill="white"/>
<rect opacity="0.5" x="594" y="462.052" width="44" height="2" fill="white"/>
<path d="M625 504.052C625 495.767 618.284 489.052 610 489.052C601.716 489.052 595 495.767 595 504.052V631.052H625V504.052Z" stroke="white" stroke-width="2"/>
<rect x="626" y="512.052" width="12" height="2" fill="white"/>
<rect opacity="0.5" x="626" y="516.052" width="12" height="2" fill="white"/>
<rect x="638" y="458.052" width="44" height="2" fill="white"/>
<rect opacity="0.5" x="638" y="462.052" width="44" height="2" fill="white"/>
<path d="M669 504.052C669 495.767 662.284 489.052 654 489.052C645.716 489.052 639 495.767 639 504.052V631.052H669V504.052Z" stroke="white" stroke-width="2"/>
<rect x="670" y="512.052" width="12" height="2" fill="white"/>
<rect opacity="0.5" x="670" y="516.052" width="12" height="2" fill="white"/>
<rect x="682" y="458.052" width="44" height="2" fill="white"/>
<rect opacity="0.5" x="682" y="462.052" width="44" height="2" fill="white"/>
<path d="M713 504.052C713 495.767 706.284 489.052 698 489.052C689.716 489.052 683 495.767 683 504.052V631.052H713V504.052Z" stroke="white" stroke-width="2"/>
<rect x="714" y="512.052" width="12" height="2" fill="white"/>
<rect opacity="0.5" x="714" y="516.052" width="12" height="2" fill="white"/>
<rect x="726" y="458.052" width="44" height="2" fill="white"/>
<rect opacity="0.5" x="726" y="462.052" width="44" height="2" fill="white"/>
<path d="M757 504.052C757 495.767 750.284 489.052 742 489.052C733.716 489.052 727 495.767 727 504.052V631.052H757V504.052Z" stroke="white" stroke-width="2"/>
<rect x="758" y="512.052" width="12" height="2" fill="white"/>
<rect opacity="0.5" x="758" y="516.052" width="12" height="2" fill="white"/>
<rect x="770" y="458.052" width="44" height="2" fill="white"/>
<rect opacity="0.5" x="770" y="462.052" width="44" height="2" fill="white"/>
<path d="M801 504.052C801 495.767 794.284 489.052 786 489.052C777.716 489.052 771 495.767 771 504.052V631.052H801V504.052Z" stroke="white" stroke-width="2"/>
<rect x="802" y="512.052" width="12" height="2" fill="white"/>
<rect opacity="0.5" x="802" y="516.052" width="12" height="2" fill="white"/>
<rect x="814" y="458.052" width="44" height="2" fill="white"/>
<rect opacity="0.5" x="814" y="462.052" width="44" height="2" fill="white"/>
<path d="M845 504.052C845 495.767 838.284 489.052 830 489.052C821.716 489.052 815 495.767 815 504.052V631.052H845V504.052Z" stroke="white" stroke-width="2"/>
<rect x="846" y="512.052" width="12" height="2" fill="white"/>
<rect opacity="0.5" x="846" y="516.052" width="12" height="2" fill="white"/>
<rect x="858" y="458.052" width="44" height="2" fill="white"/>
<rect opacity="0.5" x="858" y="462.052" width="44" height="2" fill="white"/>
<path d="M889 504.052C889 495.767 882.284 489.052 874 489.052C865.716 489.052 859 495.767 859 504.052V631.052H889V504.052Z" stroke="white" stroke-width="2"/>
<rect x="890" y="512.052" width="12" height="2" fill="white"/>
<rect opacity="0.5" x="890" y="516.052" width="12" height="2" fill="white"/>
<rect x="902" y="458.052" width="44" height="2" fill="white"/>
<rect opacity="0.5" x="902" y="462.052" width="44" height="2" fill="white"/>
<path d="M933 504.052C933 495.767 926.284 489.052 918 489.052C909.716 489.052 903 495.767 903 504.052V631.052H933V504.052Z" stroke="white" stroke-width="2"/>
<rect x="934" y="512.052" width="12" height="2" fill="white"/>
<rect opacity="0.5" x="934" y="516.052" width="12" height="2" fill="white"/>
<rect x="946" y="458.052" width="44" height="2" fill="white"/>
<rect opacity="0.5" x="946" y="462.052" width="44" height="2" fill="white"/>
<path d="M977 504.052C977 495.767 970.284 489.052 962 489.052C953.716 489.052 947 495.767 947 504.052V631.052H977V504.052Z" stroke="white" stroke-width="2"/>
<rect x="978" y="512.052" width="12" height="2" fill="white"/>
<rect opacity="0.5" x="978" y="516.052" width="12" height="2" fill="white"/>
<rect x="990" y="458.052" width="44" height="2" fill="white"/>
<rect opacity="0.5" x="990" y="462.052" width="44" height="2" fill="white"/>
<path d="M1021 504.052C1021 495.767 1014.28 489.052 1006 489.052C997.716 489.052 991 495.767 991 504.052V631.052H1021V504.052Z" stroke="white" stroke-width="2"/>
<rect x="1022" y="512.052" width="12" height="2" fill="white"/>
<rect opacity="0.5" x="1022" y="516.052" width="12" height="2" fill="white"/>
<rect x="1034" y="458.052" width="44" height="2" fill="white"/>
<rect opacity="0.5" x="1034" y="462.052" width="44" height="2" fill="white"/>
<path d="M1065 504.052C1065 495.767 1058.28 489.052 1050 489.052C1041.72 489.052 1035 495.767 1035 504.052V631.052H1065V504.052Z" stroke="white" stroke-width="2"/>
<rect x="1066" y="512.052" width="12" height="2" fill="white"/>
<rect opacity="0.5" x="1066" y="516.052" width="12" height="2" fill="white"/>
<rect x="1078" y="458.052" width="44" height="2" fill="white"/>
<rect opacity="0.5" x="1078" y="462.052" width="44" height="2" fill="white"/>
<path d="M1109 504.052C1109 495.767 1102.28 489.052 1094 489.052C1085.72 489.052 1079 495.767 1079 504.052V631.052H1109V504.052Z" stroke="white" stroke-width="2"/>
<rect x="1110" y="512.052" width="12" height="2" fill="white"/>
<rect opacity="0.5" x="1110" y="516.052" width="12" height="2" fill="white"/>
<rect x="1122" y="458.052" width="44" height="2" fill="white"/>
<rect opacity="0.5" x="1122" y="462.052" width="44" height="2" fill="white"/>
<path d="M1153 504.052C1153 495.767 1146.28 489.052 1138 489.052C1129.72 489.052 1123 495.767 1123 504.052V631.052H1153V504.052Z" stroke="white" stroke-width="2"/>
<rect x="1154" y="512.052" width="12" height="2" fill="white"/>
<rect opacity="0.5" x="1154" y="516.052" width="12" height="2" fill="white"/>
<rect x="1166" y="458.052" width="44" height="2" fill="white"/>
<rect opacity="0.5" x="1166" y="462.052" width="44" height="2" fill="white"/>
<path d="M1197 504.052C1197 495.767 1190.28 489.052 1182 489.052C1173.72 489.052 1167 495.767 1167 504.052V631.052H1197V504.052Z" stroke="white" stroke-width="2"/>
<rect x="1198" y="512.052" width="12" height="2" fill="white"/>
<rect opacity="0.5" x="1198" y="516.052" width="12" height="2" fill="white"/>
<rect x="1210" y="458.052" width="44" height="2" fill="white"/>
<rect opacity="0.5" x="1210" y="462.052" width="44" height="2" fill="white"/>
<path d="M1241 504.052C1241 495.767 1234.28 489.052 1226 489.052C1217.72 489.052 1211 495.767 1211 504.052V631.052H1241V504.052Z" stroke="white" stroke-width="2"/>
<rect x="1242" y="512.052" width="12" height="2" fill="white"/>
<rect opacity="0.5" x="1242" y="516.052" width="12" height="2" fill="white"/>
</g>
<path opacity="0.4" d="M668.25 630.857L709.25 642.599M698 630.857L700.75 632.107V630.857M764.75 659.107L721.5 647.607M770.5 647.357V649.607M758.5 647.607V648.857L756.25 647.607" stroke="#434A45" stroke-width="2"/>
<path fill-rule="evenodd" clip-rule="evenodd" d="M1075 492.052C1075 487.633 1078.58 484.052 1083 484.052H1092C1095.87 484.052 1099 487.186 1099 491.052H1117C1120.31 491.052 1123 493.738 1123 497.052V498.052H1128.93C1136.31 498.052 1141.94 504.657 1140.78 511.948L1140.62 512.948C1139.69 518.769 1134.66 523.052 1128.77 523.052H1123H1116H1088V527.052H1076C1069.37 527.052 1064 521.679 1064 515.052V511.052C1064 506.633 1067.58 503.052 1072 503.052H1075V501.552V492.052Z" fill="#221D2F"/>
<path d="M1099 491.052H1098V492.052H1099V491.052ZM1123 498.052H1122V499.052H1123V498.052ZM1140.78 511.948L1139.79 511.79V511.79L1140.78 511.948ZM1140.62 512.948L1141.6 513.106V513.106L1140.62 512.948ZM1088 523.052V522.052H1087V523.052H1088ZM1088 527.052V528.052H1089V527.052H1088ZM1075 503.052V504.052H1076V503.052H1075ZM1083 483.052C1078.03 483.052 1074 487.081 1074 492.052H1076C1076 488.186 1079.13 485.052 1083 485.052V483.052ZM1092 483.052H1083V485.052H1092V483.052ZM1100 491.052C1100 486.633 1096.42 483.052 1092 483.052V485.052C1095.31 485.052 1098 487.738 1098 491.052H1100ZM1117 490.052H1099V492.052H1117V490.052ZM1124 497.052C1124 493.186 1120.87 490.052 1117 490.052V492.052C1119.76 492.052 1122 494.29 1122 497.052H1124ZM1124 498.052V497.052H1122V498.052H1124ZM1128.93 497.052H1123V499.052H1128.93V497.052ZM1141.76 512.106C1143.03 504.207 1136.93 497.052 1128.93 497.052V499.052C1135.7 499.052 1140.86 505.106 1139.79 511.79L1141.76 512.106ZM1141.6 513.106L1141.76 512.106L1139.79 511.79L1139.63 512.79L1141.6 513.106ZM1128.77 524.052C1135.15 524.052 1140.6 519.412 1141.6 513.106L1139.63 512.79C1138.78 518.126 1134.17 522.052 1128.77 522.052V524.052ZM1123 524.052H1128.77V522.052H1123V524.052ZM1116 524.052H1123V522.052H1116V524.052ZM1088 524.052H1116V522.052H1088V524.052ZM1087 523.052V527.052H1089V523.052H1087ZM1088 526.052H1076V528.052H1088V526.052ZM1076 526.052C1069.92 526.052 1065 521.127 1065 515.052H1063C1063 522.231 1068.82 528.052 1076 528.052V526.052ZM1065 515.052V511.052H1063V515.052H1065ZM1065 511.052C1065 507.186 1068.13 504.052 1072 504.052V502.052C1067.03 502.052 1063 506.081 1063 511.052H1065ZM1072 504.052H1075V502.052H1072V504.052ZM1074 501.552V503.052H1076V501.552H1074ZM1074 492.052V501.552H1076V492.052H1074Z" fill="black"/>
<path opacity="0.5" d="M1108 513.052V506.052C1108 501.633 1111.58 498.052 1116 498.052H1119" stroke="black" stroke-width="2"/>
<path opacity="0.5" d="M1078 510.052L1080 510.052C1084.42 510.052 1088 513.633 1088 518.052L1088 522.052L1088 493.052" stroke="black" stroke-width="2"/>
<path d="M1108 514.052L1108 511.052C1108 506.633 1104.42 503.052 1100 503.052L1093 503.052" stroke="black" stroke-width="2"/>
<path d="M1099 496.052L1099 499.052C1099 501.261 1097.21 503.052 1095 503.052L1091 503.052" stroke="black" stroke-width="2"/>
<rect width="2" height="4" transform="matrix(-1 0 0 1 1109 520.052)" fill="#221D2F"/>
<rect width="2" height="4" transform="matrix(-1 0 0 1 1107 520.052)" fill="#221D2F"/>
<rect width="2" height="4" transform="matrix(-1 0 0 1 1128 497.052)" fill="#221D2F"/>
<rect width="2" height="4" transform="matrix(-1 0 0 1 1126 497.052)" fill="#221D2F"/>
<rect width="2" height="4" transform="matrix(-1 0 0 1 1104 490.052)" fill="#221D2F"/>
<rect width="2" height="4" transform="matrix(-1 0 0 1 1102 490.052)" fill="#221D2F"/>
<rect width="2" height="4" transform="matrix(-1 0 0 1 1087 483.052)" fill="#221D2F"/>
<rect width="2" height="4" transform="matrix(-1 0 0 1 1085 483.052)" fill="#221D2F"/>
<rect width="2" height="4" transform="matrix(-1 0 0 1 1093 483.052)" fill="#221D2F"/>
<rect width="2" height="4" transform="matrix(-1 0 0 1 1091 483.052)" fill="#221D2F"/>
<rect width="2" height="4" transform="matrix(-1 0 0 1 1074 502.052)" fill="#221D2F"/>
<rect width="2" height="4" transform="matrix(-1 0 0 1 1072 502.052)" fill="#221D2F"/>
<path d="M698 630.857L669 631.052L835 579.052C835 579.052 954.944 546.465 1033 531.052C1106.68 516.502 1498.24 499.504 1782.88 488.759V1063.55L1477.75 949.052L867.5 720.052H899L738.75 661.607L753.25 659.107L762.75 659.607L787.25 656.107H789L792.25 652.357L797 653.857L817.5 650.107V648.607L835 646.107L807 646.857L770.5 647.422L758.5 647.607V646.857L756.5 647.607H721.5V646.107L774.25 630.857H743.75H700.75V629.607L698 630.857Z" fill="#302930"/>
<path d="M770.5 647.422L758.5 647.607V646.857L756.5 647.607H721.5V646.107L774.25 630.857H743.75H700.75V629.607L698 630.857L669 631.052L835 579.052C835 579.052 954.944 546.465 1033 531.052C1106.68 516.502 1498.24 499.504 1782.88 488.759V1063.55L1477.75 949.052L867.5 720.052H899L738.75 661.607L753.25 659.107L762.75 659.607L787.25 656.107H789L792.25 652.357L797 653.857L817.5 650.107V648.607L835 646.107L807 646.857L770.5 647.422ZM770.5 647.422V645.607M667 631.052H664" stroke="black" stroke-width="2"/>
<path d="M363 459.052H318.693L307.443 489.052H363V459.052Z" fill="#843E2E" stroke="black" stroke-width="2"/>
<path d="M355 459.052H399.307L410.557 489.052H355V459.052Z" fill="#843E2E" stroke="black" stroke-width="2"/>
<path d="M475.828 461.052H440.172L447.573 455.871L447.889 455.65L447.975 455.275L458 411.529L468.025 455.275L468.111 455.65L468.427 455.871L475.828 461.052Z" fill="#597CB1" stroke="black" stroke-width="2"/>
<path d="M535.631 489.052H466.369L501 453.485L535.631 489.052Z" fill="#843E2E" stroke="black" stroke-width="2"/>
<rect x="-1" y="1" width="24" height="70" transform="matrix(-1 0 0 1 469 460.052)" fill="#A6ACB1" stroke="black" stroke-width="2"/>
<path d="M845 580.302V585.052H829V581.052L835 577.552V561.052L839.75 563.802L845 567.052V580.302Z" fill="#302930" stroke="black" stroke-width="2"/>
<path opacity="0.4" d="M687.5 636.107L687.5 645.107" stroke="#434A45" stroke-width="2"/>
<path d="M687.5 616.607V625.107" stroke="black" stroke-width="2"/>
<path d="M752 630.781L748.903 632.607H744V629.107H750.968L752 630.781Z" fill="#434A45" stroke="black" stroke-width="2"/>
<path d="M685.597 629.107H688.847L690.5 630.857H685.597V629.107Z" fill="#434A45" stroke="black" stroke-width="2"/>
<path opacity="0.3" d="M690.5 631.107L688.847 632.857H685.597V631.107" stroke="black" stroke-width="2"/>
<path opacity="0.3" d="M750.968 637.107L752 635.434L748.903 633.607H744V637.107" stroke="black" stroke-width="2"/>
<path d="M741.5 628.607V633.107" stroke="black" stroke-width="2"/>
<path opacity="0.3" d="M741.5 632.607V637.107" stroke="black" stroke-width="2"/>
<path d="M511 523.052L509 525.052V531.052H513V525.052L511 523.052Z" stroke="black" stroke-width="2"/>
<path d="M548 580.052L542 588.052H545L538.5 595.052H575L567 588.052H571L564 580.052H570L562 572.052H566L560 562.052H564L559 554.052H562L555 541.052L550 554.052H553L547 562.052H551L545 572.052H549L541 580.052H548Z" fill="#767D5C" stroke="black" stroke-width="2"/>
<rect x="558" y="565.052" width="34" height="51" fill="#A7987A" stroke="black" stroke-width="2"/>
<path d="M558 567.052H592V563.587L575 552.254L558 563.587V567.052Z" fill="#843E2E" stroke="black" stroke-width="2"/>
<path d="M614 571.107L610 575.107V616.052H570V575.107L566 571.107H614Z" fill="#B1B1B1" stroke="black" stroke-width="2"/>
<path d="M563 576.107H566V588.052H614V576.107H617" stroke="black" stroke-width="2"/>
<rect x="566" y="580.052" width="8" height="2" fill="black"/>
<rect x="576" y="580.052" width="8" height="2" fill="black"/>
<rect x="586" y="580.052" width="8" height="2" fill="black"/>
<rect x="596" y="580.052" width="8" height="2" fill="black"/>
<rect x="606" y="580.052" width="8" height="2" fill="black"/>
<path d="M577 603.052V597.385L579 594.718L581 597.385V603.052H577Z" fill="#ADADAD" stroke="black" stroke-width="2"/>
<path d="M588 603.052V597.385L590 594.718L592 597.385V603.052H588Z" fill="#ADADAD" stroke="black" stroke-width="2"/>
<path d="M599 603.052V597.385L601 594.718L603 597.385V603.052H599Z" fill="#ADADAD" stroke="black" stroke-width="2"/>
<rect x="473" y="489.052" width="56" height="42" fill="#B9B9B9" stroke="black" stroke-width="2"/>
<path d="M395 489.052H454V495.052H395V489.052Z" fill="#B9B9B9" stroke="black" stroke-width="2"/>
<path d="M329 453.052H388V459.052H329V453.052Z" fill="#B9B9B9" stroke="black" stroke-width="2"/>
<rect x="461" y="519.052" width="40" height="12" fill="#B9B9B9" stroke="black" stroke-width="2"/>
<path d="M461 519.052H504L499.5 513.052H461V519.052Z" fill="#843E2E" stroke="black" stroke-width="2"/>
<path d="M539 517.466V531.052H529V507.466L539 517.466Z" fill="#D9D9D9" fill-opacity="0.5" stroke="black" stroke-width="2"/>
<path d="M456 453.052V447.385L458 444.718L460 447.385V453.052H456Z" fill="#A7987A" stroke="black" stroke-width="2"/>
<path d="M387 489.052V483.385L389 480.718L391 483.385V489.052H387Z" fill="#ADADAD" stroke="black" stroke-width="2"/>
<path d="M456 478.052V472.385L458 469.718L460 472.385V478.052H456Z" fill="#ADADAD" stroke="black" stroke-width="2"/>
<path d="M484 513.052V507.385L486 504.718L488 507.385V513.052H484Z" fill="#ADADAD" stroke="black" stroke-width="2"/>
<path d="M514 531.052V525.385L516 522.718L518 525.385V531.052H514Z" fill="#ADADAD" stroke="black" stroke-width="2"/>
<path d="M492 529.052H483V526.052" stroke="black" stroke-width="2"/>
<path d="M484 527.052H475V524.052" stroke="black" stroke-width="2"/>
<path d="M476 525.052H467V522.052" stroke="black" stroke-width="2"/>
<path d="M468 523.052H459V520.052" stroke="black" stroke-width="2"/>
<path d="M460 521.052H451V518.052" stroke="black" stroke-width="2"/>
<path d="M458 402.052V406.052M458 419.052V406.052M458 406.052H461M458 406.052H455" stroke="black" stroke-width="2"/>
<path d="M456 453.052H453M450 453.052H453M453 453.052V457.052" stroke="black" stroke-width="2"/>
<path d="M466 453.052H463M460 453.052H463M463 453.052V457.052" stroke="black" stroke-width="2"/>
<path d="M447 453.052H444M441 453.052H444M444 453.052V462.052" stroke="black" stroke-width="2"/>
<path d="M475 453.052H472M469 453.052H472M472 453.052V462.052" stroke="black" stroke-width="2"/>
<path opacity="0.5" d="M545 431.052H541M541 431.052V434.052M541 431.052H537" stroke="black" stroke-width="2"/>
<path opacity="0.6" d="M552 419.052H548M548 419.052V422.052M548 419.052H544" stroke="black" stroke-width="2"/>
<path opacity="0.3" d="M588 437.052H584M584 437.052V440.052M584 437.052H580" stroke="black" stroke-width="2"/>
<path d="M539 563.052V561.052H475V591.052H539V570.052V569.052H540H543V566.552L539.4 563.852L539 563.552V563.052Z" fill="#D9D9D9" fill-opacity="0.5" stroke="black" stroke-width="2"/>
<path d="M539 533.052V531.052H475V561.052H539V540.052V539.052H540H543V536.552L539.4 533.852L539 533.552V533.052Z" fill="#D9D9D9" fill-opacity="0.5" stroke="black" stroke-width="2"/>
<path d="M529 533.052V531.052H465V561.052H529V540.052V539.052H530H533V536.552L529.4 533.852L529 533.552V533.052Z" fill="#A7987A" stroke="black" stroke-width="2"/>
<path d="M459 539.052H539V549.052" stroke="black" stroke-width="2"/>
<path d="M540 549.052L459 549.052" stroke="black" stroke-width="2"/>
<path d="M493 539.052L493 549.052" stroke="black" stroke-width="2"/>
<path d="M501 539.052L501 549.052" stroke="black" stroke-width="2"/>
<path d="M509 539.052L509 549.052" stroke="black" stroke-width="2"/>
<path d="M517 539.052L517 549.052" stroke="black" stroke-width="2"/>
<path d="M525 539.052L525 549.052" stroke="black" stroke-width="2"/>
<path d="M534 549.052L529 554.052" stroke="black" stroke-width="2"/>
<path d="M534 539.052L529 544.052" stroke="black" stroke-width="2"/>
<path d="M481 549.052V543.385L483 540.718L485 543.385V549.052H481Z" fill="#ADADAD" stroke="black" stroke-width="2"/>
<path d="M534 539.052L539 544.052" stroke="black" stroke-width="2"/>
<path d="M647 648.477C647 648.477 644.38 646.275 642.355 645.607C639.627 644.708 635 645.607 635 645.607V651.107H645.452L647 648.477Z" fill="#434A45" stroke="black" stroke-width="2"/>
<path d="M431 513.107H440L448 524.052H453V525.052L461 527.052L469 531.052H431V513.107Z" fill="#302930"/>
<path fill-rule="evenodd" clip-rule="evenodd" d="M583 615.052H594.5L604 608.857L607 612.107L620 603.052H629L632 612.107L628 615.107H632L630 619.052L637 628.052L644 631.052V636.052L649 638.107L656 644.052L646 646.052L643 643.052V646.052L638 647.052L636 645.052V649.052L626 654.107L623 652.052L618 657.052H607L600 669.052H579L569 674.052L547 678.052H609V681.052L622 682.052L538 701.552L571 757.052H583C594.391 821.839 586.479 884.929 578.464 948.847C576.167 967.161 573.862 985.543 572 1004.05L-402.5 583.607V366.052L67 379.052L133 399.052V407.052L255 443.052H277L286 453.052L351 500.607L436.5 545.607C438.333 548.107 442.6 553.207 445 553.607C445.306 553.658 445.642 553.737 446 553.838C448.448 554.525 451.9 556.235 453.5 557.107C460.833 562.441 476.1 573.407 478.5 574.607C479.191 574.953 479.962 575.431 480.819 575.963C483.68 577.738 487.498 580.107 492.5 580.107H518.5C522.5 580.107 529.5 585.774 532.5 588.607L542 592.724L547.5 595.107H555L583 615.052Z" fill="#302930"/>
<path d="M532.5 588.607C529.5 585.774 522.5 580.107 518.5 580.107H492.5C487.498 580.107 483.68 577.738 480.819 575.963C479.962 575.431 479.191 574.953 478.5 574.607C476.1 573.407 460.833 562.441 453.5 557.107C451.9 556.235 448.448 554.525 446 553.838V538.607H451L459.5 555.607L475.5 557.107L488.5 568.107L501.5 572.107H518.5L528.5 574.607L538.5 583.607L542 588.603V592.724L532.5 588.607Z" fill="#302930"/>
<path d="M629 628.052H637M602 615.052H594.5M594.5 615.052H583L555 595.107H547.5L542 592.724M594.5 615.052L604 608.857L607 612.107L620 603.052H629L632 612.107L628 615.107H632L630 619.052L637 628.052M518.5 580.107C522.5 580.107 529.5 585.774 532.5 588.607L542 592.724M518.5 580.107C513.5 580.107 499 580.107 492.5 580.107M518.5 580.107H492.5M492.5 580.107C487.498 580.107 483.68 577.738 480.819 575.963C479.962 575.431 479.191 574.953 478.5 574.607C476.1 573.407 460.833 562.441 453.5 557.107C451.9 556.235 448.448 554.525 446 553.838M583.5 620.107H595V624.107L598.75 625.357M547 678.052L569 674.052L579 669.052H600L607 657.052H618L623 652.052M547 678.052V671.052L529 661.052L523 648.052M547 678.052H609M523 648.052L519 633.052L507.5 624.107H499L493 627.052M523 648.052L544 658.107C545.167 658.107 548 658.107 550 658.107L562 653.052H600L603 650.107V643.052H611L614 638.107L602.5 630.107L598.75 625.357M488 633.052L493 627.052M493 627.052L478.5 620.107L475 623.357L468.5 622.607H461L451 615.607L439.5 620.107L358 602.857V583.607L-402.5 583.607M598.75 625.357L602.5 626.607L614 630.107L624 638.107L628.5 647.607L623 652.052M637 628.052L644 631.052M649 631.052H644M644 631.052V636.052L649 638.107L656 644.052L646 646.052L643 643.052V646.052L638 647.052L636 645.052V649.052L626 654.107L623 652.052M612 678.052H609M609 678.052V681.052M609 681.052L571 689.052H554M609 681.052L622 682.052L538 701.552L571 757.052H583C594.391 821.839 586.479 884.929 578.464 948.847C576.167 967.161 573.862 985.543 572 1004.05L-402.5 583.607M554 689.052V686.052M554 689.052L561 692.052M546 691.052L550 683.052M624 656.052L619 661.052H616M-402.5 583.607V366.052L67 379.052L133 399.052V407.052L255 443.052H277L286 453.052L351 500.607L436.5 545.607C438.333 548.107 442.6 553.207 445 553.607C445.306 553.658 445.642 553.737 446 553.838M542 592.724V588.603L538.5 583.607L528.5 574.607L518.5 572.107H501.5L488.5 568.107L475.5 557.107L459.5 555.607L451 538.607H446V553.838M453 525.052V524.052H448L440 513.107H431V531.052H469L461 527.052L453 525.052Z" stroke="black" stroke-width="2"/>
<path d="M420 585.052H434V620.052H420V585.052Z" fill="#727272" stroke="black" stroke-width="2"/>
<path d="M444 609.501L435.62 602.052H419V621.052H444V609.501Z" fill="#727272" stroke="black" stroke-width="2"/>
<path d="M444 610.052H419V621.052H444V610.052Z" fill="#727272" stroke="black" stroke-width="2"/>
<path d="M431 598.052V594.339L435 587.939L439 594.339V598.052H431Z" fill="#727272" stroke="black" stroke-width="2"/>
<path d="M420 585.052V582.199L427 567.392L434 582.199V585.052H420Z" fill="#727272" stroke="black" stroke-width="2"/>
<path d="M427 557.052V561.052M427 567.052V561.052M427 561.052H424M427 561.052H430" stroke="black" stroke-width="2"/>
<path d="M410 621.052V609.501L418 602.39L426 609.501V621.052H410Z" fill="#727272" stroke="black" stroke-width="2"/>
<path d="M456 598.052H431V629.052H456V598.052Z" fill="#727272" stroke="black" stroke-width="2"/>
<path d="M452 629.052V602.52L457 598.353L462 602.52V629.052H452Z" fill="#727272" stroke="black" stroke-width="2"/>
<path fill-rule="evenodd" clip-rule="evenodd" d="M602.5 626.607L614 630.107L624 638.107L628.5 647.607L623 652.052L618 657.052H607L600 669.052H579L569 674.052L547 678.052H609V681.052L571 689.052H554L561 692.052L535 700.052H504L541 709.052L498.5 814.607L445.25 818.107L486.5 843.357L371.769 1211.05H-438.5V856.052L-443.5 728.052V555.052L307 583.052H358V602.857L439.5 620.107L452 629.052H462L472.5 626.607L475 623.357L478.5 620.107L493 627.052L499 624.107H507.5L519 633.052L523 648.052L544 658.107H550L562 653.052H600L603 650.107V643.052H611L614 638.107L602.5 630.107L598.75 625.357L602.5 626.607Z" fill="#302930"/>
<path d="M571 689.052L609 681.052L622 682.052L541 703.052L569 709.052L583 753.052H574L583 757.052C597.655 840.401 591.361 1127.94 583 1211.05H371.769L486.5 843.357L445.25 818.107L498.5 814.607L541 709.052L504 700.052H535L561 692.052L554 689.052H571Z" fill="#302930"/>
<path d="M595 624.107L598.75 625.357M547 678.052L569 674.052L579 669.052H600L607 657.052H618L623 652.052M547 678.052V671.052L529 661.052L523 648.052M547 678.052H609M523 648.052L519 633.052L507.5 624.107H499L493 627.052M523 648.052L544 658.107M479 667.052L482 652.052L488 647.052V633.052L493 627.052M358 678.052C281 692.052 -443.5 728.052 -443.5 728.052M-443.5 728.052L-438.5 856.052M-443.5 728.052V555.052L307 583.052H358V602.857L439.5 620.107L452 629.052H462L472.5 626.607L475 623.357L478.5 620.107L493 627.052M-438.5 856.052V1211.05H371.769M-438.5 856.052C-236.659 826.765 282.915 775.01 468 691.107M523 681.052C523 681.052 526 686.052 532 684.052M598.75 625.357L602.5 626.607L614 630.107L624 638.107L628.5 647.607L623 652.052M598.75 625.357L602.5 630.107L614 638.107L611 643.052H603V650.107L600 653.052H562L550 658.107M550 658.107C548 658.107 545.167 658.107 544 658.107M550 658.107H544M612 678.052H609M609 678.052V681.052M609 681.052L571 689.052H554M609 681.052L622 682.052L541 703.052L569 709.052L583 753.052H574L583 757.052C597.655 840.401 591.361 1127.94 583 1211.05H371.769M554 689.052V686.052M554 689.052L561 692.052L535 700.052H504L541 709.052L498.5 814.607L445.25 818.107L486.5 843.357L371.769 1211.05M550 683.052L546 691.052H527M626 654.107L623 652.052" stroke="black" stroke-width="2"/>
<path d="M364 600.052V603.052H350.5V599.052H347V593.052C347 590.843 348.791 589.052 351 589.052H355V586.052H356C362.627 586.052 368 591.424 368 598.052V600.052H364Z" fill="#302930" stroke="black" stroke-width="2"/>
<rect x="352" y="588.052" width="2" height="4" fill="#302930"/>
<rect x="357" y="600.052" width="2" height="4" fill="#302930"/>
<rect x="355" y="600.052" width="2" height="4" fill="black"/>
<circle cx="516" cy="296.052" r="12" stroke="black" stroke-width="2"/>
<path opacity="0.2" d="M1.43051e-06 393.052C1.43051e-06 393.052 -13.4411 394.145 -21.5789 395.821C-29.1224 397.374 -40 401.052 -40 401.052" stroke="black" stroke-width="2"/>
<path opacity="0.2" d="M28 393.052C28 393.052 14.5589 394.145 6.42105 395.821C-1.12237 397.374 -12 401.052 -12 401.052" stroke="black" stroke-width="2"/>
<path opacity="0.2" d="M40 405.052C40 405.052 26.5589 406.145 18.4211 407.821C10.8776 409.374 0 413.052 0 413.052" stroke="black" stroke-width="2"/>
<path opacity="0.2" d="M32 397.052C32 397.052 18.5589 398.145 10.4211 399.821C2.87763 401.374 -8 405.052 -8 405.052" stroke="black" stroke-width="2"/>
<path opacity="0.2" d="M44 409.052C44 409.052 30.5589 410.145 22.4211 411.821C14.8776 413.374 4 417.052 4 417.052" stroke="black" stroke-width="2"/>
<path opacity="0.2" d="M36 401.052C36 401.052 22.5589 402.145 14.4211 403.821C6.87763 405.374 -4 409.052 -4 409.052" stroke="black" stroke-width="2"/>
<path opacity="0.2" d="M48 413.052C48 413.052 34.5589 414.145 26.4211 415.821C18.8776 417.374 8 421.052 8 421.052" stroke="black" stroke-width="2"/>
<rect x="474" y="490.052" width="54" height="4" fill="black" fill-opacity="0.2"/>
<rect x="447" y="462.052" width="22" height="4" fill="black" fill-opacity="0.2"/>
<rect x="462" y="520.052" width="38" height="4" fill="black" fill-opacity="0.2"/>
<rect x="412" y="496.052" width="18" height="8" fill="black" fill-opacity="0.2"/>
<path fill-rule="evenodd" clip-rule="evenodd" d="M151 549.052C151 544.633 154.582 541.052 159 541.052H168C171.866 541.052 175 544.186 175 548.052H193C196.314 548.052 199 550.738 199 554.052V555.052H204.927C212.311 555.052 217.943 561.657 216.777 568.948L216.617 569.948C215.685 575.769 210.663 580.052 204.767 580.052H199H192H164V584.052H152C145.373 584.052 140 578.679 140 572.052V568.052C140 563.633 143.582 560.052 148 560.052H151V558.552V549.052Z" fill="#353535"/>
<path d="M175 548.052H174V549.052H175V548.052ZM199 555.052H198V556.052H199V555.052ZM216.777 568.948L215.789 568.79V568.79L216.777 568.948ZM216.617 569.948L217.604 570.106V570.106L216.617 569.948ZM164 580.052V579.052H163V580.052H164ZM164 584.052V585.052H165V584.052H164ZM151 560.052V561.052H152V560.052H151ZM159 540.052C154.029 540.052 150 544.081 150 549.052H152C152 545.186 155.134 542.052 159 542.052V540.052ZM168 540.052H159V542.052H168V540.052ZM176 548.052C176 543.633 172.418 540.052 168 540.052V542.052C171.314 542.052 174 544.738 174 548.052H176ZM193 547.052H175V549.052H193V547.052ZM200 554.052C200 550.186 196.866 547.052 193 547.052V549.052C195.761 549.052 198 551.29 198 554.052H200ZM200 555.052V554.052H198V555.052H200ZM204.927 554.052H199V556.052H204.927V554.052ZM217.764 569.106C219.028 561.207 212.926 554.052 204.927 554.052V556.052C211.696 556.052 216.859 562.106 215.789 568.79L217.764 569.106ZM217.604 570.106L217.764 569.106L215.789 568.79L215.629 569.79L217.604 570.106ZM204.767 581.052C211.154 581.052 216.595 576.412 217.604 570.106L215.629 569.79C214.775 575.126 210.172 579.052 204.767 579.052V581.052ZM199 581.052H204.767V579.052H199V581.052ZM192 581.052H199V579.052H192V581.052ZM164 581.052H192V579.052H164V581.052ZM163 580.052V584.052H165V580.052H163ZM164 583.052H152V585.052H164V583.052ZM152 583.052C145.925 583.052 141 578.127 141 572.052H139C139 579.231 144.82 585.052 152 585.052V583.052ZM141 572.052V568.052H139V572.052H141ZM141 568.052C141 564.186 144.134 561.052 148 561.052V559.052C143.029 559.052 139 563.081 139 568.052H141ZM148 561.052H151V559.052H148V561.052ZM150 558.552V560.052H152V558.552H150ZM150 549.052V558.552H152V549.052H150Z" fill="black"/>
<path opacity="0.5" d="M184 570.052V563.052C184 558.633 187.582 555.052 192 555.052H195" stroke="black" stroke-width="2"/>
<path opacity="0.5" d="M154 567.052L156 567.052C160.418 567.052 164 570.633 164 575.052L164 579.052L164 550.052" stroke="black" stroke-width="2"/>
<path d="M184 571.052L184 568.052C184 563.633 180.418 560.052 176 560.052L169 560.052" stroke="black" stroke-width="2"/>
<path d="M175 553.052L175 556.052C175 558.261 173.209 560.052 171 560.052L167 560.052" stroke="black" stroke-width="2"/>
<rect width="2" height="4" transform="matrix(-1 0 0 1 185 577.052)" fill="#353535"/>
<rect width="2" height="4" transform="matrix(-1 0 0 1 183 577.052)" fill="#353535"/>
<rect width="2" height="4" transform="matrix(-1 0 0 1 204 554.052)" fill="#353535"/>
<rect width="2" height="4" transform="matrix(-1 0 0 1 202 554.052)" fill="#353535"/>
<rect width="2" height="4" transform="matrix(-1 0 0 1 180 547.052)" fill="#353535"/>
<rect width="2" height="4" transform="matrix(-1 0 0 1 178 547.052)" fill="#353535"/>
<rect width="2" height="4" transform="matrix(-1 0 0 1 163 540.052)" fill="#353535"/>
<rect width="2" height="4" transform="matrix(-1 0 0 1 161 540.052)" fill="#353535"/>
<rect width="2" height="4" transform="matrix(-1 0 0 1 169 540.052)" fill="#353535"/>
<rect width="2" height="4" transform="matrix(-1 0 0 1 167 540.052)" fill="#353535"/>
<rect width="2" height="4" transform="matrix(-1 0 0 1 150 559.052)" fill="#353535"/>
<rect width="2" height="4" transform="matrix(-1 0 0 1 148 559.052)" fill="#353535"/>
<path d="M332.235 485.052V483.052C332.235 479.738 334.922 477.052 338.235 477.052H342V481.052H346C349.314 481.052 352 483.738 352 487.052V489.052H342H338H330L328 485.052H332.235Z" fill="#9A795A"/>
<path d="M338 489.052H330L328 485.052H332.235V483.052C332.235 479.738 334.922 477.052 338.235 477.052H342V481.052H346C349.314 481.052 352 483.738 352 487.052V489.052H342M338 489.052V486.052M338 489.052H342M342 489.052V486.052" stroke="black" stroke-width="2"/>
<rect x="339" y="486.052" width="2" height="4" fill="#9A795A"/>
<rect x="335" y="486.052" width="2" height="4" fill="#9A795A"/>
<defs>
<linearGradient id="paint0_linear_329_27874" x1="636" y1="651" x2="636" y2="1448" gradientUnits="userSpaceOnUse">
<stop stop-color="#201B20"/>
<stop offset="1" stop-color="#302930"/>
</linearGradient>
</defs>
</svg>
