<?xml version="1.0" encoding="iso-8859-1"?>
<!-- Uploaded to: SVG Repo, www.svgrepo.com, Generator: SVG Repo Mixer Tools -->
<svg version="1.1" id="Layer_1" xmlns="http://www.w3.org/2000/svg" xmlns:xlink="http://www.w3.org/1999/xlink" 
	 viewBox="0 0 512.013 512.013" xml:space="preserve">
<g>
	<rect x="241.431" y="397.155" style="fill:#006DF3;" width="31.294" height="41.273"/>
	<rect x="241.431" y="64.424" style="fill:#006DF3;" width="31.294" height="41.277"/>
</g>
<g>
	<rect x="257.078" y="64.424" style="fill:#005FD1;" width="15.647" height="41.277"/>
	<rect x="257.078" y="397.155" style="fill:#005FD1;" width="15.647" height="41.277"/>
</g>
<rect x="136.843" y="414.68" transform="matrix(-0.7741 -0.6331 0.6331 -0.7741 -23.1946 919.6407)" style="fill:#006DF3;" width="31.295" height="98.558"/>
<rect x="310.248" y="448.313" transform="matrix(-0.6331 -0.7741 0.7741 -0.6331 227.9954 1035.9912)" style="fill:#005FD1;" width="98.558" height="31.295"/>
<path style="fill:#FF8900;" d="M478.696,78.037c0,30.095-17.118,56.726-42.873,69.682c-6.54,3.296-13.623,5.706-21.134,7.072
	l-9.075,3.474c-2.065-3.286-4.246-6.509-6.54-9.68c-17.452-24.086-40.839-43.52-67.637-56.194c-2.91-1.377-5.852-2.67-8.815-3.88
	V78.037c0-7.573,1.085-14.906,3.109-21.833C335.202,23.763,365.202,0,400.659,0C443.688,0,478.696,35.008,478.696,78.037z"/>
<path style="fill:#FFAD1D;" d="M189.392,78.423v10.118c-0.031,0.021-0.063,0.031-0.094,0.042
	c-32.004,13.112-59.334,35.352-78.736,63.465l-3.547,4.903l-9.691-1.763c-7.542-1.377-14.677-3.807-21.238-7.125
	c-25.693-12.987-42.769-39.587-42.769-69.64c0-43.03,35.008-78.037,78.037-78.037c35.342,0,65.269,23.617,74.835,55.891
	C188.275,63.298,189.392,70.735,189.392,78.423z"/>
<rect x="70.085" y="235.781" style="fill:#006DF3;" width="41.272" height="31.294"/>
<rect x="402.815" y="235.781" style="fill:#005FD1;" width="41.272" height="31.294"/>
<path style="fill:#FFAD1D;" d="M404.831,252.085c0,81.845-66.052,148.241-147.75,148.814c-0.355,0.01-0.72,0.01-1.074,0.01
	c-82.189,0-148.825-66.625-148.825-148.825c0-82.189,66.636-148.814,148.825-148.814c0.355,0,0.72,0,1.074,0.01
	c22.354,0.156,43.52,5.247,62.505,14.218c22.761,10.776,42.351,27.153,56.987,47.348
	C394.348,189.361,404.831,219.497,404.831,252.085z"/>
<path style="fill:#FF8900;" d="M404.831,252.085c0,81.845-66.052,148.241-147.75,148.814V103.281
	c22.354,0.156,43.52,5.247,62.505,14.218c22.761,10.776,42.351,27.153,56.987,47.348
	C394.348,189.361,404.831,219.497,404.831,252.085z"/>
<polygon style="fill:#FF4F18;" points="271.654,133.011 271.654,258.991 257.081,282.534 224.754,334.754 198.144,318.283 
	240.359,250.093 240.359,133.011 "/>
<polygon style="fill:#FF3400;" points="271.654,133.011 271.654,258.991 257.081,282.534 257.081,133.011 "/>
<path style="fill:#00A5FF;" d="M453.838,187.974c-6.645-20.508-16.513-39.942-29.417-57.759
	c-20.539-28.332-48.068-51.197-79.602-66.114c-27.57-13.039-57.081-19.736-87.738-19.882c-0.355-0.01-0.72-0.01-1.074-0.01
	c-24.482,0-47.984,4.256-69.817,12.069c-46.618,16.659-85.59,49.539-110.103,91.786C58.311,178.679,48.13,214.219,48.13,252.085
	c0,114.631,93.257,207.887,207.877,207.887c0.355,0,0.72,0,1.074-0.01c114.13-0.574,206.802-93.601,206.802-207.877
	C463.883,230.033,460.472,208.471,453.838,187.974z M257.081,428.678h-1.074c-97.367,0-176.583-79.216-176.583-176.593
	c0-37.115,11.506-71.58,31.138-100.037c19.402-28.113,46.733-50.352,78.736-63.465c0.031-0.01,0.063-0.021,0.094-0.042
	c20.56-8.397,43.061-13.039,66.615-13.039c0.355,0,0.72,0,1.074,0.01c25.995,0.146,51.01,5.831,74.355,16.878
	c26.798,12.674,50.185,32.108,67.637,56.194c21.927,30.251,33.516,66.041,33.516,103.5
	C432.589,349.108,353.957,428.094,257.081,428.678z"/>
<path style="fill:#0082D2;" d="M463.883,252.085c0,114.276-92.673,207.303-206.802,207.877v-31.284
	c96.876-0.584,175.508-79.571,175.508-176.593c0-33.537-9.294-65.739-26.976-93.82c-2.065-3.286-4.246-6.509-6.54-9.68
	c-17.452-24.086-40.839-43.52-67.637-56.194c-2.91-1.377-5.852-2.67-8.815-3.88c-20.79-8.502-42.79-12.872-65.54-12.998V44.219
	c23.69,0.115,46.701,4.141,68.649,11.986c6.457,2.295,12.82,4.934,19.089,7.897c31.534,14.917,59.063,37.783,79.602,66.114
	c4.11,5.675,7.917,11.516,11.402,17.504c7.458,12.799,13.488,26.277,18.015,40.255C460.472,208.471,463.883,230.033,463.883,252.085
	z"/>
</svg>