<?xml version="1.0" encoding="iso-8859-1"?>
<!-- Uploaded to: SVG Repo, www.svgrepo.com, Generator: SVG Repo Mixer Tools -->
<svg version="1.1" id="Layer_1" xmlns="http://www.w3.org/2000/svg" xmlns:xlink="http://www.w3.org/1999/xlink" 
	 viewBox="0 0 512 512" xml:space="preserve">
<path style="fill:#FF9900;" d="M281.339,0h-50.678c-17.721,0-32.131,14.409-32.131,32.131v51.461h114.939V32.131
	C313.469,14.409,299.06,0,281.339,0z M282.122,52.245h-52.245V32.131c0-0.428,0.355-0.784,0.784-0.784h50.678
	c0.428,0,0.784,0.355,0.784,0.784V52.245z"/>
<path style="fill:#49BAEC;" d="M55.543,340.252c-13.282,10.945-20.016,27.887-20.016,50.354v63.739
	c0,26.439,18.54,47.948,41.329,47.948h38.083V331.568L102.26,329.1C99.512,328.566,74.855,324.336,55.543,340.252z"/>
<path style="fill:#009AE5;" d="M456.457,340.252c-19.313-15.917-43.969-11.686-46.717-11.152l-12.679,2.468v170.725h38.083
	c22.789,0,41.329-21.509,41.329-47.948v-63.739C476.473,368.139,469.739,351.198,456.457,340.252z"/>
<path style="fill:#006DF3;" d="M428.408,191.948v275.477c0,24.576-19.999,44.575-44.575,44.575H128.167
	c-24.576,0-44.575-19.999-44.575-44.575V191.948H428.408z"/>
<path style="fill:#E47500;" d="M313.469,32.131v51.461H256V52.245h26.122V32.131c0-0.428-0.355-0.784-0.784-0.784H256V0h25.339
	C299.06,0,313.469,14.409,313.469,32.131z"/>
<path style="fill:#005FD1;" d="M428.408,191.948v275.477c0,24.576-19.999,44.575-44.575,44.575H256V191.948H428.408z"/>
<path style="fill:#49BAEC;" d="M438.857,52.245v108.878c0,12.727-3.845,24.586-10.449,34.45
	c-11.149,16.697-30.177,27.721-51.722,27.721H135.314c-21.546,0-40.573-11.024-51.722-27.721
	c-6.604-9.864-10.449-21.723-10.449-34.45V52.245H438.857z"/>
<path style="fill:#009AE5;" d="M438.857,52.245v108.878c0,12.727-3.845,24.586-10.449,34.45
	c-11.149,16.697-30.177,27.721-51.722,27.721H256V52.245H438.857z"/>
<path style="fill:#FF9900;" d="M203.755,191.948v77.908h36.571v12.267h31.347v-12.267h36.571v-77.908H203.755z M276.898,238.508
	h-41.796v-15.214h41.796V238.508z"/>
<polygon style="fill:#E47500;" points="308.245,191.948 308.245,269.855 271.673,269.855 271.673,282.122 256,282.122 256,238.508 
	276.898,238.508 276.898,223.295 256,223.295 256,191.948 "/>
<rect x="83.592" y="429.902" style="fill:#FF9900;" width="344.816" height="31.347"/>
<rect x="256" y="429.902" style="fill:#E47500;" width="172.408" height="31.347"/>
</svg>