<?xml version="1.0" encoding="iso-8859-1"?>
<!-- Uploaded to: SVG Repo, www.svgrepo.com, Generator: SVG Repo Mixer Tools -->
<svg height="800px" width="800px" version="1.1" id="Layer_1" xmlns="http://www.w3.org/2000/svg" xmlns:xlink="http://www.w3.org/1999/xlink" 
	 viewBox="0 0 512 512" xml:space="preserve">
<g transform="translate(1 1)">
	<path style="fill:#FFE100;" d="M330.947,502.467H173.933c-19.627,0-37.547-9.387-51.2-26.453
		c-8.533-10.24-13.653-24.747-13.653-39.253c0-12.8,3.413-24.747,10.24-34.987l107.52-163.84h55.467L390.68,402.627
		c5.973,9.387,9.387,20.48,9.387,32.427c0,15.36-5.12,29.867-15.36,40.107l-5.973,5.973
		C365.08,494.787,348.013,502.467,330.947,502.467L330.947,502.467z"/>
	<path style="fill:#FDCC00;" d="M406.893,481.987l7.68-5.973c11.947-10.24,18.773-24.747,18.773-40.107
		c0-11.947-4.267-23.04-11.947-32.427l-15.36-18.773c-15.36,4.267-29.867,12.8-41.813,24.747c-38.4,34.987-91.307,11.093-128-25.6
		c-36.693-31.573-93.867-34.133-129.707-5.973l-20.48,24.747c-6.827,9.387-11.093,21.333-11.093,34.133
		c0,14.507,5.973,29.013,16.213,39.253c17.067,17.067,40.107,26.453,64,26.453h194.56C370.2,502.467,390.68,494.787,406.893,481.987
		"/>
	<path style="fill:#FFFFFF;" d="M121.88,476.013c-7.68-10.24-12.8-24.747-12.8-39.253c0-12.8,3.413-24.747,10.24-34.987
		l107.52-163.84h-6.827L87.747,401.773c-8.533,10.24-12.8,22.187-12.8,34.987c0,14.507,5.973,29.013,16.213,39.253
		c17.067,17.067,40.107,26.453,64,26.453h18.773C154.307,502.467,135.533,493.08,121.88,476.013"/>
	<g>
		<path style="fill:#FFA800;" d="M421.4,402.627L288.28,237.933h-6.827l108.373,164.693c5.973,9.387,9.387,20.48,9.387,32.427
			c0,15.36-5.12,29.867-15.36,40.107l-5.973,5.973c-12.8,13.653-29.867,21.333-46.933,21.333h17.92
			c21.333,0,41.813-7.68,58.027-20.48l7.68-5.973c11.947-10.24,18.773-24.747,18.773-40.107
			C433.347,423.96,429.08,412.013,421.4,402.627"/>
		<path style="fill:#FFA800;" d="M296.813,237.933H237.08c-9.387,0-17.067-7.68-17.067-17.067l0,0
			c0-9.387,7.68-17.067,17.067-17.067h59.733c9.387,0,17.067,7.68,17.067,17.067l0,0C313.88,230.253,306.2,237.933,296.813,237.933"
			/>
	</g>
	<path style="fill:#FFFFFF;" d="M271.213,237.933H211.48c-9.387,0-17.067-7.68-17.067-17.067l0,0c0-9.387,7.68-17.067,17.067-17.067
		h59.733c9.387,0,17.067,7.68,17.067,17.067l0,0C288.28,230.253,280.6,237.933,271.213,237.933"/>
	<path style="fill:#FDCC00;" d="M279.747,237.933h-51.2c-9.387,0-17.067-7.68-17.067-17.067l0,0c0-9.387,7.68-17.067,17.067-17.067
		h51.2c9.387,0,17.067,7.68,17.067,17.067l0,0C296.813,230.253,289.133,237.933,279.747,237.933"/>
	<path style="fill:#FFA800;" d="M293.4,188.44l-1.707,1.707c-21.333,18.773-53.76,18.773-75.093,0l-1.707-1.707
		c-27.307-23.893-33.28-64-16.213-95.573l43.52-77.653c5.12-9.387,18.773-9.387,23.893,0l43.52,77.653
		C326.68,124.44,319.853,163.693,293.4,188.44"/>
	<path style="fill:#FDCC00;" d="M271.213,188.44l-1.707,1.707c-21.333,18.773-34.133,18.773-55.467,0l-2.56-1.707
		c-27.307-23.893-33.28-64-16.213-95.573l43.52-77.653c5.12-9.387,0-9.387,5.12,0l43.52,77.653
		C304.493,124.44,297.667,163.693,271.213,188.44"/>
	<path style="fill:#FFA800;" d="M254.147,203.8c-5.12,0-10.24-1.707-14.507-5.973l-2.56-0.853
		c-15.36-13.653-18.773-35.84-8.533-53.76l18.773-37.547c2.56-5.12,10.24-5.12,12.8,0l18.773,37.547
		c10.24,17.92,5.973,40.107-9.387,53.76l-1.707,1.707C264.387,202.093,259.267,203.8,254.147,203.8"/>
	<path d="M254.147,212.333c-15.36,0-30.72-5.12-43.52-16.213l-1.707-1.707C179.053,167.107,171.373,123.587,191,88.6l42.667-77.653
		C238.787,3.267,245.613-1,254.147-1c8.533,0,15.36,4.267,19.627,11.947L316.44,88.6c19.627,35.84,12.8,79.36-17.92,105.813l0,0
		l-1.707,1.707C284.867,207.213,269.507,212.333,254.147,212.333z M254.147,16.067c-0.853,0-3.413,0-5.12,2.56L206.36,96.28
		c-16.213,28.16-10.24,63.147,14.507,85.333l1.707,1.707c17.92,16.213,45.227,16.213,63.147,0l1.707-1.707
		c23.893-21.333,29.867-57.173,14.507-85.333l-42.667-77.653C257.56,16.067,255,16.067,254.147,16.067z M293.4,187.587
		L293.4,187.587L293.4,187.587z"/>
	<path d="M254.147,212.333c-7.68,0-14.507-2.56-20.48-7.68l-1.707-1.707c-17.92-16.213-23.04-42.667-11.093-64l18.773-36.693
		c2.56-5.12,7.68-8.533,13.653-8.533c5.973,0,11.093,3.413,13.653,8.533L285.72,139.8c11.947,21.333,7.68,47.787-11.093,64
		l-1.707,1.707C268.653,209.773,261.827,212.333,254.147,212.333z M254.147,111.64l-17.92,34.987
		c-8.533,14.507-5.12,32.427,6.827,43.52l1.707,1.707c5.12,4.267,12.8,4.267,17.92,0l1.707-1.707
		c11.947-11.093,15.36-29.013,6.827-43.52L254.147,111.64z"/>
	<path d="M349.72,511H155.16c-26.453,0-51.2-10.24-69.973-29.013c-11.947-11.947-18.773-28.16-18.773-45.227
		c0-14.507,5.12-29.013,14.507-40.107l133.12-163.84c1.707-1.707,4.267-3.413,6.827-3.413h68.267c2.56,0,5.12,0.853,6.827,3.413
		l133.12,164.693c8.533,11.093,13.653,23.893,13.653,38.4c0,17.92-7.68,34.987-21.333,46.08l-7.68,5.973
		C394.947,502.467,372.76,511,349.72,511z M224.28,246.467L93.72,406.893c-6.827,8.533-10.24,18.773-10.24,29.867
		c0,12.8,5.12,24.747,13.653,33.28c15.36,15.36,35.84,23.893,58.027,23.893h194.56c18.773,0,37.547-6.827,52.053-18.773l7.68-5.973
		c10.24-8.533,15.36-20.48,15.36-33.28c0-10.24-3.413-19.627-9.387-27.307L284.013,246.467H224.28z"/>
	<path d="M296.813,246.467H211.48c-14.507,0-25.6-11.093-25.6-25.6c0-14.507,11.093-25.6,25.6-25.6h85.333
		c14.507,0,25.6,11.093,25.6,25.6C322.413,235.373,311.32,246.467,296.813,246.467z M211.48,212.333
		c-5.12,0-8.533,3.413-8.533,8.533c0,5.12,3.413,8.533,8.533,8.533h85.333c5.12,0,8.533-3.413,8.533-8.533
		c0-5.12-3.413-8.533-8.533-8.533H211.48z"/>
	<path d="M349.72,511H155.16c-26.453,0-51.2-10.24-69.973-29.013c-11.947-11.947-18.773-28.16-18.773-45.227
		c0-14.507,5.12-29.013,14.507-40.107l20.48-24.747c0-0.853,0.853-0.853,1.707-1.707c39.253-30.72,100.693-28.16,139.947,6.827
		c32.427,32.427,81.92,58.027,116.907,25.6c11.947-11.947,28.16-21.333,45.227-26.453c3.413-0.853,6.827,0,9.387,2.56l15.36,18.773
		c8.533,11.093,13.653,23.893,13.653,38.4c0,17.92-7.68,34.987-21.333,46.08l-7.68,5.973l0,0C394.947,502.467,372.76,511,349.72,511
		z M113.347,383L93.72,407.747c-6.827,7.68-10.24,17.92-10.24,29.013c0,12.8,5.12,24.747,13.653,33.28
		c15.36,15.36,35.84,23.893,58.027,23.893h194.56c18.773,0,37.547-6.827,52.053-18.773l0,0l7.68-5.973
		c10.24-8.533,15.36-20.48,15.36-33.28c0-10.24-3.413-19.627-9.387-27.307l-11.093-13.653c-12.8,4.267-23.893,11.093-32.427,20.48
		c-43.52,40.96-103.253,11.947-139.947-25.6C198.68,360.813,145.773,358.253,113.347,383z M406.893,481.987L406.893,481.987
		L406.893,481.987z"/>
	<path d="M185.88,442.733c-5.12,0-8.533-3.413-8.533-8.533c0-5.12,3.413-8.533,8.533-8.533c55.467,0,59.733-70.827,59.733-187.733
		c0-5.12,3.413-8.533,8.533-8.533c5.12,0,8.533,3.413,8.533,8.533C262.68,343.747,262.68,442.733,185.88,442.733z"/>
</g>
</svg>