<?xml version="1.0" encoding="iso-8859-1"?>
<!-- Uploaded to: SVG Repo, www.svgrepo.com, Generator: SVG Repo Mixer Tools -->
<svg version="1.1" id="Layer_1" xmlns="http://www.w3.org/2000/svg" xmlns:xlink="http://www.w3.org/1999/xlink" 
	 viewBox="0 0 512.007 512.007" xml:space="preserve">
<rect x="241.577" style="fill:#006659;" width="31.326" height="40.024"/>
<rect x="257.24" style="fill:#005349;" width="15.663" height="40.024"/>
<rect x="100.27" y="479.704" transform="matrix(-0.9422 -0.335 0.335 -0.9422 39.6126 997.5657)" style="fill:#006659;" width="11.138" height="31.325"/>
<rect x="400.606" y="479.721" transform="matrix(0.9422 -0.335 0.335 0.9422 -142.486 164.6961)" style="fill:#005349;" width="11.138" height="31.325"/>
<rect x="153.848" y="109.184" transform="matrix(-0.9471 -0.321 0.321 -0.9471 231.3367 653.2028)" style="fill:#00DDC0;" width="31.326" height="396.697"/>
<rect x="144.147" y="291.869" transform="matrix(-0.321 -0.9471 0.9471 -0.321 161.176 730.6197)" style="fill:#00AC93;" width="396.697" height="31.326"/>
<rect x="120.46" y="262.521" style="fill:#FF4F18;" width="273.579" height="31.326"/>
<rect x="257.25" y="262.521" style="fill:#FF3400;" width="136.789" height="31.326"/>
<rect x="241.587" y="249.991" style="fill:#FF9900;" width="31.326" height="61.607"/>
<rect x="257.25" y="249.991" style="fill:#FF8800;" width="15.663" height="61.607"/>
<path style="fill:#FF4F18;" d="M308.034,88.381c0,28.058-22.732,50.79-50.79,50.79c-28.047,0-50.79-22.732-50.79-50.79
	c0-28.047,22.743-50.79,50.79-50.79C285.302,37.591,308.034,60.334,308.034,88.381z"/>
<path style="fill:#FF3400;" d="M308.034,88.381c0,28.058-22.732,50.79-50.79,50.79V37.591
	C285.302,37.591,308.034,60.334,308.034,88.381z"/>
</svg>