<?xml version="1.0" encoding="iso-8859-1"?>
<!-- Uploaded to: SVG Repo, www.svgrepo.com, Generator: SVG Repo Mixer Tools -->
<svg version="1.1" id="Layer_1" xmlns="http://www.w3.org/2000/svg" xmlns:xlink="http://www.w3.org/1999/xlink" 
	 viewBox="0 0 512 512" xml:space="preserve">
<path style="fill:#C7C5CC;" d="M391.69,376.31c0,10.104-1.118,20.208-3.333,30.02c-6.687,29.55-23.395,56.372-47.073,75.525
	C317.252,501.29,286.971,512,256,512c-30.96,0-61.241-10.7-85.274-30.145c-23.667-19.143-40.385-45.944-47.073-75.483
	c-2.226-9.822-3.344-19.947-3.344-30.062c0-30.009,9.592-58.441,27.742-82.233c15.13-19.843,35.725-35.265,58.838-44.283V0h98.22
	v249.793c23.113,9.017,43.708,24.44,58.838,44.283C382.098,317.868,391.69,346.3,391.69,376.31z"/>
<path style="fill:#8A8791;" d="M391.69,376.31c0,10.104-1.118,20.208-3.333,30.02c-6.687,29.55-23.395,56.372-47.073,75.525
	C317.252,501.29,286.971,512,256,512V0h49.11v249.793c23.113,9.017,43.708,24.44,58.838,44.283
	C382.098,317.868,391.69,346.3,391.69,376.31z"/>
<path style="fill:#00DDC0;" d="M360.354,376.31c0,7.785-0.867,15.569-2.581,23.113c-10.637,47.073-53.436,81.23-101.773,81.23
	c-48.316,0-91.126-34.147-101.773-81.199c-1.703-7.565-2.57-15.35-2.57-23.145c0-21.807,6.907-42.496,18.85-59.632h170.998
	C353.447,333.814,360.354,354.503,360.354,376.31z"/>
<path style="fill:#00AC93;" d="M360.354,376.31c0,7.785-0.867,15.569-2.581,23.113c-10.637,47.073-53.436,81.23-101.773,81.23
	V316.677h85.504C353.447,333.814,360.354,354.503,360.354,376.31z"/>
<rect x="178.312" y="0" style="fill:#D8D7DA;" width="155.387" height="31.347"/>
<rect x="256" y="0" style="fill:#C7C5CC;" width="77.688" height="31.347"/>
<g>
	<rect x="191.781" y="354.388" style="fill:#FFDAA7;" width="23.51" height="23.51"/>
	<rect x="223.128" y="384.951" style="fill:#FFDAA7;" width="23.51" height="23.51"/>
	<rect x="182.638" y="403.498" style="fill:#FFDAA7;" width="23.51" height="23.51"/>
</g>
</svg>