<?xml version="1.0" encoding="iso-8859-1"?>
<!-- Uploaded to: SVG Repo, www.svgrepo.com, Generator: SVG Repo Mixer Tools -->
<svg version="1.1" id="Layer_1" xmlns="http://www.w3.org/2000/svg" xmlns:xlink="http://www.w3.org/1999/xlink" 
	 viewBox="0 0 512 512" xml:space="preserve">
<g>
	<path style="fill:#C7C5CC;" d="M241.802,244.828c0-7.448,5.78-13.577,13.086-14.122c0.36-0.044,0.72-0.055,1.09-0.055
		c7.819,0,14.176,6.358,14.176,14.176c0,7.819-6.358,14.176-14.176,14.176c-0.371,0-0.731-0.011-1.09-0.044
		C247.581,258.405,241.802,252.276,241.802,244.828z"/>
	<path style="fill:#C7C5CC;" d="M450.501,249.201L327.766,458.129H183.057L61.499,249.19L239.621,0v200.881
		c-17.819,6.652-30.534,23.838-30.534,43.947c0,25.496,20.447,46.303,45.801,46.881c0.36,0.011,0.731,0.011,1.09,0.011
		c25.856,0,46.891-21.036,46.891-46.891c0-20.109-12.715-37.295-30.534-43.947V1.505L450.501,249.201z"/>
</g>
<g>
	<path style="fill:#8A8791;" d="M255.978,259.004c-0.371,0-0.731-0.011-1.09-0.044v-28.255c0.36-0.044,0.72-0.055,1.09-0.055
		c7.819,0,14.176,6.358,14.176,14.176C270.155,252.647,263.797,259.004,255.978,259.004z"/>
	<path style="fill:#8A8791;" d="M450.501,249.201L327.766,458.129h-72.878V291.708c0.36,0.011,0.731,0.011,1.09,0.011
		c25.856,0,46.891-21.036,46.891-46.891c0-20.109-12.715-37.295-30.534-43.947V1.505L450.501,249.201z"/>
</g>
<rect x="176.65" y="446.025" style="fill:#FF4F18;" width="158.657" height="65.975"/>
<rect x="254.893" y="446.025" style="fill:#FF3400;" width="80.424" height="65.975"/>
</svg>