<?xml version="1.0" encoding="iso-8859-1"?>
<!-- Uploaded to: SVG Repo, www.svgrepo.com, Generator: SVG Repo Mixer Tools -->
<svg height="800px" width="800px" version="1.1" id="Layer_1" xmlns="http://www.w3.org/2000/svg" xmlns:xlink="http://www.w3.org/1999/xlink" 
	 viewBox="0 0 512 512" xml:space="preserve">
<g transform="translate(1 1)">
	<polygon style="fill:#FFA800;" points="118.467,502.467 451.267,502.467 451.267,468.333 118.467,468.333 	"/>
	<polygon style="fill:#FFFFFF;" points="58.733,502.467 391.533,502.467 391.533,468.333 58.733,468.333 	"/>
	<polygon style="fill:#FFE100;" points="84.333,502.467 425.667,502.467 425.667,468.333 84.333,468.333 	"/>
	<path style="fill:#FFA800;" d="M434.2,434.2h-17.067c-9.387,0-17.067-7.68-17.067-17.067v-68.267
		c0-9.387,7.68-17.067,17.067-17.067H434.2c9.387,0,17.067,7.68,17.067,17.067v68.267C451.267,426.52,443.587,434.2,434.2,434.2"/>
	<path style="fill:#FFE100;" d="M417.133,434.2L417.133,434.2c-9.387,0-17.067-7.68-17.067-17.067v-68.267
		c0-9.387,7.68-17.067,17.067-17.067l0,0c9.387,0,17.067,7.68,17.067,17.067v68.267C434.2,426.52,426.52,434.2,417.133,434.2"/>
	<polygon style="fill:#FDCC00;" points="365.933,408.6 400.067,408.6 400.067,357.4 365.933,357.4 	"/>
	<polygon style="fill:#FFA800;" points="178.2,468.333 365.933,468.333 365.933,314.733 178.2,314.733 	"/>
	<polygon style="fill:#FFFFFF;" points="144.067,468.333 331.8,468.333 331.8,314.733 144.067,314.733 	"/>
	<polygon style="fill:#FFE100;" points="169.667,468.333 340.333,468.333 340.333,314.733 169.667,314.733 	"/>
	<polygon style="fill:#FFA800;" points="220.867,314.733 323.267,314.733 323.267,263.533 220.867,263.533 	"/>
	<polygon style="fill:#FFFFFF;" points="186.733,314.733 289.133,314.733 289.133,263.533 186.733,263.533 	"/>
	<polygon style="fill:#FFE100;" points="212.333,314.733 297.667,314.733 297.667,263.533 212.333,263.533 	"/>
	<polygon style="fill:#FFA800;" points="178.2,263.533 357.4,263.533 357.4,203.8 178.2,203.8 	"/>
	<polygon style="fill:#FFFFFF;" points="152.6,263.533 331.8,263.533 331.8,203.8 152.6,203.8 	"/>
	<polygon style="fill:#FFE100;" points="169.667,263.533 340.333,263.533 340.333,203.8 169.667,203.8 	"/>
	<path style="fill:#FFA800;" d="M294.253,188.44l-1.707,1.707c-21.333,18.773-53.76,18.773-75.093,0l-1.707-1.707
		c-27.307-23.893-33.28-64-16.213-95.573l43.52-77.653c5.12-9.387,18.773-9.387,23.893,0l43.52,77.653
		C327.533,124.44,321.56,163.693,294.253,188.44"/>
	<path style="fill:#FDCC00;" d="M272.067,188.44l-1.707,1.707c-21.333,18.773-34.133,18.773-55.467,0l-2.56-1.707
		c-27.307-23.893-33.28-64-16.213-95.573l43.52-77.653c5.12-9.387,0-9.387,5.12,0l43.52,77.653
		C305.347,124.44,298.52,163.693,272.067,188.44"/>
	<path style="fill:#FFA800;" d="M255,203.8c-5.12,0-10.24-1.707-14.507-5.973l-1.707-1.707c-15.36-13.653-18.773-35.84-8.533-53.76
		l18.773-37.547c2.56-5.12,10.24-5.12,12.8,0L280.6,142.36c10.24,17.92,5.973,40.107-9.387,53.76l-1.707,1.707
		C265.24,202.093,260.12,203.8,255,203.8"/>
	<path d="M451.267,511H58.733c-5.12,0-8.533-3.413-8.533-8.533v-34.133c0-5.12,3.413-8.533,8.533-8.533h392.533
		c5.12,0,8.533,3.413,8.533,8.533v34.133C459.8,507.587,456.387,511,451.267,511z M67.267,493.933h375.467v-17.067H67.267V493.933z"
		/>
	<path d="M365.933,476.867H144.067c-5.12,0-8.533-3.413-8.533-8.533v-153.6c0-5.12,3.413-8.533,8.533-8.533h221.867
		c5.12,0,8.533,3.413,8.533,8.533v153.6C374.467,473.453,371.053,476.867,365.933,476.867z M152.6,459.8h204.8V323.267H152.6V459.8z
		"/>
	<path d="M323.267,323.267H186.733c-5.12,0-8.533-3.413-8.533-8.533v-51.2c0-5.12,3.413-8.533,8.533-8.533h136.533
		c5.12,0,8.533,3.413,8.533,8.533v51.2C331.8,319.853,328.387,323.267,323.267,323.267z M195.267,306.2h119.467v-34.133H195.267
		V306.2z"/>
	<path d="M357.4,272.067H152.6c-5.12,0-8.533-3.413-8.533-8.533V203.8c0-5.12,3.413-8.533,8.533-8.533h204.8
		c5.12,0,8.533,3.413,8.533,8.533v59.733C365.933,268.653,362.52,272.067,357.4,272.067z M161.133,255h187.733v-42.667H161.133V255z
		"/>
	<path d="M255,212.333c-15.36,0-30.72-5.12-43.52-16.213l-1.707-1.707c-29.867-27.307-37.547-70.827-17.92-105.813l43.52-77.653
		C239.64,3.267,246.467-1,255-1l0,0c8.533,0,15.36,4.267,19.627,11.093l43.52,77.653c19.627,35.84,12.8,79.36-17.92,105.813l0,0
		l-1.707,1.707C285.72,207.213,270.36,212.333,255,212.333z M255,16.067c-0.853,0-3.413,0-4.267,2.56l-43.52,77.653
		c-16.213,28.16-10.24,63.147,14.507,85.333l1.707,1.707c17.92,16.213,45.227,16.213,63.147,0l1.707-1.707
		c23.893-21.333,29.867-57.173,14.507-85.333l-43.52-77.653C258.413,16.067,255.853,16.067,255,16.067z M294.253,188.44
		L294.253,188.44L294.253,188.44z"/>
	<path d="M255,212.333c-7.68,0-14.507-2.56-20.48-7.68l-1.707-1.707c-17.92-16.213-23.04-42.667-11.093-64l18.773-37.547
		c2.56-5.12,7.68-8.533,13.653-8.533c5.973,0,11.093,3.413,13.653,8.533l18.773,37.547c11.947,21.333,7.68,47.787-11.093,64
		l-1.707,1.707C269.507,209.773,262.68,212.333,255,212.333z M255,111.64l-17.92,34.987c-8.533,14.507-5.12,32.427,6.827,43.52
		l1.707,1.707c5.12,4.267,12.8,4.267,17.92,0l1.707-1.707c11.947-11.093,15.36-29.013,6.827-43.52L255,111.64z"/>
	<path d="M400.067,417.133h-34.133c-5.12,0-8.533-3.413-8.533-8.533v-51.2c0-5.12,3.413-8.533,8.533-8.533h34.133
		c5.12,0,8.533,3.413,8.533,8.533v51.2C408.6,413.72,405.187,417.133,400.067,417.133z M374.467,400.067h17.067v-34.133h-17.067
		V400.067z"/>
	<path d="M434.2,442.733h-17.067c-13.653,0-25.6-11.093-25.6-25.6v-68.267c0-13.653,11.093-25.6,25.6-25.6H434.2
		c13.653,0,25.6,11.093,25.6,25.6v68.267C459.8,431.64,448.707,442.733,434.2,442.733z M417.133,340.333
		c-4.267,0-8.533,3.413-8.533,8.533v68.267c0,4.267,3.413,8.533,8.533,8.533H434.2c4.267,0,8.533-3.413,8.533-8.533v-68.267
		c0-4.267-3.413-8.533-8.533-8.533H417.133z"/>
	<path d="M451.267,374.467h-51.2c-5.12,0-8.533-3.413-8.533-8.533s3.413-8.533,8.533-8.533h51.2c5.12,0,8.533,3.413,8.533,8.533
		S456.387,374.467,451.267,374.467z"/>
	<path d="M451.267,408.6h-51.2c-5.12,0-8.533-3.413-8.533-8.533s3.413-8.533,8.533-8.533h51.2c5.12,0,8.533,3.413,8.533,8.533
		S456.387,408.6,451.267,408.6z"/>
	<path d="M255,272.067c-5.12,0-8.533-3.413-8.533-8.533V203.8c0-5.12,3.413-8.533,8.533-8.533s8.533,3.413,8.533,8.533v59.733
		C263.533,268.653,260.12,272.067,255,272.067z"/>
	<path d="M220.867,272.067c-5.12,0-8.533-3.413-8.533-8.533V203.8c0-5.12,3.413-8.533,8.533-8.533c5.12,0,8.533,3.413,8.533,8.533
		v59.733C229.4,268.653,225.987,272.067,220.867,272.067z"/>
	<path d="M186.733,272.067c-5.12,0-8.533-3.413-8.533-8.533V203.8c0-5.12,3.413-8.533,8.533-8.533c5.12,0,8.533,3.413,8.533,8.533
		v59.733C195.267,268.653,191.853,272.067,186.733,272.067z"/>
	<path d="M323.267,272.067c-5.12,0-8.533-3.413-8.533-8.533V203.8c0-5.12,3.413-8.533,8.533-8.533c5.12,0,8.533,3.413,8.533,8.533
		v59.733C331.8,268.653,328.387,272.067,323.267,272.067z"/>
	<path d="M289.133,272.067c-5.12,0-8.533-3.413-8.533-8.533V203.8c0-5.12,3.413-8.533,8.533-8.533c5.12,0,8.533,3.413,8.533,8.533
		v59.733C297.667,268.653,294.253,272.067,289.133,272.067z"/>
	<path d="M220.867,442.733h-76.8c-5.12,0-8.533-3.413-8.533-8.533c0-5.12,3.413-8.533,8.533-8.533h76.8
		c5.12,0,8.533,3.413,8.533,8.533C229.4,439.32,225.987,442.733,220.867,442.733z"/>
	<path d="M195.267,408.6h-51.2c-5.12,0-8.533-3.413-8.533-8.533s3.413-8.533,8.533-8.533h51.2c5.12,0,8.533,3.413,8.533,8.533
		S200.387,408.6,195.267,408.6z"/>
	<path d="M169.667,374.467h-25.6c-5.12,0-8.533-3.413-8.533-8.533s3.413-8.533,8.533-8.533h25.6c5.12,0,8.533,3.413,8.533,8.533
		S174.787,374.467,169.667,374.467z"/>
</g>
</svg>