<?xml version="1.0" encoding="iso-8859-1"?>
<!-- Uploaded to: SVG Repo, www.svgrepo.com, Generator: SVG Repo Mixer Tools -->
<svg version="1.1" id="Layer_1" xmlns="http://www.w3.org/2000/svg" xmlns:xlink="http://www.w3.org/1999/xlink" 
	 viewBox="0 0 512 512" xml:space="preserve">
<rect x="236.309" y="280.543" style="fill:#C7C5CC;" width="39.381" height="59.605"/>
<rect x="256" y="280.543" style="fill:#8A8791;" width="19.691" height="59.605"/>
<path style="fill:#C8E7F9;" d="M339.678,148.114c0,46.137-37.541,83.678-83.678,83.678s-83.678-37.541-83.678-83.678
	S209.863,64.437,256,64.437C302.137,64.437,339.678,101.978,339.678,148.114z"/>
<path style="fill:#00A5FF;" d="M256,0c-81.67,0-148.114,66.444-148.114,148.114c0,74.998,56.029,137.145,128.423,146.807
	c6.442,0.868,13.019,1.307,19.691,1.307c6.672,0,13.249-0.439,19.691-1.307c72.394-9.662,128.423-71.809,128.423-146.807
	C404.114,66.444,337.67,0,256,0z M256,263.163c-63.433,0-115.049-51.616-115.049-115.049c0-63.443,51.616-115.049,115.049-115.049
	s115.049,51.606,115.049,115.049C371.049,211.547,319.433,263.163,256,263.163z"/>
<path style="fill:#FF9900;" d="M303.695,324.463v139.843C303.695,490.605,282.3,512,256,512s-47.695-21.395-47.695-47.695V324.463
	H303.695z"/>
<path style="fill:#FF8900;" d="M303.695,324.463v139.843C303.695,490.605,282.3,512,256,512V324.463H303.695z"/>
<path style="fill:#0082D2;" d="M404.114,148.114c0,74.998-56.029,137.145-128.423,146.807c-6.442,0.868-13.019,1.307-19.691,1.307
	v-33.065c63.433,0,115.049-51.616,115.049-115.049c0-63.443-51.616-115.049-115.049-115.049V0
	C337.67,0,404.114,66.444,404.114,148.114z"/>
<path style="fill:#A0D9F5;" d="M339.678,148.114c0,46.137-37.541,83.678-83.678,83.678V64.437
	C302.137,64.437,339.678,101.978,339.678,148.114z"/>
</svg>