<?xml version="1.0" encoding="iso-8859-1"?>
<!-- Uploaded to: SVG Repo, www.svgrepo.com, Generator: SVG Repo Mixer Tools -->
<svg height="800px" width="800px" version="1.1" id="Layer_1" xmlns="http://www.w3.org/2000/svg" xmlns:xlink="http://www.w3.org/1999/xlink" 
	 viewBox="0 0 512 512" xml:space="preserve">
<polygon style="fill:#006DF3;" points="386.252,0.001 365.314,105.099 147.47,105.099 125.748,0.001 "/>
<polygon style="fill:#005FD1;" points="386.252,0.001 365.314,105.099 252.474,105.099 252.474,0.001 "/>
<path style="fill:#00A5FF;" d="M248.937,274.786l2.382,5.308c-3.343,0.136-6.645,0.428-9.894,0.867
	c-1.003,0.136-2.006,0.313-2.999,0.481c-24.626,4.023-46.452,16.33-62.511,33.998c-1.358,1.494-2.675,3.04-3.949,4.608
	c-4.702,5.799-8.818,12.099-12.266,18.796L41.865,83.752L125.744,0L248.937,274.786z"/>
<path style="fill:#009AE5;" d="M470.135,83.752L352.29,338.875c-2.33-4.534-4.963-8.891-7.888-13.029
	c-1.149-1.63-2.33-3.239-3.563-4.806c-15.045-18.995-36.349-32.786-60.777-38.334c-0.888-0.209-1.766-0.418-2.664-0.596
	c-5.433-1.087-11.012-1.776-16.707-2.017L386.257,0L470.135,83.752z"/>
<path style="fill:#FFAD1D;" d="M344.406,325.851c-1.151-1.632-2.331-3.242-3.57-4.805c-15.046-18.995-36.344-32.79-60.777-38.343
	c-0.886-0.202-1.766-0.417-2.659-0.597c-6.918-1.389-14.073-2.121-21.4-2.121c-4.943,0-9.807,0.339-14.574,0.981
	c-1.007,0.136-2.002,0.31-3.001,0.473c-24.621,4.025-46.457,16.33-62.512,34.005c-1.359,1.496-2.673,3.035-3.947,4.607
	c-15.089,18.596-24.137,42.293-24.137,68.106c0,59.741,48.43,108.172,108.172,108.172s108.172-48.43,108.172-108.172
	C364.172,364.951,356.846,343.466,344.406,325.851z"/>
<path style="fill:#FF9900;" d="M344.47,325.851c-1.148-1.631-2.324-3.242-3.559-4.805c-14.998-18.995-36.227-32.79-60.583-38.343
	c-0.883-0.201-1.759-0.417-2.651-0.597c-6.896-1.389-14.028-2.121-21.331-2.121c-0.116,0-0.231,0.005-0.347,0.006v216.332
	c0.116,0,0.231,0.004,0.347,0.004c59.55,0,107.824-48.43,107.824-108.172C364.172,364.951,356.869,343.467,344.47,325.851z"/>
<path style="fill:#E47500;" d="M357.211,316.808c-1.505-2.121-2.8-3.866-4.085-5.496c-17.501-22.077-42.211-37.666-69.585-43.893
	l-0.648-0.146c-0.805-0.188-1.599-0.366-2.414-0.533c-8.014-1.609-16.236-2.424-24.48-2.424c-5.569,0-11.127,0.376-16.665,1.118
	c-0.94,0.125-1.881,0.282-2.811,0.439l-0.627,0.094c-27.426,4.493-52.847,18.316-71.591,38.94c-1.505,1.651-3.02,3.427-4.514,5.266
	c-17.825,21.962-27.635,49.66-27.635,77.985C132.158,456.447,187.711,512,256,512s123.842-55.553,123.842-123.842
	C379.842,362.456,372.016,337.777,357.211,316.808z M256,480.656c-51.008,0-92.497-41.49-92.497-92.497
	c0-21.461,7.136-41.594,20.635-58.238c1.128-1.39,2.267-2.717,3.375-3.939c13.99-15.401,32.974-25.734,53.442-29.077l0.71-0.115
	c0.616-0.104,1.233-0.209,1.849-0.293c4.148-0.554,8.348-0.836,12.486-0.836c6.154,0,12.318,0.606,18.316,1.808
	c0.491,0.104,0.982,0.219,1.473,0.334l0.794,0.188c20.447,4.639,38.898,16.289,51.969,32.786c0.93,1.17,1.891,2.476,3.051,4.117
	c11.054,15.651,16.895,34.071,16.895,53.265C348.497,439.166,307.009,480.656,256,480.656z"/>
<polygon style="fill:#FFF4CA;" points="256,342.488 270.113,371.086 301.673,375.672 278.837,397.931 284.228,429.362 256,414.523 
	227.773,429.362 233.165,397.931 210.328,375.672 241.887,371.086 "/>
<polygon style="fill:#FFC373;" points="301.673,375.672 270.113,371.086 256,342.488 256,342.488 256,414.523 256,414.523 
	284.227,429.362 278.837,397.931 "/>
<path style="fill:#BF6100;" d="M379.842,388.158C379.842,456.447,324.289,512,256,512v-31.344c51.008,0,92.497-41.49,92.497-92.497
	c0-19.193-5.841-37.613-16.895-53.265c-1.16-1.64-2.121-2.946-3.051-4.117c-13.071-16.498-31.522-28.147-51.969-32.786l-0.794-0.188
	c-0.491-0.115-0.982-0.23-1.473-0.334c-5.997-1.202-12.162-1.808-18.316-1.808v-31.344c8.244,0,16.466,0.815,24.48,2.424
	c0.815,0.167,1.609,0.345,2.414,0.533l0.648,0.146c27.374,6.227,52.084,21.816,69.585,43.893c1.285,1.63,2.581,3.375,4.085,5.496
	C372.016,337.777,379.842,362.456,379.842,388.158z"/>
</svg>