<?xml version="1.0" encoding="iso-8859-1"?>
<!-- Uploaded to: SVG Repo, www.svgrepo.com, Generator: SVG Repo Mixer Tools -->
<svg version="1.1" id="Layer_1" xmlns="http://www.w3.org/2000/svg" xmlns:xlink="http://www.w3.org/1999/xlink" 
	 viewBox="0 0 512 512" xml:space="preserve">
<path style="fill:#FFAD1D;" d="M299.543,195.34v273.264c0,23.929-19.35,43.395-43.135,43.395h-3.378
	c-23.785,0-43.124-19.467-43.124-43.395V195.34H299.543z"/>
<path style="fill:#FF8900;" d="M299.543,195.34v273.264c0,23.929-19.35,43.395-43.135,43.395h-1.684V195.34H299.543z"/>
<path style="fill:#C7C5CC;" d="M321.215,141.202c-5.805,26.379-24.433,57.192-57.809,57.192h-25.28l-2.437-0.826
	c-2.04-0.69-49.965-17.697-46.597-87.587c1.067-22.059,7.918-40.227,16.704-54.713c17.896-29.506,43.846-43.783,45.457-44.641
	l3.473-1.862L271.03,0l3.18,22.226c1.119,6.84,16.118,34.213,22.592,41.231c1.506,1.632,2.95,3.274,4.32,4.937
	C319.824,90.913,326.779,115.964,321.215,141.202z"/>
<rect x="209.911" y="421.212" style="fill:#FF4F18;" width="89.637" height="31.378"/>
<rect x="254.719" y="421.212" style="fill:#FF3400;" width="44.819" height="31.378"/>
<path style="fill:#8A8791;" d="M321.215,141.202c-5.805,26.379-24.433,57.192-57.809,57.192h-8.681V8.765L271.03,0l3.18,22.226
	c1.119,6.84,16.118,34.213,22.592,41.231c1.506,1.632,2.95,3.274,4.32,4.937C319.824,90.913,326.779,115.964,321.215,141.202z"/>
<path style="fill:#00A5FF;" d="M301.122,68.394c0.063,6.119-1.841,13.189-5.282,19.235c-2.793,4.947-6.61,9.225-11.213,11.735
	c-3.441,1.904-7.332,2.803-11.547,2.28c-14.476-1.809-12.729-26.389-18.356-33.606c-0.868-1.13-1.925-1.83-3.253-1.956
	c-9.319-0.9-5.669,13.064-24.276,15.992c-1.025,0.167-2.113,0.293-3.274,0.387c-5.648,0.439-9.591-1.077-12.342-3.609
	c-8.117-7.437-5.784-23.586-5.784-23.586c17.896-29.506,43.846-43.783,45.457-44.641l3.473-1.862L271.03,0l3.18,22.226
	c1.119,6.84,16.118,34.213,22.592,41.231C298.309,65.089,299.752,66.731,301.122,68.394z"/>
<path style="fill:#0087FF;" d="M301.122,68.394c0.063,6.119-1.841,13.189-5.282,19.235c-2.793,4.947-6.61,9.225-11.213,11.735
	c-3.441,1.904-7.332,2.803-11.547,2.28c-14.476-1.809-12.729-26.389-18.356-33.606V8.765L271.03,0l3.18,22.226
	c1.119,6.84,16.118,34.213,22.592,41.231C298.309,65.089,299.752,66.731,301.122,68.394z"/>
</svg>