<?xml version="1.0" encoding="iso-8859-1"?>
<!-- Uploaded to: SVG Repo, www.svgrepo.com, Generator: SVG Repo Mixer Tools -->
<svg height="800px" width="800px" version="1.1" id="Layer_1" xmlns="http://www.w3.org/2000/svg" xmlns:xlink="http://www.w3.org/1999/xlink" 
	 viewBox="0 0 512 512" xml:space="preserve">
<path style="fill:#FF4F18;" d="M353.959,97.959v321.463h-31.347V97.959c0-36.383-29.32-66.038-65.567-66.602
	c-0.345-0.01-0.7-0.01-1.045-0.01c-36.728,0-66.612,29.884-66.612,66.612v338.975c0,24.106,19.613,43.719,43.719,43.719
	c8.829,0,17.063-2.633,23.939-7.158c11.912-7.816,19.78-21.285,19.78-36.561v-314.42c0-10.961-8.85-19.895-19.78-20.031h-0.24
	c-11.045,0-20.031,8.986-20.031,20.031v296.908h-31.347V122.514c0-28.327,23.04-51.378,51.378-51.378h0.24
	c28.212,0.125,51.127,23.134,51.127,51.378v314.42c0,33.019-21.431,61.137-51.127,71.158c-7.523,2.529-15.569,3.908-23.939,3.908
	c-41.388,0-75.065-33.677-75.065-75.065V97.959C158.041,43.938,201.989,0,256,0c0.345,0,0.7,0,1.045,0.01
	C310.575,0.564,353.959,44.283,353.959,97.959z"/>
<g>
	<path style="fill:#FF3400;" d="M308.172,122.514v314.42c0,33.019-21.431,61.137-51.127,71.158v-34.597
		c11.912-7.816,19.78-21.285,19.78-36.561v-314.42c0-10.961-8.85-19.895-19.78-20.031V71.137
		C285.257,71.262,308.172,94.271,308.172,122.514z"/>
	<path style="fill:#FF3400;" d="M353.959,97.959v321.463h-31.347V97.959c0-36.383-29.32-66.038-65.567-66.602V0.01
		C310.575,0.564,353.959,44.283,353.959,97.959z"/>
</g>
</svg>