<?xml version="1.0" encoding="iso-8859-1"?>
<!-- Uploaded to: SVG Repo, www.svgrepo.com, Generator: SVG Repo Mixer Tools -->
<svg height="800px" width="800px" version="1.1" id="Layer_1" xmlns="http://www.w3.org/2000/svg" xmlns:xlink="http://www.w3.org/1999/xlink" 
	 viewBox="0 0 512 512" xml:space="preserve">
<polygon style="fill:#FF9900;" points="317.018,0 317.018,401.049 310.614,412.696 309.13,415.392 276.621,474.508 256,512 
	235.379,474.508 201.386,412.696 194.982,401.049 194.982,0 "/>
<polygon style="fill:#FFDA2D;" points="310.614,412.696 309.13,415.392 276.621,474.508 256,512 235.379,474.508 201.386,412.696 
	"/>
<polygon style="fill:#D8D7DA;" points="271.67,82.861 271.67,381.357 317.018,381.357 317.018,401.059 310.614,412.696 
	201.386,412.696 194.982,401.059 194.982,381.357 240.33,381.357 240.33,82.861 194.982,82.861 194.982,51.522 317.018,51.522 
	317.018,82.861 "/>
<polygon style="fill:#3C3A41;" points="276.621,474.508 256,512 235.379,474.508 "/>
<polygon style="fill:#BF6100;" points="317.018,0 317.018,401.049 310.614,412.696 309.13,415.392 276.621,474.508 256,512 256,0 
	"/>
<polygon style="fill:#FF9900;" points="310.614,412.696 309.13,415.392 276.621,474.508 256,512 256,412.696 "/>
<polygon style="fill:#8A8791;" points="271.67,82.861 271.67,381.357 317.018,381.357 317.018,401.059 310.614,412.696 256,412.696 
	256,51.522 317.018,51.522 317.018,82.861 "/>
<polygon style="fill:#17171A;" points="276.621,474.508 256,512 256,474.508 "/>
</svg>