<svg width="160" height="240" viewBox="0 0 160 240" fill="none" xmlns="http://www.w3.org/2000/svg">
<g clip-path="url(#clip0_4582_158)">
<rect width="160" height="240" fill="white"/>
<path d="M160 0H0V240H160V0Z" fill="#757575"/>
<mask id="mask0_4582_158" style="mask-type:luminance" maskUnits="userSpaceOnUse" x="0" y="0" width="160" height="241">
<path d="M160 0H0V240H160V0Z" fill="white"/>
</mask>
<g mask="url(#mask0_4582_158)">
<path fill-rule="evenodd" clip-rule="evenodd" d="M159.999 148V187.001L99 207.001L87.9993 180V151C103.028 148.034 116.722 144.401 129 138L159.999 148Z" fill="#515151"/>
<path fill-rule="evenodd" clip-rule="evenodd" d="M160 0V75.0009L99.9997 99.9997L-0.000488281 80.0001V0H160Z" fill="#F6FFD6"/>
<path fill-rule="evenodd" clip-rule="evenodd" d="M110 98.0003L124 91.5002L151 93.5002L141 105.5L110 98.0003Z" stroke="black" stroke-opacity="0.2" stroke-width="2" stroke-miterlimit="1.5"/>
<path fill-rule="evenodd" clip-rule="evenodd" d="M160 175.001V240H-0.000488281V120L15.9996 147L5.00196 152L30.0012 160.001L79.9996 182.001L160 175.001Z" fill="url(#paint0_linear_4582_158)"/>
<path fill-rule="evenodd" clip-rule="evenodd" d="M29.9995 -10L35.3405 20L56.3405 40.0001L55.9995 36.0001L66.9755 36.9821L79.9995 45.0001V39.0001L88.1155 29.0331L100.316 22.775L113 23.831L122 28.0001L105 43.0001L134.899 21.996L148 15L157.63 17.328L163 26.0001L145 37.5001L165 33.5001L164 -10H29.9995Z" fill="#9B9B9B" stroke="black" stroke-width="2" stroke-miterlimit="1.5"/>
<path fill-rule="evenodd" clip-rule="evenodd" d="M80.9995 193H83.9995V195H87.9995V189H91.9995V169L97.9995 178L94.9995 195H91.9995V204H95.9995L94.4995 211L96.9995 217L102 212L117.5 237L80.9995 254V193Z" fill="#333030" stroke="black" stroke-width="2.22" stroke-miterlimit="1.5"/>
<path fill-rule="evenodd" clip-rule="evenodd" d="M85.3405 115.5L93.3405 100L95.3405 107.25L107.34 101.75L106.34 106L113.34 105L114.34 109L164.999 79V123L120.34 135L119.34 132L103.34 134V130L110.34 126H106.34L107.34 123L102.34 124L95.3405 125V117L85.3405 115.5Z" fill="#ECE8B5"/>
<path fill-rule="evenodd" clip-rule="evenodd" d="M-4.00061 32V104H42.4994L42.3404 99.0001L33.3404 81.0001L12.3404 60L14.3404 58L2.3404 45L3.3404 42L-4.00061 32Z" fill="#ECE8B5"/>
<path fill-rule="evenodd" clip-rule="evenodd" d="M108 191L110 181L115 178L118 181L117 189L108 191Z" fill="#212121" stroke="black" stroke-width="2" stroke-miterlimit="1.5"/>
<path fill-rule="evenodd" clip-rule="evenodd" d="M62.9995 149V160H59.9993L57.9992 166L38.9995 157.501V149L50.0002 144L62.9995 149Z" fill="#9A9A9A"/>
<path fill-rule="evenodd" clip-rule="evenodd" d="M30.9994 87.0002L36.9998 106L32.4995 108L29.4993 101L22.5004 98.0001L18.0001 105L10.4997 105.5L2.49915 86.5006L18.0001 82.0002L30.9994 87.0002Z" fill="#9A9A9A"/>
<path fill-rule="evenodd" clip-rule="evenodd" d="M86.0004 113H71.0006L71.5002 107L68.5002 105V111L66.5002 113H54.0008V95.0008L61.0007 91.0005L86.0004 92.0006V113Z" fill="#9A9A9A"/>
<path d="M65.4999 113V107L68.4999 105L71.4999 107V113" stroke="black" stroke-width="1.92285" stroke-miterlimit="1.5"/>
<path fill-rule="evenodd" clip-rule="evenodd" d="M73.0005 125.001L54.0007 116L50.0008 124.001L40.0009 101.752L44.2882 102.001L47.0008 106.001H54.0007L54.3638 103.788L60.0007 102.001L73.0005 121.001V125.001Z" fill="#ECE8B5"/>
<path fill-rule="evenodd" clip-rule="evenodd" d="M109.999 145V155L103.001 161L91.9999 150.501V141L97.0002 138L109.999 145Z" fill="#9A9A9A"/>
<path fill-rule="evenodd" clip-rule="evenodd" d="M49.9995 160V172L43.0006 178L25.9995 170V160L37.0002 155L49.9995 160Z" fill="#9A9A9A"/>
<path fill-rule="evenodd" clip-rule="evenodd" d="M36.0005 153L26.9999 159L20.9995 146L32.0002 145L36.0005 153Z" fill="#9A9A9A"/>
<path fill-rule="evenodd" clip-rule="evenodd" d="M163.999 192.001V215L117.591 225.67L111 215L114.999 186.001L153 170.001L163.999 192.001Z" fill="#515151"/>
<path fill-rule="evenodd" clip-rule="evenodd" d="M81 167.001L83.9999 179.001V192.904H52.2994L49 175.001L58.0003 166.001L81 167.001Z" fill="#515151"/>
<path fill-rule="evenodd" clip-rule="evenodd" d="M81.4265 196.384L84.4264 208.384V222.287L32.9999 222L29.7004 204.098L58.4269 195.384L81.4265 196.384Z" fill="#3E3E3E"/>
<path fill-rule="evenodd" clip-rule="evenodd" d="M151 203L160 210V240H94.9998L151 203Z" fill="#9A9A9A"/>
<path fill-rule="evenodd" clip-rule="evenodd" d="M76.9995 143V131H79.9995L82.9995 128H86.9995L82.9995 135H84.9995V140L80.9995 138V143H76.9995Z" fill="#1E1E1E" stroke="black" stroke-width="2" stroke-miterlimit="1.5"/>
<path fill-rule="evenodd" clip-rule="evenodd" d="M46.4994 140L48.9994 138H53.9994V134H44.9994L39.9994 138V141H41.9994V145H46.4994V140Z" fill="#CACACA" stroke="black" stroke-width="2" stroke-miterlimit="1.5"/>
<path d="M53.9995 142V136" stroke="black" stroke-width="2" stroke-miterlimit="1.5"/>
<path fill-rule="evenodd" clip-rule="evenodd" d="M87.9995 151L110 146L129 138L150 145L156 141L169 145.333L138 166L105 174L87.9995 151Z" fill="#CACACA" stroke="black" stroke-width="2" stroke-miterlimit="1.5"/>
<path d="M87.9995 155L110 150L129 142L150 149L156 145L169 149.333" stroke="black" stroke-opacity="0.2" stroke-width="2" stroke-miterlimit="1.5"/>
<path d="M138 176.001L138.001 166" stroke="black" stroke-opacity="0.2" stroke-width="2" stroke-miterlimit="1.5"/>
<path d="M108.001 61.0002L108.001 63.0002" stroke="black" stroke-opacity="0.2" stroke-width="1.51262" stroke-miterlimit="1.5"/>
<path d="M139.221 105.203L142.518 108.5" stroke="black" stroke-opacity="0.2" stroke-width="2.15377" stroke-miterlimit="1.5"/>
<path fill-rule="evenodd" clip-rule="evenodd" d="M115 185L126 206L164 193L153 170L115 185Z" fill="#CACACA" stroke="black" stroke-width="2" stroke-miterlimit="1.5"/>
<path fill-rule="evenodd" clip-rule="evenodd" d="M57.9994 166L67.9994 167H80.9994L83.9994 178V179H65.9994L49.9994 175V174L57.9994 166Z" fill="#CACACA" stroke="black" stroke-width="2" stroke-miterlimit="1.5"/>
<path d="M49.9994 178L57.9994 170L67.9994 171H81.9994" stroke="black" stroke-opacity="0.2" stroke-width="2" stroke-miterlimit="1.5"/>
<path fill-rule="evenodd" clip-rule="evenodd" d="M50.9994 160L41.9994 167L31.9994 164L27.9994 158L36.9994 153L41.9994 157L50.9994 160Z" fill="#CACACA" stroke="black" stroke-width="2" stroke-miterlimit="1.5"/>
<path fill-rule="evenodd" clip-rule="evenodd" d="M43.9994 189L27.9994 203L35.9994 204L55.9994 210L85.9994 212L80.9994 193L64.9994 192L43.9994 189Z" fill="#626262" stroke="black" stroke-width="2" stroke-miterlimit="1.5"/>
<path fill-rule="evenodd" clip-rule="evenodd" d="M20.9994 190L-10.0006 211V181L1.99939 178L10.9994 185L20.9994 190Z" fill="#2E2E2E" stroke="black" stroke-width="2" stroke-miterlimit="1.5"/>
<path fill-rule="evenodd" clip-rule="evenodd" d="M33.9994 145L22.9994 152L21.9994 148L4.99939 152L25.9994 143L33.9994 145Z" fill="#CACACA" stroke="black" stroke-width="2" stroke-miterlimit="1.5"/>
<path fill-rule="evenodd" clip-rule="evenodd" d="M8.99939 94L30.9994 88L26.9994 81L23.9994 84V81L1.49939 86.5L8.99939 94Z" fill="white" stroke="black" stroke-width="2" stroke-miterlimit="1.5"/>
<path fill-rule="evenodd" clip-rule="evenodd" d="M38.9994 71L41.9994 83L51.9994 82V74L47.9994 69L38.9994 71Z" fill="white" stroke="black" stroke-width="2" stroke-miterlimit="1.5"/>
<path d="M98.9995 64H87.9995V71H98.9995V64Z" fill="#B1B1AF" stroke="black" stroke-width="1.99274" stroke-miterlimit="1.5"/>
<path fill-rule="evenodd" clip-rule="evenodd" d="M129 71L114 76V87L119 89H120V84L128 88V92.727L136 96L148 93L152 77L129 71Z" fill="#B1B1AF" stroke="black" stroke-width="2" stroke-miterlimit="1.5"/>
<path d="M125.999 87.0001L120.999 88.9998L118.999 88.9996" stroke="black" stroke-width="1.96242" stroke-miterlimit="1.5"/>
<path fill-rule="evenodd" clip-rule="evenodd" d="M114 117L127 109L139.5 113.5L137 124L123 130L114 126V117Z" fill="#3E3E3E" stroke="black" stroke-width="2" stroke-miterlimit="1.5"/>
<path fill-rule="evenodd" clip-rule="evenodd" d="M99.9995 95L102 91L103 84L91.9995 83L87.9995 95H99.9995Z" fill="#B1B1AF" stroke="black" stroke-width="2" stroke-miterlimit="1.5"/>
<path fill-rule="evenodd" clip-rule="evenodd" d="M85.9995 92L60.9995 91L52.9995 95L81.9995 97L85.9995 96V92Z" fill="#CCCCCC" stroke="black" stroke-width="2" stroke-miterlimit="1.5"/>
<path fill-rule="evenodd" clip-rule="evenodd" d="M49.9994 144L38.9994 149L46.9994 152L55.9994 156L62.9994 149L49.9994 144Z" fill="#CACACA" stroke="black" stroke-width="2" stroke-miterlimit="1.5"/>
<path fill-rule="evenodd" clip-rule="evenodd" d="M59.9994 161V157L63.9994 149H80.9994L83.9994 153V161" fill="#CDCDC8"/>
<path d="M59.9994 161V157L63.9994 149H80.9994L83.9994 153V161" stroke="black" stroke-width="2" stroke-miterlimit="1.5"/>
<path d="M60.9994 157H84.9994" stroke="black" stroke-width="2" stroke-miterlimit="1.5"/>
<path fill-rule="evenodd" clip-rule="evenodd" d="M-2.00061 210L23.9994 219L84.9994 223L86.9994 242L-2.00061 243V210Z" fill="#1E1E1E" stroke="black" stroke-width="2" stroke-miterlimit="1.5"/>
<path fill-rule="evenodd" clip-rule="evenodd" d="M93.9995 241L151 203L168 216L167 247L93.9995 241Z" fill="#676767" stroke="black" stroke-width="2" stroke-miterlimit="1.5"/>
<path fill-rule="evenodd" clip-rule="evenodd" d="M92.9995 246L150 208L167 221L166 252L92.9995 246Z" stroke="black" stroke-opacity="0.2" stroke-width="2" stroke-miterlimit="1.5"/>
<path fill-rule="evenodd" clip-rule="evenodd" d="M-2.00061 90L7.99939 97L8.9994 104L14.9994 109V113L-3.00061 106L-2.00061 90Z" fill="#B1B1AF" stroke="black" stroke-width="2" stroke-miterlimit="1.5"/>
<path d="M-4.00061 32L3.99939 42L1.99939 45L18.9994 63L16.9994 65L32.9994 81.0001L42.4994 99.0001" stroke="black" stroke-width="2" stroke-miterlimit="1.5"/>
<path fill-rule="evenodd" clip-rule="evenodd" d="M41.9994 89L46.9994 87L48.9994 97H45.9994L41.9994 89Z" fill="white" stroke="black" stroke-width="2" stroke-miterlimit="1.5"/>
<path d="M110 63V65" stroke="black" stroke-width="2" stroke-miterlimit="1.5"/>
<path fill-rule="evenodd" clip-rule="evenodd" d="M148 134H166.341L166.5 104L157 108V114L154 112L148.54 112.461L146 116V122L138 131V134H142L148 131V134Z" fill="#B1B1AF" stroke="black" stroke-width="2" stroke-miterlimit="1.5"/>
<path d="M111 146L96.9995 138L91.9995 141V150" stroke="black" stroke-width="2" stroke-miterlimit="1.5"/>
<path d="M40.9994 135L38.9994 132H42.9994L33.9994 113H36.9994H29.9994L25.9994 106V110H22.9994V113L11.9994 97" stroke="black" stroke-width="2" stroke-miterlimit="1.5"/>
<path d="M30.9994 88L36.9994 106L31.9994 108L29.4994 101L22.4994 98L18.9994 105" stroke="black" stroke-width="2" stroke-miterlimit="1.5"/>
<path d="M29.4994 112L23.9994 98.5002" stroke="black" stroke-opacity="0.5" stroke-width="2" stroke-miterlimit="1.5"/>
<path d="M18.9994 113V115L15.9994 117L17.9994 119H26.9994L38.9994 145V142" stroke="black" stroke-opacity="0.2" stroke-width="2" stroke-miterlimit="1.5"/>
<path d="M105 174L98.9995 208L113 203" stroke="black" stroke-width="2" stroke-miterlimit="1.5"/>
<path d="M115 185L111 214L117 226L126 206" stroke="black" stroke-width="2" stroke-miterlimit="1.5"/>
<path d="M85.9995 212L84.9995 223" stroke="black" stroke-width="2" stroke-miterlimit="1.5"/>
<path d="M28.9994 204L31.9994 220" stroke="black" stroke-width="2" stroke-miterlimit="1.5"/>
<path d="M20.9994 189V209.001" stroke="black" stroke-width="1.72923" stroke-miterlimit="1.5"/>
<path d="M29.9994 194V197H27.9994L15.9994 216" stroke="black" stroke-width="2" stroke-miterlimit="1.5"/>
<path d="M39.3404 224H33.9994L21.9994 241" stroke="black" stroke-width="2" stroke-miterlimit="1.5"/>
<path d="M87.9995 151V180H84.9995" stroke="black" stroke-width="2" stroke-miterlimit="1.5"/>
<path fill-rule="evenodd" clip-rule="evenodd" d="M128 201L129 192L137 187L135 198L128 201Z" fill="#9C9C9C" stroke="black" stroke-width="2" stroke-miterlimit="1.5"/>
<path d="M148 184L148 190" stroke="black" stroke-width="2" stroke-miterlimit="1.5"/>
<path d="M148 100V102" stroke="black" stroke-width="1.78898" stroke-miterlimit="1.5"/>
<path d="M82.9995 0V67.0001H79.9995" stroke="black" stroke-width="2" stroke-miterlimit="1.5"/>
<path d="M82.9995 70V74" stroke="black" stroke-width="2" stroke-miterlimit="1.5"/>
<path d="M78.9995 66V105" stroke="black" stroke-width="2" stroke-miterlimit="1.5"/>
<path d="M59.9994 41.9998L64.9994 81.9999V84.9998H67.9994L74.9994 102V104.999" stroke="black" stroke-width="2.00343" stroke-miterlimit="1.5"/>
<path d="M98.9995 36L92.9995 75.0001H98.9995V79.0001H102" stroke="black" stroke-width="2" stroke-miterlimit="1.5"/>
<path d="M57.9995 144V137H63.9995V139H66.9995L68.4995 143H72.9995" stroke="black" stroke-width="2" stroke-miterlimit="1.5"/>
<path d="M88.0007 148V143H82.0007V145H79.0007L74.5007 149H70.0007" stroke="black" stroke-width="2" stroke-miterlimit="1.5"/>
<path d="M74.9995 142H72.9995V144H74.9995V142Z" fill="#757575"/>
<path d="M72.9995 140H70.9995V142H72.9995V140Z" fill="#FF9A00"/>
<path d="M88 132H86V134H88V132Z" fill="#171717"/>
<path d="M71 132H69V134H71V132Z" fill="#464646"/>
<path d="M80 126H78V128H80V126Z" fill="#ECE8B5"/>
<path d="M69 130H67V132H69V130Z" fill="#5E5E5E"/>
<path d="M75.9995 144H73.9995V146H75.9995V144Z" fill="#FF0C00"/>
<path d="M70.9995 138H68.9995V140H70.9995V138Z" fill="#ECE8B5"/>
<path d="M79.9995 89H77.9995V91H79.9995V89Z" fill="#757575"/>
<path d="M77.9995 87.0002H75.9995V93.0003H77.9995V87.0002Z" fill="#CCCCCC"/>
<path d="M71.9995 148H69.9995V150H71.9995V148Z" fill="#757575"/>
<path d="M46.9994 119L49.9994 124L53.9994 115L55.9994 118H59.9994L72.9994 125V121L61.9994 106" stroke="black" stroke-width="2" stroke-miterlimit="1.5"/>
<path d="M46.9994 115.5L39.9994 101.75H43.9994L46.9994 106.5H53.9994V99.0002L56.9994 103L60.9994 101V102L65.9994 99.0002" stroke="black" stroke-width="2" stroke-miterlimit="1.5"/>
<path d="M76.9994 105V128" stroke="black" stroke-width="1.88485" stroke-miterlimit="1.5"/>
<path d="M78.9995 134V136" stroke="black" stroke-width="2" stroke-miterlimit="1.5"/>
<path d="M80.9995 124V118H83.9995L88.9995 108V117H94.9995V126L102 122V125.375L111 119L106 126H110.5L103 130.5V135L120 132V135L134 132" stroke="black" stroke-width="2" stroke-miterlimit="1.5"/>
<path d="M88.9995 106V104L94.9995 98.0002V108L108 102L106 106L113 105L114 110L129.341 100" stroke="black" stroke-width="2" stroke-miterlimit="1.5"/>
<path d="M117 70H121L137 62" stroke="black" stroke-width="2" stroke-miterlimit="1.5"/>
<path d="M147.686 54.4721L162 48.5" stroke="black" stroke-width="1.8627" stroke-miterlimit="1.5"/>
<path d="M45.3661 82.4415L49.9994 54.0006" stroke="black" stroke-width="1.83496" stroke-miterlimit="1.5"/>
<path d="M136 76L153 64" stroke="black" stroke-width="2" stroke-miterlimit="1.5"/>
<path d="M140 91L155 84" stroke="black" stroke-width="2" stroke-miterlimit="1.5"/>
<path d="M114 76L138 84L152 77" stroke="black" stroke-width="2" stroke-miterlimit="1.5"/>
<path d="M138 84L136 96" stroke="black" stroke-width="2" stroke-miterlimit="1.5"/>
<path d="M39.9994 76L51.9994 74" stroke="black" stroke-width="2" stroke-miterlimit="1.5"/>
<path d="M18.9994 87L1.99939 79" stroke="black" stroke-width="2" stroke-miterlimit="1.5"/>
<path d="M4.99939 121L9.99939 131L10.9994 128L19.9994 139L20.9994 132.73" stroke="black" stroke-opacity="0.3" stroke-width="2" stroke-miterlimit="1.5"/>
<path d="M-1.00061 131L9.99939 142L10.9994 141L15.9994 146" stroke="black" stroke-opacity="0.5" stroke-width="2" stroke-miterlimit="1.5"/>
<path d="M-0.000610352 160L5.99939 169L7.99939 168L14.9994 177L16.9994 176L29.9994 190V192" stroke="black" stroke-opacity="0.3" stroke-width="2" stroke-miterlimit="1.5"/>
<path d="M19.9994 161H26.9994V165L19.9994 169H26.9994V171L24.4994 176.5L30.9994 182V185H40.4994" stroke="black" stroke-width="2" stroke-miterlimit="1.5"/>
<path d="M49.9994 160V174" stroke="black" stroke-width="2" stroke-miterlimit="1.5"/>
<path d="M55.9994 156V167" stroke="black" stroke-width="2" stroke-miterlimit="1.5"/>
<path d="M55.9994 167L57.9994 166L60.9994 160H63.9994L66.9994 163L68.9994 161H77.9994V164L83.9994 161H87.9994" stroke="black" stroke-width="2" stroke-miterlimit="1.5"/>
<path d="M38.9994 149V155" stroke="black" stroke-width="2" stroke-miterlimit="1.5"/>
<path d="M49.9994 175V190" stroke="black" stroke-width="2" stroke-miterlimit="1.5"/>
<path d="M83.9995 179V193" stroke="black" stroke-width="2" stroke-miterlimit="1.5"/>
<path d="M41.9994 167V172H38.9994V179H34.9994V182" stroke="black" stroke-width="2" stroke-miterlimit="1.5"/>
<path d="M32.9994 145L35.9994 153" stroke="black" stroke-width="2" stroke-miterlimit="1.5"/>
<path d="M22.9994 151L26.9994 159" stroke="black" stroke-width="2" stroke-miterlimit="1.5"/>
<path d="M114 117L125 122L139.5 113.5" stroke="black" stroke-width="2" stroke-miterlimit="1.5"/>
<path d="M125 122L123 130" stroke="black" stroke-width="2" stroke-miterlimit="1.5"/>
<path fill-rule="evenodd" clip-rule="evenodd" d="M109 213L102 218L96.9995 223H105L109 213Z" fill="#B1B1AF" stroke="black" stroke-width="2" stroke-miterlimit="1.5"/>
<path d="M85.9995 96.0002V113.5" stroke="black" stroke-width="2" stroke-miterlimit="1.5"/>
<path d="M53.9994 96.0002V107.5" stroke="black" stroke-width="2" stroke-miterlimit="1.5"/>
<path d="M151 129L156 126V123L161 120" stroke="black" stroke-width="2" stroke-miterlimit="1.5"/>
<path d="M60 221.143V216.5H63.9998V221.5" stroke="black" stroke-opacity="0.4" stroke-width="1.9847" stroke-miterlimit="1.5"/>
<path d="M68 221.143V216.5H71.9998V221.5" stroke="black" stroke-opacity="0.4" stroke-width="1.9847" stroke-miterlimit="1.5"/>
<path d="M71.9995 183H69.9995V187H71.9995V183Z" fill="black" fill-opacity="0.7"/>
<path d="M75.9995 183H73.9995V187H75.9995V183Z" fill="black" fill-opacity="0.3"/>
<path d="M79.9995 183H77.9995V187H79.9995V183Z" fill="black"/>
<path d="M148 192V228H141M148 56V12H12V84M12 222V228H31" stroke="black" stroke-width="2"/>
<rect x="12" y="12" width="136" height="30" fill="white"/>
<rect x="12" y="12" width="136" height="30" stroke="black" stroke-width="2"/>
<path fill-rule="evenodd" clip-rule="evenodd" d="M26.9994 62L16.9994 50L19.9994 48L15.9994 39L18.9994 38L16.9994 33L19.9994 31L24.9994 32L26.9994 29L30.9994 43L27.9994 42L29.9994 49H21.9994L23.9994 53H19.4994" fill="#B1B1AF"/>
<path d="M26.9994 62L16.9994 50L19.9994 48L15.9994 39L18.9994 38L16.9994 33L19.9994 31L24.9994 32L26.9994 29L30.9994 43L27.9994 42L29.9994 49H21.9994L23.9994 53H19.4994" stroke="black" stroke-width="2" stroke-miterlimit="1.5"/>
<path d="M148 23L137 38L129 53L116 63" stroke="black" stroke-width="2" stroke-miterlimit="1.5"/>
</g>
</g>
<defs>
<linearGradient id="paint0_linear_4582_158" x1="-0.000488281" y1="180.001" x2="160" y2="180.001" gradientUnits="userSpaceOnUse">
<stop stop-color="#272727"/>
<stop offset="1" stop-color="#646464"/>
</linearGradient>
<clipPath id="clip0_4582_158">
<rect width="160" height="240" fill="white"/>
</clipPath>
</defs>
</svg>
