<svg width="160" height="240" viewBox="0 0 160 240" fill="none" xmlns="http://www.w3.org/2000/svg">
<g clip-path="url(#clip0_4474_22404)">
<rect width="160" height="240" fill="#BFAF99"/>
<rect width="162" height="241" fill="#343434"/>
<path d="M17 201L19 192L23 199L27 201.29L21 204C21 204 19.5 212 19 216L17 207L12 204L17 201Z" fill="#3F3D3D" stroke="white" stroke-width="2"/>
<path d="M117.647 112.136L119.765 106L121.882 112.136L124 114L119.765 116.909L116 121L115 116.909L112 115.545L117.647 112.136Z" fill="#483F3F" stroke="white" stroke-width="2"/>
<path d="M51 136L72 127L115 113L109 124L121 122.5L132 121L129 124L142 142L152 160L154 174V189L153 199L146 215L121 231V243H22L52 205L47 208L43 210L38 213L33 214L30 211L29 208L28 202L26 200V194L22 182V164L33 151L43 146L51 136Z" fill="#444444"/>
<path d="M52 205L54 202L56 200M52 205L22 243H121V231M52 205L47 208L43 210L38 213L33 214L30 211L29 208L28 202L26 200V194L22 182V164L33 151L43 146L51 136L72 127L115 113L109 124L121 122.5L132 121L129 124L142 142L152 160L154 174V189L153 199L146 215L121 231M121 231L116 233H112" stroke="black" stroke-width="2"/>
<path d="M31.8571 137.4L34.4286 127V134L40 132L36.1429 137.4L43 138L34 141L31.8571 147L31 140L25 138L31.8571 137.4Z" fill="#524C4C" stroke="white" stroke-width="2"/>
<path d="M120.929 83.3214L123.286 73L126 82L128 83.3214L123 86.5L120.929 90V86L117 83.3214H120.929Z" fill="#494545" stroke="white" stroke-width="2"/>
<path d="M142.125 126L144.188 119L147 131.208L149.5 134L146 137L144.188 142L142 131.208L138 129.514L142.125 126Z" fill="#4E4444" stroke="white" stroke-width="2"/>
<path d="M42 158L43 162.5M43 162.5L38 159.5L34 160M43 162.5H38L33 164L30 166" stroke="black" stroke-width="2"/>
<path d="M111 124L113 128L107 141V144" stroke="#252323" stroke-width="2"/>
<path d="M127 133V136L120 143H117L120 151V157" stroke="#302E2E" stroke-width="2"/>
<path d="M122 163L124 168V174V180.5" stroke="#2E2C2C" stroke-width="2"/>
<path d="M105 147L96 156.5" stroke="black" stroke-width="2"/>
<path d="M72 132.5L80 137" stroke="black" stroke-width="2"/>
<path d="M71 133L80 145" stroke="black" stroke-opacity="0.9" stroke-width="2"/>
<path d="M71 133.5V147" stroke="black" stroke-opacity="0.9" stroke-width="2"/>
<path d="M107.5 227.5L111 232H114L119.5 224L123 214L124.5 200.5L121.5 193L122 190.091L119.5 189.5L116 192L113 205L106 222L107.5 227.5Z" fill="#2C393E" stroke="black" stroke-width="2"/>
<path d="M56 200L54 202L51 205.5L38 213.25L33.5 214L30 211.5L29.5 208L33.5 204L33 202.5L34.5 198.5L36 192L40 187L42 177L47 175L56 191L57 194L56 200Z" fill="#2C393E" stroke="black" stroke-width="2"/>
<path d="M30 76L28 72L32 73H35V70H54L72 68L94 77L104 88L118 96L125 98L132 100L138 97H140L137 102L136 103L125 104L106 103L100 99L89 100.5H77.5L73.5 99.5L65 106.5H52.5L36.5 103L24 97L25 94.5H28L29.5 97L46 98H54L56.5 96L58.5 94.5L54 91V88L49 83H45V81H38L36 78H32L30 76Z" fill="#444444"/>
<path d="M24 97L25 94.5H28L29.5 97L46 98H54L56.5 96L58.5 94.5L54 91V88L49 83H45V81H38L36 78H32L30 76L28 72L32 73H35M24 97L36.5 103L52.5 106.5H65L73.5 99.5L77.5 100.5H89L100 99L106 103L125 104L136 103L137 102M24 97L38 100.5L51 103H62L75 98.5H91L109 96L137 102M35 75V73M35 73V70H54L72 68L94 77L104 88L118 96L125 98L132 100L138 97H140L137 102" stroke="black" stroke-width="2"/>
<path d="M23 97V87L31 97L51 103H62L75 98.5H91L108.5 96L131 100.793L142 93H144L136 105L106 107L100 98.5L89 100.5H77.5L73.5 99.5L65 106.5H43.5L23 97Z" fill="#202020" stroke="black" stroke-width="2"/>
<path d="M47 164H44" stroke="black" stroke-width="2"/>
<path d="M136 178L143 177L148 178L154 188" stroke="black" stroke-width="2"/>
<path d="M139 182L136 180" stroke="black" stroke-width="2"/>
<path d="M132 181L137 184" stroke="black" stroke-width="2"/>
<path d="M131 183L120 189" stroke="black" stroke-width="2"/>
<path d="M57 79L54 83V86" stroke="black" stroke-width="2"/>
<path d="M53 73L49 76L48 79" stroke="black" stroke-width="2"/>
<path opacity="0.3" d="M69 72L65 73L61 75L58 78" stroke="black" stroke-width="2"/>
<path opacity="0.3" d="M61 89L65 87L70 86H76H80" stroke="black" stroke-width="2"/>
<path d="M67.5 117L66 107L74.5 98.645L78.5 100H89.5L100.5 98L106.5 103.5V106L109.5 103.5L112 107V111L106.5 118H104.5L93 132L79 135L78.5 133L72 127L67.5 117Z" fill="#EBA7A8" stroke="black" stroke-width="2"/>
<path d="M77 110L73.5 113H71L69.5 112H68" stroke="#683C3D" stroke-width="2"/>
<path d="M91 106.5L88.5 110L91 112H94.5L97.5 108.5L94 106.5H91Z" stroke="#683C3D" stroke-width="2"/>
<path d="M89.5 110L92 106.5H95L98.5 108.5" stroke="black" stroke-width="2"/>
<path d="M73 110V113" stroke="black" stroke-width="2"/>
<path d="M93 111V109" stroke="black" stroke-width="2"/>
<path d="M71 105L75 106.5L78 110.5L76 113.5" stroke="#683C3D" stroke-width="2"/>
<path d="M91 104.5L87.5 109L89 112.5" stroke="#683C3D" stroke-width="2"/>
<path opacity="0.4" d="M85 128H81" stroke="black" stroke-width="2"/>
<path d="M78 128L80.7273 126H84.3636L88 128" stroke="black" stroke-width="2"/>
<path d="M85 112L84 108L80 114V107L77 99L93 98.3333V94L95.3111 98.237L101 98L111 99L110 103L106 105V112L95 126L103 120L106 130L99 139V135L96 139V131L89 138L96 128L89 131L96 116L91 120L99 105L95.3111 98.237L93 98.3333V102H91V104H88L85 112Z" fill="url(#paint0_linear_4474_22404)"/>
<path d="M42 115.5L52 108L66 107L67 118L73 128.5V132L69 127L68 136L66 126L65 131L59 133L59.5056 132.242C57.5948 133.155 55.3677 134 55 134C54.6 134 51.6667 134.667 50 135L54 132L44 134L50 131L55 126L44 130L51 123L42 125L37 124L42 122L51 116L42 121H33L24 123.5L29 119.5L21 122L20 121L21 120L15 119H14L15 116L22 115L28 117L31 118L42 115.5Z" fill="url(#paint1_linear_4474_22404)"/>
<path d="M54 132L44 134L50 131L55 126L44 130L51 123L42 125L37 124L42 122L51 116L42 121H33L24 123.5L29 119.5L21 122L20 121L21 120L15 119H14L15 116L22 115L28 117L31 118L42 115.5L52 108L66 107L67 118L73 128.5V132L69 127L68 136L66 126L65 131L59 133L63 127L60 132C58 133 55.4 134 55 134C54.6 134 51.6667 134.667 50 135L54 132ZM54 132L59 128M77 99L80 107V114L84 108L85 112L88 104H91V102H93V94L99 105L91 120L96 116L89 131L96 128L89 138L96 131V139L99 135V139L106 130L103 120L95 126L106 112V105L110 103L111 99L101 98L77 99Z" stroke="black" stroke-width="2"/>
<path opacity="0.8" d="M80 122H83" stroke="black" stroke-width="2"/>
<path opacity="0.3" d="M78 120H80" stroke="black" stroke-width="2"/>
<path d="M82 160V178L80.5 169H73H99L78.5 167L84.5 172V166L79.5 170.5" stroke="white" stroke-width="2"/>
<path d="M44.5 170.734L46 165L49.75 162.886L51 157L53 152L54.25 154.278L57 152L58 153.519L60 154V160.101V162.886L60.0809 163.555L63 164L65 169.215L66 177.316L61 185.924L57.5 190.987L51 192L41 185.924L42.5 177.316L45.4115 176.734L44.5 170.734Z" fill="#EBA7A8"/>
<path d="M52 189.975L45.5 177.316L45.4115 176.734M50 168.203V172.253L48 174V172L49 168.203L51 165.671L51.5 162.127L49.75 162.886M49.75 162.886L46 165L44.5 170.734L45.4115 176.734M49.75 162.886L51 157L53 152L54.25 154.278M54 170.734L53.251 168L54 162.127L55 156L54.25 154.278M54.25 154.278L57 152L58 153.519M57 169.215V158.5L58 154.278V153.519M58 153.519L60 154V160.101V162.886M60 162.886V165.671L61.5 172.253V175.291L60.0809 163.555M60 162.886L60.0809 163.555M60.0809 163.555L63 164L65 169.215L66 177.316L61 185.924L57.5 190.987L51 192L41 185.924L42.5 177.316L45.4115 176.734" stroke="black" stroke-width="2"/>
<path d="M111 192.5C114.167 192.167 120.6 191.5 121 191.5L124 200L102 201L98 195V189.5L99.5 185.5L100.5 182.5V179.5L97.5 173L95 169.5L97 167L102.5 173L105 179.5L104 173L100 168L98 166.5V164H102L102.5 163H107H110.5L113 165L116 176L117 178L116.5 179L112 188.5L111 192.5Z" fill="#EBA7A8"/>
<path d="M111 192.5C114.167 192.167 120.6 191.5 121 191.5L124 200L102 201L98 195V189.5L99.5 185.5L100.5 182.5V179.5L97.5 173L95 169.5L97 167L102.5 173L105 179.5M111 192.5V194L109.667 195L107 197M111 192.5L112 188.5L116.5 179L117 178L116 176L113 165L110.5 163H107M107 163L109 165.5L112 169.5V174V176.5M107 163H102.5L102 164M102 164L104 166L106 168L108.5 171.5L109 175.5L110 178M102 164H98V166.5L100 168L104 173L105 179.5M105 179.5L106 181.5" stroke="black" stroke-width="2"/>
<path d="M76 111L73 108H70L69 109L70 112" stroke="black" stroke-width="2"/>
<path d="M81 226V183M78 196V182M59 226L75 182M44 222L78 173L65 188M74 174L67 179L72 172L13.5 168H74M60 160L74 164L55 147L74 159L63 141L76 157L72 143L77 152L82 130V158.5M90 137L84 159.5L95 135M88 159L95 145L92 155M104 141L92 159L119 145M93 164H97.5L89.5 169H93M99.5 191.5L86 176.5L92 179L88.5 174.5L100 179V175L158 169H123M87.5 181.5L95.5 209.5L86 186.5L88.5 204.5L84 184.5" stroke="white" stroke-opacity="0.5" stroke-width="2"/>
<rect x="12" y="12" width="136" height="216" stroke="black" stroke-width="2"/>
<rect x="12" y="12" width="136" height="30" fill="white"/>
<rect x="12" y="12" width="136" height="30" stroke="black" stroke-width="2"/>
</g>
<defs>
<linearGradient id="paint0_linear_4474_22404" x1="14" y1="131.525" x2="107.5" y2="105.975" gradientUnits="userSpaceOnUse">
<stop offset="0.2" stop-color="#2F2424"/>
<stop offset="0.49" stop-color="#4B3A3A"/>
<stop offset="0.75" stop-color="#423939"/>
</linearGradient>
<linearGradient id="paint1_linear_4474_22404" x1="14" y1="131.525" x2="107.5" y2="105.975" gradientUnits="userSpaceOnUse">
<stop offset="0.2" stop-color="#2F2424"/>
<stop offset="0.49" stop-color="#4B3A3A"/>
<stop offset="0.75" stop-color="#423939"/>
</linearGradient>
<clipPath id="clip0_4474_22404">
<rect width="160" height="240" fill="white"/>
</clipPath>
</defs>
</svg>
