<?xml version="1.0" encoding="UTF-8" standalone="no"?>
<!DOCTYPE svg PUBLIC "-//W3C//DTD SVG 1.1//EN" "http://www.w3.org/Graphics/SVG/1.1/DTD/svg11.dtd">
<svg width="100%" height="100%" viewBox="0 0 160 240" version="1.1" xmlns="http://www.w3.org/2000/svg" xmlns:xlink="http://www.w3.org/1999/xlink" xml:space="preserve" xmlns:serif="http://www.serif.com/" style="fill-rule:evenodd;clip-rule:evenodd;stroke-miterlimit:1;">
    <g id="mass" transform="matrix(0.784314,0,0,1.04348,-80,15.6522)">
        <rect x="102" y="-15" width="204" height="230" style="fill:none;"/>
        <clipPath id="_clip1">
            <rect x="102" y="-15" width="204" height="230"/>
        </clipPath>
        <g clip-path="url(#_clip1)">
            <g transform="matrix(1.275,0,0,0.958333,102,-15)">
                <rect x="0" y="0" width="160" height="240" style="fill:rgb(184,184,184);"/>
            </g>
            <g transform="matrix(1.275,0,0,0.958333,102,-49.5)">
                <rect x="12" y="48" width="136" height="28" style="fill:white;"/>
            </g>
            <g transform="matrix(1.275,0,0,0.958333,102,-15)">
                <path d="M12,40L148,40" style="fill:none;stroke:black;stroke-width:2px;"/>
            </g>
            <g transform="matrix(1.275,0,0,0.958333,102,-41.8333)">
                <path d="M12,40L148,40" style="fill:none;stroke:black;stroke-width:2px;stroke-linecap:square;"/>
            </g>
            <g transform="matrix(3.6125,0,0,3.45,30.6,-169.1)">
                <path d="M72,48L72,108L24,108L24,48" style="fill:none;stroke:black;stroke-width:0.62px;stroke-miterlimit:1.5;"/>
            </g>
            <g transform="matrix(1.275,0,0,0.958333,102,-15)">
                <rect x="21" y="111" width="2" height="4" style="fill:rgb(226,226,226);"/>
            </g>
            <g transform="matrix(1.275,0,0,0.958333,140.25,18.5417)">
                <rect x="21" y="111" width="2" height="4" style="fill:rgb(226,226,226);"/>
            </g>
            <g transform="matrix(1.275,0,0,0.958333,190.091,-73.3676)">
                <rect x="21" y="111" width="2" height="4" style="fill:rgb(226,226,226);"/>
            </g>
            <g transform="matrix(1.275,0,0,0.958333,127.713,-101.828)">
                <rect x="21" y="111" width="2" height="4" style="fill:white;"/>
            </g>
            <g transform="matrix(1.275,0,0,0.958333,253.54,-62.6249)">
                <rect x="21" y="111" width="2" height="4" style="fill:white;"/>
            </g>
            <g transform="matrix(1.275,0,0,0.958333,86.7,28.125)">
                <rect x="21" y="111" width="2" height="4" style="fill:white;"/>
            </g>
            <g transform="matrix(0.717187,0,0,0.359375,184.875,47.2917)">
                <path d="M142.222,41.333L160,106.667L142.222,200L53.333,240L1.778,160L8.889,96L-0,93.333L26.667,41.333L39.111,8L94.222,-5.333L142.222,41.333Z" style="fill:rgb(226,226,226);"/>
            </g>
            <g transform="matrix(1.275,0,0,0.457979,102,105.085)">
                <path d="M160,0L160,240L0,240L0,198.15L33,177.224L75,137.466C75,137.466 87.528,92.378 95,83.061C122.812,48.382 140.863,39.323 160,0Z" style="fill:rgb(119,119,119);"/>
            </g>
            <g transform="matrix(1.275,0,0,0.958333,102,-15)">
                <path d="M9,184L32,171L57,184L73,191" style="fill:none;stroke:black;stroke-width:2px;stroke-miterlimit:1.5;"/>
            </g>
            <g transform="matrix(1.275,0,0,0.958333,102,-15)">
                <path d="M96,207L111,180L120,177L130,164L140,164L144,166" style="fill:none;stroke:black;stroke-width:2px;stroke-miterlimit:1.5;"/>
            </g>
            <g transform="matrix(1.275,0,0,0.958333,102,-15)">
                <path d="M92,142L87,144L89,148L82,152L79,155L80,151" style="fill:none;stroke:black;stroke-width:2px;stroke-miterlimit:1.5;"/>
            </g>
            <g transform="matrix(1.275,0,0,0.958333,102,-15)">
                <path d="M85,150.286L85,147L80,147L74,154L74,162L80,165L78,169L80,173L80,180L74,185.5L68,185.5L68,189L73,191L73,189L76,188L86,175L86,170L90,170L95,165L88,163L85.5,159L90,160L96,154L94,152L90,155L88,153L92,149L88,153L82,160L79,158" style="fill:rgb(112,112,112);stroke:black;stroke-width:2px;stroke-miterlimit:1.5;"/>
            </g>
            <g transform="matrix(1.275,0,0,0.958333,102,-15)">
                <path d="M101,109L93,136L105,132" style="fill:none;stroke:black;stroke-width:2px;stroke-miterlimit:1.5;"/>
            </g>
            <g transform="matrix(1.275,0,0,0.958333,102,-15)">
                <path d="M93,136L88,128" style="fill:none;stroke:black;stroke-width:2px;stroke-miterlimit:1.5;"/>
            </g>
            <g transform="matrix(1.275,0,0,0.958333,102,-15)">
                <path d="M89,111L92,114" style="fill:none;stroke:black;stroke-width:2px;stroke-miterlimit:1.5;"/>
            </g>
            <g transform="matrix(1.275,0,0,0.958333,102,-15)">
                <path d="M107,118L112,118" style="fill:none;stroke:black;stroke-width:2px;stroke-miterlimit:1.5;"/>
            </g>
            <g transform="matrix(1.275,0,0,0.958333,102,-15)">
                <path d="M91,137L94,139" style="fill:none;stroke:black;stroke-width:2px;stroke-miterlimit:1.5;"/>
            </g>
            <g transform="matrix(1.275,0,0,0.958333,102,-15)">
                <path d="M80,86L79,92" style="fill:none;stroke:black;stroke-width:2px;stroke-miterlimit:1.5;"/>
            </g>
            <g transform="matrix(1.275,0,0,0.958333,102,-15)">
                <path d="M138,105L141,106" style="fill:none;stroke:black;stroke-width:2px;stroke-miterlimit:1.5;"/>
            </g>
            <g transform="matrix(1.275,0,0,0.958333,102,-15)">
                <path d="M149,110L151,111" style="fill:none;stroke:black;stroke-width:2px;stroke-miterlimit:1.5;"/>
            </g>
            <g transform="matrix(1.275,0,0,0.958333,102,-15)">
                <path d="M146,101L150,122L139,122" style="fill:none;stroke:black;stroke-width:2px;stroke-miterlimit:1.5;"/>
            </g>
            <g transform="matrix(1.275,0,0,0.958333,102,-15)">
                <path d="M140,129L144,130" style="fill:none;stroke:black;stroke-width:2px;stroke-miterlimit:1.5;"/>
            </g>
            <g transform="matrix(1.275,0,0,0.958333,102,-15)">
                <path d="M111,68L117,75L126,82L110,85L117,75" style="fill:none;stroke:black;stroke-width:2px;stroke-miterlimit:1.5;"/>
            </g>
            <g transform="matrix(1.275,0,0,0.958333,102,-15)">
                <path d="M103,76L106,75" style="fill:none;stroke:black;stroke-width:2px;stroke-miterlimit:1.5;"/>
            </g>
            <g transform="matrix(1.275,0,0,0.958333,102,-15)">
                <path d="M119,72L122,72" style="fill:none;stroke:black;stroke-width:2px;stroke-miterlimit:1.5;"/>
            </g>
            <g transform="matrix(1.275,0,0,0.958333,102,-15)">
                <path d="M114,90L124,89" style="fill:none;stroke:black;stroke-width:2px;stroke-miterlimit:1.5;"/>
            </g>
            <g transform="matrix(1.275,0,0,0.958333,102,-15)">
                <path d="M184,164L158,167L150,164L149,170L150,180L145,174L141,171L139,175L132,174L130,179L135,195L130,192L127,185L122,189L122,192L119,192L116,197L117,200L112,201L112,206L118,212L115,217L111,211L106,210L103,207L94,207L96,199L92,195L86,199L80,201L75,208L75,211L70,213L65,220L62,220L62,210L54,210L52,215L48,215L44,220L46,225.306L33,264L184,264L184,164Z" style="fill:none;stroke:black;stroke-width:2px;stroke-miterlimit:1.5;"/>
            </g>
            <g transform="matrix(1.275,0,0,0.958333,102,-15)">
                <path d="M40.962,231L38,227L36,223L28,221L26,216L24,214L30,212L35,210L33,205L27,204L27,207L23,203L19,204L17,207L12,209L10,214L7,213L9,205L6,200L3,200L4,196L-24,192L-24,264L33,264L40.962,231Z" style="fill:none;stroke:black;stroke-width:2px;stroke-miterlimit:1.5;"/>
            </g>
            <g transform="matrix(1.275,0,0,0.958333,102,-15)">
                <path d="M0,179L3,184L7,184L15,187L16,195L20,191L25,190L29,192L30,194L34,188L39,188L47,189L47,193L48,196L52,193L56,195L59,192L64,192L66,194" style="fill:none;stroke:black;stroke-width:2px;stroke-miterlimit:1.5;"/>
            </g>
            <g transform="matrix(1.275,0,0,0.958333,102,-15)">
                <path d="M15,180L11,178L7,179L5,179L6,175L0,172" style="fill:none;stroke:black;stroke-width:2px;stroke-miterlimit:1.5;"/>
            </g>
            <g transform="matrix(1.275,0,0,0.958333,102,-15)">
                <path d="M0,220L30,212L75,190L93,166L140,142L160,126" style="fill:none;stroke:black;stroke-width:2px;stroke-miterlimit:1.5;"/>
            </g>
            <g transform="matrix(1.275,0,0,0.958333,102,-15)">
                <path d="M124.659,104L145.659,81L156,106L148,135L141,142L129,146L96,154L66,125L69,108L72,107L70,106L71,102L67,98L78,84L87,68L121,63L145.659,81L124.659,104Z" style="fill:none;stroke:black;stroke-width:2px;stroke-miterlimit:1.5;"/>
            </g>
            <g transform="matrix(1.275,0,0,0.958333,102,-15)">
                <path d="M82,93L87,68L82,93Z" style="fill:none;stroke:black;stroke-width:2px;stroke-miterlimit:1.5;"/>
            </g>
            <g transform="matrix(1.275,0,0,0.958333,102,-15)">
                <path d="M66,125L82,93L125,104L129,146" style="fill:none;stroke:black;stroke-width:2px;stroke-miterlimit:1.5;"/>
            </g>
        </g>
    </g>
</svg>
