<svg width="160" height="240" viewBox="0 0 160 240" fill="none" xmlns="http://www.w3.org/2000/svg">
<g clip-path="url(#clip0_4537_23516)">
<rect width="160" height="240" fill="white"/>
<g clip-path="url(#clip1_4537_23516)" filter="url(#filter0_d_4537_23516)">
<rect width="160" height="240" fill="#94A4B2"/>
<path d="M148 160H140L134 239H159V186H148V160Z" fill="#1B1B1B" stroke="black" stroke-width="2"/>
<path d="M35.5 108L15.5 160H13L33 107.5L53 77L62 75.5L69 62.5L70.5 63.5L63 77L55.5 78L35.5 108Z" fill="black" fill-opacity="0.8" stroke="black"/>
<path d="M38 103H46" stroke="black" stroke-width="2"/>
<path d="M49 95H51L58 101L51 102L46 108V114H44L38 129L33 147L35 153L34 160H1V239H134L139 200L140 158L138 127L137 112L131 84L116 75L109 77L104 82V86L105 89L106 94L101 101L99 100L94 97V93.5L88 91V88L81 82L78.5 74.5L63 68L51 71L42 86L44 87L49 95Z" fill="#4C525C" stroke="black" stroke-width="2"/>
<g opacity="0.3">
<path d="M78 174.5L76.5 169L75.5 170.5V176L71 181V183.5H66.5L68 190V191.5L71.5 190L73 186L78 182L81 181.5V178L78 174.5Z" fill="#707D5C"/>
<path d="M78 171V165L86 150V146H83V143L85 141.5V137H73.5L71 131L67.5 133V129.5L64.5 132V135L62 142V146L58 147L56 141.5L55 147H53V134L63 124V120L66.5 117L75.5 111.5L81 106L76.5 107V98L73 101L68.5 98L60 98.5L55.5 99L51 95H49L42.5 85.5L51 71L63 68L79 75L81 81.5L88 88V91L94 94V96.5L101 101L106.5 93.5L104 86.5V82L109 77L116 75L131 84L137.5 112L138 132H135V129H132V124H129V131H126V126H123V136L118 139V133L114 135.5V138L109 139L110.5 146L109.5 155.5L113.5 161V183.5H115V188L113.5 196L112.5 207.5L109.5 208.5L109 190L109.5 185L108 183L109 180L104.5 177.5V171.5L109 174.5L106.5 159L103.5 151.5L101 157L86.5 167.5L85 170.5L83 173.5L78 171Z" fill="#707D5C"/>
<path d="M53 108H46V114H44L33 147L35 153L34 160H1V177H8L16 182H24V189H29L32 198H35V186H38V193H40L43 190L45 169H47V163L49 164L51.5 160H37.5L38 153V148L52 143V140H41V137H49V132H43V129H53V124.5H48V120H56L59.5 115H47L53 112V108Z" fill="#707D5C"/>
</g>
<path d="M60 110H54" stroke="black" stroke-width="2"/>
<path d="M38 101V68.5L48 47" stroke="black" stroke-width="2"/>
<path d="M38 80L33 75" stroke="black" stroke-width="2"/>
<path d="M53 59H42" stroke="black" stroke-width="2"/>
<path d="M52 58V54" stroke="black" stroke-width="2"/>
<path d="M54 54V50" stroke="black" stroke-width="2"/>
<path d="M54 64V60" stroke="black" stroke-width="2"/>
<path d="M56 68V64" stroke="black" stroke-width="2"/>
<path d="M34 65V61" stroke="black" stroke-width="2"/>
<path d="M36 69V65" stroke="black" stroke-width="2"/>
<rect x="12" y="12" width="136" height="216" stroke="black" stroke-width="2"/>
<rect x="12" y="12" width="136" height="30" fill="white"/>
<rect x="12" y="12" width="136" height="30" stroke="black" stroke-width="2"/>
<path d="M91 171L96 176L106 184V206" stroke="black" stroke-width="2"/>
<path d="M84 177L89 181L91 178L92 181.5L96 186L97 191H99V196L96 200H94V205L90 208.5L85 208L84 209L81 207H78L74 208L71 205V200L68 202.5L66 202L65 199L67 196V193L72 189" stroke="black" stroke-width="2"/>
<path d="M60 218L70 201" stroke="black" stroke-width="2"/>
<path d="M71 181L64 178L60 174.143" stroke="black" stroke-width="2"/>
<path opacity="0.3" d="M110 154H115L118 146L122 149L126 141H128V145L136 148L139 143" stroke="black" stroke-width="2"/>
<path opacity="0.5" d="M113 121L117 124L122 119V112H125L128 121H132L134 119L138 122" stroke="black" stroke-width="2"/>
<path d="M109 95H119L115 89V88H123L125 86V83" stroke="black" stroke-width="2"/>
<path d="M50.8052 160L52 163L56.2248 172L62 181L71 185" stroke="black" stroke-width="2"/>
<path d="M53 173V183H55V196L61 222L67 239" stroke="black" stroke-width="2"/>
<path d="M32 173V183H34V196L40 222L46 239" stroke="black" stroke-width="2"/>
<path d="M68 151L65 135L64 151L57 157L53 155L47 160H59V163L64 160H68V157L72 154V153L68 151Z" fill="black" fill-opacity="0.2" stroke="black" stroke-width="2"/>
<path d="M85 134V142L83 143V146H86V150L75 171V176L71 181V186H72V191L75.0776 196H82V193H85V190L84 189V177L101 161L105 152M84 175V171H78" stroke="black" stroke-width="2"/>
<path d="M79 115V124L84 133L94 140L105 152L110 163V177" stroke="black" stroke-width="2"/>
<path d="M58 91V90L61 88" stroke="black" stroke-width="2"/>
<path d="M55 95H54L53 97" stroke="black" stroke-width="2"/>
<path d="M56 119L60 116V110H64V106H67L70 104L76 111L68 115L63 120V123L53 134V119H56Z" stroke="black" stroke-width="2"/>
<path d="M76 111L69 115L68 110H64V106H67L70 104L76 111Z" fill="black" fill-opacity="0.44"/>
<path d="M61 110H64V106H67L70 104L76 111L69 115L68 110H61Z" stroke="black" stroke-width="2"/>
<path d="M53 134V147L46 154" stroke="black" stroke-width="2"/>
<path d="M63 123H67L79 116" stroke="black" stroke-width="2"/>
<path d="M85 102L81 106" stroke="black" stroke-width="2"/>
<path d="M74 92L71 100" stroke="black" stroke-width="2"/>
<path opacity="0.2" d="M58 91H56V87H61" stroke="black" stroke-width="2"/>
<path opacity="0.2" d="M54 95V93H51V95" stroke="black" stroke-width="2"/>
<path d="M66 123V140" stroke="black" stroke-width="2"/>
<path d="M84 113L82 115H78V110L80 108H84V113Z" stroke="black" stroke-width="2"/>
<path d="M61 97H59L58 98" stroke="black" stroke-width="2"/>
<path d="M62 102V100L65 97H67" stroke="black" stroke-width="2"/>
<path d="M94 205V214L100 219H105L108.958 224V239" stroke="black" stroke-width="2"/>
<path d="M81 207H78L75 208V239H92V217L100 219.222L94 214V205L90.1297 208H85L84 209.168L81 207Z" fill="#1B1B1B" fill-opacity="0.22" stroke="black" stroke-width="2"/>
<path d="M21 160H6V158L1 153V151H26V153L21 158V160Z" fill="#1B1B1B" stroke="black" stroke-width="2"/>
<path d="M31 79L35 86L31 94.1691L30.5 90L26.5 90L24 86L29 84.5L31 79Z" fill="#A39274"/>
<path d="M38 86L35 86M35 86L31 79L29 84.5L24 86L26.5 90L30.5 90L31 94.1691L35 86Z" stroke="black" stroke-width="2"/>
<g opacity="0.2">
<path d="M59 74V69L63 68L79 75H72V78H66V74H59Z" fill="#D3AC63"/>
<path d="M94 102V97L101 101L105 108H102V110H96V106H90V102H94Z" fill="#D3AC63"/>
</g>
<path d="M49 95H51L58 101L51 102L46 108V114H44L38 129L33 147L35 153L34 160H1V239H134L139 200L140 158L138 127L137 112L131 84L116 75L109 77L104 82V86L105 89L106 94L101 101L99 100L94 97V93.5L88 91V88L81 82L78.5 74.5L63 68L51 71L42 86L44 87L49 95Z" stroke="black" stroke-width="2"/>
<path d="M33 160L40 164L48.1691 160L44 159.5V155.5L40 153L38.5 158L33 160Z" fill="#8A672A"/>
<path d="M40 167V164M40 164L33 160L38.5 158L40 153L44 155.5V159.5L48.1691 160L40 164Z" stroke="black" stroke-width="2"/>
<path d="M101 101L105 107L108 117V136L110 147V156L113 161V184H115V189L113 196L112 216.196V228" stroke="black" stroke-width="2"/>
<path d="M47 91V85H46L53 80L62 84H70.0921V92H77V95L85 97V102H94V94" stroke="black" stroke-width="2"/>
<rect x="11" y="114" width="2" height="36" fill="#62686F"/>
<rect x="147" y="114" width="2" height="36" fill="#62686F"/>
<rect x="11" y="159" width="2" height="2" fill="#333333"/>
<rect x="11" y="163" width="2" height="62" fill="#333333"/>
<rect x="15" y="227" width="24" height="2" fill="#333333"/>
<path d="M53 134V119H56L60 116V110H68V115L63 120V123L53 134Z" fill="#94A4B2" stroke="black" stroke-width="2"/>
</g>
</g>
<defs>
<filter id="filter0_d_4537_23516" x="-33" y="-29" width="226" height="306" filterUnits="userSpaceOnUse" color-interpolation-filters="sRGB">
<feFlood flood-opacity="0" result="BackgroundImageFix"/>
<feColorMatrix in="SourceAlpha" type="matrix" values="0 0 0 0 0 0 0 0 0 0 0 0 0 0 0 0 0 0 127 0" result="hardAlpha"/>
<feOffset dy="4"/>
<feGaussianBlur stdDeviation="16.5"/>
<feComposite in2="hardAlpha" operator="out"/>
<feColorMatrix type="matrix" values="0 0 0 0 0 0 0 0 0 0 0 0 0 0 0 0 0 0 0.22 0"/>
<feBlend mode="normal" in2="BackgroundImageFix" result="effect1_dropShadow_4537_23516"/>
<feBlend mode="normal" in="SourceGraphic" in2="effect1_dropShadow_4537_23516" result="shape"/>
</filter>
<clipPath id="clip0_4537_23516">
<rect width="160" height="240" fill="white"/>
</clipPath>
<clipPath id="clip1_4537_23516">
<rect width="160" height="240" fill="white"/>
</clipPath>
</defs>
</svg>
