<svg width="24" height="24" viewBox="0 0 24 24" fill="none" xmlns="http://www.w3.org/2000/svg">
<rect width="3" height="2" transform="matrix(-1 0 0 1 11 16)" fill="#BBBBBB"/>
<rect width="3" height="2" transform="matrix(-1 0 0 1 16 16)" fill="#BBBBBB"/>
<rect width="8" height="2" transform="matrix(-1 0 0 1 16 20)" fill="#BBBBBB"/>
<rect width="3" height="2" transform="matrix(-1 0 0 1 11 4)" fill="#BBBBBB"/>
<rect width="3" height="2" transform="matrix(-1 0 0 1 16 4)" fill="#BBBBBB"/>
<rect x="16" y="14" width="3" height="2" fill="#BBBBBB"/>
<rect x="16" y="18" width="3" height="2" fill="#BBBBBB"/>
<rect x="16" y="2" width="3" height="2" fill="#BBBBBB"/>
<rect width="3" height="2" transform="matrix(-1 0 0 1 8 14)" fill="#BBBBBB"/>
<rect width="3" height="2" transform="matrix(-1 0 0 1 8 18)" fill="#BBBBBB"/>
<rect width="3" height="2" transform="matrix(-1 0 0 1 8 2)" fill="#BBBBBB"/>
<rect x="3" y="2" width="2" height="18" fill="#BBBBBB"/>
<rect x="11" y="6" width="2" height="10" fill="#BBBBBB"/>
<rect x="11" y="18" width="2" height="2" fill="#BBBBBB"/>
<rect x="19" y="2" width="2" height="18" fill="#BBBBBB"/>
<rect x="11" y="20" width="2" height="2" fill="#BBBBBB"/>
</svg>
