<svg width="24" height="24" viewBox="0 0 24 24" fill="none" xmlns="http://www.w3.org/2000/svg">
<path d="M3 11H21V19H3V11Z" fill="#60646E"/>
<path d="M4 12V18H20V12H4Z" stroke="white" stroke-opacity="0.5" stroke-width="2"/>
<path d="M3 11H11V19H3V11Z" fill="#60646E"/>
<path d="M4 12V18H10V12H4Z" stroke="white" stroke-opacity="0.32" stroke-width="2"/>
<path d="M3 11H11V19H3V11Z" fill="white" fill-opacity="0.2"/>
<path d="M4 12V18H10V12H4Z" stroke="white" stroke-opacity="0.32" stroke-width="2"/>
<path d="M19 5H5V13H19V5Z" fill="#60646E"/>
<path d="M18 6V12H6V6H18Z" stroke="white" stroke-opacity="0.32" stroke-width="2"/>
<path d="M19 5H11V13H19V5Z" fill="#60646E"/>
<path d="M18 6V12H12V6H18Z" stroke="white" stroke-opacity="0.5" stroke-width="2"/>
<path d="M13 5H5V13H13V5Z" fill="white" fill-opacity="0.2"/>
<path d="M12 6V12H6V6H12Z" stroke="white" stroke-opacity="0.32" stroke-width="2"/>
<rect x="5" y="5" width="2" height="2" fill="#60646E"/>
<rect x="5" y="11" width="2" height="2" fill="#60646E"/>
<rect x="9" y="17" width="2" height="2" fill="#60646E"/>
</svg>
