<svg width="96" height="44" viewBox="0 0 96 44" fill="none" xmlns="http://www.w3.org/2000/svg">
<path d="M0 0H40V44H0V0Z" fill="black"/>
<path fill-rule="evenodd" clip-rule="evenodd" d="M6 18H12C13.9618 18 15.4662 16.7753 16.6306 15.8273C16.6519 15.81 16.673 15.7928 16.694 15.7757C18.0016 14.7118 18.9232 14 20 14C21.0768 14 21.9984 14.7118 23.306 15.7757C23.327 15.7928 23.3481 15.81 23.3694 15.8273C24.5338 16.7753 26.0382 18 28 18V16C26.8299 16 25.8532 15.2698 24.5682 14.2243C24.5203 14.1853 24.4717 14.1456 24.4225 14.1055C23.2923 13.183 21.843 12 20 12C18.157 12 16.7077 13.183 15.5775 14.1055C15.5283 14.1456 15.4797 14.1853 15.4318 14.2243C14.1468 15.2698 13.1701 16 12 16H6V18Z" fill="white"/>
<path fill-rule="evenodd" clip-rule="evenodd" d="M14.9247 29.6579C13.7923 28.6315 13.0955 28 12 28V26C13.8949 26 15.1469 27.148 16.1329 28.0522C16.2099 28.1228 16.2853 28.1919 16.3592 28.2588C17.4396 29.2374 18.4019 30 20 30C21.5981 30 22.5604 29.2374 23.6408 28.2588C23.7147 28.1919 23.7901 28.1228 23.8671 28.0522C24.8531 27.148 26.1051 26 28 26V28C26.9045 28 26.2077 28.6315 25.0753 29.6579C25.045 29.6854 25.0144 29.7131 24.9834 29.7412C23.8557 30.7626 22.4019 32 20 32C17.5981 32 16.1443 30.7626 15.0166 29.7412C14.9856 29.7131 14.955 29.6854 14.9247 29.6579Z" fill="#808080"/>
<path fill-rule="evenodd" clip-rule="evenodd" d="M14.9247 24.6579C13.7923 23.6315 13.0955 23 12 23V21C13.8949 21 15.1469 22.148 16.1329 23.0522C16.2099 23.1228 16.2853 23.1919 16.3592 23.2588C17.4396 24.2374 18.4019 25 20 25C21.5981 25 22.5604 24.2374 23.6408 23.2588C23.7147 23.1919 23.7901 23.1228 23.8671 23.0522C24.8531 22.148 26.1051 21 28 21V23C26.9045 23 26.2077 23.6315 25.0753 24.6579C25.045 24.6854 25.0144 24.7131 24.9834 24.7412C23.8557 25.7626 22.4019 27 20 27C17.5981 27 16.1443 25.7626 15.0166 24.7412C14.9856 24.7131 14.955 24.6854 14.9247 24.6579Z" fill="#808080"/>
<path opacity="0.5" fill-rule="evenodd" clip-rule="evenodd" d="M15.4318 19.7757C14.1468 18.7302 13.1701 18 12 18V16C13.9618 16 15.4662 17.2247 16.6306 18.1727C16.6519 18.19 16.673 18.2072 16.694 18.2243C18.0016 19.2882 18.9232 20 20 20C21.0768 20 21.9984 19.2882 23.306 18.2243C23.327 18.2072 23.3481 18.19 23.3694 18.1727C24.5338 17.2247 26.0382 16 28 16V18C26.8299 18 25.8532 18.7302 24.5682 19.7757C24.5203 19.8147 24.4717 19.8544 24.4225 19.8945C23.2923 20.817 21.843 22 20 22C18.157 22 16.7077 20.817 15.5775 19.8945C15.5283 19.8544 15.4797 19.8147 15.4318 19.7757Z" fill="white"/>
<path d="M19 10H21V14H19V10Z" fill="white"/>
<path fill-rule="evenodd" clip-rule="evenodd" d="M14.8321 11.4453L16.8321 14.4453L15.168 15.5547L13.168 12.5547L14.8321 11.4453Z" fill="white"/>
<path fill-rule="evenodd" clip-rule="evenodd" d="M25.1679 11.4453L23.1679 14.4453L24.832 15.5547L26.832 12.5547L25.1679 11.4453Z" fill="white"/>
<path fill-rule="evenodd" clip-rule="evenodd" d="M8 8H32V36H8V8ZM10 10V34H30V10H10Z" fill="white"/>
<path d="M21 20L21 34L19 34L19 20L21 20Z" fill="#808080"/>
<path d="M28 16H34V18H28V16Z" fill="white"/>
<path d="M21 8H23V10H21V8Z" fill="#808080"/>
<path d="M8 14H10V16H8V14Z" fill="#808080"/>
<path d="M19 16H21V18H19V16Z" fill="white"/>
<path d="M19 6H21V8H19V6Z" fill="white"/>
<path d="M19 36H21V38H19V36Z" fill="white"/>
<path d="M30 18H32V20H30V18Z" fill="#808080"/>
<path d="M17 34H19V36H17V34Z" fill="#808080"/>
<path d="M19 27H21V34H19V27Z" fill="url(#paint0_linear_26_1633)"/>
<path d="M28 23H30V25H28V23Z" fill="white"/>
<path d="M28 28H30V30H28V28Z" fill="white"/>
<path d="M10 28H12V30H10V28Z" fill="white"/>
<path d="M10 23H12V25H10V23Z" fill="white"/>
<path d="M32 0H96V44H32V0Z" fill="black"/>
<path d="M48 8H50V21H48V8Z" fill="white"/>
<path d="M52 8H54V21H52V8Z" fill="white"/>
<path d="M64 8H66V21H64V8Z" fill="white"/>
<path d="M66 8H68V10H66V8Z" fill="white"/>
<path d="M60 23H62V36H60V23Z" fill="white"/>
<path d="M62 27H64V29H62V27Z" fill="white"/>
<path d="M64 27H66V29H64V27Z" fill="white"/>
<path d="M62 23H68V25H62V23Z" fill="white"/>
<path d="M66 23H68V29H66V23Z" fill="white"/>
<path fill-rule="evenodd" clip-rule="evenodd" d="M66.8593 31.7685C67.4197 32.7099 68 33.8467 68 36H66C66 34.3133 65.5803 33.5301 65.1407 32.7915C65.1049 32.7313 65.0683 32.6706 65.0312 32.6091C64.5563 31.8215 64 30.8989 64 29.28V27.0001L66 27V29.28C66 30.3353 66.3058 30.8451 66.7556 31.5951C66.7893 31.6514 66.8239 31.7091 66.8593 31.7685Z" fill="white"/>
<path d="M78 8H80V21H78V8Z" fill="white"/>
<path d="M80 8H82V10H80V8Z" fill="white"/>
<path d="M40 8H42V21H40V8Z" fill="white"/>
<path d="M44 8H46V14H44V8Z" fill="white"/>
<path d="M42 8H44V10H42V8Z" fill="white"/>
<path d="M42 12H44V14H42V12Z" fill="white"/>
<path fill-rule="evenodd" clip-rule="evenodd" d="M40 23H48V25H42V34H48V36H40V23Z" fill="white"/>
<path d="M70 23H72V36H70V23Z" fill="white"/>
<path d="M76 25H78V34H76V25Z" fill="white"/>
<path d="M72 23H76V25H72V23Z" fill="white"/>
<path d="M72 34H76V36H72V34Z" fill="white"/>
<path d="M80 23H82V29H80V23Z" fill="white"/>
<path d="M80 34H86V36H80V34Z" fill="white"/>
<path d="M82 23H88V25H82V23Z" fill="white"/>
<path d="M86 29H88V36H86V29Z" fill="white"/>
<path d="M82 27H88V29H82V27Z" fill="white"/>
<path d="M50 12H54V14H50V12Z" fill="white"/>
<path d="M70 10H72V21H70V10Z" fill="white"/>
<path d="M74 10H76V21H74V10Z" fill="white"/>
<path d="M72 12H76V14H72V12Z" fill="white"/>
<path d="M70 8H76V10H70V8Z" fill="white"/>
<path d="M50 25H52V36H50V25Z" fill="white"/>
<path d="M56 25H58V36H56V25Z" fill="white"/>
<path d="M50 27H58V29H50V27Z" fill="white"/>
<path d="M50 23H58V25H50V23Z" fill="white"/>
<path fill-rule="evenodd" clip-rule="evenodd" d="M60.8682 12.3711C61.426 11.3951 62 10.2238 62 8H60C60 9.77622 59.574 10.6049 59.1318 11.3789C59.096 11.4414 59.0595 11.5045 59.0226 11.5683C58.5475 12.3893 58 13.3355 58 15V20.9999L60 21V15C60 13.8791 60.3145 13.3331 60.7636 12.5533C60.7977 12.494 60.8326 12.4334 60.8682 12.3711Z" fill="white"/>
<path fill-rule="evenodd" clip-rule="evenodd" d="M57.1318 12.3711C56.574 11.3951 56 10.2238 56 8H58C58 9.77622 58.426 10.6049 58.8682 11.3789C58.904 11.4414 58.9405 11.5045 58.9774 11.5683C59.4525 12.3893 60 13.3355 60 15V20.9999L58 21V15C58 13.8791 57.6855 13.3331 57.2364 12.5533C57.2023 12.494 57.1674 12.4334 57.1318 12.3711Z" fill="white"/>
<path fill-rule="evenodd" clip-rule="evenodd" d="M88.8682 12.3711C89.426 11.3951 90 10.2238 90 8H88C88 9.77622 87.574 10.6049 87.1318 11.3789C87.096 11.4414 87.0595 11.5045 87.0226 11.5683C86.5475 12.3893 86 13.3355 86 15V20.9999L88 21V15C88 13.8791 88.3145 13.3331 88.7636 12.5533C88.7977 12.494 88.8326 12.4334 88.8682 12.3711Z" fill="white"/>
<path fill-rule="evenodd" clip-rule="evenodd" d="M85.1318 12.3711C84.574 11.3951 84 10.2238 84 8H86C86 9.77622 86.426 10.6049 86.8682 11.3789C86.904 11.4414 86.9405 11.5045 86.9774 11.5683C87.4525 12.3893 88 13.3355 88 15V20.9999L86 21V15C86 13.8791 85.6855 13.3331 85.2364 12.5533C85.2023 12.494 85.1674 12.4334 85.1318 12.3711Z" fill="white"/>
<defs>
<linearGradient id="paint0_linear_26_1633" x1="20" y1="27" x2="20" y2="34" gradientUnits="userSpaceOnUse">
<stop stop-color="#808080"/>
<stop offset="1" stop-color="white"/>
</linearGradient>
</defs>
</svg>
