<svg width="108" height="44" viewBox="0 0 108 44" fill="none" xmlns="http://www.w3.org/2000/svg">
<rect x="16" y="28" width="4" height="8" fill="white"/>
<rect width="4" height="12" transform="matrix(-1 0 0 1 20 8)" fill="white"/>
<rect width="16" height="4" transform="matrix(-1 0 0 1 28 8)" fill="white"/>
<rect width="4" height="12" transform="matrix(-1 0 0 1 28 8)" fill="white"/>
<rect width="4" height="8" transform="matrix(-1 0 0 1 12 12)" fill="white"/>
<rect width="4" height="12" transform="matrix(1 0 0 -1 64 36)" fill="white"/>
<rect width="16" height="4" transform="matrix(1 0 0 -1 56 36)" fill="white"/>
<rect width="4" height="12" transform="matrix(1 0 0 -1 56 36)" fill="white"/>
<rect width="4" height="8" transform="matrix(1 0 0 -1 72 32)" fill="white"/>
<rect width="12" height="4" transform="matrix(1 0 0 -1 60 12)" fill="white"/>
<rect width="16" height="4" transform="matrix(1 0 0 -1 56 20)" fill="white"/>
<rect width="4" height="8" transform="matrix(1 0 0 -1 56 20)" fill="white"/>
<rect width="4" height="8" transform="matrix(1 0 0 -1 72 16)" fill="white"/>
<rect width="12" height="4" transform="matrix(1 0 0 -1 36 28)" fill="white"/>
<rect width="16" height="4" transform="matrix(1 0 0 -1 32 36)" fill="white"/>
<rect width="4" height="8" transform="matrix(1 0 0 -1 32 36)" fill="white"/>
<rect width="4" height="8" transform="matrix(1 0 0 -1 48 32)" fill="white"/>
<rect x="80" y="8" width="4" height="12" fill="white"/>
<rect x="96" y="8" width="4" height="12" fill="white"/>
<rect x="84" y="8" width="4" height="4" fill="white"/>
<rect x="88" y="12" width="4" height="4" fill="white"/>
<rect x="92" y="16" width="4" height="4" fill="white"/>
<rect x="80" y="24" width="4" height="12" fill="white"/>
<rect x="96" y="24" width="4" height="12" fill="white"/>
<rect x="84" y="24" width="4" height="4" fill="white"/>
<rect x="88" y="28" width="4" height="4" fill="white"/>
<rect x="92" y="32" width="4" height="4" fill="white"/>
<rect width="4" height="12" transform="matrix(-1 0 0 1 52 8)" fill="white"/>
<rect width="4" height="12" transform="matrix(-1 0 0 1 36 8)" fill="white"/>
<rect width="4" height="4" transform="matrix(-1 0 0 1 48 8)" fill="white"/>
<rect width="4" height="4" transform="matrix(-1 0 0 1 44 12)" fill="white"/>
<rect width="4" height="4" transform="matrix(-1 0 0 1 40 16)" fill="white"/>
<rect x="8" y="24" width="20" height="4" fill="white"/>
</svg>
