<svg width="1000" height="500" viewBox="0 0 1000 500" fill="none" xmlns="http://www.w3.org/2000/svg">
<g clip-path="url(#clip0_518_54283)">
<g clip-path="url(#clip1_518_54283)">
<mask id="path-1-inside-1_518_54283" fill="white">
<path d="M0 0H100V100H0V0Z"/>
</mask>
<path d="M0 0H100V100H0V0Z" fill="#C2C2C2"/>
<rect x="50" width="1" height="100" fill="#D9D9D9"/>
<rect x="100.5" y="49.5" width="1" height="100" transform="rotate(90 100.5 49.5)" fill="#D9D9D9"/>
</g>
<path d="M100 100V101H101V100H100ZM100 0H99V100H100H101V0H100ZM100 100V99H0V100V101H100V100Z" fill="black" fill-opacity="0.2" mask="url(#path-1-inside-1_518_54283)"/>
<g clip-path="url(#clip2_518_54283)">
<mask id="path-5-inside-2_518_54283" fill="white">
<path d="M100 0H200V100H100V0Z"/>
</mask>
<path d="M100 0H200V100H100V0Z" fill="#C2C2C2"/>
<rect x="150" width="1" height="100" fill="#D9D9D9"/>
<rect x="200.5" y="49.5" width="1" height="100" transform="rotate(90 200.5 49.5)" fill="#D9D9D9"/>
</g>
<path d="M200 100V101H201V100H200ZM200 0H199V100H200H201V0H200ZM200 100V99H100V100V101H200V100Z" fill="black" fill-opacity="0.2" mask="url(#path-5-inside-2_518_54283)"/>
<g clip-path="url(#clip3_518_54283)">
<mask id="path-9-inside-3_518_54283" fill="white">
<path d="M200 0H300V100H200V0Z"/>
</mask>
<path d="M200 0H300V100H200V0Z" fill="#C2C2C2"/>
<rect x="250" width="1" height="100" fill="#D9D9D9"/>
<rect x="300.5" y="49.5" width="1" height="100" transform="rotate(90 300.5 49.5)" fill="#D9D9D9"/>
</g>
<path d="M300 100V101H301V100H300ZM300 0H299V100H300H301V0H300ZM300 100V99H200V100V101H300V100Z" fill="black" fill-opacity="0.2" mask="url(#path-9-inside-3_518_54283)"/>
<g clip-path="url(#clip4_518_54283)">
<mask id="path-13-inside-4_518_54283" fill="white">
<path d="M300 0H400V100H300V0Z"/>
</mask>
<path d="M300 0H400V100H300V0Z" fill="#C2C2C2"/>
<rect x="350" width="1" height="100" fill="#D9D9D9"/>
<rect x="400.5" y="49.5" width="1" height="100" transform="rotate(90 400.5 49.5)" fill="#D9D9D9"/>
</g>
<path d="M400 100V101H401V100H400ZM400 0H399V100H400H401V0H400ZM400 100V99H300V100V101H400V100Z" fill="black" fill-opacity="0.2" mask="url(#path-13-inside-4_518_54283)"/>
<g clip-path="url(#clip5_518_54283)">
<mask id="path-17-inside-5_518_54283" fill="white">
<path d="M400 0H500V100H400V0Z"/>
</mask>
<path d="M400 0H500V100H400V0Z" fill="#C2C2C2"/>
<rect x="450" width="1" height="100" fill="#D9D9D9"/>
<rect x="500.5" y="49.5" width="1" height="100" transform="rotate(90 500.5 49.5)" fill="#D9D9D9"/>
</g>
<path d="M500 100V101H501V100H500ZM500 0H499V100H500H501V0H500ZM500 100V99H400V100V101H500V100Z" fill="black" fill-opacity="0.2" mask="url(#path-17-inside-5_518_54283)"/>
<g clip-path="url(#clip6_518_54283)">
<mask id="path-21-inside-6_518_54283" fill="white">
<path d="M500 0H600V100H500V0Z"/>
</mask>
<path d="M500 0H600V100H500V0Z" fill="#C2C2C2"/>
<rect x="550" width="1" height="100" fill="#D9D9D9"/>
<rect x="600.5" y="49.5" width="1" height="100" transform="rotate(90 600.5 49.5)" fill="#D9D9D9"/>
</g>
<path d="M600 100V101H601V100H600ZM600 0H599V100H600H601V0H600ZM600 100V99H500V100V101H600V100Z" fill="black" fill-opacity="0.2" mask="url(#path-21-inside-6_518_54283)"/>
<g clip-path="url(#clip7_518_54283)">
<mask id="path-25-inside-7_518_54283" fill="white">
<path d="M600 0H700V100H600V0Z"/>
</mask>
<path d="M600 0H700V100H600V0Z" fill="#C2C2C2"/>
<rect x="650" width="1" height="100" fill="#D9D9D9"/>
<rect x="700.5" y="49.5" width="1" height="100" transform="rotate(90 700.5 49.5)" fill="#D9D9D9"/>
</g>
<path d="M700 100V101H701V100H700ZM700 0H699V100H700H701V0H700ZM700 100V99H600V100V101H700V100Z" fill="black" fill-opacity="0.2" mask="url(#path-25-inside-7_518_54283)"/>
<g clip-path="url(#clip8_518_54283)">
<mask id="path-29-inside-8_518_54283" fill="white">
<path d="M700 0H800V100H700V0Z"/>
</mask>
<path d="M700 0H800V100H700V0Z" fill="#C2C2C2"/>
<rect x="750" width="1" height="100" fill="#D9D9D9"/>
<rect x="800.5" y="49.5" width="1" height="100" transform="rotate(90 800.5 49.5)" fill="#D9D9D9"/>
</g>
<path d="M800 100V101H801V100H800ZM800 0H799V100H800H801V0H800ZM800 100V99H700V100V101H800V100Z" fill="black" fill-opacity="0.2" mask="url(#path-29-inside-8_518_54283)"/>
<g clip-path="url(#clip9_518_54283)">
<mask id="path-33-inside-9_518_54283" fill="white">
<path d="M800 0H900V100H800V0Z"/>
</mask>
<path d="M800 0H900V100H800V0Z" fill="#C2C2C2"/>
<rect x="850" width="1" height="100" fill="#D9D9D9"/>
<rect x="900.5" y="49.5" width="1" height="100" transform="rotate(90 900.5 49.5)" fill="#D9D9D9"/>
</g>
<path d="M900 100V101H901V100H900ZM900 0H899V100H900H901V0H900ZM900 100V99H800V100V101H900V100Z" fill="black" fill-opacity="0.2" mask="url(#path-33-inside-9_518_54283)"/>
<g clip-path="url(#clip10_518_54283)">
<mask id="path-37-inside-10_518_54283" fill="white">
<path d="M900 0H1000V100H900V0Z"/>
</mask>
<path d="M900 0H1000V100H900V0Z" fill="#C2C2C2"/>
<rect x="950" width="1" height="100" fill="#D9D9D9"/>
<rect x="1000.5" y="49.5" width="1" height="100" transform="rotate(90 1000.5 49.5)" fill="#D9D9D9"/>
</g>
<path d="M1000 100V101H1001V100H1000ZM1000 0H999V100H1000H1001V0H1000ZM1000 100V99H900V100V101H1000V100Z" fill="black" fill-opacity="0.2" mask="url(#path-37-inside-10_518_54283)"/>
<g clip-path="url(#clip11_518_54283)">
<mask id="path-41-inside-11_518_54283" fill="white">
<path d="M0 100H100V200H0V100Z"/>
</mask>
<path d="M0 100H100V200H0V100Z" fill="#C2C2C2"/>
<rect x="50" y="100" width="1" height="100" fill="#D9D9D9"/>
<rect x="100.5" y="149.5" width="1" height="100" transform="rotate(90 100.5 149.5)" fill="#D9D9D9"/>
</g>
<path d="M100 200V201H101V200H100ZM100 100H99V200H100H101V100H100ZM100 200V199H0V200V201H100V200Z" fill="black" fill-opacity="0.2" mask="url(#path-41-inside-11_518_54283)"/>
<g clip-path="url(#clip12_518_54283)">
<mask id="path-45-inside-12_518_54283" fill="white">
<path d="M100 100H200V200H100V100Z"/>
</mask>
<path d="M100 100H200V200H100V100Z" fill="#C2C2C2"/>
<rect x="150" y="100" width="1" height="100" fill="#D9D9D9"/>
<rect x="200.5" y="149.5" width="1" height="100" transform="rotate(90 200.5 149.5)" fill="#D9D9D9"/>
</g>
<path d="M200 200V201H201V200H200ZM200 100H199V200H200H201V100H200ZM200 200V199H100V200V201H200V200Z" fill="black" fill-opacity="0.2" mask="url(#path-45-inside-12_518_54283)"/>
<g clip-path="url(#clip13_518_54283)">
<mask id="path-49-inside-13_518_54283" fill="white">
<path d="M200 100H300V200H200V100Z"/>
</mask>
<path d="M200 100H300V200H200V100Z" fill="#C2C2C2"/>
<rect x="250" y="100" width="1" height="100" fill="#D9D9D9"/>
<rect x="300.5" y="149.5" width="1" height="100" transform="rotate(90 300.5 149.5)" fill="#D9D9D9"/>
</g>
<path d="M300 200V201H301V200H300ZM300 100H299V200H300H301V100H300ZM300 200V199H200V200V201H300V200Z" fill="black" fill-opacity="0.2" mask="url(#path-49-inside-13_518_54283)"/>
<g clip-path="url(#clip14_518_54283)">
<mask id="path-53-inside-14_518_54283" fill="white">
<path d="M300 100H400V200H300V100Z"/>
</mask>
<path d="M300 100H400V200H300V100Z" fill="#C2C2C2"/>
<rect x="350" y="100" width="1" height="100" fill="#D9D9D9"/>
<rect x="400.5" y="149.5" width="1" height="100" transform="rotate(90 400.5 149.5)" fill="#D9D9D9"/>
</g>
<path d="M400 200V201H401V200H400ZM400 100H399V200H400H401V100H400ZM400 200V199H300V200V201H400V200Z" fill="black" fill-opacity="0.2" mask="url(#path-53-inside-14_518_54283)"/>
<g clip-path="url(#clip15_518_54283)">
<mask id="path-57-inside-15_518_54283" fill="white">
<path d="M400 100H500V200H400V100Z"/>
</mask>
<path d="M400 100H500V200H400V100Z" fill="#C2C2C2"/>
<rect x="450" y="100" width="1" height="100" fill="#D9D9D9"/>
<rect x="500.5" y="149.5" width="1" height="100" transform="rotate(90 500.5 149.5)" fill="#D9D9D9"/>
</g>
<path d="M500 200V201H501V200H500ZM500 100H499V200H500H501V100H500ZM500 200V199H400V200V201H500V200Z" fill="black" fill-opacity="0.2" mask="url(#path-57-inside-15_518_54283)"/>
<g clip-path="url(#clip16_518_54283)">
<mask id="path-61-inside-16_518_54283" fill="white">
<path d="M500 100H600V200H500V100Z"/>
</mask>
<path d="M500 100H600V200H500V100Z" fill="#C2C2C2"/>
<rect x="550" y="100" width="1" height="100" fill="#D9D9D9"/>
<rect x="600.5" y="149.5" width="1" height="100" transform="rotate(90 600.5 149.5)" fill="#D9D9D9"/>
</g>
<path d="M600 200V201H601V200H600ZM600 100H599V200H600H601V100H600ZM600 200V199H500V200V201H600V200Z" fill="black" fill-opacity="0.2" mask="url(#path-61-inside-16_518_54283)"/>
<g clip-path="url(#clip17_518_54283)">
<mask id="path-65-inside-17_518_54283" fill="white">
<path d="M600 100H700V200H600V100Z"/>
</mask>
<path d="M600 100H700V200H600V100Z" fill="#C2C2C2"/>
<rect x="650" y="100" width="1" height="100" fill="#D9D9D9"/>
<rect x="700.5" y="149.5" width="1" height="100" transform="rotate(90 700.5 149.5)" fill="#D9D9D9"/>
</g>
<path d="M700 200V201H701V200H700ZM700 100H699V200H700H701V100H700ZM700 200V199H600V200V201H700V200Z" fill="black" fill-opacity="0.2" mask="url(#path-65-inside-17_518_54283)"/>
<g clip-path="url(#clip18_518_54283)">
<mask id="path-69-inside-18_518_54283" fill="white">
<path d="M700 100H800V200H700V100Z"/>
</mask>
<path d="M700 100H800V200H700V100Z" fill="#C2C2C2"/>
<rect x="750" y="100" width="1" height="100" fill="#D9D9D9"/>
<rect x="800.5" y="149.5" width="1" height="100" transform="rotate(90 800.5 149.5)" fill="#D9D9D9"/>
</g>
<path d="M800 200V201H801V200H800ZM800 100H799V200H800H801V100H800ZM800 200V199H700V200V201H800V200Z" fill="black" fill-opacity="0.2" mask="url(#path-69-inside-18_518_54283)"/>
<g clip-path="url(#clip19_518_54283)">
<mask id="path-73-inside-19_518_54283" fill="white">
<path d="M800 100H900V200H800V100Z"/>
</mask>
<path d="M800 100H900V200H800V100Z" fill="#C2C2C2"/>
<rect x="850" y="100" width="1" height="100" fill="#D9D9D9"/>
<rect x="900.5" y="149.5" width="1" height="100" transform="rotate(90 900.5 149.5)" fill="#D9D9D9"/>
</g>
<path d="M900 200V201H901V200H900ZM900 100H899V200H900H901V100H900ZM900 200V199H800V200V201H900V200Z" fill="black" fill-opacity="0.2" mask="url(#path-73-inside-19_518_54283)"/>
<g clip-path="url(#clip20_518_54283)">
<mask id="path-77-inside-20_518_54283" fill="white">
<path d="M900 100H1000V200H900V100Z"/>
</mask>
<path d="M900 100H1000V200H900V100Z" fill="#C2C2C2"/>
<rect x="950" y="100" width="1" height="100" fill="#D9D9D9"/>
<rect x="1000.5" y="149.5" width="1" height="100" transform="rotate(90 1000.5 149.5)" fill="#D9D9D9"/>
</g>
<path d="M1000 200V201H1001V200H1000ZM1000 100H999V200H1000H1001V100H1000ZM1000 200V199H900V200V201H1000V200Z" fill="black" fill-opacity="0.2" mask="url(#path-77-inside-20_518_54283)"/>
<g clip-path="url(#clip21_518_54283)">
<mask id="path-81-inside-21_518_54283" fill="white">
<path d="M0 200H100V300H0V200Z"/>
</mask>
<path d="M0 200H100V300H0V200Z" fill="#C2C2C2"/>
<rect x="50" y="200" width="1" height="100" fill="#D9D9D9"/>
<rect x="100.5" y="249.5" width="1" height="100" transform="rotate(90 100.5 249.5)" fill="#D9D9D9"/>
</g>
<path d="M100 300V301H101V300H100ZM100 200H99V300H100H101V200H100ZM100 300V299H0V300V301H100V300Z" fill="black" fill-opacity="0.2" mask="url(#path-81-inside-21_518_54283)"/>
<g clip-path="url(#clip22_518_54283)">
<mask id="path-85-inside-22_518_54283" fill="white">
<path d="M100 200H200V300H100V200Z"/>
</mask>
<path d="M100 200H200V300H100V200Z" fill="#C2C2C2"/>
<rect x="150" y="200" width="1" height="100" fill="#D9D9D9"/>
<rect x="200.5" y="249.5" width="1" height="100" transform="rotate(90 200.5 249.5)" fill="#D9D9D9"/>
</g>
<path d="M200 300V301H201V300H200ZM200 200H199V300H200H201V200H200ZM200 300V299H100V300V301H200V300Z" fill="black" fill-opacity="0.2" mask="url(#path-85-inside-22_518_54283)"/>
<g clip-path="url(#clip23_518_54283)">
<mask id="path-89-inside-23_518_54283" fill="white">
<path d="M200 200H300V300H200V200Z"/>
</mask>
<path d="M200 200H300V300H200V200Z" fill="#C2C2C2"/>
<rect x="250" y="200" width="1" height="100" fill="#D9D9D9"/>
<rect x="300.5" y="249.5" width="1" height="100" transform="rotate(90 300.5 249.5)" fill="#D9D9D9"/>
</g>
<path d="M300 300V301H301V300H300ZM300 200H299V300H300H301V200H300ZM300 300V299H200V300V301H300V300Z" fill="black" fill-opacity="0.2" mask="url(#path-89-inside-23_518_54283)"/>
<g clip-path="url(#clip24_518_54283)">
<mask id="path-93-inside-24_518_54283" fill="white">
<path d="M300 200H400V300H300V200Z"/>
</mask>
<path d="M300 200H400V300H300V200Z" fill="#C2C2C2"/>
<rect x="350" y="200" width="1" height="100" fill="#D9D9D9"/>
<rect x="400.5" y="249.5" width="1" height="100" transform="rotate(90 400.5 249.5)" fill="#D9D9D9"/>
</g>
<path d="M400 300V301H401V300H400ZM400 200H399V300H400H401V200H400ZM400 300V299H300V300V301H400V300Z" fill="black" fill-opacity="0.2" mask="url(#path-93-inside-24_518_54283)"/>
<g clip-path="url(#clip25_518_54283)">
<mask id="path-97-inside-25_518_54283" fill="white">
<path d="M400 200H500V300H400V200Z"/>
</mask>
<path d="M400 200H500V300H400V200Z" fill="#C2C2C2"/>
<rect x="450" y="200" width="1" height="100" fill="#D9D9D9"/>
<rect x="500.5" y="249.5" width="1" height="100" transform="rotate(90 500.5 249.5)" fill="#D9D9D9"/>
</g>
<path d="M500 300V301H501V300H500ZM500 200H499V300H500H501V200H500ZM500 300V299H400V300V301H500V300Z" fill="black" fill-opacity="0.2" mask="url(#path-97-inside-25_518_54283)"/>
<g clip-path="url(#clip26_518_54283)">
<mask id="path-101-inside-26_518_54283" fill="white">
<path d="M500 200H600V300H500V200Z"/>
</mask>
<path d="M500 200H600V300H500V200Z" fill="#C2C2C2"/>
<rect x="550" y="200" width="1" height="100" fill="#D9D9D9"/>
<rect x="600.5" y="249.5" width="1" height="100" transform="rotate(90 600.5 249.5)" fill="#D9D9D9"/>
</g>
<path d="M600 300V301H601V300H600ZM600 200H599V300H600H601V200H600ZM600 300V299H500V300V301H600V300Z" fill="black" fill-opacity="0.2" mask="url(#path-101-inside-26_518_54283)"/>
<g clip-path="url(#clip27_518_54283)">
<mask id="path-105-inside-27_518_54283" fill="white">
<path d="M600 200H700V300H600V200Z"/>
</mask>
<path d="M600 200H700V300H600V200Z" fill="#C2C2C2"/>
<rect x="650" y="200" width="1" height="100" fill="#D9D9D9"/>
<rect x="700.5" y="249.5" width="1" height="100" transform="rotate(90 700.5 249.5)" fill="#D9D9D9"/>
</g>
<path d="M700 300V301H701V300H700ZM700 200H699V300H700H701V200H700ZM700 300V299H600V300V301H700V300Z" fill="black" fill-opacity="0.2" mask="url(#path-105-inside-27_518_54283)"/>
<g clip-path="url(#clip28_518_54283)">
<mask id="path-109-inside-28_518_54283" fill="white">
<path d="M700 200H800V300H700V200Z"/>
</mask>
<path d="M700 200H800V300H700V200Z" fill="#C2C2C2"/>
<rect x="750" y="200" width="1" height="100" fill="#D9D9D9"/>
<rect x="800.5" y="249.5" width="1" height="100" transform="rotate(90 800.5 249.5)" fill="#D9D9D9"/>
</g>
<path d="M800 300V301H801V300H800ZM800 200H799V300H800H801V200H800ZM800 300V299H700V300V301H800V300Z" fill="black" fill-opacity="0.2" mask="url(#path-109-inside-28_518_54283)"/>
<g clip-path="url(#clip29_518_54283)">
<mask id="path-113-inside-29_518_54283" fill="white">
<path d="M800 200H900V300H800V200Z"/>
</mask>
<path d="M800 200H900V300H800V200Z" fill="#C2C2C2"/>
<rect x="850" y="200" width="1" height="100" fill="#D9D9D9"/>
<rect x="900.5" y="249.5" width="1" height="100" transform="rotate(90 900.5 249.5)" fill="#D9D9D9"/>
</g>
<path d="M900 300V301H901V300H900ZM900 200H899V300H900H901V200H900ZM900 300V299H800V300V301H900V300Z" fill="black" fill-opacity="0.2" mask="url(#path-113-inside-29_518_54283)"/>
<g clip-path="url(#clip30_518_54283)">
<mask id="path-117-inside-30_518_54283" fill="white">
<path d="M900 200H1000V300H900V200Z"/>
</mask>
<path d="M900 200H1000V300H900V200Z" fill="#C2C2C2"/>
<rect x="950" y="200" width="1" height="100" fill="#D9D9D9"/>
<rect x="1000.5" y="249.5" width="1" height="100" transform="rotate(90 1000.5 249.5)" fill="#D9D9D9"/>
</g>
<path d="M1000 300V301H1001V300H1000ZM1000 200H999V300H1000H1001V200H1000ZM1000 300V299H900V300V301H1000V300Z" fill="black" fill-opacity="0.2" mask="url(#path-117-inside-30_518_54283)"/>
<g clip-path="url(#clip31_518_54283)">
<mask id="path-121-inside-31_518_54283" fill="white">
<path d="M0 300H100V400H0V300Z"/>
</mask>
<path d="M0 300H100V400H0V300Z" fill="#C2C2C2"/>
<rect x="50" y="300" width="1" height="100" fill="#D9D9D9"/>
<rect x="100.5" y="349.5" width="1" height="100" transform="rotate(90 100.5 349.5)" fill="#D9D9D9"/>
</g>
<path d="M100 400V401H101V400H100ZM100 300H99V400H100H101V300H100ZM100 400V399H0V400V401H100V400Z" fill="black" fill-opacity="0.2" mask="url(#path-121-inside-31_518_54283)"/>
<g clip-path="url(#clip32_518_54283)">
<mask id="path-125-inside-32_518_54283" fill="white">
<path d="M100 300H200V400H100V300Z"/>
</mask>
<path d="M100 300H200V400H100V300Z" fill="#C2C2C2"/>
<rect x="150" y="300" width="1" height="100" fill="#D9D9D9"/>
<rect x="200.5" y="349.5" width="1" height="100" transform="rotate(90 200.5 349.5)" fill="#D9D9D9"/>
</g>
<path d="M200 400V401H201V400H200ZM200 300H199V400H200H201V300H200ZM200 400V399H100V400V401H200V400Z" fill="black" fill-opacity="0.2" mask="url(#path-125-inside-32_518_54283)"/>
<g clip-path="url(#clip33_518_54283)">
<mask id="path-129-inside-33_518_54283" fill="white">
<path d="M200 300H300V400H200V300Z"/>
</mask>
<path d="M200 300H300V400H200V300Z" fill="#C2C2C2"/>
<rect x="250" y="300" width="1" height="100" fill="#D9D9D9"/>
<rect x="300.5" y="349.5" width="1" height="100" transform="rotate(90 300.5 349.5)" fill="#D9D9D9"/>
</g>
<path d="M300 400V401H301V400H300ZM300 300H299V400H300H301V300H300ZM300 400V399H200V400V401H300V400Z" fill="black" fill-opacity="0.2" mask="url(#path-129-inside-33_518_54283)"/>
<g clip-path="url(#clip34_518_54283)">
<mask id="path-133-inside-34_518_54283" fill="white">
<path d="M300 300H400V400H300V300Z"/>
</mask>
<path d="M300 300H400V400H300V300Z" fill="#C2C2C2"/>
<rect x="350" y="300" width="1" height="100" fill="#D9D9D9"/>
<rect x="400.5" y="349.5" width="1" height="100" transform="rotate(90 400.5 349.5)" fill="#D9D9D9"/>
</g>
<path d="M400 400V401H401V400H400ZM400 300H399V400H400H401V300H400ZM400 400V399H300V400V401H400V400Z" fill="black" fill-opacity="0.2" mask="url(#path-133-inside-34_518_54283)"/>
<g clip-path="url(#clip35_518_54283)">
<mask id="path-137-inside-35_518_54283" fill="white">
<path d="M400 300H500V400H400V300Z"/>
</mask>
<path d="M400 300H500V400H400V300Z" fill="#C2C2C2"/>
<rect x="450" y="300" width="1" height="100" fill="#D9D9D9"/>
<rect x="500.5" y="349.5" width="1" height="100" transform="rotate(90 500.5 349.5)" fill="#D9D9D9"/>
</g>
<path d="M500 400V401H501V400H500ZM500 300H499V400H500H501V300H500ZM500 400V399H400V400V401H500V400Z" fill="black" fill-opacity="0.2" mask="url(#path-137-inside-35_518_54283)"/>
<g clip-path="url(#clip36_518_54283)">
<mask id="path-141-inside-36_518_54283" fill="white">
<path d="M500 300H600V400H500V300Z"/>
</mask>
<path d="M500 300H600V400H500V300Z" fill="#C2C2C2"/>
<rect x="550" y="300" width="1" height="100" fill="#D9D9D9"/>
<rect x="600.5" y="349.5" width="1" height="100" transform="rotate(90 600.5 349.5)" fill="#D9D9D9"/>
</g>
<path d="M600 400V401H601V400H600ZM600 300H599V400H600H601V300H600ZM600 400V399H500V400V401H600V400Z" fill="black" fill-opacity="0.2" mask="url(#path-141-inside-36_518_54283)"/>
<g clip-path="url(#clip37_518_54283)">
<mask id="path-145-inside-37_518_54283" fill="white">
<path d="M600 300H700V400H600V300Z"/>
</mask>
<path d="M600 300H700V400H600V300Z" fill="#C2C2C2"/>
<rect x="650" y="300" width="1" height="100" fill="#D9D9D9"/>
<rect x="700.5" y="349.5" width="1" height="100" transform="rotate(90 700.5 349.5)" fill="#D9D9D9"/>
</g>
<path d="M700 400V401H701V400H700ZM700 300H699V400H700H701V300H700ZM700 400V399H600V400V401H700V400Z" fill="black" fill-opacity="0.2" mask="url(#path-145-inside-37_518_54283)"/>
<g clip-path="url(#clip38_518_54283)">
<mask id="path-149-inside-38_518_54283" fill="white">
<path d="M700 300H800V400H700V300Z"/>
</mask>
<path d="M700 300H800V400H700V300Z" fill="#C2C2C2"/>
<rect x="750" y="300" width="1" height="100" fill="#D9D9D9"/>
<rect x="800.5" y="349.5" width="1" height="100" transform="rotate(90 800.5 349.5)" fill="#D9D9D9"/>
</g>
<path d="M800 400V401H801V400H800ZM800 300H799V400H800H801V300H800ZM800 400V399H700V400V401H800V400Z" fill="black" fill-opacity="0.2" mask="url(#path-149-inside-38_518_54283)"/>
<g clip-path="url(#clip39_518_54283)">
<mask id="path-153-inside-39_518_54283" fill="white">
<path d="M800 300H900V400H800V300Z"/>
</mask>
<path d="M800 300H900V400H800V300Z" fill="#C2C2C2"/>
<rect x="850" y="300" width="1" height="100" fill="#D9D9D9"/>
<rect x="900.5" y="349.5" width="1" height="100" transform="rotate(90 900.5 349.5)" fill="#D9D9D9"/>
</g>
<path d="M900 400V401H901V400H900ZM900 300H899V400H900H901V300H900ZM900 400V399H800V400V401H900V400Z" fill="black" fill-opacity="0.2" mask="url(#path-153-inside-39_518_54283)"/>
<g clip-path="url(#clip40_518_54283)">
<mask id="path-157-inside-40_518_54283" fill="white">
<path d="M900 300H1000V400H900V300Z"/>
</mask>
<path d="M900 300H1000V400H900V300Z" fill="#C2C2C2"/>
<rect x="950" y="300" width="1" height="100" fill="#D9D9D9"/>
<rect x="1000.5" y="349.5" width="1" height="100" transform="rotate(90 1000.5 349.5)" fill="#D9D9D9"/>
</g>
<path d="M1000 400V401H1001V400H1000ZM1000 300H999V400H1000H1001V300H1000ZM1000 400V399H900V400V401H1000V400Z" fill="black" fill-opacity="0.2" mask="url(#path-157-inside-40_518_54283)"/>
<g clip-path="url(#clip41_518_54283)">
<mask id="path-161-inside-41_518_54283" fill="white">
<path d="M0 400H100V500H0V400Z"/>
</mask>
<path d="M0 400H100V500H0V400Z" fill="#C2C2C2"/>
<rect x="50" y="400" width="1" height="100" fill="#D9D9D9"/>
<rect x="100.5" y="449.5" width="1" height="100" transform="rotate(90 100.5 449.5)" fill="#D9D9D9"/>
</g>
<path d="M100 500V501H101V500H100ZM100 400H99V500H100H101V400H100ZM100 500V499H0V500V501H100V500Z" fill="black" fill-opacity="0.2" mask="url(#path-161-inside-41_518_54283)"/>
<g clip-path="url(#clip42_518_54283)">
<mask id="path-165-inside-42_518_54283" fill="white">
<path d="M100 400H200V500H100V400Z"/>
</mask>
<path d="M100 400H200V500H100V400Z" fill="#C2C2C2"/>
<rect x="150" y="400" width="1" height="100" fill="#D9D9D9"/>
<rect x="200.5" y="449.5" width="1" height="100" transform="rotate(90 200.5 449.5)" fill="#D9D9D9"/>
</g>
<path d="M200 500V501H201V500H200ZM200 400H199V500H200H201V400H200ZM200 500V499H100V500V501H200V500Z" fill="black" fill-opacity="0.2" mask="url(#path-165-inside-42_518_54283)"/>
<g clip-path="url(#clip43_518_54283)">
<mask id="path-169-inside-43_518_54283" fill="white">
<path d="M200 400H300V500H200V400Z"/>
</mask>
<path d="M200 400H300V500H200V400Z" fill="#C2C2C2"/>
<rect x="250" y="400" width="1" height="100" fill="#D9D9D9"/>
<rect x="300.5" y="449.5" width="1" height="100" transform="rotate(90 300.5 449.5)" fill="#D9D9D9"/>
</g>
<path d="M300 500V501H301V500H300ZM300 400H299V500H300H301V400H300ZM300 500V499H200V500V501H300V500Z" fill="black" fill-opacity="0.2" mask="url(#path-169-inside-43_518_54283)"/>
<g clip-path="url(#clip44_518_54283)">
<mask id="path-173-inside-44_518_54283" fill="white">
<path d="M300 400H400V500H300V400Z"/>
</mask>
<path d="M300 400H400V500H300V400Z" fill="#C2C2C2"/>
<rect x="350" y="400" width="1" height="100" fill="#D9D9D9"/>
<rect x="400.5" y="449.5" width="1" height="100" transform="rotate(90 400.5 449.5)" fill="#D9D9D9"/>
</g>
<path d="M400 500V501H401V500H400ZM400 400H399V500H400H401V400H400ZM400 500V499H300V500V501H400V500Z" fill="black" fill-opacity="0.2" mask="url(#path-173-inside-44_518_54283)"/>
<g clip-path="url(#clip45_518_54283)">
<mask id="path-177-inside-45_518_54283" fill="white">
<path d="M400 400H500V500H400V400Z"/>
</mask>
<path d="M400 400H500V500H400V400Z" fill="#C2C2C2"/>
<rect x="450" y="400" width="1" height="100" fill="#D9D9D9"/>
<rect x="500.5" y="449.5" width="1" height="100" transform="rotate(90 500.5 449.5)" fill="#D9D9D9"/>
</g>
<path d="M500 500V501H501V500H500ZM500 400H499V500H500H501V400H500ZM500 500V499H400V500V501H500V500Z" fill="black" fill-opacity="0.2" mask="url(#path-177-inside-45_518_54283)"/>
<g clip-path="url(#clip46_518_54283)">
<mask id="path-181-inside-46_518_54283" fill="white">
<path d="M500 400H600V500H500V400Z"/>
</mask>
<path d="M500 400H600V500H500V400Z" fill="#C2C2C2"/>
<rect x="550" y="400" width="1" height="100" fill="#D9D9D9"/>
<rect x="600.5" y="449.5" width="1" height="100" transform="rotate(90 600.5 449.5)" fill="#D9D9D9"/>
</g>
<path d="M600 500V501H601V500H600ZM600 400H599V500H600H601V400H600ZM600 500V499H500V500V501H600V500Z" fill="black" fill-opacity="0.2" mask="url(#path-181-inside-46_518_54283)"/>
<g clip-path="url(#clip47_518_54283)">
<mask id="path-185-inside-47_518_54283" fill="white">
<path d="M600 400H700V500H600V400Z"/>
</mask>
<path d="M600 400H700V500H600V400Z" fill="#C2C2C2"/>
<rect x="650" y="400" width="1" height="100" fill="#D9D9D9"/>
<rect x="700.5" y="449.5" width="1" height="100" transform="rotate(90 700.5 449.5)" fill="#D9D9D9"/>
</g>
<path d="M700 500V501H701V500H700ZM700 400H699V500H700H701V400H700ZM700 500V499H600V500V501H700V500Z" fill="black" fill-opacity="0.2" mask="url(#path-185-inside-47_518_54283)"/>
<g clip-path="url(#clip48_518_54283)">
<mask id="path-189-inside-48_518_54283" fill="white">
<path d="M700 400H800V500H700V400Z"/>
</mask>
<path d="M700 400H800V500H700V400Z" fill="#C2C2C2"/>
<rect x="750" y="400" width="1" height="100" fill="#D9D9D9"/>
<rect x="800.5" y="449.5" width="1" height="100" transform="rotate(90 800.5 449.5)" fill="#D9D9D9"/>
</g>
<path d="M800 500V501H801V500H800ZM800 400H799V500H800H801V400H800ZM800 500V499H700V500V501H800V500Z" fill="black" fill-opacity="0.2" mask="url(#path-189-inside-48_518_54283)"/>
<g clip-path="url(#clip49_518_54283)">
<mask id="path-193-inside-49_518_54283" fill="white">
<path d="M800 400H900V500H800V400Z"/>
</mask>
<path d="M800 400H900V500H800V400Z" fill="#C2C2C2"/>
<rect x="850" y="400" width="1" height="100" fill="#D9D9D9"/>
<rect x="900.5" y="449.5" width="1" height="100" transform="rotate(90 900.5 449.5)" fill="#D9D9D9"/>
</g>
<path d="M900 500V501H901V500H900ZM900 400H899V500H900H901V400H900ZM900 500V499H800V500V501H900V500Z" fill="black" fill-opacity="0.2" mask="url(#path-193-inside-49_518_54283)"/>
<g clip-path="url(#clip50_518_54283)">
<mask id="path-197-inside-50_518_54283" fill="white">
<path d="M900 400H1000V500H900V400Z"/>
</mask>
<path d="M900 400H1000V500H900V400Z" fill="#C2C2C2"/>
<rect x="950" y="400" width="1" height="100" fill="#D9D9D9"/>
<rect x="1000.5" y="449.5" width="1" height="100" transform="rotate(90 1000.5 449.5)" fill="#D9D9D9"/>
</g>
<path d="M1000 500V501H1001V500H1000ZM1000 400H999V500H1000H1001V400H1000ZM1000 500V499H900V500V501H1000V500Z" fill="black" fill-opacity="0.2" mask="url(#path-197-inside-50_518_54283)"/>
</g>
<defs>
<clipPath id="clip0_518_54283">
<rect width="1000" height="500" fill="white"/>
</clipPath>
<clipPath id="clip1_518_54283">
<path d="M0 0H100V100H0V0Z" fill="white"/>
</clipPath>
<clipPath id="clip2_518_54283">
<path d="M100 0H200V100H100V0Z" fill="white"/>
</clipPath>
<clipPath id="clip3_518_54283">
<path d="M200 0H300V100H200V0Z" fill="white"/>
</clipPath>
<clipPath id="clip4_518_54283">
<path d="M300 0H400V100H300V0Z" fill="white"/>
</clipPath>
<clipPath id="clip5_518_54283">
<path d="M400 0H500V100H400V0Z" fill="white"/>
</clipPath>
<clipPath id="clip6_518_54283">
<path d="M500 0H600V100H500V0Z" fill="white"/>
</clipPath>
<clipPath id="clip7_518_54283">
<path d="M600 0H700V100H600V0Z" fill="white"/>
</clipPath>
<clipPath id="clip8_518_54283">
<path d="M700 0H800V100H700V0Z" fill="white"/>
</clipPath>
<clipPath id="clip9_518_54283">
<path d="M800 0H900V100H800V0Z" fill="white"/>
</clipPath>
<clipPath id="clip10_518_54283">
<path d="M900 0H1000V100H900V0Z" fill="white"/>
</clipPath>
<clipPath id="clip11_518_54283">
<path d="M0 100H100V200H0V100Z" fill="white"/>
</clipPath>
<clipPath id="clip12_518_54283">
<path d="M100 100H200V200H100V100Z" fill="white"/>
</clipPath>
<clipPath id="clip13_518_54283">
<path d="M200 100H300V200H200V100Z" fill="white"/>
</clipPath>
<clipPath id="clip14_518_54283">
<path d="M300 100H400V200H300V100Z" fill="white"/>
</clipPath>
<clipPath id="clip15_518_54283">
<path d="M400 100H500V200H400V100Z" fill="white"/>
</clipPath>
<clipPath id="clip16_518_54283">
<path d="M500 100H600V200H500V100Z" fill="white"/>
</clipPath>
<clipPath id="clip17_518_54283">
<path d="M600 100H700V200H600V100Z" fill="white"/>
</clipPath>
<clipPath id="clip18_518_54283">
<path d="M700 100H800V200H700V100Z" fill="white"/>
</clipPath>
<clipPath id="clip19_518_54283">
<path d="M800 100H900V200H800V100Z" fill="white"/>
</clipPath>
<clipPath id="clip20_518_54283">
<path d="M900 100H1000V200H900V100Z" fill="white"/>
</clipPath>
<clipPath id="clip21_518_54283">
<path d="M0 200H100V300H0V200Z" fill="white"/>
</clipPath>
<clipPath id="clip22_518_54283">
<path d="M100 200H200V300H100V200Z" fill="white"/>
</clipPath>
<clipPath id="clip23_518_54283">
<path d="M200 200H300V300H200V200Z" fill="white"/>
</clipPath>
<clipPath id="clip24_518_54283">
<path d="M300 200H400V300H300V200Z" fill="white"/>
</clipPath>
<clipPath id="clip25_518_54283">
<path d="M400 200H500V300H400V200Z" fill="white"/>
</clipPath>
<clipPath id="clip26_518_54283">
<path d="M500 200H600V300H500V200Z" fill="white"/>
</clipPath>
<clipPath id="clip27_518_54283">
<path d="M600 200H700V300H600V200Z" fill="white"/>
</clipPath>
<clipPath id="clip28_518_54283">
<path d="M700 200H800V300H700V200Z" fill="white"/>
</clipPath>
<clipPath id="clip29_518_54283">
<path d="M800 200H900V300H800V200Z" fill="white"/>
</clipPath>
<clipPath id="clip30_518_54283">
<path d="M900 200H1000V300H900V200Z" fill="white"/>
</clipPath>
<clipPath id="clip31_518_54283">
<path d="M0 300H100V400H0V300Z" fill="white"/>
</clipPath>
<clipPath id="clip32_518_54283">
<path d="M100 300H200V400H100V300Z" fill="white"/>
</clipPath>
<clipPath id="clip33_518_54283">
<path d="M200 300H300V400H200V300Z" fill="white"/>
</clipPath>
<clipPath id="clip34_518_54283">
<path d="M300 300H400V400H300V300Z" fill="white"/>
</clipPath>
<clipPath id="clip35_518_54283">
<path d="M400 300H500V400H400V300Z" fill="white"/>
</clipPath>
<clipPath id="clip36_518_54283">
<path d="M500 300H600V400H500V300Z" fill="white"/>
</clipPath>
<clipPath id="clip37_518_54283">
<path d="M600 300H700V400H600V300Z" fill="white"/>
</clipPath>
<clipPath id="clip38_518_54283">
<path d="M700 300H800V400H700V300Z" fill="white"/>
</clipPath>
<clipPath id="clip39_518_54283">
<path d="M800 300H900V400H800V300Z" fill="white"/>
</clipPath>
<clipPath id="clip40_518_54283">
<path d="M900 300H1000V400H900V300Z" fill="white"/>
</clipPath>
<clipPath id="clip41_518_54283">
<path d="M0 400H100V500H0V400Z" fill="white"/>
</clipPath>
<clipPath id="clip42_518_54283">
<path d="M100 400H200V500H100V400Z" fill="white"/>
</clipPath>
<clipPath id="clip43_518_54283">
<path d="M200 400H300V500H200V400Z" fill="white"/>
</clipPath>
<clipPath id="clip44_518_54283">
<path d="M300 400H400V500H300V400Z" fill="white"/>
</clipPath>
<clipPath id="clip45_518_54283">
<path d="M400 400H500V500H400V400Z" fill="white"/>
</clipPath>
<clipPath id="clip46_518_54283">
<path d="M500 400H600V500H500V400Z" fill="white"/>
</clipPath>
<clipPath id="clip47_518_54283">
<path d="M600 400H700V500H600V400Z" fill="white"/>
</clipPath>
<clipPath id="clip48_518_54283">
<path d="M700 400H800V500H700V400Z" fill="white"/>
</clipPath>
<clipPath id="clip49_518_54283">
<path d="M800 400H900V500H800V400Z" fill="white"/>
</clipPath>
<clipPath id="clip50_518_54283">
<path d="M900 400H1000V500H900V400Z" fill="white"/>
</clipPath>
</defs>
</svg>
