<svg width="1680" height="848" viewBox="0 0 1680 848" fill="none" xmlns="http://www.w3.org/2000/svg">
<g clip-path="url(#clip0_228_4911)">
<rect x="-160" y="-287" width="2062" height="648" fill="url(#paint0_linear_228_4911)"/>
<circle opacity="0.1" cx="740" cy="63" r="20" fill="url(#paint1_linear_228_4911)"/>
<path opacity="0.1" d="M734.137 93V114.5C734.137 114.5 707.235 80.097 679 64.5C642.516 44.346 572.5 57.5 572.5 57.5V50L617.5 35V29.5C617.5 29.5 557.888 20.5951 519.5 21.5C486.69 22.2734 436 31 436 31C448.772 -13.6139 409.924 -12.2985 376 2V-27L-168 -207V-461L122 -355V-291L337 -169L290 -173L376 -108V-92.5L427 -63C467.115 -80.0057 589.971 -106.729 576.796 -47H690.21V-34.5L600 -2C666.416 -11.5376 825 -47.6564 825 53.5V93H734.137Z" fill="url(#paint2_linear_228_4911)"/>
<path opacity="0.1" d="M423.202 90.9998V60.9999C541.95 62.6235 647.202 88.8626 754 141C649.609 128.211 556.036 138.616 460 181C263.627 37.1646 12.2157 105.8 -191.5 209L-191.5 -21.5001C28.915 -50.695 237.397 -15.0133 423.202 90.9998Z" fill="url(#paint3_linear_228_4911)"/>
<path opacity="0.1" d="M1085.5 38L1090.5 9.5C1319 9.5 1582.69 -146.844 1678 -355H1844V-54C1709.33 51.51 1571.17 98.8414 1400 102C1358 102 1336 134 1336 154.037H1190L1297 173C1267 173 1257.5 179.5 1257.5 193C1202.29 163.321 1147.85 148.808 1085.5 154.037C1085.5 112.5 1040 102 1007.65 102C1007.65 57.5 990 32.1838 916.5 32.1838C916.5 -3 944 -34.9987 989 -34.9987V-65.9987C1048.5 -65.9987 1085.5 -35 1085.5 38Z" fill="url(#paint4_linear_228_4911)"/>
<path opacity="0.1" d="M834.5 170C834.5 131 792.5 99.5001 732 99.5001V108.5C687.014 59.4149 639.144 40.5634 573 56.5001V50L617.5 35.0001V30.5C617.5 30.5 500.5 0.500044 367 51.0001" stroke="url(#paint5_linear_228_4911)" stroke-width="2"/>
<path opacity="0.1" d="M772 94C772 42.5 814 19.5 874.5 19.5V40.5C874.5 -6 907 -39.4999 965.5 -39.4999V-42H948C948 -95 1018 -98 1068 -98" stroke="url(#paint6_linear_228_4911)" stroke-width="2"/>
<path opacity="0.1" d="M988 102C918 102 879 144 879 180L925 190C879 190 806.5 163.5 717 203.5L751 211C535 282 499 151 277 289" stroke="url(#paint7_linear_228_4911)" stroke-width="2"/>
<path d="M1358 217H1359V275.75L1355 306.5L1359 337.25V368H1346L1350 337.25L1346 306.5L1354 275.75L1358 217Z" fill="#212220" stroke="black" stroke-width="2"/>
<path d="M1402 324H1355V327L1363.5 330H1382V333L1391 330.158V332.158L1402 327V324Z" fill="url(#paint8_linear_228_4911)" stroke="black" stroke-width="2"/>
<path d="M1398 312H1352V318H1378V325L1387 318V324L1398 312Z" fill="url(#paint9_linear_228_4911)" stroke="black" stroke-width="2"/>
<path d="M1385.5 270H1335L1348 272V275H1366.5V280.5L1379 275V280L1385.5 270Z" fill="url(#paint10_linear_228_4911)" stroke="black" stroke-width="2"/>
<path d="M1381.5 260H1335V265.222H1363V270.222L1371.5 265.5L1375 269L1381.5 260Z" fill="url(#paint11_linear_228_4911)" stroke="black" stroke-width="2"/>
<path d="M1375 257L1381.5 248H1349L1338 246L1343 250L1343.5 254H1362.5V258.5L1371.5 253.5L1375 257Z" fill="url(#paint12_linear_228_4911)" stroke="black" stroke-width="2"/>
<path d="M1306 330V328H1325L1330 324H1352L1347 326L1345 330H1325V335H1316.5L1306 330Z" fill="url(#paint13_linear_228_4911)" stroke="black" stroke-width="2"/>
<path d="M1328 322H1325L1310.5 315H1328V310H1348V319H1328V322Z" fill="url(#paint14_linear_228_4911)" stroke="black" stroke-width="2"/>
<path d="M1387 312L1395 304H1380L1374.75 300H1351.5L1360 306H1379V308H1387V312Z" fill="url(#paint15_linear_228_4911)" stroke="black" stroke-width="2"/>
<path d="M1375 300H1383.5L1391 293H1376L1370.75 290H1347.5L1356 295H1375V300Z" fill="url(#paint16_linear_228_4911)" stroke="black" stroke-width="2"/>
<path d="M1371 290H1379.5L1384.5 283H1372L1366.75 280H1343.5L1352 284V286H1371V290Z" fill="url(#paint17_linear_228_4911)" stroke="black" stroke-width="2"/>
<path d="M1335 265V264H1352L1357.25 260H1385L1375.5 262L1372 266H1353V270H1344.5L1335 265Z" fill="url(#paint18_linear_228_4911)" stroke="black" stroke-width="2"/>
<path d="M1353 260H1344.5L1338 253H1349L1357.25 248H1375V250L1371 254H1353V260Z" fill="url(#paint19_linear_228_4911)" stroke="black" stroke-width="2"/>
<path d="M1359 245H1354L1346 238H1359L1363 235H1376L1366 237V240H1359V245Z" fill="url(#paint20_linear_228_4911)" stroke="black" stroke-width="2"/>
<path d="M1350 233V228H1355L1357.38 225H1369L1365 228V230H1356L1358 235H1354L1350 233Z" fill="url(#paint21_linear_228_4911)" stroke="black" stroke-width="2"/>
<path d="M1340 324V321L1334 317V314H1353V312H1381V314L1372 318H1353V324H1340Z" fill="url(#paint22_linear_228_4911)" stroke="black" stroke-width="2"/>
<path d="M1334 337V334H1355L1358 330H1380L1371 333L1374 336H1353V341H1344L1334 337Z" fill="url(#paint23_linear_228_4911)" stroke="black" stroke-width="2"/>
<path d="M1324 309L1313 300H1320L1331 304V300H1361L1351 303V306H1334V311L1324 307V309Z" fill="url(#paint24_linear_228_4911)" stroke="black" stroke-width="2"/>
<path d="M1321 290H1360V292L1356.5 295.5H1349V300.5L1336 295L1328 298L1321 290Z" fill="url(#paint25_linear_228_4911)" stroke="black" stroke-width="2"/>
<path d="M1326 280H1360V286H1341V290.694L1332.5 285.5L1329 289L1326 280Z" fill="url(#paint26_linear_228_4911)" stroke="black" stroke-width="2"/>
<path d="M1337 277L1326.5 274H1341L1349.25 270H1372.5L1364 272V275H1350L1345 282H1337V277Z" fill="url(#paint27_linear_228_4911)" stroke="black" stroke-width="2"/>
<path d="M1186.07 355.997L1905 305.073V630H-207V306.06L479.942 345.998L480.263 346.017L480.534 345.845L669.825 226.294L689.26 247.673L689.558 248H690H715.8L823.615 292.923L823.947 293.061L824.29 292.957L890.011 273.042L1185.73 355.963L1185.9 356.01L1186.07 355.997Z" fill="#232F39" stroke="black" stroke-width="2"/>
<path d="M875.03 379.485L1905 348.531V916H-155L-155 322.077L359.426 360.492L359.427 360.493L617.177 379.483L617.213 379.486H617.25H875H875.015L875.03 379.485Z" fill="url(#paint28_linear_228_4911)" stroke="black" stroke-width="2"/>
<path d="M801 410H861L1008 473.427V512H965L1268 921H579L610 724L510 535H661L719 489.969H765.5L730.5 480.194L801 440V410Z" fill="#393830" stroke="black" stroke-width="2"/>
<path d="M987.218 393.962L1509.21 381L1606.01 393.962L1524.19 413.405V485.506L1876 686.418V909.5H1301L980 524L1047 486H1080V468L895 414V410H926L987.218 393.962Z" fill="#393830" stroke="black" stroke-width="2"/>
<path d="M26 393V387.926L373 387L790 410V414.467L776 422H797V433.989L576.5 535H495L552 722.642L438 879.716L-74 891L-123 762.642L-94 536.958H-48L184 410.011L26 393Z" fill="#393830" stroke="black" stroke-width="2"/>
<path d="M1154.08 291.401L1126.96 229.407L1094.9 296.763L1093.99 298.678L1093.09 296.757L1056.21 217.816L1032.96 296.616L1032.15 299.368L1031.07 296.708L1003.94 229.519L972.908 296.752L971.812 299.127L971.044 296.627L955.074 244.645L922.298 369H1310V360.891L1241.88 352.993L1241.15 352.908L1241.02 352.179L1233.02 308.179L1232.93 307.682L1233.27 307.315L1248.95 290.657L1241.09 227.751C1214.17 218.932 1192.89 220.699 1178.39 231.44C1163.78 242.265 1155.76 262.429 1156 290.991L1154.08 291.401Z" fill="#333435" stroke="black" stroke-width="2"/>
<path d="M696.351 194.893L664.442 284.336L663.564 286.795L662.575 284.379L629.521 203.689L597.931 284.365L597.682 285H597H541H540.235L540.035 284.262L518.362 204.313L487.69 288.874L486.91 291.025L485.861 288.992L455.083 229.342L426.169 296.728L425.102 299.215L424.295 296.631L395.359 203.905L356.171 296.722L355.285 298.822L354.34 296.748L314.96 210.258L271.895 296.779L271.016 298.545L270.111 296.792L243.111 244.458L242.359 243H244H248.353L224.036 196.236L201.589 243H211H212.577L211.904 244.427L191.246 288.237L200.615 295.545L201.197 295.999L200.935 296.689L173.45 369H729V320.128L696.351 194.893Z" fill="#333435" stroke="black" stroke-width="2"/>
<path d="M497 370H643V301.81L570 264.125L497 301.81V370Z" fill="#131415" stroke="black" stroke-width="2"/>
<path d="M177 366H223V345.887L200 328.26L177 345.887V366Z" fill="#131415" stroke="black" stroke-width="2"/>
<path d="M797 370H913V327.423L855 292.17L797 327.423V370Z" fill="#242527" stroke="black" stroke-width="2"/>
<path d="M570 371H832V287.838L772 251H655L585 289V336H570V371Z" fill="#202124" stroke="black" stroke-width="2"/>
<rect x="624" y="309" width="32" height="47" fill="#202124" stroke="black" stroke-width="2"/>
<path d="M613 311H667L669 303H611L613 311Z" fill="#1B1C1F" stroke="black" stroke-width="2"/>
<path d="M614 329H666V323H614V329Z" fill="#1B1C1F" stroke="black" stroke-width="2"/>
<path d="M614 341H656V335H614V341Z" fill="#1B1C1F" stroke="black" stroke-width="2"/>
<path d="M614 354H656V347H614V354Z" fill="#1B1C1F" stroke="black" stroke-width="2"/>
<path d="M616 361H624V303H616V361Z" fill="#1B1C1F" stroke="black" stroke-width="2"/>
<path d="M656 361H664V303H656V361Z" fill="#1B1C1F" stroke="black" stroke-width="2"/>
<path d="M636 303H644V297H636V303Z" fill="#1B1C1F" stroke="black" stroke-width="2"/>
<path d="M769 284H775V251H769V284Z" fill="#2E2E2E" stroke="black" stroke-width="2"/>
<path d="M763 284H769V282L743 261V268L763 284Z" fill="#2E2E2E" stroke="black" stroke-width="2"/>
<path d="M781 284H775V282L801 261V268L781 284Z" fill="#2E2E2E" stroke="black" stroke-width="2"/>
<path d="M824 363H832V283H824V363Z" fill="#2E2E2E" stroke="black" stroke-width="2"/>
<path d="M712 363H720V283H712V363Z" fill="#2E2E2E" stroke="black" stroke-width="2"/>
<path d="M704 363H712V283H704V363Z" fill="#1B1C1F" stroke="black" stroke-width="2"/>
<path d="M680 315H688V331H680V315Z" fill="#121212" stroke="black" stroke-width="2"/>
<path d="M684 307H688V298H684V307Z" fill="#2E2E2E" stroke="black" stroke-width="2"/>
<path d="M644 307H648V298H644V307Z" fill="#1B1C1F" stroke="black" stroke-width="2"/>
<path d="M605 307H609V298H605V307Z" fill="#1B1C1F" stroke="black" stroke-width="2"/>
<path d="M567 307H571V298H567V307Z" fill="#1B1C1F" stroke="black" stroke-width="2"/>
<g opacity="0.2">
<mask id="path-60-inside-1_228_4911" fill="white">
<path d="M593 290H601V356H593V290Z"/>
</mask>
<path d="M593 290H601V356H593V290Z" fill="#D9D9D9" fill-opacity="0.01"/>
<path d="M599 290V356H603V290H599Z" fill="url(#paint29_linear_228_4911)" mask="url(#path-60-inside-1_228_4911)"/>
<mask id="path-62-inside-2_228_4911" fill="white">
<path d="M601 290H609V356H601V290Z"/>
</mask>
<path d="M601 290H609V356H601V290Z" fill="#D9D9D9" fill-opacity="0.01"/>
<path d="M607 290V356H611V290H607Z" fill="url(#paint30_linear_228_4911)" mask="url(#path-62-inside-2_228_4911)"/>
<mask id="path-64-inside-3_228_4911" fill="white">
<path d="M609 290H617V356H609V290Z"/>
</mask>
<path d="M609 290H617V356H609V290Z" fill="#D9D9D9" fill-opacity="0.01"/>
<path d="M615 290V356H619V290H615Z" fill="url(#paint31_linear_228_4911)" mask="url(#path-64-inside-3_228_4911)"/>
<mask id="path-66-inside-4_228_4911" fill="white">
<path d="M617 290H625V356H617V290Z"/>
</mask>
<path d="M617 290H625V356H617V290Z" fill="#D9D9D9" fill-opacity="0.01"/>
<path d="M623 290V356H627V290H623Z" fill="url(#paint32_linear_228_4911)" mask="url(#path-66-inside-4_228_4911)"/>
<mask id="path-68-inside-5_228_4911" fill="white">
<path d="M625 290H633V356H625V290Z"/>
</mask>
<path d="M625 290H633V356H625V290Z" fill="#D9D9D9" fill-opacity="0.01"/>
<path d="M631 290V356H635V290H631Z" fill="url(#paint33_linear_228_4911)" mask="url(#path-68-inside-5_228_4911)"/>
<mask id="path-70-inside-6_228_4911" fill="white">
<path d="M633 290H641V356H633V290Z"/>
</mask>
<path d="M633 290H641V356H633V290Z" fill="#D9D9D9" fill-opacity="0.01"/>
<path d="M639 290V356H643V290H639Z" fill="url(#paint34_linear_228_4911)" mask="url(#path-70-inside-6_228_4911)"/>
<mask id="path-72-inside-7_228_4911" fill="white">
<path d="M641 290H649V356H641V290Z"/>
</mask>
<path d="M641 290H649V356H641V290Z" fill="#D9D9D9" fill-opacity="0.01"/>
<path d="M647 290V356H651V290H647Z" fill="url(#paint35_linear_228_4911)" mask="url(#path-72-inside-7_228_4911)"/>
<mask id="path-74-inside-8_228_4911" fill="white">
<path d="M649 290H657V356H649V290Z"/>
</mask>
<path d="M649 290H657V356H649V290Z" fill="#D9D9D9" fill-opacity="0.01"/>
<path d="M655 290V356H659V290H655Z" fill="url(#paint36_linear_228_4911)" mask="url(#path-74-inside-8_228_4911)"/>
<mask id="path-76-inside-9_228_4911" fill="white">
<path d="M657 290H665V356H657V290Z"/>
</mask>
<path d="M657 290H665V356H657V290Z" fill="#D9D9D9" fill-opacity="0.01"/>
<path d="M663 290V356H667V290H663Z" fill="url(#paint37_linear_228_4911)" mask="url(#path-76-inside-9_228_4911)"/>
<mask id="path-78-inside-10_228_4911" fill="white">
<path d="M665 290H673V356H665V290Z"/>
</mask>
<path d="M665 290H673V356H665V290Z" fill="#D9D9D9" fill-opacity="0.01"/>
<path d="M671 290V356H675V290H671Z" fill="url(#paint38_linear_228_4911)" mask="url(#path-78-inside-10_228_4911)"/>
<mask id="path-80-inside-11_228_4911" fill="white">
<path d="M673 290H681V356H673V290Z"/>
</mask>
<path d="M673 290H681V356H673V290Z" fill="#D9D9D9" fill-opacity="0.01"/>
<path d="M679 290V356H683V290H679Z" fill="url(#paint39_linear_228_4911)" mask="url(#path-80-inside-11_228_4911)"/>
<mask id="path-82-inside-12_228_4911" fill="white">
<path d="M681 290H689V356H681V290Z"/>
</mask>
<path d="M681 290H689V356H681V290Z" fill="#D9D9D9" fill-opacity="0.01"/>
<path d="M687 290V356H691V290H687Z" fill="url(#paint40_linear_228_4911)" mask="url(#path-82-inside-12_228_4911)"/>
<mask id="path-84-inside-13_228_4911" fill="white">
<path d="M689 290H697V356H689V290Z"/>
</mask>
<path d="M689 290H697V356H689V290Z" fill="#D9D9D9" fill-opacity="0.01"/>
<path d="M695 290V356H699V290H695Z" fill="url(#paint41_linear_228_4911)" mask="url(#path-84-inside-13_228_4911)"/>
<mask id="path-86-inside-14_228_4911" fill="white">
<path d="M697 290H705V356H697V290Z"/>
</mask>
<path d="M697 290H705V356H697V290Z" fill="#D9D9D9" fill-opacity="0.01"/>
<path d="M703 290V356H707V290H703Z" fill="url(#paint42_linear_228_4911)" mask="url(#path-86-inside-14_228_4911)"/>
<mask id="path-88-inside-15_228_4911" fill="white">
<path d="M705 290H713V356H705V290Z"/>
</mask>
<path d="M705 290H713V356H705V290Z" fill="#D9D9D9" fill-opacity="0.01"/>
<path d="M711 290V356H715V290H711Z" fill="url(#paint43_linear_228_4911)" mask="url(#path-88-inside-15_228_4911)"/>
<mask id="path-90-inside-16_228_4911" fill="white">
<path d="M713 290H721V356H713V290Z"/>
</mask>
<path d="M713 290H721V356H713V290Z" fill="#D9D9D9" fill-opacity="0.01"/>
<path d="M719 290V356H723V290H719Z" fill="url(#paint44_linear_228_4911)" mask="url(#path-90-inside-16_228_4911)"/>
<mask id="path-92-inside-17_228_4911" fill="white">
<path d="M721 290H729V356H721V290Z"/>
</mask>
<path d="M721 290H729V356H721V290Z" fill="#D9D9D9" fill-opacity="0.01"/>
<path d="M727 290V356H731V290H727Z" fill="url(#paint45_linear_228_4911)" mask="url(#path-92-inside-17_228_4911)"/>
<mask id="path-94-inside-18_228_4911" fill="white">
<path d="M729 290H737V356H729V290Z"/>
</mask>
<path d="M729 290H737V356H729V290Z" fill="#D9D9D9" fill-opacity="0.01"/>
<path d="M735 290V356H739V290H735Z" fill="url(#paint46_linear_228_4911)" mask="url(#path-94-inside-18_228_4911)"/>
<mask id="path-96-inside-19_228_4911" fill="white">
<path d="M737 290H745V356H737V290Z"/>
</mask>
<path d="M737 290H745V356H737V290Z" fill="#D9D9D9" fill-opacity="0.01"/>
<path d="M743 290V356H747V290H743Z" fill="url(#paint47_linear_228_4911)" mask="url(#path-96-inside-19_228_4911)"/>
<mask id="path-98-inside-20_228_4911" fill="white">
<path d="M745 290H753V356H745V290Z"/>
</mask>
<path d="M745 290H753V356H745V290Z" fill="#D9D9D9" fill-opacity="0.01"/>
<path d="M751 290V356H755V290H751Z" fill="url(#paint48_linear_228_4911)" mask="url(#path-98-inside-20_228_4911)"/>
<mask id="path-100-inside-21_228_4911" fill="white">
<path d="M753 290H761V356H753V290Z"/>
</mask>
<path d="M753 290H761V356H753V290Z" fill="#D9D9D9" fill-opacity="0.01"/>
<path d="M759 290V356H763V290H759Z" fill="url(#paint49_linear_228_4911)" mask="url(#path-100-inside-21_228_4911)"/>
<mask id="path-102-inside-22_228_4911" fill="white">
<path d="M761 290H769V356H761V290Z"/>
</mask>
<path d="M761 290H769V356H761V290Z" fill="#D9D9D9" fill-opacity="0.01"/>
<path d="M767 290V356H771V290H767Z" fill="url(#paint50_linear_228_4911)" mask="url(#path-102-inside-22_228_4911)"/>
<mask id="path-104-inside-23_228_4911" fill="white">
<path d="M769 290H777V356H769V290Z"/>
</mask>
<path d="M769 290H777V356H769V290Z" fill="#D9D9D9" fill-opacity="0.01"/>
<path d="M775 290V356H779V290H775Z" fill="url(#paint51_linear_228_4911)" mask="url(#path-104-inside-23_228_4911)"/>
<mask id="path-106-inside-24_228_4911" fill="white">
<path d="M777 290H785V356H777V290Z"/>
</mask>
<path d="M777 290H785V356H777V290Z" fill="#D9D9D9" fill-opacity="0.01"/>
<path d="M783 290V356H787V290H783Z" fill="url(#paint52_linear_228_4911)" mask="url(#path-106-inside-24_228_4911)"/>
<mask id="path-108-inside-25_228_4911" fill="white">
<path d="M785 290H793V356H785V290Z"/>
</mask>
<path d="M785 290H793V356H785V290Z" fill="#D9D9D9" fill-opacity="0.01"/>
<path d="M791 290V356H795V290H791Z" fill="url(#paint53_linear_228_4911)" mask="url(#path-108-inside-25_228_4911)"/>
<mask id="path-110-inside-26_228_4911" fill="white">
<path d="M793 290H801V356H793V290Z"/>
</mask>
<path d="M793 290H801V356H793V290Z" fill="#D9D9D9" fill-opacity="0.01"/>
<path d="M799 290V356H803V290H799Z" fill="url(#paint54_linear_228_4911)" mask="url(#path-110-inside-26_228_4911)"/>
<mask id="path-112-inside-27_228_4911" fill="white">
<path d="M801 290H809V356H801V290Z"/>
</mask>
<path d="M801 290H809V356H801V290Z" fill="#D9D9D9" fill-opacity="0.01"/>
<path d="M807 290V356H811V290H807Z" fill="url(#paint55_linear_228_4911)" mask="url(#path-112-inside-27_228_4911)"/>
<mask id="path-114-inside-28_228_4911" fill="white">
<path d="M809 290H817V356H809V290Z"/>
</mask>
<path d="M809 290H817V356H809V290Z" fill="#D9D9D9" fill-opacity="0.01"/>
<path d="M815 290V356H819V290H815Z" fill="url(#paint56_linear_228_4911)" mask="url(#path-114-inside-28_228_4911)"/>
<mask id="path-116-inside-29_228_4911" fill="white">
<path d="M817 290H825V356H817V290Z"/>
</mask>
<path d="M817 290H825V356H817V290Z" fill="#D9D9D9" fill-opacity="0.01"/>
<path d="M823 290V356H827V290H823Z" fill="url(#paint57_linear_228_4911)" mask="url(#path-116-inside-29_228_4911)"/>
<mask id="path-118-inside-30_228_4911" fill="white">
<path d="M825 290H833V356H825V290Z"/>
</mask>
<path d="M825 290H833V356H825V290Z" fill="#D9D9D9" fill-opacity="0.01"/>
<path d="M831 290V356H835V290H831Z" fill="url(#paint58_linear_228_4911)" mask="url(#path-118-inside-30_228_4911)"/>
</g>
<path d="M584 363H592V283H584V363Z" fill="#1B1C1F" stroke="black" stroke-width="2"/>
<path d="M768 315H776V335H768V315Z" fill="#121212" stroke="black" stroke-width="2"/>
<path d="M832 291V283H584V291H832Z" fill="#1B1C1F" stroke="black" stroke-width="2"/>
<path d="M824 291V283H720V291H824Z" fill="#2E2E2E" stroke="black" stroke-width="2"/>
<path d="M767.693 335L765.443 341H778.557L776.307 335H767.693Z" fill="#2E2E2E" stroke="black" stroke-width="2"/>
<path d="M688 307L772 251L856 307V299L772 239L688 299V307Z" fill="#2E2E2E" stroke="black" stroke-width="2"/>
<path d="M648 307L732 251H749L732 239L648 299V307Z" fill="#1B1C1F" stroke="black" stroke-width="2"/>
<path d="M571 307L655 251H672L655 239L571 299V307Z" fill="#1B1C1F" stroke="black" stroke-width="2"/>
<path d="M609 307L693 251H710L693 239L609 299V307Z" fill="#1B1C1F" stroke="black" stroke-width="2"/>
<path d="M718 249H714V247L710 245H693V242.5L629 289V297H650.5L718 249Z" fill="url(#paint59_linear_228_4911)" stroke="black" stroke-width="2"/>
<path d="M764 245L754 247L750 245H741L736 248H732L669 289V297H691.5L764 245Z" fill="#232D24" stroke="black" stroke-width="2"/>
<path d="M650 265H664V246H650V265Z" fill="#1B1C1F" stroke="black" stroke-width="2"/>
<path d="M650 265H656V246H650V265Z" fill="#1B1C1F" stroke="black" stroke-width="2"/>
<path d="M924.109 288.716L923.11 288.758L923.067 287.759L922.904 283.923L922.862 282.924L923.861 282.881L1132.67 274.001L1133.67 273.958L1133.71 274.957L1133.88 278.794L1133.92 279.793L1132.92 279.835L924.109 288.716Z" fill="#1F1F1F" stroke="black" stroke-width="2"/>
<path d="M1043.59 289.639L1042.59 289.681L1042.55 288.682L1042.39 284.846L1042.34 283.847L1043.34 283.804L1132.77 280.001L1133.77 279.958L1133.81 280.958L1133.97 284.794L1134.02 285.793L1133.02 285.835L1043.59 289.639Z" fill="#1F1F1F" stroke="black" stroke-width="2"/>
<path d="M1121 362H1120V361V275V274H1121H1125H1126V275V361V362H1125H1121Z" fill="#1F1F1F" stroke="black" stroke-width="2"/>
<path d="M1103 362H1101.78L1102.02 360.806L1119.02 274.806L1119.18 274H1120H1126H1127.22L1126.98 275.194L1109.98 361.194L1109.82 362H1109H1103Z" fill="#1F1F1F" stroke="black" stroke-width="2"/>
<path d="M1051 362H1050V361V275V274H1051H1056H1057V275V361V362H1056H1051Z" fill="#1F1F1F" stroke="black" stroke-width="2"/>
<path d="M987 362H986V361V275V274H987H992H993V275V361V362H992H987Z" fill="#1F1F1F" stroke="black" stroke-width="2"/>
<path d="M937 362H936.083L936.004 361.086L929.004 280.086L928.91 279H930H935H935.917L935.996 279.914L942.996 360.914L943.09 362H942H937Z" fill="#1F1F1F" stroke="black" stroke-width="2"/>
<path d="M-155 378V340.137L359.469 356L359.485 356H359.5H622H622.414L622.707 355.707L652.339 326.075L731.826 340.09L731.835 340.092L731.844 340.093L863 360.854V366V367H864H875H876V366V361H1011H1011.1L1011.21 360.978L1176.1 326H1216V349V350.016L1217.02 350L1905 339.016V359.034L1390.47 377L1390.47 377.001L876.969 392.938L876 392.968V393.938V397.938L742.026 398L359.552 378.001L359.526 378H359.5H-155Z" fill="#282020" stroke="black" stroke-width="2"/>
<rect x="571" y="361" width="10" height="37" fill="#252525" stroke="black" stroke-width="2"/>
<rect x="595" y="359" width="10" height="39" fill="#252525" stroke="black" stroke-width="2"/>
<rect x="619" y="359" width="10" height="39" fill="#252525" stroke="black" stroke-width="2"/>
<rect x="643" y="359" width="10" height="39" fill="#252525" stroke="black" stroke-width="2"/>
<path d="M668.175 359H667.167L667.167 360.008L667.167 397.008L667.167 398H668.159H675.158H676.166L676.166 396.992L676.166 359.992L676.166 359H675.174H668.175Z" fill="#252525" stroke="black" stroke-width="2"/>
<path d="M690 359H689V360V397V398H690H698H699L699 397V360V359H698H690Z" fill="#252525" stroke="black" stroke-width="2"/>
<path d="M712.019 358.849L711 358.83V359.849V397V398H712L720 398H721V397L721 360V359.019L720.019 359L712.019 358.849Z" fill="#252525" stroke="black" stroke-width="2"/>
<path d="M735.019 358.849L734 358.83V359.849V397V398H735L743 398H744V397L744 360V359.019L743.019 359L735.019 358.849Z" fill="#252525" stroke="black" stroke-width="2"/>
<rect x="560" y="367" width="5.99999" height="192" transform="rotate(-90 560 367)" fill="#252525" stroke="black" stroke-width="2"/>
<rect x="559.922" y="390.064" width="7.99999" height="191" transform="rotate(-88.2391 559.922 390.064)" fill="#252525" stroke="black" stroke-width="2"/>
<path opacity="0.1" d="M498 403L697.88 410.623V421.295H749.478L761 429.68L545.09 496" stroke="black" stroke-width="2"/>
<path d="M1175 397V379.907L1150.63 377.517L1121 388.202V397H1175Z" fill="#323730" stroke="black" stroke-width="2"/>
<path d="M1002 462L1024 474L1048 462V452H1015L1002 462Z" fill="#24261F" stroke="black" stroke-width="2"/>
<path d="M971 472L993 484L1017 472V462H984L971 472Z" fill="#34382C" stroke="black" stroke-width="2"/>
<path d="M1000 480L1022 468L1046 480V490H1013L1000 480Z" fill="#34382C" stroke="black" stroke-width="2"/>
<path d="M625 461V443.907L649.373 441.517L679 452.202V461H625Z" fill="#323730" stroke="black" stroke-width="2"/>
<path opacity="0.1" d="M1180.5 398H981V403H930V409L1134 452.5" stroke="black" stroke-width="2"/>
<rect opacity="0.5" x="942" y="459" width="2" height="5" fill="black"/>
<rect opacity="0.5" x="947" y="461" width="2" height="5" fill="black"/>
<rect opacity="0.5" x="956" y="463" width="2" height="5" fill="black"/>
<rect opacity="0.5" x="876" y="423" width="2" height="5" fill="black"/>
<rect width="2" height="5" transform="matrix(-1 0 0 1 784 431)" fill="black"/>
<rect width="2" height="5" transform="matrix(-1 0 0 1 778 431)" fill="black"/>
<rect width="2" height="5" transform="matrix(-1 0 0 1 772 431)" fill="black"/>
<rect width="2" height="5" transform="matrix(-1 0 0 1 850 398)" fill="black"/>
<path d="M879.263 448.806L885 443L881.199 463H859V455.381H861.675L862.801 444.613L865.708 453.968L868.645 443L875.423 453.968C876.477 450.849 879.263 443 879.263 443V448.806Z" fill="#B26D2E" stroke="#EBBB40" stroke-width="2"/>
<path d="M865.202 446.806L858.958 439.077L857.069 443.105L862.034 449.366L865.202 446.806Z" fill="#0B0B0B" stroke="black" stroke-width="2"/>
<path d="M856.178 453.065L850 449L854.094 463H878V456.677L874.229 456.395L873.906 450.129L870.776 456.677L864 442.5L860.314 456.677C859.179 454.495 856.178 449 856.178 449V453.065Z" fill="#DDB731" stroke="#E97E01" stroke-width="2"/>
<rect x="881" y="459" width="10" height="6" fill="#222222" stroke="black" stroke-width="2"/>
<rect x="853.244" y="462.429" width="30" height="3.60611" transform="rotate(-51.0652 853.244 462.429)" fill="#070707" stroke="black" stroke-width="2"/>
<path opacity="0.4" d="M931 466C931 449.026 924.257 432.747 912.255 420.745C900.253 408.743 883.974 402 867 402C850.026 402 833.747 408.743 821.745 420.745C809.743 432.747 803 449.026 803 466L867 466H931Z" fill="url(#paint60_radial_228_4911)"/>
<path d="M878.058 459.858L871.789 452.099L869.66 456.39L874.613 462.642L878.058 459.858Z" fill="#222222" stroke="black" stroke-width="2"/>
<rect x="871" y="459" width="10" height="6" fill="#222222" stroke="black" stroke-width="2"/>
<rect x="845" y="459" width="10" height="6" fill="#222222" stroke="black" stroke-width="2"/>
<rect x="866" y="463" width="4" height="7" fill="#070707" stroke="black" stroke-width="2"/>
<rect x="860" y="459" width="4" height="7" fill="#070707" stroke="black" stroke-width="2"/>
<rect x="854" y="464" width="4" height="4" fill="#070707" stroke="black" stroke-width="2"/>
<rect x="839" y="463" width="8" height="2" fill="#222222" stroke="black" stroke-width="2"/>
<rect x="888" y="463" width="8" height="2" fill="#222222" stroke="black" stroke-width="2"/>
<rect x="883" y="465" width="8" height="2" fill="#222222" stroke="black" stroke-width="2"/>
<path d="M817.5 355.5L863.5 408.5L866.5 414.5V436.5L870 424L886 408.5L866.5 367L905.5 360.5C913.5 351.667 929.9 333.5 931.5 331.5C933.1 329.5 960.5 310.333 974 301V281L905.5 252.5L952 225L1030 281L1276 270.5L1030 -259L949 136L829.5 209V270.5L892.5 281L886 331.5L817.5 355.5Z" fill="url(#paint61_linear_228_4911)"/>
<path d="M879.5 441.5V427.5L892.5 408.5L886 424L889 445.5L866.5 453L879.5 441.5Z" fill="url(#paint62_linear_228_4911)"/>
<path opacity="0.2" d="M871 471V466H882V468L925 489V494H882L880.5 484L871 471Z" fill="url(#paint63_linear_228_4911)"/>
<path opacity="0.2" d="M865 471V467H859L854 474H850V478H851L838 500H864V477H860.5L864 471H865Z" fill="url(#paint64_linear_228_4911)"/>
<path d="M1241 567.063L1241.03 566.594L1240.69 566.272L1155.42 485.966L1182.21 458.223L1193.55 463.894L1196.18 465.206L1194.9 462.565L1137.96 344.683L1107.98 187.812L1107.9 187.36L1107.5 187.132L1062 161.132L1061.67 160.948L1061.31 161.018L991.809 174.518L991.616 174.556L991.452 174.664L946.634 204.044L913.85 209.011L913.352 209.087L913.116 209.532L895.398 243H894.529L907.916 212.401L906.224 211.369L880.524 243H842V242.959L877.042 241.499L877.522 241.479L877.807 241.091L903.587 205.891L942.225 196.974L942.421 196.929L942.584 196.812L971.084 176.312L973.148 174.827L970.626 174.508L887.626 164.008L887.118 163.944L886.769 164.317L865.461 187.112L824.818 198.454L862.813 185.95L863.138 185.843L863.329 185.559L878.829 162.559L880.736 159.729L877.604 161.082L831.948 180.797L881.198 154.03L982.383 165.993L982.591 166.018L982.791 165.957L1045.29 146.957L1047.16 146.388L1045.61 145.204L1020.61 126.204L1020.41 126.052L1020.16 126.013L982.846 120.043L937.51 93.14L937.23 92.9735L936.905 93.0045L869.044 99.4912L823.182 91.0166L823.065 90.9952L822.947 91.0014L748 94.946V92.9316L817.571 87.9975L819.622 87.8521L818.241 86.3285L805.256 72H806.095L822.304 87.7179L822.549 87.9561L822.89 87.9939L867.89 92.9939L868.026 93.009L868.161 92.9869L923.161 83.9869L926.212 83.4878L923.447 82.1056L877.737 59.2503L819.65 -52H821.91L880.124 53.4832L880.3 53.8006L880.638 53.932L925.638 71.432L927.684 72.2278L926.941 70.1617L910.941 25.6617L910.901 25.5514L910.837 25.4532L879.847 -22H880.49L915.624 26.4959L936.08 74.3928L936.21 74.6974L936.497 74.8641L981.997 101.364L982.23 101.5H982.5H1019.71L1089.96 146.84L1090.21 147H1090.5H1103.5H1105.23L1104.37 145.502L1011.87 -15.4982L1011.76 -15.6786L1011.6 -15.8026L902.596 -96.8026L902.448 -96.9132L902.269 -96.9631L809.269 -122.963L809.073 -123.018L808.87 -122.992L631.301 -99.7915L809 -139.975L892.779 -121.025L894.351 -120.669L893.972 -122.235L874.972 -200.735L874.931 -200.903L874.837 -201.047L800.395 -314.874L892.121 -199.998L922.066 -121.643L922.17 -121.37L922.405 -121.196L1030.4 -41.1964L1032 -40.0148V-42V-90V-90.1248L1031.97 -90.2458L1001.8 -209.192L1041.06 -101.657L1041.5 -100.441L1042.57 -101.178L1149.74 -175.31L1050.38 -96.7846L1049.96 -96.4522L1050 -95.9181L1056 -22.9181L1056.02 -22.6798L1056.15 -22.4762L1147.11 125.46L1181.08 205.391L1181.74 206.94L1182.78 205.621L1270.78 94.6212L1270.87 94.5084L1270.93 94.3749L1325.93 -41.6251L1326.32 -42.6007L1325.33 -42.945L1181.95 -92.5755L1324.82 -66.0168L1326.72 -65.6632L1325.91 -67.4196L1298.56 -126.581L1329.32 -233.112L1315.51 -126.629L1315.45 -126.214L1315.71 -125.884L1361.9 -66.7779L1324.03 73.7398L1325.78 74.6236L1396.4 -13.8951L1524.8 12.9788L1525.15 13.0539L1525.48 12.8793L1627.42 -42.3411L1524.75 26.9592L1403.13 11.0085L1402.56 10.9337L1402.21 11.3888L1324.21 112.389L1324.2 112.397L1324.2 112.406L1203.2 276.406L1202.88 276.835L1203.06 277.336L1218.06 319.336L1218.1 319.454L1218.17 319.557L1371.08 547.423L1468.69 900H1220.06L1241 567.063Z" fill="#151515" stroke="black" stroke-width="2"/>
<path d="M19.8854 643.982L19.8359 643.496L20.1885 643.158L113.691 553.593L81.0378 506.565L80.7048 506.086L80.9587 505.56L156.463 349.231L196.207 141.206L196.293 140.754L196.693 140.525L257.009 106.054L257.331 105.87L257.696 105.94L349.827 123.839L350.098 123.892L350.303 124.075L393.833 162.994L469.108 175.541L469.943 175.681V176.528V201.869L477.261 176.253L477.823 174.287L479.03 175.937L520.731 232.954L483.552 168.147L400.494 152.984L400.136 152.918L399.904 152.638L377.368 125.459L376.253 124.114L377.977 123.834L488.004 105.935L488.447 105.863L488.796 106.146L546.211 152.803L500.059 107.637L501.03 105.96L541.402 117.348L496.612 96.0166L362.347 111.893L362.154 111.915L361.966 111.864L284.417 90.6508L281.979 89.984L284.213 88.8023L422.079 15.882L422.479 15.6704L422.902 15.8314L530.941 56.9319L531.198 57.0297L531.369 57.2451L601.418 145.556L547.774 53.9973L440.676 3.08511L438.397 2.00204L440.799 1.22995L477.561 -10.5881L567.367 -158.731L469.751 -25.0705L469.451 -24.6603H468.943H441.105H439.496L440.208 -26.1032L482.185 -111.068L423.412 -9.25046L423.237 -8.94748L422.912 -8.81958L206.834 76.0331L204.159 77.0834L205.604 74.5995L323.585 -128.251L323.688 -128.429L323.853 -128.551L468.347 -235.943L468.496 -236.054L468.674 -236.103L591.64 -270.486L726.893 -444.241L592.973 -294.137L592.76 -293.898L592.448 -293.827L481.095 -268.636L479.523 -268.281L479.902 -269.847L504.79 -372.689H481.562L442.039 -269.255L441.935 -268.982L441.7 -268.808L298.532 -162.742L296.937 -161.561V-163.546V-227.185V-227.31L296.968 -227.431L338.532 -391.339L284.294 -242.752L283.851 -241.536L282.786 -242.273L132.305 -346.38L272.044 -235.925L272.465 -235.593L272.421 -235.058L264.467 -138.273L264.448 -138.035L264.322 -137.832L143.729 58.3265L98.6871 164.323L98.0288 165.873L96.9832 164.554L-19.6723 17.3872L-19.7618 17.2744L-19.8157 17.1409L-92.7254 -163.171L-93.1199 -164.147L-92.1255 -164.491L102.052 -231.716L-91.6155 -195.708L-93.5177 -195.355L-92.7061 -197.111L-56.4077 -275.659L-98.3977 -421.124L-79.5388 -275.707L-79.485 -275.292L-79.7426 -274.962L-141.077 -196.469L-90.8328 -10.0106L-92.5801 -9.12683L-186.316 -126.644L-356.72 -90.9727L-357.078 -90.8976L-357.401 -91.0722L-498.423 -167.471L-356.679 -71.7791L-195.328 -92.943L-194.757 -93.0177L-194.406 -92.5626L-91.0068 41.3455L-91.0001 41.3542L-90.9936 41.363L69.4077 258.798L69.7238 259.227L69.5447 259.728L49.6602 315.413L49.6183 315.53L49.5488 315.633L-153.155 617.746L-205.936 916H47.6113L19.8854 643.982Z" fill="#151515" stroke="black" stroke-width="2"/>
<path d="M1423 545.852L1495.64 838.228V923H1864.06V879.749L1890 817.468L1812.17 879.749L1883.08 763.837L1727.41 864.179L1812.17 703.285L1656.5 853.798L1812.17 606.403L1611.53 853.798L1694.55 526.821L1573.48 864.179L1611.53 468L1547.53 864.179L1533.7 468L1511.21 817.468L1423 545.852Z" fill="black"/>
<path d="M1280 473.852L1352.64 766.228V851H1721.06V807.749L1747 745.468L1669.17 807.749L1740.08 691.837L1584.41 792.179L1669.17 631.285L1513.5 781.798L1669.17 534.403L1468.53 781.798L1551.55 454.821L1430.48 792.179L1468.53 396L1404.53 792.179L1390.7 396L1368.21 745.468L1280 473.852Z" fill="black"/>
<path d="M1361 693.12L1361 790.118V838H992.921V813.57L967 778.392L1044.76 813.57L973.912 748.099L1129.44 804.776L1044.76 713.897L1200.29 798.913L1044.76 659.175L1245.22 798.913L1162.27 614.224L1283.24 804.776L1245.22 581L1309.16 804.776L1322.98 581L1345.45 778.392L1361 693.12Z" fill="black"/>
<path d="M951.447 778.392L994.5 732L967 838H598.921V813.57L573 778.392L650.763 813.57L579.912 748.099L735.439 804.776L650.763 713.897L806.289 798.913L650.763 659.175L851.219 798.913L768.272 614.224L889.237 804.776L851.219 701L915.158 804.776L928.982 701L951.447 778.392Z" fill="black"/>
<path d="M133 536.852L205.644 829.228V914H574.056V870.749L600 808.468L522.167 870.749L593.081 754.837L437.415 855.179L522.167 694.285L366.5 844.798L522.167 597.403L321.53 844.798L404.552 517.821L283.478 855.179L321.53 459L257.533 855.179L243.696 459L221.211 808.468L133 536.852Z" fill="black"/>
<path d="M-85 536.852L-12.3556 829.228V914H356.056V870.749L382 808.468L304.167 870.749L375.081 754.837L219.415 855.179L304.167 694.285L148.5 844.798L304.167 597.403L103.53 844.798L186.552 517.821L65.4778 855.179L103.53 459L39.5333 855.179L25.6963 459L3.21111 808.468L-85 536.852Z" fill="black"/>
<path d="M977.5 59L969 62L961.5 68H967.5L969 96L977.5 99L975 125L991.5 130.5L981.5 93.5L988 76.5L977.5 59Z" fill="#201F1F" stroke="black" stroke-width="2"/>
<g opacity="0.2">
<rect x="744" y="3" width="2" height="2" fill="#D9D9D9"/>
<rect x="792" y="51" width="2" height="2" fill="#D9D9D9"/>
<rect x="840" y="99" width="2" height="2" fill="#D9D9D9"/>
<rect x="768" y="99" width="2" height="2" fill="#D9D9D9"/>
<rect x="816" y="147" width="2" height="2" fill="#D9D9D9"/>
<rect x="864" y="195" width="2" height="2" fill="#D9D9D9"/>
<rect x="840" y="27" width="2" height="2" fill="#D9D9D9"/>
<rect x="888" y="75" width="2" height="2" fill="#D9D9D9"/>
<rect x="936" y="123" width="2" height="2" fill="#D9D9D9"/>
<rect x="864" y="123" width="2" height="2" fill="#D9D9D9"/>
<rect x="912" y="171" width="2" height="2" fill="#D9D9D9"/>
<rect x="960" y="219" width="2" height="2" fill="#D9D9D9"/>
<rect x="768" y="219" width="2" height="2" fill="#D9D9D9"/>
<rect x="816" y="267" width="2" height="2" fill="#D9D9D9"/>
<rect x="864" y="315" width="2" height="2" fill="#D9D9D9"/>
<rect x="600" y="195" width="2" height="2" fill="#D9D9D9"/>
<rect x="648" y="243" width="2" height="2" fill="#D9D9D9"/>
<rect x="696" y="291" width="2" height="2" fill="#D9D9D9"/>
<rect x="696" y="267" width="2" height="2" fill="#D9D9D9"/>
<rect x="744" y="315" width="2" height="2" fill="#D9D9D9"/>
<rect x="792" y="363" width="2" height="2" fill="#D9D9D9"/>
<rect x="600" y="195" width="2" height="2" fill="#D9D9D9"/>
<rect x="648" y="243" width="2" height="2" fill="#D9D9D9"/>
<rect x="696" y="291" width="2" height="2" fill="#D9D9D9"/>
<rect x="912" y="291" width="2" height="2" fill="#D9D9D9"/>
<rect x="960" y="339" width="2" height="2" fill="#D9D9D9"/>
<rect x="1008" y="387" width="2" height="2" fill="#D9D9D9"/>
<rect x="960" y="51" width="2" height="2" fill="#D9D9D9"/>
<rect x="1008" y="99" width="2" height="2" fill="#D9D9D9"/>
<rect x="1056" y="147" width="2" height="2" fill="#D9D9D9"/>
</g>
<rect x="-333" y="832" width="1829" height="99" fill="black"/>
</g>
<defs>
<linearGradient id="paint0_linear_228_4911" x1="871" y1="-287" x2="871" y2="361" gradientUnits="userSpaceOnUse">
<stop stop-color="#334456"/>
<stop offset="1" stop-color="#484B4E"/>
</linearGradient>
<linearGradient id="paint1_linear_228_4911" x1="740" y1="43" x2="740" y2="83" gradientUnits="userSpaceOnUse">
<stop stop-color="#D2D1D0"/>
<stop offset="1" stop-color="#C1BCA1"/>
</linearGradient>
<linearGradient id="paint2_linear_228_4911" x1="635" y1="-67" x2="781" y2="118" gradientUnits="userSpaceOnUse">
<stop/>
<stop offset="1" stop-opacity="0"/>
</linearGradient>
<linearGradient id="paint3_linear_228_4911" x1="287" y1="-53" x2="743" y2="261" gradientUnits="userSpaceOnUse">
<stop/>
<stop offset="1" stop-opacity="0"/>
</linearGradient>
<linearGradient id="paint4_linear_228_4911" x1="1178" y1="65" x2="1178" y2="287" gradientUnits="userSpaceOnUse">
<stop/>
<stop offset="1" stop-opacity="0"/>
</linearGradient>
<linearGradient id="paint5_linear_228_4911" x1="591.75" y1="28.2223" x2="591.75" y2="170" gradientUnits="userSpaceOnUse">
<stop stop-color="white"/>
<stop offset="1" stop-color="white" stop-opacity="0"/>
</linearGradient>
<linearGradient id="paint6_linear_228_4911" x1="874.75" y1="-65" x2="874.75" y2="94.0002" gradientUnits="userSpaceOnUse">
<stop stop-color="white"/>
<stop offset="1" stop-color="white" stop-opacity="0"/>
</linearGradient>
<linearGradient id="paint7_linear_228_4911" x1="620.5" y1="102" x2="620.5" y2="289" gradientUnits="userSpaceOnUse">
<stop stop-color="white"/>
<stop offset="1" stop-color="white" stop-opacity="0"/>
</linearGradient>
<linearGradient id="paint8_linear_228_4911" x1="1402" y1="324" x2="1357.5" y2="324" gradientUnits="userSpaceOnUse">
<stop stop-color="#292F1F"/>
<stop offset="1" stop-color="#111416"/>
</linearGradient>
<linearGradient id="paint9_linear_228_4911" x1="1398" y1="312" x2="1354.45" y2="312" gradientUnits="userSpaceOnUse">
<stop stop-color="#292F1F"/>
<stop offset="1" stop-color="#111416"/>
</linearGradient>
<linearGradient id="paint10_linear_228_4911" x1="1385.5" y1="270" x2="1337.69" y2="270" gradientUnits="userSpaceOnUse">
<stop stop-color="#292F1F"/>
<stop offset="1" stop-color="#111416"/>
</linearGradient>
<linearGradient id="paint11_linear_228_4911" x1="1343.59" y1="261.859" x2="1378.97" y2="261.859" gradientUnits="userSpaceOnUse">
<stop stop-color="#323021"/>
<stop offset="1" stop-color="#1E2025"/>
</linearGradient>
<linearGradient id="paint12_linear_228_4911" x1="1346.04" y1="248.273" x2="1379.14" y2="248.273" gradientUnits="userSpaceOnUse">
<stop stop-color="#323021"/>
<stop offset="1" stop-color="#1E2025"/>
</linearGradient>
<linearGradient id="paint13_linear_228_4911" x1="1343.5" y1="326" x2="1308.5" y2="326" gradientUnits="userSpaceOnUse">
<stop stop-color="#323021"/>
<stop offset="1" stop-color="#1E2025"/>
</linearGradient>
<linearGradient id="paint14_linear_228_4911" x1="1341.07" y1="312.182" x2="1312.54" y2="312.182" gradientUnits="userSpaceOnUse">
<stop stop-color="#323021"/>
<stop offset="1" stop-color="#1E2025"/>
</linearGradient>
<linearGradient id="paint15_linear_228_4911" x1="1395" y1="300" x2="1353.81" y2="300" gradientUnits="userSpaceOnUse">
<stop stop-color="#292F1F"/>
<stop offset="1" stop-color="#111416"/>
</linearGradient>
<linearGradient id="paint16_linear_228_4911" x1="1391" y1="290" x2="1349.81" y2="290" gradientUnits="userSpaceOnUse">
<stop stop-color="#292F1F"/>
<stop offset="1" stop-color="#111416"/>
</linearGradient>
<linearGradient id="paint17_linear_228_4911" x1="1384.5" y1="280" x2="1345.68" y2="280" gradientUnits="userSpaceOnUse">
<stop stop-color="#292F1F"/>
<stop offset="1" stop-color="#111416"/>
</linearGradient>
<linearGradient id="paint18_linear_228_4911" x1="1375.76" y1="261.818" x2="1337.72" y2="261.818" gradientUnits="userSpaceOnUse">
<stop stop-color="#323021"/>
<stop offset="1" stop-color="#1E2025"/>
</linearGradient>
<linearGradient id="paint19_linear_228_4911" x1="1338" y1="248" x2="1373.03" y2="248" gradientUnits="userSpaceOnUse">
<stop stop-color="#292F1F"/>
<stop offset="1" stop-color="#111416"/>
</linearGradient>
<linearGradient id="paint20_linear_228_4911" x1="1346" y1="235" x2="1374.4" y2="235" gradientUnits="userSpaceOnUse">
<stop stop-color="#292F1F"/>
<stop offset="1" stop-color="#111416"/>
</linearGradient>
<linearGradient id="paint21_linear_228_4911" x1="1350" y1="225" x2="1367.99" y2="225" gradientUnits="userSpaceOnUse">
<stop stop-color="#292F1F"/>
<stop offset="1" stop-color="#111416"/>
</linearGradient>
<linearGradient id="paint22_linear_228_4911" x1="1372.32" y1="314.182" x2="1336.55" y2="314.182" gradientUnits="userSpaceOnUse">
<stop stop-color="#323021"/>
<stop offset="1" stop-color="#1E2025"/>
</linearGradient>
<linearGradient id="paint23_linear_228_4911" x1="1371.5" y1="332" x2="1336.5" y2="332" gradientUnits="userSpaceOnUse">
<stop stop-color="#323021"/>
<stop offset="1" stop-color="#1E2025"/>
</linearGradient>
<linearGradient id="paint24_linear_228_4911" x1="1352.13" y1="302" x2="1315.61" y2="302" gradientUnits="userSpaceOnUse">
<stop stop-color="#323021"/>
<stop offset="1" stop-color="#1E2025"/>
</linearGradient>
<linearGradient id="paint25_linear_228_4911" x1="1352.79" y1="291.909" x2="1323.12" y2="291.909" gradientUnits="userSpaceOnUse">
<stop stop-color="#323021"/>
<stop offset="1" stop-color="#1E2025"/>
</linearGradient>
<linearGradient id="paint26_linear_228_4911" x1="1353.72" y1="281.944" x2="1327.85" y2="281.944" gradientUnits="userSpaceOnUse">
<stop stop-color="#323021"/>
<stop offset="1" stop-color="#1E2025"/>
</linearGradient>
<linearGradient id="paint27_linear_228_4911" x1="1364" y1="272.182" x2="1329" y2="272.182" gradientUnits="userSpaceOnUse">
<stop stop-color="#323021"/>
<stop offset="1" stop-color="#1E2025"/>
</linearGradient>
<linearGradient id="paint28_linear_228_4911" x1="875" y1="378.486" x2="875" y2="917" gradientUnits="userSpaceOnUse">
<stop stop-color="#292929"/>
<stop offset="1" stop-color="#444941"/>
</linearGradient>
<linearGradient id="paint29_linear_228_4911" x1="597" y1="290" x2="597" y2="356" gradientUnits="userSpaceOnUse">
<stop/>
<stop offset="1" stop-opacity="0.4"/>
</linearGradient>
<linearGradient id="paint30_linear_228_4911" x1="605" y1="290" x2="605" y2="356" gradientUnits="userSpaceOnUse">
<stop/>
<stop offset="1" stop-opacity="0.4"/>
</linearGradient>
<linearGradient id="paint31_linear_228_4911" x1="613" y1="290" x2="613" y2="356" gradientUnits="userSpaceOnUse">
<stop/>
<stop offset="1" stop-opacity="0.4"/>
</linearGradient>
<linearGradient id="paint32_linear_228_4911" x1="621" y1="290" x2="621" y2="356" gradientUnits="userSpaceOnUse">
<stop/>
<stop offset="1" stop-opacity="0.4"/>
</linearGradient>
<linearGradient id="paint33_linear_228_4911" x1="629" y1="290" x2="629" y2="356" gradientUnits="userSpaceOnUse">
<stop/>
<stop offset="1" stop-opacity="0.4"/>
</linearGradient>
<linearGradient id="paint34_linear_228_4911" x1="637" y1="290" x2="637" y2="356" gradientUnits="userSpaceOnUse">
<stop/>
<stop offset="1" stop-opacity="0.4"/>
</linearGradient>
<linearGradient id="paint35_linear_228_4911" x1="645" y1="290" x2="645" y2="356" gradientUnits="userSpaceOnUse">
<stop/>
<stop offset="1" stop-opacity="0.4"/>
</linearGradient>
<linearGradient id="paint36_linear_228_4911" x1="653" y1="290" x2="653" y2="356" gradientUnits="userSpaceOnUse">
<stop/>
<stop offset="1" stop-opacity="0.4"/>
</linearGradient>
<linearGradient id="paint37_linear_228_4911" x1="661" y1="290" x2="661" y2="356" gradientUnits="userSpaceOnUse">
<stop/>
<stop offset="1" stop-opacity="0.4"/>
</linearGradient>
<linearGradient id="paint38_linear_228_4911" x1="669" y1="290" x2="669" y2="356" gradientUnits="userSpaceOnUse">
<stop/>
<stop offset="1" stop-opacity="0.4"/>
</linearGradient>
<linearGradient id="paint39_linear_228_4911" x1="677" y1="290" x2="677" y2="356" gradientUnits="userSpaceOnUse">
<stop/>
<stop offset="1" stop-opacity="0.4"/>
</linearGradient>
<linearGradient id="paint40_linear_228_4911" x1="685" y1="290" x2="685" y2="356" gradientUnits="userSpaceOnUse">
<stop/>
<stop offset="1" stop-opacity="0.4"/>
</linearGradient>
<linearGradient id="paint41_linear_228_4911" x1="693" y1="290" x2="693" y2="356" gradientUnits="userSpaceOnUse">
<stop/>
<stop offset="1" stop-opacity="0.4"/>
</linearGradient>
<linearGradient id="paint42_linear_228_4911" x1="701" y1="290" x2="701" y2="356" gradientUnits="userSpaceOnUse">
<stop/>
<stop offset="1" stop-opacity="0.4"/>
</linearGradient>
<linearGradient id="paint43_linear_228_4911" x1="709" y1="290" x2="709" y2="356" gradientUnits="userSpaceOnUse">
<stop/>
<stop offset="1" stop-opacity="0.4"/>
</linearGradient>
<linearGradient id="paint44_linear_228_4911" x1="717" y1="290" x2="717" y2="356" gradientUnits="userSpaceOnUse">
<stop/>
<stop offset="1" stop-opacity="0.4"/>
</linearGradient>
<linearGradient id="paint45_linear_228_4911" x1="725" y1="290" x2="725" y2="356" gradientUnits="userSpaceOnUse">
<stop/>
<stop offset="1" stop-opacity="0.4"/>
</linearGradient>
<linearGradient id="paint46_linear_228_4911" x1="733" y1="290" x2="733" y2="356" gradientUnits="userSpaceOnUse">
<stop/>
<stop offset="1" stop-opacity="0.4"/>
</linearGradient>
<linearGradient id="paint47_linear_228_4911" x1="741" y1="290" x2="741" y2="356" gradientUnits="userSpaceOnUse">
<stop/>
<stop offset="1" stop-opacity="0.4"/>
</linearGradient>
<linearGradient id="paint48_linear_228_4911" x1="749" y1="290" x2="749" y2="356" gradientUnits="userSpaceOnUse">
<stop/>
<stop offset="1" stop-opacity="0.4"/>
</linearGradient>
<linearGradient id="paint49_linear_228_4911" x1="757" y1="290" x2="757" y2="356" gradientUnits="userSpaceOnUse">
<stop/>
<stop offset="1" stop-opacity="0.4"/>
</linearGradient>
<linearGradient id="paint50_linear_228_4911" x1="765" y1="290" x2="765" y2="356" gradientUnits="userSpaceOnUse">
<stop/>
<stop offset="1" stop-opacity="0.4"/>
</linearGradient>
<linearGradient id="paint51_linear_228_4911" x1="773" y1="290" x2="773" y2="356" gradientUnits="userSpaceOnUse">
<stop/>
<stop offset="1" stop-opacity="0.4"/>
</linearGradient>
<linearGradient id="paint52_linear_228_4911" x1="781" y1="290" x2="781" y2="356" gradientUnits="userSpaceOnUse">
<stop/>
<stop offset="1" stop-opacity="0.4"/>
</linearGradient>
<linearGradient id="paint53_linear_228_4911" x1="789" y1="290" x2="789" y2="356" gradientUnits="userSpaceOnUse">
<stop/>
<stop offset="1" stop-opacity="0.4"/>
</linearGradient>
<linearGradient id="paint54_linear_228_4911" x1="797" y1="290" x2="797" y2="356" gradientUnits="userSpaceOnUse">
<stop/>
<stop offset="1" stop-opacity="0.4"/>
</linearGradient>
<linearGradient id="paint55_linear_228_4911" x1="805" y1="290" x2="805" y2="356" gradientUnits="userSpaceOnUse">
<stop/>
<stop offset="1" stop-opacity="0.4"/>
</linearGradient>
<linearGradient id="paint56_linear_228_4911" x1="813" y1="290" x2="813" y2="356" gradientUnits="userSpaceOnUse">
<stop/>
<stop offset="1" stop-opacity="0.4"/>
</linearGradient>
<linearGradient id="paint57_linear_228_4911" x1="821" y1="290" x2="821" y2="356" gradientUnits="userSpaceOnUse">
<stop/>
<stop offset="1" stop-opacity="0.4"/>
</linearGradient>
<linearGradient id="paint58_linear_228_4911" x1="829" y1="290" x2="829" y2="356" gradientUnits="userSpaceOnUse">
<stop/>
<stop offset="1" stop-opacity="0.4"/>
</linearGradient>
<linearGradient id="paint59_linear_228_4911" x1="673.5" y1="293" x2="673.5" y2="242.5" gradientUnits="userSpaceOnUse">
<stop stop-color="#232D24"/>
<stop offset="1" stop-color="#3C3729"/>
</linearGradient>
<radialGradient id="paint60_radial_228_4911" cx="0" cy="0" r="1" gradientUnits="userSpaceOnUse" gradientTransform="translate(867 466) rotate(90) scale(64)">
<stop stop-color="#FFA800"/>
<stop offset="1" stop-color="#FFA800" stop-opacity="0"/>
</radialGradient>
<linearGradient id="paint61_linear_228_4911" x1="954.5" y1="-77.9998" x2="954.5" y2="436.5" gradientUnits="userSpaceOnUse">
<stop stop-color="#D9D9D9" stop-opacity="0"/>
<stop offset="1" stop-color="#D9D9D9" stop-opacity="0.15"/>
</linearGradient>
<linearGradient id="paint62_linear_228_4911" x1="954.5" y1="-77.9998" x2="954.5" y2="436.5" gradientUnits="userSpaceOnUse">
<stop stop-color="#D9D9D9" stop-opacity="0"/>
<stop offset="1" stop-color="#D9D9D9" stop-opacity="0.15"/>
</linearGradient>
<linearGradient id="paint63_linear_228_4911" x1="897.25" y1="468" x2="897.25" y2="495" gradientUnits="userSpaceOnUse">
<stop stop-color="#FFA800"/>
<stop offset="1" stop-color="#FFA800" stop-opacity="0"/>
</linearGradient>
<linearGradient id="paint64_linear_228_4911" x1="849.595" y1="468" x2="849.595" y2="495" gradientUnits="userSpaceOnUse">
<stop stop-color="#FFA800"/>
<stop offset="1" stop-color="#FFA800" stop-opacity="0"/>
</linearGradient>
<clipPath id="clip0_228_4911">
<rect width="2000" height="848" fill="white" transform="translate(-160)"/>
</clipPath>
</defs>
</svg>
