<svg width="480" height="192" viewBox="0 0 480 192" fill="none" xmlns="http://www.w3.org/2000/svg">
<path d="M288 0C367.529 0 432 64.471 432 144V192H0V164C6.1857e-07 124.235 32.2355 92 72 92C111.765 92 144 124.235 144 164V144C144 64.471 208.471 0 288 0Z" fill="url(#paint0_linear_4472_97212)" fill-opacity="0.3"/>
<path d="M216 120C255.765 120 288 152.235 288 192H48C48 165.49 69.4903 144 96 144C117.968 144 136.488 158.759 142.189 178.901C148.349 145.391 177.709 120 213 120H216ZM336 144C362.51 144 384 165.49 384 192H288C288 165.49 309.49 144 336 144ZM456 144C469.255 144 480 154.745 480 168V192H432V168C432 154.745 442.745 144 456 144Z" fill="url(#paint1_linear_4472_97212)" fill-opacity="0.3"/>
<defs>
<linearGradient id="paint0_linear_4472_97212" x1="216.818" y1="-22" x2="216.818" y2="192" gradientUnits="userSpaceOnUse">
<stop stop-color="white"/>
<stop offset="1" stop-color="white" stop-opacity="0"/>
</linearGradient>
<linearGradient id="paint1_linear_4472_97212" x1="336.454" y1="96" x2="336.454" y2="192" gradientUnits="userSpaceOnUse">
<stop stop-color="white"/>
<stop offset="1" stop-color="white" stop-opacity="0"/>
</linearGradient>
</defs>
</svg>
