<svg width="48" height="24" viewBox="0 0 48 24" fill="none" xmlns="http://www.w3.org/2000/svg">
<path d="M19 20H21V24H19V20Z" fill="#6A7364"/>
<path d="M19 20H21V24H19V20Z" fill="black" fill-opacity="0.3"/>
<path d="M23 20H25V24H23V20Z" fill="#6A7364"/>
<path d="M23 20H25V24H23V20Z" fill="black" fill-opacity="0.3"/>
<path d="M31 20H33V24H31V20Z" fill="#6A7364"/>
<path d="M31 20H33V24H31V20Z" fill="black" fill-opacity="0.3"/>
<path d="M11 20H13V24H11V20Z" fill="#6A7364"/>
<path d="M11 20H13V24H11V20Z" fill="black" fill-opacity="0.3"/>
<rect x="11" y="18" width="2" height="2" fill="#FFE8A3"/>
<rect x="19" y="20" width="2" height="2" fill="#FFE8A3"/>
<rect x="21" y="22" width="2" height="2" fill="#FFE8A3"/>
<rect x="31" y="18" width="2" height="2" fill="#FFE8A3"/>
<rect x="29" y="16" width="2" height="2" fill="#FFE8A3"/>
</svg>
